<svg width="406" height="335" viewBox="0 0 1031 791" fill="none" xmlns="http://www.w3.org/2000/svg">
<path d="M414.085 12.4444C380.085 -15.5556 130.085 12.4444 130.085 12.4444C31.5274 23.4091 -5.91531 150.444 44.0847 150.444H94.0847C147.085 150.444 150.585 182.444 94.0847 182.444H44.0847C-5.91534 182.444 -21.4154 244.444 70.0847 244.444H192.085C239.585 244.444 242.085 314.944 192.085 315.944C142.085 316.944 47.5847 318.444 21.5847 318.444C-4.41529 318.444 -8.91529 371.944 19.0846 371.944C47.0846 371.944 86.8453 389.325 57.0847 393.944C27.3241 398.563 2.58469 384.944 2.58472 412.944C2.58475 440.944 25.5847 437.944 70.0847 437.944C114.585 437.944 113.585 484.444 70.0847 484.444H30.0847C-9.91529 484.444 -0.415339 568.445 30.0847 568.445H94.0847C118.585 568.445 112.585 608.445 94.0847 608.445H56.0847C15.5847 608.445 11.0847 695.444 56.0847 696.445C101.085 697.445 311.585 694.945 378.085 696.445C444.585 697.944 382.085 792.444 510.085 790.445C638.085 788.445 571.585 696.445 614.085 696.445C656.585 696.445 948.085 713.444 998.085 696.445C1048.08 679.445 1034.08 518.444 998.085 518.444H778.085C747.585 518.444 745.585 484.444 778.085 484.444H818.085C844.585 484.444 835.085 460.444 818.085 460.444H778.085C744.085 460.444 739.085 440.444 778.085 440.444H998.085C1040.08 440.444 1027.08 306.444 998.085 306.444H778.085C745.085 306.444 755.085 272.444 778.085 272.444H894.085C932.085 272.444 932.085 220.444 894.085 220.444H842.085C806.085 220.444 810.085 192.444 842.085 192.444H932.085C970.085 192.444 932.085 55.4443 894.085 32.4444C856.085 9.44454 544.085 16.4445 522.085 32.4444C500.085 48.4443 532.085 90.4444 478.085 90.4444H414.085C360.085 90.4444 448.085 40.4444 414.085 12.4444Z" fill="url(#paint0_linear_53_1089)"/>
<path d="M146.085 624.444L874.085 624.444" stroke="#5F5F74" stroke-width="6"/>
<path d="M401.585 215.444C402.719 228.109 403.757 235.178 408.585 242.944C392.355 246.305 383.891 246.815 373.085 238.444C377.243 228.185 378.103 218.337 379.585 202.444C385.085 208.444 393.085 214.444 401.585 215.444Z" fill="#EBBE8E"/>
<path d="M421.085 183.944C421.085 192.944 416.585 216.444 403.585 216.444C390.585 216.444 378.584 202.444 377.585 200.944C376.585 199.444 375.585 196.944 375.585 196.944C375.585 196.944 366.084 184.444 368.085 179.944C370.085 175.444 376.462 177.615 377.585 185.944L382.085 187.444C380.974 177.623 381.535 173.013 385.085 165.944C385.085 165.944 385.229 165.535 385.619 164.906C386.772 163.045 390.069 159.267 398.113 158.5C402.797 157.825 407.762 158.452 411.585 160.748C419.828 165.59 421.085 176.81 421.085 183.944Z" fill="#F5CAAA"/>
<path d="M345.585 583.444L343.085 597.944C349.406 604.552 353.691 605.08 361.585 604.944L364.585 586.444L345.585 583.444Z" fill="#EBBE8E"/>
<path d="M418.585 581.944L420.085 601.944C425.972 605.379 429.543 605.166 436.085 603.444V577.944L418.585 581.944Z" fill="#EBBE8E"/>
<path d="M443.585 480.944C443.585 456.944 423.585 365.944 423.585 365.944H400.085V419.444C399.128 440.546 397.854 452.36 394.085 473.444L410.085 586.944C425.416 587.636 432.881 586.21 443.585 579.944V480.944Z" fill="url(#paint1_linear_53_1089)"/>
<path d="M375.085 589.444L394.085 473.444C397.854 452.36 399.128 440.546 400.085 419.444V367.444C400.085 367.444 385.49 368.949 349.585 358.944C349.585 358.944 340.585 426.944 340.585 454.444V583.944C354.372 589.214 361.881 589.961 375.085 589.444Z" fill="url(#paint2_linear_53_1089)"/>
<path d="M342.085 402.944L339.085 386.944C344.918 386.104 347.722 387.222 352.085 391.444V402.944C356.204 406.731 356.982 408.932 356.585 412.944L356.603 413.149C357.563 423.994 358.047 429.463 352.085 432.444C346.085 435.444 340.767 428.944 336.585 419.444C336.753 410.454 337.679 406.489 342.085 402.944Z" fill="#EBBE8E"/>
<path d="M425.585 270.944C425.585 270.944 417.085 242.444 400.085 250.444C383.085 258.444 393.084 294.444 403.085 310.444C413.085 326.444 433.084 354.444 448.085 355.944C463.085 357.444 490.585 326.444 490.585 326.444C487.399 320.316 485.788 316.799 483.085 310.444C483.085 310.444 454.585 326.444 448.085 323.444C441.584 320.444 425.585 270.944 425.585 270.944Z" fill="url(#paint3_linear_53_1089)"/>
<path d="M408.585 242.444C424.697 285.104 428.993 315.128 428.085 367.444C396.265 373.497 378.334 372.274 346.085 357.944C346.496 293.497 349.085 256.444 373.585 237.444C384.085 244.944 391.085 245.944 408.585 242.444Z" fill="url(#paint4_linear_53_1089)"/>
<path d="M356.194 398.444C347.822 390.089 344.674 391.422 334.085 393.444C329.993 347.806 334.974 285.934 342.489 270.932C350.005 255.931 362.825 247.43 372.992 251.431C383.16 255.431 388.022 279.433 385.37 292.434C382.718 305.436 369.283 363.963 356.194 398.444Z" fill="url(#paint5_linear_53_1089)"/>
<path d="M403.585 158.444C388.085 157.444 385.085 165.944 385.085 165.944C384.889 160.132 383.697 158.031 379.085 156.944C374.473 155.857 372.585 156.944 372.585 156.944C372.723 150.892 374.585 145.944 379.085 142.944C383.585 139.944 399.085 137.947 408.585 139.944C419.085 142.152 424.585 150.944 426.585 156.944C429.585 165.944 425.086 176.939 421.085 183.944C421.085 174.944 419.085 159.444 403.585 158.444Z" fill="#00002E"/>
<path d="M421.085 183.944C421.085 174.944 419.085 159.444 403.585 158.444C388.085 157.444 385.085 165.944 385.085 165.944C384.889 160.132 383.697 158.031 379.085 156.944C374.473 155.857 372.585 156.944 372.585 156.944C372.723 150.892 374.585 145.944 379.085 142.944C383.585 139.944 399.085 137.947 408.585 139.944C419.085 142.152 424.585 150.944 426.585 156.944C429.585 165.944 425.086 176.939 421.085 183.944ZM421.085 183.944C421.085 172.444 417.35 164.209 411.585 160.748" stroke="#00002E"/>
<path d="M362.585 167.944C363.085 164.944 365.085 158.944 371.085 157.444C382.085 155.444 384.089 158.101 385.585 164.444C381.869 172.377 381.1 177.446 382.085 187.444L377.585 185.944C376.647 178.038 371.085 175.944 368.085 179.444C365.646 184.444 379.585 203.944 379.585 203.944C372.585 203.944 364.993 184.772 363.585 179.444C362.498 175.329 362.174 170.41 362.585 167.944Z" fill="#00002E" stroke="#00002E"/>
<path d="M337.085 597.444C333.599 603.855 330.585 613.944 331.585 616.944C332.585 619.944 353.585 623.944 353.585 623.944C371.577 629.959 387.585 631.444 397.085 627.944C399.183 627.171 398.585 619.444 395.585 616.944C392.585 614.444 382.085 612.944 382.085 612.944C374.317 610.67 362.585 602.444 362.585 602.444C354.585 607.444 349.351 604.006 341.585 595.444C339.717 595.167 338.717 595.523 337.085 597.444Z" fill="url(#paint6_linear_53_1089)"/>
<path d="M414.585 602.444C412.33 607.47 411.824 620.542 413.085 623.444C414.345 626.347 433.085 624.444 435.085 624.444C437.085 624.444 471.085 625.444 479.085 620.944C479.085 620.944 479.085 609.944 474.585 607.944C470.085 605.944 455.585 605.944 455.585 605.944C449.585 604.944 446.515 604.725 438.585 599.944C435.585 603.444 426.585 607.944 418.085 599.944C416.119 600.222 415.342 600.743 414.585 602.444Z" fill="url(#paint7_linear_53_1089)"/>
<rect x="235.727" y="319.676" width="58" height="9" rx="2" transform="rotate(-33.9214 235.727 319.676)" fill="#80809B"/>
<rect x="294.027" y="270.444" width="25.005" height="36.6646" rx="9" transform="rotate(56.0786 294.027 270.444)" fill="#2D2D64"/>
<path d="M238.085 306.944L241.687 304.597L253.687 324.296V348.995H248.687V324.296L238.085 306.944Z" fill="#2D2D64"/>
<path d="M195.085 337.444H313.085L303.085 370.444H205.085L195.085 337.444Z" fill="url(#paint8_linear_53_1089)"/>
<path d="M205.085 370.444H303.085L293.085 602.444H215.085L205.085 370.444Z" fill="url(#paint9_linear_53_1089)"/>
<rect x="205.085" y="602.444" width="98" height="12" fill="#F79855"/>
<path d="M205.085 614.444H303.085L293.085 639.444H215.085L205.085 614.444Z" fill="url(#paint10_linear_53_1089)"/>
<rect x="615.085" y="423.444" width="7" height="201" rx="3.5" fill="#80809B"/>
<path d="M529.772 426.582C529.95 424.801 531.448 423.444 533.238 423.444C535.298 423.444 536.908 425.222 536.704 427.272L517.397 621.306C517.22 623.088 515.721 624.444 513.931 624.444C511.871 624.444 510.262 622.666 510.466 620.617L529.772 426.582Z" fill="#80809B"/>
<path d="M697.466 427.272C697.262 425.222 698.871 423.444 700.931 423.444C702.721 423.444 704.22 424.801 704.397 426.582L723.704 620.617C723.908 622.666 722.298 624.444 720.238 624.444C718.448 624.444 716.95 623.088 716.772 621.306L697.466 427.272Z" fill="#80809B"/>
<path d="M490.085 411.444H744.085L724.085 436.444H510.085L490.085 411.444Z" fill="url(#paint11_linear_53_1089)"/>
<path fill-rule="evenodd" clip-rule="evenodd" d="M202.085 68.4443C191.039 68.4443 182.085 77.3986 182.085 88.4443V188.444C182.085 199.49 191.039 208.444 202.085 208.444H237.157C253.898 223.901 269.22 230.431 304.085 238.444C289.975 225.988 282.91 218.923 289.429 208.444H321.085C332.13 208.444 341.085 199.49 341.085 188.444V88.4443C341.085 77.3986 332.13 68.4443 321.085 68.4443H202.085Z" fill="white"/>
<path d="M197.085 171.457V104.439C197.085 93.3932 206.039 84.4443 217.085 84.4443H306.085C317.13 84.4443 326.085 93.3986 326.085 104.444V171.444C326.085 182.49 317.13 191.444 306.085 191.444H217.085C206.039 191.444 197.085 182.502 197.085 171.457Z" fill="url(#paint12_linear_53_1089)"/>
<path d="M213.085 177.444C213.085 177.444 227.085 143.444 241.085 142.444C255.085 141.444 259.085 160.444 273.085 157.444C287.085 154.444 304.085 110.444 304.085 110.444" stroke="#E59E9B" stroke-width="3" stroke-linecap="round"/>
<path d="M307.085 124.444C304.291 117.983 301.145 116.244 291.085 118.444C301.052 111.281 303.688 106.129 307.085 96.4443C305.894 107.974 305.503 114.301 307.085 124.444Z" fill="#E59E9B"/>
<path d="M211.085 98.4443V178.444H313.085" stroke="#9E9AB3" stroke-width="2" stroke-linecap="round"/>
<path d="M490.085 114.444C490.085 108.921 494.562 104.444 500.085 104.444H734.085C739.608 104.444 744.085 108.921 744.085 114.444V411.444H490.085V114.444Z" fill="white"/>
<path d="M533.085 154.444C533.085 151.683 535.323 149.444 538.085 149.444C540.846 149.444 543.085 151.683 543.085 154.444V291.444H533.085V154.444Z" fill="#BFCFF7"/>
<path d="M557.085 194.444C557.085 191.683 559.323 189.444 562.085 189.444C564.846 189.444 567.085 191.683 567.085 194.444V291.444H557.085V194.444Z" fill="#BFCFF7"/>
<path d="M581.085 181.444C581.085 178.683 583.323 176.444 586.085 176.444C588.846 176.444 591.085 178.683 591.085 181.444V291.444H581.085V181.444Z" fill="#BFCFF7"/>
<path d="M605.085 201.444C605.085 198.683 607.323 196.444 610.085 196.444C612.846 196.444 615.085 198.683 615.085 201.444V291.444H605.085V201.444Z" fill="#BFCFF7"/>
<path d="M629.085 224.444C629.085 221.683 631.323 219.444 634.085 219.444C636.846 219.444 639.085 221.683 639.085 224.444V291.444H629.085V224.444Z" fill="#BFCFF7"/>
<path d="M653.085 248.444C653.085 245.683 655.323 243.444 658.085 243.444C660.846 243.444 663.085 245.683 663.085 248.444V291.444H653.085V248.444Z" fill="#BFCFF7"/>
<path d="M677.085 236.444C677.085 233.683 679.323 231.444 682.085 231.444C684.846 231.444 687.085 233.683 687.085 236.444V291.444H677.085V236.444Z" fill="#BFCFF7"/>
<path d="M701.085 259.444C701.085 256.683 703.323 254.444 706.085 254.444C708.846 254.444 711.085 256.683 711.085 259.444V291.444H701.085V259.444Z" fill="#BFCFF7"/>
<path d="M522.085 135.444V291.444H712.085" stroke="#000038" stroke-opacity="0.5" stroke-linecap="round"/>
<rect x="522.085" y="311.444" width="190" height="10" fill="#000038" fill-opacity="0.15"/>
<rect x="523.085" y="331.444" width="41" height="3" fill="#000038" fill-opacity="0.15"/>
<circle cx="580.585" cy="332.944" r="4.5" fill="#BFCFF7"/>
<rect x="597.085" y="331.444" width="41" height="3" fill="#000038" fill-opacity="0.15"/>
<circle cx="654.585" cy="332.944" r="4.5" fill="#BFCFF7"/>
<rect x="671.085" y="331.444" width="41" height="3" fill="#000038" fill-opacity="0.15"/>
<rect x="522.085" y="377.444" width="190" height="13" fill="#000038" fill-opacity="0.15"/>
<rect x="565.085" y="347.444" width="30" height="20" fill="#BFCFF7"/>
<rect x="640.085" y="347.444" width="30" height="20" fill="#BFCFF7"/>
<rect x="523.085" y="347.444" width="30" height="5" fill="#000038" fill-opacity="0.15"/>
<rect x="523.085" y="362.444" width="30" height="5" fill="#000038" fill-opacity="0.15"/>
<rect x="604.085" y="347.444" width="24" height="5" fill="#000038" fill-opacity="0.15"/>
<rect x="604.085" y="362.444" width="24" height="5" fill="#000038" fill-opacity="0.15"/>
<rect x="681.085" y="347.444" width="30" height="5" fill="#000038" fill-opacity="0.15"/>
<rect x="681.085" y="362.444" width="30" height="5" fill="#000038" fill-opacity="0.15"/>
<rect x="126.085" y="490.444" width="4" height="170" fill="#00002E"/>
<path d="M116.085 490.444H120.085L110.085 660.444H106.085L116.085 490.444Z" fill="#00002E"/>
<rect x="171.085" y="490.444" width="4" height="170" fill="#00002E"/>
<path d="M181.085 490.444H185.085L195.085 660.444H191.085L181.085 490.444Z" fill="#00002E"/>
<rect x="106.085" y="481.444" width="89" height="10" fill="#E8A578"/>
<path d="M160.585 369.444C151.585 390.944 161.922 411.652 158.085 420.444H163.085C162.204 412.801 154.085 394.944 160.585 369.444Z" fill="#DD8142"/>
<path d="M163.035 343.602C155.041 356.815 158.15 380.946 158.15 380.946C158.15 380.946 169.697 379.873 177.063 370.139C184.428 360.405 192.145 327.668 192.145 327.668C192.145 327.668 171.03 330.389 163.035 343.602Z" fill="#92B559"/>
<path d="M149.585 373.444C144.585 398.944 149.585 420.944 149.585 420.944L144.585 423.444V390.944C144.585 372.444 156.085 339.444 156.085 339.444C156.085 339.444 154.585 347.944 149.585 373.444Z" fill="#DC8042"/>
<path d="M149.819 305.604C136.591 289.911 129.102 288.832 129.102 288.832C129.102 288.832 126.719 322.972 134.11 339.093C141.501 355.213 156.242 345.353 156.242 345.353C156.242 345.353 163.047 321.297 149.819 305.604Z" fill="#92B559"/>
<path d="M125.265 370.372C115.889 352.53 100.511 320.467 100.511 320.467C100.511 320.467 76.954 364.163 87.1707 386.537C97.3875 408.912 112.408 394.433 121.385 395.25C130.361 396.068 144.446 408.072 144.446 408.072C145.391 400.701 140.256 370.901 140.256 370.901C140.256 370.901 134.641 388.214 125.265 370.372Z" fill="#92B559"/>
<path d="M120.085 418.444H181.085V464.444C181.085 473.833 173.474 481.444 164.085 481.444H137.085C127.696 481.444 120.085 473.833 120.085 464.444V418.444Z" fill="url(#paint13_linear_53_1089)"/>
<path d="M503.085 316.444L487.085 323.944C484.504 320.78 483.26 318.706 482.085 313.444L498.085 304.444C499.381 297.913 503.085 294.444 508.085 291.944C512.085 290.444 516.789 291.311 520.085 294.444C524.585 293.444 528.574 293.405 531.585 294.444C534.596 295.484 537.918 299.444 534.585 304.444C530.585 310.444 522.649 316.283 503.085 316.444Z" fill="#EBBE8E"/>
<path d="M496.709 334.719L489.777 333.739L594.392 208.149L496.709 334.719Z" fill="#B4754D"/>
<defs>
<linearGradient id="paint0_linear_53_1089" x1="515.273" y1="0" x2="515.273" y2="790.476" gradientUnits="userSpaceOnUse">
<stop stop-color="#EBEFFF"/>
<stop offset="1" stop-color="#FEE4D3"/>
</linearGradient>
<linearGradient id="paint1_linear_53_1089" x1="394.501" y1="456.561" x2="436.959" y2="450.553" gradientUnits="userSpaceOnUse">
<stop offset="0.015625" stop-color="#184CD3"/>
<stop offset="0.635417" stop-color="#184CD3"/>
<stop offset="1" stop-color="#486FD5"/>
</linearGradient>
<linearGradient id="paint2_linear_53_1089" x1="341.085" y1="453.444" x2="395.085" y2="457.444" gradientUnits="userSpaceOnUse">
<stop offset="0.015625" stop-color="#184CD3"/>
<stop offset="0.635417" stop-color="#184CD3"/>
<stop offset="1" stop-color="#486FD5"/>
</linearGradient>
<linearGradient id="paint3_linear_53_1089" x1="390.913" y1="341.106" x2="458.331" y2="262.041" gradientUnits="userSpaceOnUse">
<stop stop-color="#2C60E7"/>
<stop offset="0.546875" stop-color="#4074FB"/>
<stop offset="1" stop-color="#95B2FF"/>
</linearGradient>
<linearGradient id="paint4_linear_53_1089" x1="346.085" y1="352.305" x2="428.548" y2="288.434" gradientUnits="userSpaceOnUse">
<stop stop-color="#2C60E7"/>
<stop offset="0.546875" stop-color="#4074FB"/>
<stop offset="1" stop-color="#95B2FF"/>
</linearGradient>
<linearGradient id="paint5_linear_53_1089" x1="331.438" y1="312.436" x2="388.785" y2="306.967" gradientUnits="userSpaceOnUse">
<stop stop-color="#2C60E7"/>
<stop offset="0.546875" stop-color="#4074FB"/>
<stop offset="1" stop-color="#95B2FF"/>
</linearGradient>
<linearGradient id="paint6_linear_53_1089" x1="370.085" y1="612.444" x2="359.085" y2="660.444" gradientUnits="userSpaceOnUse">
<stop stop-color="#F0F3FD"/>
<stop offset="1" stop-color="#9E9AB3"/>
<stop offset="1" stop-color="#F5EAEA"/>
</linearGradient>
<linearGradient id="paint7_linear_53_1089" x1="445.747" y1="599.944" x2="446.085" y2="685.444" gradientUnits="userSpaceOnUse">
<stop stop-color="#F0F3FD"/>
<stop offset="1" stop-color="#9E9AB3"/>
<stop offset="1" stop-color="#F5EAEA"/>
</linearGradient>
<linearGradient id="paint8_linear_53_1089" x1="254.085" y1="337.444" x2="254.085" y2="370.444" gradientUnits="userSpaceOnUse">
<stop stop-color="#F08541"/>
<stop offset="1" stop-color="#D98042"/>
</linearGradient>
<linearGradient id="paint9_linear_53_1089" x1="254.085" y1="370.444" x2="254.085" y2="602.444" gradientUnits="userSpaceOnUse">
<stop stop-color="#F08541"/>
<stop offset="1" stop-color="#E8A67B"/>
</linearGradient>
<linearGradient id="paint10_linear_53_1089" x1="254.085" y1="614.444" x2="254.085" y2="639.444" gradientUnits="userSpaceOnUse">
<stop stop-color="#EC8441"/>
<stop offset="1" stop-color="#DE8142"/>
</linearGradient>
<linearGradient id="paint11_linear_53_1089" x1="617.085" y1="411.444" x2="617.085" y2="436.444" gradientUnits="userSpaceOnUse">
<stop stop-color="#9895B0"/>
<stop offset="1" stop-color="#A5A0B6"/>
</linearGradient>
<linearGradient id="paint12_linear_53_1089" x1="261.585" y1="84.4443" x2="261.585" y2="191.444" gradientUnits="userSpaceOnUse">
<stop stop-color="white" stop-opacity="0.99"/>
<stop offset="1" stop-color="#ECEFFD"/>
</linearGradient>
<linearGradient id="paint13_linear_53_1089" x1="150.585" y1="418.444" x2="150.585" y2="481.444" gradientUnits="userSpaceOnUse">
<stop stop-color="#BFCFF7"/>
<stop offset="1" stop-color="#7898EA"/>
</linearGradient>
</defs>
</svg>
