<svg width="26" height="25" viewBox="0 0 26 25" fill="none" xmlns="http://www.w3.org/2000/svg">
<path d="M12.9999 25C12.8586 25 12.7172 24.9707 12.5852 24.9107C12.1492 24.712 1.88795 19.9534 0.242614 11.4787C-0.393386 8.20004 0.245288 5.00135 1.95062 2.92402C3.33062 1.24135 5.31456 0.346664 7.68923 0.334664C7.70123 0.334664 7.71323 0.334664 7.7239 0.334664C10.4332 0.334664 12.0853 1.87737 12.9986 3.1907C13.916 1.87204 15.5812 0.322664 18.3079 0.334664C20.6839 0.346664 22.6692 1.24135 24.0506 2.92402C25.7532 5.00002 26.3905 8.19867 25.7532 11.48C24.1105 19.9547 13.8479 24.7147 13.4119 24.9121C13.2826 24.9707 13.1413 25 12.9999 25ZM7.72259 2.33336C7.71459 2.33336 7.70797 2.33336 7.69997 2.33336C5.91597 2.34136 4.50267 2.96667 3.49733 4.192C2.16533 5.81467 1.68398 8.39602 2.20664 11.0974C3.47998 17.6627 11.1239 21.9293 12.9999 22.8867C14.8759 21.9293 22.5199 17.6627 23.7919 11.0974C24.3173 8.39469 23.8359 5.81334 22.5066 4.192C21.5013 2.968 20.0879 2.344 18.2999 2.33466C18.2919 2.33466 18.2839 2.33466 18.2773 2.33466C15.1146 2.33466 13.9934 5.50403 13.948 5.6387C13.8094 6.0427 13.4279 6.31733 13.0012 6.31733C12.9986 6.31733 12.9972 6.31733 12.9959 6.31733C12.5679 6.316 12.1866 6.04268 12.0506 5.63601C12.0066 5.50268 10.8839 2.33336 7.72259 2.33336Z" fill="white"/>
</svg>
