<svg width="1331" height="707" viewBox="0 0 1331 707" fill="none" xmlns="http://www.w3.org/2000/svg">
<path d="M290.234 26.9393C359.237 10.8221 536.89 -13.0506 764.678 8.74224C828.577 22.756 818.538 64.8634 867.296 64.8634H1048.32C1083.65 64.8634 1182.7 53.6609 1182.7 94.9579C1182.7 136.255 1142.51 128.967 1112.94 128.967C1083.37 128.967 1083.37 153.48 1112.94 153.48H1233.72C1288.24 153.48 1340.53 282.992 1286.01 282.992H1233.72C1211.22 282.992 1216.63 298.218 1233.5 298.218C1250.38 298.218 1296.96 292.345 1296.96 317.812C1296.96 343.279 1301.95 395.234 1233.5 395.234H1143.51C1106 395.234 1120.35 437.499 1158.79 437.499H1221.6C1223.49 437.605 1224.93 437.699 1226 437.779C1232.87 437.629 1247.62 437.499 1276.64 437.499C1379.89 437.499 1309.47 564.793 1264.42 564.793C1219.37 564.793 1226.53 563.574 1198.4 564.793C1170.27 566.012 1153 593.937 1188.63 593.937H1254.66C1285.57 593.937 1228.18 656.292 1199.61 656.292C1171.05 656.292 677.847 647.836 669.337 656.292C635.026 681.8 587.951 707.762 538.633 681.759C489.314 655.756 453.676 660.568 416.17 659.602C378.664 658.637 330.18 656.292 264.763 656.292C199.346 656.292 126.292 462.044 180.457 462.044H227.95C271.082 462.044 270.9 404.104 227.95 404.104H76.3986C40.8459 404.104 42.0235 351.403 76.3986 351.403H131.828C182.461 351.403 188.087 325.164 131.828 325.164H37.7568C-27.8882 325.164 -0.532529 211.532 63.2276 211.532H202.479C238.11 211.532 232.484 163.249 202.479 163.249H162.706C80.193 163.249 221.231 43.0565 290.234 26.9393Z" fill="url(#paint0_linear_165_3289)"/>
<path d="M961.779 404.657C955.966 417.041 952.211 420.71 945.249 425.473C950.762 431.192 954.234 433.818 961.779 436.494C964.674 427.101 967.581 422.119 978.31 414.453H988.106C1008.2 412.952 1034.64 396.698 1034.64 391.188C1034.64 386.902 1021.31 385.74 1011.98 388.739C1006.69 393.235 995.961 396.13 991.167 395.473C1010.15 391.188 996.065 385.677 984.432 388.739C977.303 390.615 974.024 392.412 967.289 393.025C964.245 393.301 961.153 396.558 961.779 404.657Z" fill="#EBBE8E"/>
<path d="M270.555 28.2904H800.759V301.351C800.759 314.877 789.794 325.841 776.269 325.841H295.045C281.52 325.841 270.555 314.877 270.555 301.351V28.2904Z" fill="white"/>
<path d="M252.188 33.1882V9.92289C252.188 5.18903 256.026 1.35147 260.759 1.35147H816.677C821.411 1.35147 825.248 5.18903 825.248 9.9229V33.1882C825.248 37.922 821.411 41.7596 816.677 41.7596H260.759C256.026 41.7596 252.188 37.922 252.188 33.1882Z" fill="#666785"/>
<circle cx="279.127" cy="20.9433" r="8.57142" fill="#EBEFFF"/>
<circle cx="308.514" cy="20.9433" r="8.57142" fill="#EBEFFF"/>
<circle cx="337.902" cy="20.9433" r="8.57142" fill="#EBEFFF"/>
<path d="M437.894 242.025V221.625H383.208V202.339L422.722 118.596H446.294L406.78 202.339H437.894V170.196H458.808V202.339H470.379V221.625H458.808V242.025H437.894ZM535.333 244.596C526.591 244.596 518.876 242.739 512.191 239.025C505.505 235.253 500.276 230.025 496.505 223.339C492.791 216.653 490.933 208.939 490.933 200.196V160.425C490.933 151.682 492.791 143.968 496.505 137.282C500.276 130.596 505.505 125.396 512.191 121.682C518.876 117.911 526.591 116.025 535.333 116.025C544.076 116.025 551.762 117.911 558.391 121.682C565.076 125.396 570.305 130.596 574.076 137.282C577.848 143.968 579.733 151.682 579.733 160.425V200.196C579.733 208.939 577.848 216.653 574.076 223.339C570.305 230.025 565.076 235.253 558.391 239.025C551.762 242.739 544.076 244.596 535.333 244.596ZM535.333 224.968C539.676 224.968 543.619 223.939 547.162 221.882C550.705 219.768 553.505 216.968 555.562 213.482C557.619 209.939 558.648 205.996 558.648 201.653V158.882C558.648 154.482 557.619 150.539 555.562 147.054C553.505 143.511 550.705 140.711 547.162 138.654C543.619 136.539 539.676 135.482 535.333 135.482C530.991 135.482 527.048 136.539 523.505 138.654C519.962 140.711 517.162 143.511 515.105 147.054C513.048 150.539 512.019 154.482 512.019 158.882V201.653C512.019 205.996 513.048 209.939 515.105 213.482C517.162 216.968 519.962 219.768 523.505 221.882C527.048 223.939 530.991 224.968 535.333 224.968ZM655.025 242.025V221.625H600.34V202.339L639.854 118.596H663.425L623.911 202.339H655.025V170.196H675.939V202.339H687.511V221.625H675.939V242.025H655.025Z" fill="#E28581"/>
<rect x="304.841" y="62.576" width="461.632" height="227.755" rx="24.4898" fill="url(#paint1_linear_165_3289)"/>
<rect x="315.861" y="596.453" width="839.999" height="22.0408" fill="#ED8441"/>
<rect x="356.27" y="618.493" width="759.183" height="88.1631" fill="url(#paint2_linear_165_3289)"/>
<path d="M418.353 413.539C407.965 434.635 396.917 443 363.48 448.795C394.738 474.31 415.198 483.467 456.196 491.895C493.83 460.351 509.327 434.405 530.482 378.567C490.562 410.724 466.497 420.702 418.353 413.539Z" fill="url(#paint3_linear_165_3289)"/>
<path d="M817.288 404.208C749.445 406.838 714.08 406.472 654.431 404.208C640.35 403.673 633.613 414.616 638.513 432.984C655.837 497.927 663.546 536.044 668.513 596.453H825.86C825.411 530.686 831.398 493.587 845.451 432.984C848.859 418.29 836.88 403.449 817.288 404.208Z" fill="url(#paint4_linear_165_3289)"/>
<path d="M796.473 521.759C788.689 551.735 787.028 571.317 787.901 596.453H708.922C708.919 572.661 705.14 553.948 693.003 526.657C684.962 508.019 683.368 497.094 683.82 477.065L687.493 426.861L721.167 414.004H756.677C770.758 417.065 774.432 415.841 791.575 421.351L796.473 483.8C798.875 500.231 798.963 508.599 796.473 521.759Z" fill="url(#paint5_linear_165_3289)"/>
<path d="M756.677 414.004C770.758 417.065 774.432 415.841 791.575 421.351L796.473 442.167C752.43 433.255 728.186 430.989 687.493 442.167V426.861L721.167 414.004H756.677Z" fill="url(#paint6_linear_165_3289)"/>
<path d="M822.187 480.127C807.528 475.832 802.042 476.796 796.472 483.8C789.179 457.623 787.769 443.847 791.575 421.351C808.717 426.861 857.202 451.664 898.105 460.535C920.318 444.205 928.682 434.495 942.799 417.065C951.888 428.797 957.829 433.323 969.125 439.719C969.125 439.719 921.983 496.657 907.289 496.045C892.595 495.433 856.987 489.613 822.187 480.127Z" fill="url(#paint7_linear_165_3289)"/>
<path d="M600.556 480.126C636.367 461.837 655.457 450.294 687.494 426.861C687.442 455.959 690.088 460.872 683.821 477.065C676.474 475.228 671.576 480.126 671.576 480.126C671.576 480.126 603.617 518.698 586.474 518.086C569.331 517.473 554.469 483.856 531.372 445.841C547.476 441.974 554.175 437.214 564.433 426.861C576.879 452.196 584.93 463.451 600.556 480.126Z" fill="url(#paint8_linear_165_3289)"/>
<path d="M541.779 411.555C547.593 423.939 551.348 427.608 558.31 432.371C552.796 438.09 549.325 440.716 541.779 443.392C538.885 433.999 535.978 429.017 525.249 421.351H515.453C495.363 419.849 468.922 403.596 468.922 398.086C468.922 393.8 482.253 392.637 491.575 395.637C496.867 400.133 507.598 403.028 512.392 402.371C493.412 398.086 507.494 392.575 519.126 395.637C526.256 397.513 529.535 399.31 536.269 399.923C539.313 400.199 542.406 403.456 541.779 411.555Z" fill="#EBBE8E"/>
<path d="M756.065 434.82C756.065 423.8 754.716 422.011 754.228 406.045C743.82 417.065 729.738 415.229 718.718 403.596C720.006 419.715 718.718 421.963 718.718 434.82C718.718 434.82 728.514 446.453 739.534 446.453C750.554 446.453 756.065 434.82 756.065 434.82Z" fill="#EBBE8E"/>
<path d="M764.024 388.902C760.962 395.637 753.615 414.616 738.309 414.616C723.003 414.616 710.146 395.637 706.473 388.902C702.799 382.167 700.962 361.963 700.962 355.229C700.962 348.494 707.085 319.106 734.024 319.718C760.962 320.331 768.922 349.718 768.922 353.392C768.922 357.066 767.085 382.167 764.024 388.902Z" fill="#F5CAAA"/>
<path d="M698.514 379.106C701.819 384.616 707.085 387.677 707.085 387.677C705.86 382.779 705.585 380.342 705.248 373.596C705.248 373.596 699.738 358.29 694.84 361.963C689.942 365.637 695.208 373.597 698.514 379.106Z" fill="#EBBE8E"/>
<path d="M769.534 380.943C767.232 384.004 763.412 387.678 763.412 387.678C765.368 379.221 764.299 375.444 764.636 368.698C764.636 368.698 775.044 360.126 777.493 363.188C779.942 366.249 771.836 377.882 769.534 380.943Z" fill="#EBBE8E"/>
<path d="M718.106 330.739C711.957 323.359 709.778 320.244 711.983 308.086C711.983 308.086 716.881 301.964 725.453 300.127C734.024 298.29 743.82 300.127 752.391 303.8C762.832 308.275 767.832 312.725 776.269 320.331C789.861 332.584 795.861 341.147 796.473 362.576C797.085 384.004 788.514 414.004 778.718 418.902C768.922 423.8 764.12 422.662 754.84 417.065L754.228 406.045L754.318 405.915C759.015 399.152 761.762 395.195 763.412 387.678C779.969 369.873 783.045 356.6 768.922 365.637C768.922 365.637 765.248 377.27 763.412 374.821C761.575 372.371 767.697 357.066 763.412 348.494C759.126 339.922 739.002 333.556 718.106 330.739Z" fill="#25254B"/>
<path d="M702.187 311.759C705.056 307.576 709.12 307.007 711.983 308.086C711.662 320.519 712.019 324.183 718.718 330.739C714.493 333.58 710.379 337.429 708.309 343.596C705.002 351.259 706.473 377.882 705.248 373.596C704.024 369.31 698.514 357.065 693.616 363.188C691.779 366.861 698.498 382.894 706.473 387.065C713.029 396.566 714.4 401.253 718.718 404.82L719.33 414.616C710.911 419.055 707.367 424.095 699.126 424.412C690.023 423.926 685.712 422.768 680.146 418.29C690.431 417.334 695.115 415.9 696.064 407.269C696.352 401.43 691.167 396.731 688.105 392.576C679.225 380.522 673.777 374.629 680.146 334.412C682.34 323.739 683.793 319.08 690.554 312.372C693.023 309.922 698.225 310.732 702.187 311.759Z" fill="#25254B"/>
<path d="M368.515 532.779C357.494 527.881 357.494 532.779 357.494 532.779L368.515 549.922C430.408 544 461.618 546.497 517.902 549.922L503.208 532.779C503.208 532.779 450.555 541.963 419.943 541.351C389.331 540.738 379.535 537.677 368.515 532.779Z" fill="url(#paint9_linear_165_3289)"/>
<path d="M358.152 559.714C358.122 559.717 358.106 559.718 358.106 559.718C358.106 559.718 358.122 559.717 358.152 559.714C358.742 559.667 364.939 559.103 366.066 556.044C366.644 554.474 366.066 551.759 366.066 551.759C366.066 551.759 401.576 548.698 427.29 548.698C453.004 548.698 532.596 551.759 532.596 551.759C532.596 551.759 521.576 556.044 512.392 556.044C503.208 556.044 512.392 563.391 512.392 563.391C512.392 563.391 467.698 556.044 437.086 556.044C407.016 556.044 359.816 559.589 358.152 559.714Z" fill="url(#paint10_linear_165_3289)"/>
<path d="M517.971 563.69C453.788 554.531 421.248 555.535 365.491 561.397C370.293 562.887 369.381 564.406 360.054 568.577C360.054 568.577 402.263 564.861 433.486 564.545C464.709 564.229 518.049 571.362 518.049 571.362C518.049 571.362 518.027 569.17 513.719 567.021C509.411 564.873 517.971 563.69 517.971 563.69Z" fill="url(#paint11_linear_165_3289)"/>
<path d="M365.453 569.514L354.433 571.963C392.964 570.154 399.739 571.963 422.392 571.963C445.045 571.963 496.195 576.771 522.187 579.31C518.515 576.497 519.011 575.541 525.249 575.024C491.237 569.199 471.351 567.099 434.024 565.84C405.341 565.398 389.948 565.842 365.453 569.514Z" fill="url(#paint12_linear_165_3289)"/>
<path d="M432.188 582.371C402.507 578.224 386.566 578.349 359.331 582.371C359.331 582.371 364.985 581.491 366.066 578.697C366.67 577.136 366.066 574.412 366.066 574.412C392.906 572.633 407.845 571.503 440.147 576.248C474.945 579.336 491.083 580.342 520.963 582.371C521.936 584.004 522.042 584.82 520.963 586.044C486.632 586.741 467.361 586.971 432.188 582.371Z" fill="url(#paint13_linear_165_3289)"/>
<path d="M364.228 584.208C359.99 589.125 360.457 591.352 371.575 593.391C386.174 587.558 394.678 586.963 410.147 588.493C452.777 591.927 476.758 593.135 519.738 593.391C534.946 592.606 533.179 591.226 527.085 588.493C476.848 588.743 449.877 585.944 402.187 579.922C386.019 579.839 377.236 580.165 364.228 584.208Z" fill="url(#paint14_linear_165_3289)"/>
<path d="M377.086 592.167C373.622 594.059 370.665 594.951 364.841 596.453H543.617C527.562 593.016 517.175 592.184 495.249 593.392C459.816 593.316 439.8 592.533 403.413 587.881C390.777 587.167 385.123 588.195 377.086 592.167Z" fill="url(#paint15_linear_165_3289)"/>
<path d="M651.961 583.077C621.934 580.303 584.588 580.659 584.588 580.659C584.588 580.659 595.714 591.574 615.917 591.381L738.972 590.206C726.17 589.886 722.635 588.008 727.847 579.291C727.847 579.291 681.989 585.852 651.961 583.077Z" fill="url(#paint16_linear_165_3289)"/>
<path d="M588.31 590.33C598.481 591.626 602.694 592.702 602.392 596.453H748.718C740.524 594.471 736.859 593.242 735.861 590.33C679.002 590.712 646.818 590.775 588.31 590.33Z" fill="url(#paint17_linear_165_3289)"/>
<path d="M607.29 566.453C664.599 573.475 694.325 572.605 745.045 566.453C690.522 559.228 663.858 551.48 631.78 522.983C584.322 529.226 557.758 526.268 510.556 504.616C542.61 533.389 561.239 548.989 607.29 566.453Z" fill="url(#paint18_linear_165_3289)"/>
<path d="M1114.84 270.127C1064.51 314.903 1035.39 338.007 974.024 358.29C983.802 328.93 979.991 309.173 962.391 270.127C1029.33 268.646 1064.61 263.094 1100.15 195.433C1095.65 237.072 1092.65 261.002 1114.84 270.127Z" fill="url(#paint19_linear_165_3289)"/>
<path d="M368.514 372.371C347.137 398.028 345.789 419.116 351.371 461.759C305.599 398.721 268.95 375.102 187.29 350.331C255.834 325.008 284.315 296.301 320.759 224.208C339.662 250.543 342.8 273.8 337.902 311.759C333.004 349.718 345.787 372.559 368.514 372.371Z" fill="url(#paint20_linear_165_3289)"/>
<path d="M994.227 461.759H988.575C982.702 516.412 978.804 544.289 969.737 584.527L974.76 587.881C984.005 538.611 987.5 511.005 994.227 461.759Z" fill="url(#paint21_linear_165_3289)" fill-opacity="0.5"/>
<path d="M947.085 481.963L941.575 489.922C959.037 528.882 968.036 550.528 981.371 588.494L985.044 582.371C969.689 550.182 961.456 527.135 947.085 481.963Z" fill="url(#paint22_linear_165_3289)"/>
<path fill-rule="evenodd" clip-rule="evenodd" d="M958.717 497.881C958.717 497.881 957.493 487.473 961.166 482.575C964.84 477.677 973.275 478.289 977.697 486.249C982.119 494.208 970.35 525.432 970.35 525.432C979.868 558.72 982.138 568.289 983.819 579.922L961.166 510.126C961.166 510.126 958.717 502.779 958.717 497.881ZM967.9 517.473C970.349 519.31 975.247 497.881 975.247 497.881C975.247 497.881 977.084 486.249 969.737 483.187C962.39 480.126 962.39 495.432 962.39 495.432C962.39 495.432 965.451 515.636 967.9 517.473Z" fill="url(#paint23_linear_165_3289)"/>
<path fill-rule="evenodd" clip-rule="evenodd" d="M956.744 499.058C956.744 499.058 951.517 489.974 945.647 488.235C939.776 486.496 931.815 487.075 933.476 499.572C935.138 512.069 963.846 528.109 963.846 528.109C976.067 560.502 979.954 569.535 985.545 579.874L962.084 510.346C962.084 510.346 959.666 502.989 956.744 499.058ZM961.063 520.259C960.193 523.195 944.024 510.127 944.024 510.127C944.024 510.127 934.444 500.436 938.514 493.596C942.584 486.756 953.82 502.167 953.82 502.167C953.82 502.167 961.932 517.324 961.063 520.259Z" fill="url(#paint24_linear_165_3289)"/>
<path d="M983.82 586.045H977.697L994.84 494.208L1002.19 489.31C991.418 525.293 987.021 546.276 983.82 586.045Z" fill="#000038" fill-opacity="0.5"/>
<path d="M953.82 538.902H995.453V585.432C995.453 591.518 990.519 596.452 984.433 596.452H964.841C958.754 596.452 953.82 591.518 953.82 585.432V538.902Z" fill="url(#paint25_linear_165_3289)"/>
<defs>
<linearGradient id="paint0_linear_165_3289" x1="665.016" y1="6.39708e-09" x2="664.904" y2="719.683" gradientUnits="userSpaceOnUse">
<stop stop-color="#EBEFFF"/>
<stop offset="1" stop-color="#E59E9B" stop-opacity="0"/>
</linearGradient>
<linearGradient id="paint1_linear_165_3289" x1="535.657" y1="62.576" x2="535.657" y2="290.331" gradientUnits="userSpaceOnUse">
<stop stop-color="white" stop-opacity="0"/>
<stop offset="1" stop-color="#ECEFFD" stop-opacity="0.47"/>
</linearGradient>
<linearGradient id="paint2_linear_165_3289" x1="735.861" y1="618.493" x2="735.861" y2="706.657" gradientUnits="userSpaceOnUse">
<stop stop-color="#C6733E"/>
<stop offset="1" stop-color="#F7A26C" stop-opacity="0"/>
</linearGradient>
<linearGradient id="paint3_linear_165_3289" x1="439.551" y1="386.142" x2="467.341" y2="491.475" gradientUnits="userSpaceOnUse">
<stop stop-color="#B6B2C9"/>
<stop offset="1" stop-color="white"/>
</linearGradient>
<linearGradient id="paint4_linear_165_3289" x1="741.982" y1="282.984" x2="741.826" y2="594.004" gradientUnits="userSpaceOnUse">
<stop stop-color="#D0D0D0"/>
<stop offset="1" stop-color="#9C98AE"/>
</linearGradient>
<linearGradient id="paint5_linear_165_3289" x1="740.759" y1="596.453" x2="738.79" y2="433.62" gradientUnits="userSpaceOnUse">
<stop stop-color="#2C60E7"/>
<stop offset="0.458647" stop-color="#4074FB"/>
<stop offset="1" stop-color="#95B2FF"/>
</linearGradient>
<linearGradient id="paint6_linear_165_3289" x1="741.983" y1="414.004" x2="742.412" y2="449.509" gradientUnits="userSpaceOnUse">
<stop stop-color="#5481F7"/>
<stop offset="1" stop-color="#8CACFF"/>
</linearGradient>
<linearGradient id="paint7_linear_165_3289" x1="789.523" y1="485.055" x2="820.921" y2="395.197" gradientUnits="userSpaceOnUse">
<stop stop-color="#2C60E7"/>
<stop offset="0.546875" stop-color="#4074FB"/>
<stop offset="1" stop-color="#95B2FF"/>
</linearGradient>
<linearGradient id="paint8_linear_165_3289" x1="688.107" y1="453.188" x2="612.206" y2="538.143" gradientUnits="userSpaceOnUse">
<stop stop-color="#2C60E7"/>
<stop offset="0.546875" stop-color="#4074FB"/>
<stop offset="1" stop-color="#95B2FF"/>
</linearGradient>
<linearGradient id="paint9_linear_165_3289" x1="412.77" y1="536.777" x2="414.447" y2="555.974" gradientUnits="userSpaceOnUse">
<stop stop-color="#B6B2C9"/>
<stop offset="1" stop-color="white"/>
</linearGradient>
<linearGradient id="paint10_linear_165_3289" x1="418.235" y1="553.393" x2="419.13" y2="568.051" gradientUnits="userSpaceOnUse">
<stop stop-color="#B6B2C9"/>
<stop offset="1" stop-color="white"/>
</linearGradient>
<linearGradient id="paint11_linear_165_3289" x1="414.421" y1="561.988" x2="415.65" y2="577.238" gradientUnits="userSpaceOnUse">
<stop stop-color="#B6B2C9"/>
<stop offset="1" stop-color="white"/>
</linearGradient>
<linearGradient id="paint12_linear_165_3289" x1="413.295" y1="570.05" x2="414.08" y2="583.631" gradientUnits="userSpaceOnUse">
<stop stop-color="#B6B2C9"/>
<stop offset="1" stop-color="white"/>
</linearGradient>
<linearGradient id="paint13_linear_165_3289" x1="415.294" y1="577.207" x2="416.112" y2="590.726" gradientUnits="userSpaceOnUse">
<stop stop-color="#B6B2C9"/>
<stop offset="1" stop-color="white"/>
</linearGradient>
<linearGradient id="paint14_linear_165_3289" x1="420.263" y1="584.22" x2="421.038" y2="597.672" gradientUnits="userSpaceOnUse">
<stop stop-color="#B6B2C9"/>
<stop offset="1" stop-color="white"/>
</linearGradient>
<linearGradient id="paint15_linear_165_3289" x1="426.446" y1="590.478" x2="426.759" y2="599.259" gradientUnits="userSpaceOnUse">
<stop stop-color="#B6B2C9"/>
<stop offset="1" stop-color="white"/>
</linearGradient>
<linearGradient id="paint16_linear_165_3289" x1="637.786" y1="583.673" x2="638.461" y2="594.672" gradientUnits="userSpaceOnUse">
<stop stop-color="#B6B2C9"/>
<stop offset="1" stop-color="white"/>
</linearGradient>
<linearGradient id="paint17_linear_165_3289" x1="643.586" y1="592.287" x2="643.755" y2="598.412" gradientUnits="userSpaceOnUse">
<stop stop-color="#B6B2C9"/>
<stop offset="1" stop-color="white"/>
</linearGradient>
<linearGradient id="paint18_linear_165_3289" x1="591.359" y1="525.959" x2="604.61" y2="590.088" gradientUnits="userSpaceOnUse">
<stop stop-color="#B6B2C9"/>
<stop offset="1" stop-color="white"/>
</linearGradient>
<linearGradient id="paint19_linear_165_3289" x1="1084.37" y1="275.977" x2="958.058" y2="296.389" gradientUnits="userSpaceOnUse">
<stop stop-color="#B6B2C9"/>
<stop offset="1" stop-color="white"/>
</linearGradient>
<linearGradient id="paint20_linear_165_3289" x1="249.739" y1="300.127" x2="368.514" y2="425.024" gradientUnits="userSpaceOnUse">
<stop stop-color="#B6B2C9"/>
<stop offset="1" stop-color="white"/>
</linearGradient>
<linearGradient id="paint21_linear_165_3289" x1="987.492" y1="463.596" x2="994.227" y2="463.596" gradientUnits="userSpaceOnUse">
<stop stop-color="#000038"/>
<stop offset="1" stop-color="#000038" stop-opacity="0"/>
</linearGradient>
<linearGradient id="paint22_linear_165_3289" x1="956.269" y1="515.637" x2="950.146" y2="474.004" gradientUnits="userSpaceOnUse">
<stop stop-color="#B07E5E"/>
<stop offset="1" stop-color="#F08541" stop-opacity="0"/>
</linearGradient>
<linearGradient id="paint23_linear_165_3289" x1="963.616" y1="523.596" x2="974.024" y2="482.575" gradientUnits="userSpaceOnUse">
<stop stop-color="#00002E"/>
<stop offset="1" stop-color="#00002E" stop-opacity="0.62"/>
</linearGradient>
<linearGradient id="paint24_linear_165_3289" x1="941.576" y1="512.576" x2="990.555" y2="502.78" gradientUnits="userSpaceOnUse">
<stop stop-color="#00002E"/>
<stop offset="1" stop-color="#AFAFC5"/>
</linearGradient>
<linearGradient id="paint25_linear_165_3289" x1="953.82" y1="538.902" x2="995.453" y2="538.902" gradientUnits="userSpaceOnUse">
<stop stop-color="#86A553"/>
<stop offset="1" stop-color="#A5B689"/>
</linearGradient>
</defs>
</svg>
