<svg width="1177" height="550" viewBox="0 0 1377 726" fill="none" xmlns="http://www.w3.org/2000/svg">
<path d="M760.987 9.00009C518.052 -13.5675 246.578 12.3099 172.987 29.0001C99.3955 45.6903 30.9868 169 118.987 169H286.987C318.987 169 324.987 219 286.987 219H64.9869C-3.01305 219 -17.013 309 64.9869 309H286.987C346.987 309 340.987 389 286.987 389H52.9869C-11.0131 389 -24.0131 468 52.9869 469C129.987 470 258.987 455 318.987 453C378.987 451 352.987 529 306.987 529H160.987C70.9868 529 104.987 684 172.987 683C240.987 682 350.987 682 390.987 683C430.987 684 484.389 678.073 536.987 705C589.585 731.927 614.394 731.414 650.987 705C660.062 696.243 1272.19 680.049 1306.99 683C1341.79 685.951 1356.99 615 1290.99 615H1110.99C1072.99 615 1080.99 558.263 1110.99 557C1140.99 555.738 1239.99 544 1306.99 545C1373.99 546 1354.99 467 1316.99 469C1278.99 471 1292.07 454.705 1260.99 453H1030.99C989.987 453 990.987 389 1030.99 389H1260.99C1333.99 389 1328.99 329 1290.99 329H1210.99C1192.99 329 1186.99 309 1210.99 309C1234.99 309 1230.99 293 1316.99 293C1402.99 293 1388.99 169 1316.99 169H1162.99C1092.99 169 1096.99 113 1162.99 113H1290.99C1342.99 113 1340.99 57.0001 1290.99 57.0001H846.987C794.987 57.0001 829.135 23.5121 760.987 9.00009Z" fill="url(#paint0_linear_86_1460)"/>
<path d="M900.487 388.366C895.739 398.48 892.673 401.476 886.987 405.366C891.49 410.037 894.325 412.181 900.487 414.366C902.851 406.696 905.225 402.627 913.987 396.366H921.987C938.394 395.14 959.987 381.866 959.987 377.367C959.987 373.867 949.101 372.917 941.487 375.366C937.165 379.039 928.402 381.403 924.487 380.866C939.987 377.367 928.487 372.866 918.987 375.366C913.164 376.899 910.487 378.367 904.987 378.867C902.501 379.093 899.975 381.753 900.487 388.366Z" fill="#EBBE8E"/>
<path d="M335.987 81H768.987V304C768.987 315.046 760.033 324 748.987 324H355.987C344.941 324 335.987 315.046 335.987 304V81Z" fill="white"/>
<path d="M320.987 85V66C320.987 62.134 324.121 59 327.987 59H781.987C785.853 59 788.987 62.134 788.987 66V85C788.987 88.866 785.853 92 781.987 92H327.987C324.121 92 320.987 88.866 320.987 85Z" fill="#A09CB4"/>
<circle cx="342.987" cy="75" r="7" fill="#EBEFFF"/>
<circle cx="366.987" cy="75" r="7" fill="#EBEFFF"/>
<circle cx="390.987" cy="75" r="7" fill="#EBEFFF"/>
<path d="M472.647 256V239.34H427.987V223.59L460.257 155.2H479.507L447.237 223.59H472.647V197.34H489.727V223.59H499.177V239.34H489.727V256H472.647ZM552.223 258.1C545.083 258.1 538.783 256.583 533.323 253.55C527.863 250.47 523.593 246.2 520.513 240.74C517.479 235.28 515.963 228.98 515.963 221.84V189.36C515.963 182.22 517.479 175.92 520.513 170.46C523.593 165 527.863 160.753 533.323 157.72C538.783 154.64 545.083 153.1 552.223 153.1C559.363 153.1 565.639 154.64 571.053 157.72C576.513 160.753 580.783 165 583.863 170.46C586.943 175.92 588.483 182.22 588.483 189.36V221.84C588.483 228.98 586.943 235.28 583.863 240.74C580.783 246.2 576.513 250.47 571.053 253.55C565.639 256.583 559.363 258.1 552.223 258.1ZM552.223 242.07C555.769 242.07 558.989 241.23 561.883 239.55C564.776 237.823 567.063 235.537 568.743 232.69C570.423 229.797 571.263 226.577 571.263 223.03V188.1C571.263 184.507 570.423 181.287 568.743 178.44C567.063 175.547 564.776 173.26 561.883 171.58C558.989 169.853 555.769 168.99 552.223 168.99C548.676 168.99 545.456 169.853 542.563 171.58C539.669 173.26 537.383 175.547 535.703 178.44C534.023 181.287 533.183 184.507 533.183 188.1V223.03C533.183 226.577 534.023 229.797 535.703 232.69C537.383 235.537 539.669 237.823 542.563 239.55C545.456 241.23 548.676 242.07 552.223 242.07ZM649.971 256V239.34H605.311V223.59L637.581 155.2H656.831L624.561 223.59H649.971V197.34H667.051V223.59H676.501V239.34H667.051V256H649.971Z" fill="#E79F9B"/>
<rect x="363.987" y="109" width="377" height="186" rx="20" fill="url(#paint1_linear_86_1460)"/>
<rect x="372.987" y="545" width="686" height="18" fill="#ED8441"/>
<rect x="405.987" y="563" width="620" height="72" fill="url(#paint2_linear_86_1460)"/>
<path d="M456.687 395.62C448.204 412.848 439.181 419.68 411.874 424.413C437.402 445.25 454.111 452.728 487.593 459.611C518.328 433.85 530.983 412.661 548.26 367.06C515.659 393.321 496.005 401.47 456.687 395.62Z" fill="url(#paint3_linear_86_1460)"/>
<path d="M782.487 388C727.082 390.148 698.2 389.849 649.487 388C637.987 387.563 632.485 396.5 636.487 411.5C650.635 464.537 656.931 495.666 660.987 545H789.487C789.12 491.29 794.01 460.993 805.487 411.5C808.27 399.5 798.487 387.38 782.487 388Z" fill="url(#paint4_linear_86_1460)"/>
<path d="M765.487 484C759.13 508.481 757.774 524.472 758.487 545H693.987C693.985 525.57 690.899 510.287 680.987 488C674.419 472.779 673.118 463.857 673.487 447.5L676.487 406.5L703.987 396H732.987C744.487 398.5 747.487 397.5 761.487 402L765.487 453C767.449 466.419 767.521 473.253 765.487 484Z" fill="url(#paint5_linear_86_1460)"/>
<path d="M732.987 396C744.487 398.5 747.487 397.5 761.487 402L765.487 419C729.519 411.721 709.719 409.871 676.487 419V406.5L703.987 396H732.987Z" fill="url(#paint6_linear_86_1460)"/>
<path d="M786.487 450C774.516 446.493 770.035 447.28 765.487 453C759.531 431.622 758.379 420.371 761.487 402C775.487 406.5 815.083 426.755 848.487 434C866.628 420.664 873.459 412.735 884.987 398.5C892.41 408.08 897.262 411.777 906.487 417C906.487 417 867.987 463.5 855.987 463C843.987 462.5 814.908 457.747 786.487 450Z" fill="url(#paint7_linear_86_1460)"/>
<path d="M605.487 450C634.733 435.064 650.323 425.637 676.487 406.5C676.444 430.264 678.605 434.275 673.487 447.5C667.487 446 663.487 450 663.487 450C663.487 450 607.987 481.5 593.987 481C579.987 480.5 567.849 453.046 548.987 422C562.138 418.842 567.609 414.955 575.987 406.5C586.151 427.19 592.726 436.382 605.487 450Z" fill="url(#paint8_linear_86_1460)"/>
<path d="M557.487 394C562.235 404.113 565.301 407.11 570.987 411C566.484 415.671 563.649 417.815 557.487 420C555.123 412.329 552.749 408.261 543.987 402H535.987C519.58 400.774 497.987 387.5 497.987 383C497.987 379.5 508.873 378.551 516.487 381C520.809 384.672 529.572 387.037 533.487 386.5C517.987 383 529.487 378.5 538.987 381C544.809 382.532 547.487 384 552.987 384.5C555.473 384.726 557.998 387.386 557.487 394Z" fill="#EBBE8E"/>
<path d="M732.487 413C732.487 404 731.385 402.539 730.987 389.5C722.487 398.5 710.987 397 701.987 387.5C703.039 400.664 701.987 402.5 701.987 413C701.987 413 709.987 422.5 718.987 422.5C727.987 422.5 732.487 413 732.487 413Z" fill="#EBBE8E"/>
<path d="M738.987 375.5C736.487 381 730.487 396.5 717.987 396.5C705.487 396.5 694.987 381 691.987 375.5C688.987 370 687.487 353.5 687.487 348C687.487 342.5 692.487 318.5 714.487 319C736.487 319.5 742.987 343.5 742.987 346.5C742.987 349.5 741.487 370 738.987 375.5Z" fill="#F5CAAA"/>
<path d="M685.487 367.5C688.186 372 692.487 374.5 692.487 374.5C691.486 370.5 691.262 368.509 690.987 363C690.987 363 686.487 350.5 682.487 353.5C678.487 356.5 682.787 363.001 685.487 367.5Z" fill="#EBBE8E"/>
<path d="M743.487 369C741.607 371.5 738.487 374.5 738.487 374.5C740.085 367.593 739.212 364.509 739.487 359C739.487 359 747.987 352 749.987 354.5C751.987 357 745.367 366.5 743.487 369Z" fill="#EBBE8E"/>
<path d="M701.487 328C696.465 321.973 694.686 319.43 696.487 309.5C696.487 309.5 700.487 304.5 707.487 303C714.487 301.5 722.487 303 729.487 306C738.013 309.655 742.097 313.289 748.987 319.5C760.087 329.507 764.987 336.5 765.487 354C765.986 371.5 758.987 396 750.987 400C742.987 404 739.065 403.071 731.487 398.5L730.987 389.5L731.06 389.394C734.896 383.871 737.14 380.64 738.487 374.5C752.008 359.959 754.521 349.12 742.987 356.5C742.987 356.5 739.987 366 738.487 364C736.987 362 741.987 349.5 738.487 342.5C734.987 335.5 718.552 330.301 701.487 328Z" fill="#00002E"/>
<path d="M688.487 312.5C690.83 309.083 694.148 308.619 696.487 309.5C696.225 319.654 696.517 322.646 701.987 328C698.537 330.32 695.177 333.464 693.487 338.5C690.786 344.758 691.987 366.5 690.987 363C689.987 359.5 685.487 349.5 681.487 354.5C679.987 357.5 685.474 370.593 691.987 374C697.341 381.759 698.461 385.587 701.987 388.5L702.487 396.5C695.612 400.125 692.717 404.241 685.987 404.5C678.553 404.103 675.032 403.157 670.487 399.5C678.886 398.72 682.711 397.549 683.487 390.5C683.722 385.731 679.487 381.893 676.987 378.5C669.734 368.656 665.285 363.844 670.487 331C672.278 322.284 673.465 318.478 678.987 313C681.003 311 685.252 311.661 688.487 312.5Z" fill="#00002E"/>
<path d="M415.987 493C406.987 489 406.987 493 406.987 493L415.987 507C466.533 502.164 492.022 504.202 537.987 507L525.987 493C525.987 493 482.987 500.5 457.987 500C432.987 499.5 424.987 497 415.987 493Z" fill="url(#paint9_linear_86_1460)"/>
<path d="M407.524 514.997C407.499 514.999 407.487 515 407.487 515C407.487 515 407.499 514.999 407.524 514.997C408.006 514.959 413.067 514.498 413.987 512C414.459 510.717 413.987 508.5 413.987 508.5C413.987 508.5 442.987 506 463.987 506C484.987 506 549.987 508.5 549.987 508.5C549.987 508.5 540.987 512 533.487 512C525.987 512 533.487 518 533.487 518C533.487 518 496.987 512 471.987 512C447.43 512 408.883 514.895 407.524 514.997Z" fill="url(#paint10_linear_86_1460)"/>
<path d="M538.043 518.243C485.627 510.764 459.052 511.584 413.518 516.371C417.44 517.588 416.694 518.829 409.077 522.235C409.077 522.235 443.548 519.2 469.047 518.942C494.546 518.684 538.107 524.509 538.107 524.509C538.107 524.509 538.089 522.719 534.571 520.964C531.053 519.209 538.043 518.243 538.043 518.243Z" fill="url(#paint11_linear_86_1460)"/>
<path d="M413.487 523L404.487 525C435.954 523.523 441.487 525 459.987 525C478.487 525 520.26 528.926 541.487 531C538.488 528.703 538.893 527.922 543.987 527.5C516.211 522.743 499.97 521.028 469.487 520C446.062 519.639 433.491 520.001 413.487 523Z" fill="url(#paint12_linear_86_1460)"/>
<path d="M467.987 533.5C443.747 530.113 430.729 530.216 408.487 533.5C408.487 533.5 413.104 532.782 413.987 530.5C414.48 529.225 413.987 527 413.987 527C435.906 525.548 448.107 524.625 474.487 528.5C502.905 531.022 516.084 531.843 540.487 533.5C541.281 534.834 541.368 535.5 540.487 536.5C512.45 537.069 496.712 537.256 467.987 533.5Z" fill="url(#paint13_linear_86_1460)"/>
<path d="M412.487 535C409.025 539.016 409.406 540.834 418.487 542.5C430.409 537.736 437.354 537.25 449.987 538.5C484.802 541.304 504.386 542.291 539.487 542.5C551.907 541.859 550.463 540.731 545.487 538.5C504.459 538.704 482.433 536.418 443.487 531.5C430.283 531.432 423.109 531.699 412.487 535Z" fill="url(#paint14_linear_86_1460)"/>
<path d="M422.987 541.5C420.158 543.045 417.743 543.774 412.987 545H558.987C545.876 542.193 537.393 541.514 519.487 542.5C490.549 542.438 474.203 541.798 444.487 538C434.168 537.417 429.551 538.256 422.987 541.5Z" fill="url(#paint15_linear_86_1460)"/>
<path d="M647.468 534.077C622.945 531.811 592.447 532.102 592.447 532.102C592.447 532.102 601.532 541.016 618.032 540.858L718.527 539.898C708.072 539.637 705.185 538.103 709.441 530.985C709.441 530.985 671.991 536.343 647.468 534.077Z" fill="url(#paint16_linear_86_1460)"/>
<path d="M595.487 540C603.793 541.058 607.233 541.937 606.987 545H726.487C719.795 543.382 716.802 542.378 715.987 540C669.552 540.311 643.269 540.363 595.487 540Z" fill="url(#paint17_linear_86_1460)"/>
<path d="M610.987 520.5C657.789 526.235 682.065 525.524 723.487 520.5C678.96 514.6 657.184 508.272 630.987 485C592.229 490.098 570.535 487.683 531.987 470C558.164 493.498 573.378 506.238 610.987 520.5Z" fill="url(#paint18_linear_86_1460)"/>
<path d="M1025.49 278.5C984.383 315.067 960.601 333.935 910.487 350.5C918.473 326.523 915.36 310.388 900.987 278.5C955.653 277.291 984.468 272.757 1013.49 217.5C1009.81 251.505 1007.36 271.048 1025.49 278.5Z" fill="url(#paint19_linear_86_1460)"/>
<path d="M415.987 362C398.528 382.953 397.428 400.174 401.987 435C364.606 383.519 334.676 364.23 267.987 344C323.965 323.32 347.224 299.876 376.987 241C392.424 262.507 394.987 281.5 390.987 312.5C386.987 343.5 397.427 362.153 415.987 362Z" fill="url(#paint20_linear_86_1460)"/>
<path d="M926.987 435H922.371C917.575 479.634 914.392 502.4 906.987 535.261L911.089 538C918.639 497.763 921.493 475.218 926.987 435Z" fill="url(#paint21_linear_86_1460)" fill-opacity="0.5"/>
<path d="M888.487 451.5L883.987 458C898.248 489.817 905.597 507.495 916.487 538.5L919.487 533.5C906.947 507.212 900.223 488.39 888.487 451.5Z" fill="url(#paint22_linear_86_1460)"/>
<path fill-rule="evenodd" clip-rule="evenodd" d="M897.987 464.5C897.987 464.5 896.987 456 899.987 452C902.987 448 909.876 448.5 913.487 455C917.098 461.5 907.487 487 907.487 487C915.259 514.185 917.113 522 918.487 531.5L899.987 474.5C899.987 474.5 897.987 468.5 897.987 464.5ZM905.486 480.5C907.486 482 911.487 464.5 911.487 464.5C911.487 464.5 912.987 455 906.987 452.5C900.987 450 900.987 462.5 900.987 462.5C900.987 462.5 903.486 479 905.486 480.5Z" fill="url(#paint23_linear_86_1460)"/>
<path fill-rule="evenodd" clip-rule="evenodd" d="M896.374 465.46C896.374 465.46 892.105 458.042 887.311 456.622C882.517 455.202 876.015 455.674 877.372 465.88C878.729 476.086 902.174 489.185 902.174 489.185C912.155 515.639 915.33 523.017 919.895 531.46L900.735 474.679C900.735 474.679 898.761 468.671 896.374 465.46ZM899.901 482.775C899.191 485.172 885.987 474.5 885.987 474.5C885.987 474.5 878.163 466.586 881.487 461C884.811 455.414 893.987 468 893.987 468C893.987 468 900.612 480.378 899.901 482.775Z" fill="url(#paint24_linear_86_1460)"/>
<path d="M918.487 536.5H913.487L927.487 461.5L933.487 457.5C924.692 486.886 921.101 504.022 918.487 536.5Z" fill="#000038" fill-opacity="0.5"/>
<path d="M893.987 498H927.987V528C927.987 537.389 920.376 545 910.987 545C901.598 545 893.987 537.389 893.987 528V498Z" fill="url(#paint25_linear_86_1460)"/>
<defs>
<linearGradient id="paint0_linear_86_1460" x1="688.177" y1="0.172363" x2="688.059" y2="753.4" gradientUnits="userSpaceOnUse">
<stop stop-color="#EBEFFF"/>
<stop offset="1" stop-color="#E59E9B" stop-opacity="0"/>
</linearGradient>
<linearGradient id="paint1_linear_86_1460" x1="552.487" y1="109" x2="552.487" y2="295" gradientUnits="userSpaceOnUse">
<stop stop-color="white" stop-opacity="0"/>
<stop offset="1" stop-color="#ECEFFD" stop-opacity="0.47"/>
</linearGradient>
<linearGradient id="paint2_linear_86_1460" x1="715.987" y1="563" x2="715.987" y2="635" gradientUnits="userSpaceOnUse">
<stop stop-color="#C6733E"/>
<stop offset="1" stop-color="#F7A26C" stop-opacity="0"/>
</linearGradient>
<linearGradient id="paint3_linear_86_1460" x1="536.099" y1="395.592" x2="391.451" y2="422.087" gradientUnits="userSpaceOnUse">
<stop stop-color="#C9D4FF"/>
<stop offset="0.432292" stop-color="white"/>
</linearGradient>
<linearGradient id="paint4_linear_86_1460" x1="720.987" y1="289" x2="720.859" y2="543" gradientUnits="userSpaceOnUse">
<stop stop-color="#D0D0D0"/>
<stop offset="1" stop-color="#9C98AE"/>
</linearGradient>
<linearGradient id="paint5_linear_86_1460" x1="719.987" y1="545" x2="718.379" y2="412.019" gradientUnits="userSpaceOnUse">
<stop stop-color="#2C60E7"/>
<stop offset="0.458647" stop-color="#4074FB"/>
<stop offset="1" stop-color="#95B2FF"/>
</linearGradient>
<linearGradient id="paint6_linear_86_1460" x1="720.987" y1="396" x2="721.337" y2="424.996" gradientUnits="userSpaceOnUse">
<stop stop-color="#5481F7"/>
<stop offset="1" stop-color="#8CACFF"/>
</linearGradient>
<linearGradient id="paint7_linear_86_1460" x1="759.812" y1="454.025" x2="785.453" y2="380.641" gradientUnits="userSpaceOnUse">
<stop stop-color="#2C60E7"/>
<stop offset="0.546875" stop-color="#4074FB"/>
<stop offset="1" stop-color="#95B2FF"/>
</linearGradient>
<linearGradient id="paint8_linear_86_1460" x1="676.987" y1="428" x2="615.001" y2="497.38" gradientUnits="userSpaceOnUse">
<stop stop-color="#2C60E7"/>
<stop offset="0.546875" stop-color="#4074FB"/>
<stop offset="1" stop-color="#95B2FF"/>
</linearGradient>
<linearGradient id="paint9_linear_86_1460" x1="472.487" y1="491.222" x2="472.487" y2="507" gradientUnits="userSpaceOnUse">
<stop stop-color="#E2EBFF"/>
<stop offset="1" stop-color="#C3CDE8"/>
</linearGradient>
<linearGradient id="paint10_linear_86_1460" x1="478.737" y1="506" x2="478.737" y2="518" gradientUnits="userSpaceOnUse">
<stop stop-color="#E2EBFF"/>
<stop offset="1" stop-color="#C3CDE8"/>
</linearGradient>
<linearGradient id="paint11_linear_86_1460" x1="473.484" y1="512.653" x2="473.61" y2="525.162" gradientUnits="userSpaceOnUse">
<stop stop-color="#E2EBFF"/>
<stop offset="1" stop-color="#C3CDE8"/>
</linearGradient>
<linearGradient id="paint12_linear_86_1460" x1="474.237" y1="519.885" x2="474.237" y2="531" gradientUnits="userSpaceOnUse">
<stop stop-color="#E2EBFF"/>
<stop offset="1" stop-color="#C3CDE8"/>
</linearGradient>
<linearGradient id="paint13_linear_86_1460" x1="474.801" y1="525.746" x2="474.801" y2="536.813" gradientUnits="userSpaceOnUse">
<stop stop-color="#E2EBFF"/>
<stop offset="1" stop-color="#C3CDE8"/>
</linearGradient>
<linearGradient id="paint14_linear_86_1460" x1="479.797" y1="531.491" x2="479.797" y2="542.5" gradientUnits="userSpaceOnUse">
<stop stop-color="#E2EBFF"/>
<stop offset="1" stop-color="#C3CDE8"/>
</linearGradient>
<linearGradient id="paint15_linear_86_1460" x1="485.987" y1="537.828" x2="485.987" y2="545" gradientUnits="userSpaceOnUse">
<stop stop-color="#E2EBFF"/>
<stop offset="1" stop-color="#C3CDE8"/>
</linearGradient>
<linearGradient id="paint16_linear_86_1460" x1="655.444" y1="531.5" x2="655.53" y2="540.5" gradientUnits="userSpaceOnUse">
<stop stop-color="#E2EBFF"/>
<stop offset="1" stop-color="#C3CDE8"/>
</linearGradient>
<linearGradient id="paint17_linear_86_1460" x1="660.987" y1="540" x2="660.987" y2="545" gradientUnits="userSpaceOnUse">
<stop stop-color="#E2EBFF"/>
<stop offset="1" stop-color="#C3CDE8"/>
</linearGradient>
<linearGradient id="paint18_linear_86_1460" x1="562.987" y1="486.5" x2="682.987" y2="525" gradientUnits="userSpaceOnUse">
<stop stop-color="#CAD3F9"/>
<stop offset="1" stop-color="white"/>
</linearGradient>
<linearGradient id="paint19_linear_86_1460" x1="910.987" y1="350" x2="984.987" y2="269" gradientUnits="userSpaceOnUse">
<stop stop-color="#D3DCFF"/>
<stop offset="1" stop-color="white"/>
</linearGradient>
<linearGradient id="paint20_linear_86_1460" x1="318.987" y1="303" x2="415.987" y2="405" gradientUnits="userSpaceOnUse">
<stop stop-color="#CDD7FF"/>
<stop offset="0.614583" stop-color="white"/>
</linearGradient>
<linearGradient id="paint21_linear_86_1460" x1="921.487" y1="436.5" x2="926.987" y2="436.5" gradientUnits="userSpaceOnUse">
<stop stop-color="#000038"/>
<stop offset="1" stop-color="#000038" stop-opacity="0"/>
</linearGradient>
<linearGradient id="paint22_linear_86_1460" x1="895.987" y1="479" x2="890.987" y2="445" gradientUnits="userSpaceOnUse">
<stop stop-color="#B07E5E"/>
<stop offset="1" stop-color="#F08541" stop-opacity="0"/>
</linearGradient>
<linearGradient id="paint23_linear_86_1460" x1="901.987" y1="485.5" x2="910.487" y2="452" gradientUnits="userSpaceOnUse">
<stop stop-color="#00002E"/>
<stop offset="1" stop-color="#00002E" stop-opacity="0.62"/>
</linearGradient>
<linearGradient id="paint24_linear_86_1460" x1="883.987" y1="476.5" x2="923.987" y2="468.5" gradientUnits="userSpaceOnUse">
<stop stop-color="#00002E"/>
<stop offset="1" stop-color="#AFAFC5"/>
</linearGradient>
<linearGradient id="paint25_linear_86_1460" x1="893.987" y1="498" x2="927.987" y2="498" gradientUnits="userSpaceOnUse">
<stop stop-color="#86A553"/>
<stop offset="1" stop-color="#A5B689"/>
</linearGradient>
</defs>
</svg>
