<svg width="582" height="214" viewBox="0 0 582 214" fill="none" xmlns="http://www.w3.org/2000/svg">
<g clip-path="url(#clip0_223_2386)">
<rect width="582" height="214" rx="13" fill="#356DFE"/>
<path d="M325.579 2.03169C348.302 -3.34771 409.275 -19.4163 484.289 -12.1426C505.332 -7.46521 520.128 -12.1425 536.185 -12.1425C552.242 -12.1425 584.876 -4.88669 596.509 -4.88669C608.142 -4.88669 619.48 10.9505 619.48 24.7341C619.48 38.5177 606.246 36.0853 596.509 36.0853C586.772 36.0853 586.772 44.2669 596.509 44.2669H636.284C654.236 44.2669 671.456 87.4937 653.504 87.4937H636.284C628.873 87.4937 630.654 92.5756 636.212 92.5756C641.77 92.5756 657.108 90.6156 657.108 99.1156C657.108 107.616 658.753 124.956 636.212 124.956H606.574C594.223 124.956 598.947 139.063 611.607 139.063H632.29C632.914 139.099 633.389 139.13 633.742 139.157C636.002 139.106 640.86 139.063 650.416 139.063C684.418 139.063 661.23 181.55 646.394 181.55C631.559 181.55 633.914 181.143 624.651 181.55C615.387 181.957 609.7 191.277 621.433 191.277H643.177C653.359 191.277 634.458 212.089 625.052 212.089C615.645 212.089 463.738 229.143 460.936 231.965C449.637 240.479 423.621 229.268 407.38 220.589C391.139 211.91 377.28 226.587 364.929 226.264C352.578 225.942 339.766 226.264 318.223 226.264C296.68 226.264 271.59 147.255 289.427 147.255H305.068C319.272 147.255 319.212 127.917 305.068 127.917H255.159C243.451 127.917 243.839 110.327 255.159 110.327H273.413C290.087 110.327 291.94 101.569 273.413 101.569H242.434C220.816 101.569 229.825 63.6429 250.822 63.6429H296.68C308.413 63.6429 306.561 47.5275 296.68 47.5275H283.582C256.409 47.5275 302.855 7.41109 325.579 2.03169Z" fill="#EBEFFF" fill-opacity="0.22"/>
<path d="M341.936 166.898L540.313 166.898" stroke="#000038" stroke-opacity="0.5" stroke-width="1.47128"/>
<path d="M428.493 138.454C427.363 138.065 424.454 165.146 426.777 166.163C429.1 167.179 447.917 167.024 457.183 166.163L452.77 138.454H428.493Z" fill="url(#paint0_linear_223_2386)"/>
<path d="M456.327 104.737C454.159 101.794 447.131 96.3996 445.66 99.0969C444.189 101.794 449.828 109.028 449.828 109.028L458.656 132.323C458.656 132.323 460.863 136.001 463.56 134.775C466.258 133.549 465.767 128.155 465.767 128.155C465.767 128.155 458.495 107.679 456.327 104.737Z" fill="url(#paint1_linear_223_2386)"/>
<path d="M427.391 101.181C430.824 98.5283 435.361 97.3803 437.077 99.342C438.794 101.304 434.135 105.963 434.135 105.963C434.135 105.963 422.242 124.476 420.77 125.457C419.299 126.438 417.215 129.748 415.131 128.4C413.046 127.051 413.782 123.741 414.272 121.411C414.763 119.082 423.958 103.834 427.391 101.181Z" fill="url(#paint2_linear_223_2386)"/>
<path d="M432.786 98.6064C428.495 100.323 429.23 103.143 429.23 108.047C429.23 112.951 428.127 133.917 428.127 137.963C428.127 142.009 453.997 143.358 453.139 136.982C452.28 130.607 452.525 114.79 451.422 108.047C450.319 101.304 452.893 100.568 448.847 98.6064C444.801 96.6447 437.077 96.8899 432.786 98.6064Z" fill="url(#paint3_linear_223_2386)"/>
<path d="M431.315 107.557C425.766 110.477 422.507 111.998 415.254 113.564C422.847 124.29 426.281 131.782 432.787 144.461C438.165 141.941 441.179 140.243 446.519 136.492C441.328 124.103 438.069 117.672 431.315 107.557Z" fill="#E8A09B"/>
<path d="M434.379 126.07C431.445 126.237 429.973 126.097 427.636 125.457L426.655 130.361H435.851C435.851 130.361 439.039 132.446 440.387 131.465C441.736 130.484 444.065 129.503 444.065 129.503C444.065 129.503 445.291 127.296 444.065 126.07C442.839 124.844 440.387 124.844 438.425 124.109C436.464 123.373 434.379 126.07 434.379 126.07Z" fill="#EBBE8E"/>
<path d="M430.09 123.618C430.09 123.618 424.818 123.618 420.772 122.515C416.726 121.411 414.151 122.515 414.151 122.515C413.048 127.542 415.009 128.645 415.009 128.645L429.354 131.342C428.827 128.142 429.057 126.467 430.09 123.618Z" fill="url(#paint4_linear_223_2386)"/>
<path d="M452.158 119.695C453.901 122.738 455.002 124.029 457.308 125.212L454.243 128.4C452.334 125.963 451.161 124.461 448.97 121.656C448.97 121.656 445.415 119.204 444.924 116.997C444.434 114.79 443.208 108.17 446.028 109.151C448.848 110.131 450.442 113.442 450.442 113.442L452.158 119.695Z" fill="#EBBE8E"/>
<path d="M457.43 122.024C456.239 123.38 454.975 124.288 450.564 126.438C455.127 131.325 458.166 133.427 458.166 133.427C458.166 133.427 462.58 135.511 463.929 134.285C465.277 133.059 464.787 130.607 464.787 130.607L457.43 122.024Z" fill="url(#paint5_linear_223_2386)"/>
<path d="M436.833 89.9014C436.867 93.9445 436.343 98.8516 435.975 99.9551C435.643 100.949 441.327 101.599 444.928 100.414C445.589 100.196 445.889 99.4764 445.715 98.8025C444.842 95.404 444.785 93.3217 444.802 89.9014H436.833Z" fill="#EBBE8E"/>
<path d="M432.42 79.6024C432.297 75.3112 436.466 72.0008 440.266 72.0008C444.067 72.0008 447.132 74.6981 448.481 79.6024C449.83 84.5067 445.661 89.1657 445.661 89.1657C445.661 89.1657 443.209 93.0891 440.266 93.0891C437.324 93.0891 435.485 90.1466 434.381 88.4301C433.278 86.7136 432.542 83.8936 432.42 79.6024Z" fill="#F5CAAA"/>
<path d="M442.596 76.5373C443.944 74.5756 444.067 71.3878 444.067 71.3878C444.067 71.3878 440.389 67.4644 434.994 69.4261C429.599 71.3878 427.883 77.886 428.251 81.4415C428.619 84.9971 431.071 87.3267 430.58 90.024C430.09 92.7213 427.638 94.9283 427.638 94.9283C430.705 96.7529 431.719 97.4513 436.465 97.0126C436.809 94.8974 436.877 93.7184 436.956 91.6179C436.956 91.6179 434.504 89.5336 433.768 87.0814C433.032 84.6293 433.278 80.9511 435.73 79.6024C438.182 78.2538 441.247 78.499 442.596 76.5373Z" fill="#CC5C54"/>
<path d="M447.743 70.6522C445.169 69.794 443.697 71.6331 443.697 71.6331L441 77.5182C441 77.5182 444.486 78.7443 444.923 80.9512C445.361 83.1581 445.291 82.6676 445.536 84.1389C445.782 85.6102 446.395 79.6025 447.743 80.2155C449.092 80.8285 448.356 82.4224 448.356 82.4224L446.272 87.3267L444.556 90.5144C444.727 93.0002 444.802 94.4019 445.291 96.7674C448.436 97.4663 450.492 97.1896 453.751 95.5413C453.751 95.5413 449.95 93.457 449.828 90.5144C449.705 87.5719 452.046 84.9832 452.157 80.2155C452.268 75.4478 450.318 71.5104 447.743 70.6522Z" fill="#CC5C54"/>
<path d="M470.761 129.626C470.761 129.626 473.336 124.354 476.401 124.354C479.466 124.354 477.137 132.323 477.137 132.323C473.664 145.042 472.226 151.711 469.167 165.917L462.424 158.438C465.225 145.447 468.432 133.549 470.761 129.626Z" fill="url(#paint6_linear_223_2386)"/>
<path d="M474.195 125.948C477.873 121.779 478.977 122.024 478.977 122.024H486.456C486.456 122.024 490.134 123.128 492.464 125.948C494.793 128.768 495.406 144.216 494.671 150.592C493.935 156.967 496.51 166.776 496.51 166.776L472.234 166.898C472.234 166.898 473.582 154.76 472.846 150.592C472.111 146.423 470.517 130.116 474.195 125.948Z" fill="url(#paint7_linear_223_2386)"/>
<path d="M485.35 162.607L491.113 158.193L493.197 161.381C493.197 161.381 488.415 163.956 488.048 165.304C487.68 166.653 487.067 166.776 485.35 166.776C483.634 166.776 481.672 166.898 480.201 166.776C478.729 166.653 475.419 168.247 474.438 166.776C473.457 165.304 477.503 163.343 480.201 163.343C482.898 163.343 485.35 162.607 485.35 162.607Z" fill="#EBBE8E"/>
<path d="M489.15 133.794C489.15 133.794 487.066 127.296 490.009 125.702C492.951 124.109 496.262 128.768 496.262 128.768C499.449 133.059 505.089 150.837 503.618 153.289C502.147 155.741 492.215 165.059 492.215 165.059C490.8 161.363 490.745 161.453 488.047 158.929C491.357 156.231 493.052 152.293 495.281 149.611C492.743 142.008 492.128 141.065 489.15 133.794Z" fill="url(#paint8_linear_223_2386)"/>
<path d="M478.854 114.668C479.073 118.641 479.101 120.426 477.873 124.721C482.313 128.169 484.28 127.16 487.682 124.721C486.241 120.271 485.939 117.751 486.701 113.196L478.854 114.668Z" fill="#EBBE8E"/>
<path d="M474.929 102.284C474.929 102.284 476.277 97.135 481.427 97.135C486.576 97.135 488.538 102.284 488.538 102.284C489.274 110.254 488.293 112.338 486.576 114.177C486.576 114.177 483.756 116.875 481.427 116.875C479.097 116.875 476.768 114.177 476.768 114.177C474.929 109.641 474.483 108.854 474.929 102.284Z" fill="#F5CAAA"/>
<path d="M481.306 95.7864V102.53C481.306 102.53 486.823 103.02 486.823 107.189C486.823 111.357 487.804 116.016 487.804 116.016C487.804 116.016 487.225 112.583 489.643 109.764C492.06 106.944 491.237 102.407 487.804 97.6255C484.371 92.8438 481.306 95.7864 481.306 95.7864Z" fill="#25254B"/>
<path d="M481.671 95.7863V102.53C479.274 102.337 476.056 103.4 476.056 108.549C476.056 113.699 477.083 114.989 477.083 116.147C477.083 116.147 474.868 114.631 473.73 110.131C472.593 105.631 472.701 101.956 474.193 99.0967C477.135 93.4568 481.671 95.7863 481.671 95.7863Z" fill="#25254B"/>
<path d="M486.7 94.1925C485.964 95.5411 486.332 97.2821 486.332 97.8707C489.03 98.8515 489.03 101.058 489.888 103.878L491.114 102.775C491.114 102.775 492.708 104.246 493.566 103.511C494.424 102.775 493.566 100.323 493.566 100.323C493.566 100.323 494.915 100.813 495.528 99.8324C496.141 98.8515 494.302 96.6446 494.302 96.6446C494.302 96.6446 494.547 93.3342 492.463 93.5795C490.378 93.8247 489.643 91.7404 489.03 93.5794C488.416 95.4185 487.436 92.8438 486.7 94.1925Z" fill="#25254B"/>
<path d="M478.192 95.0507C478.069 96.6446 480.154 96.8898 480.154 96.8898C476.326 98.4212 474.91 98.284 473.901 103.265C473.901 103.265 472.062 104.246 470.958 103.388C469.855 102.53 470.836 101.304 469.855 100.936C468.874 100.568 469.61 98.4837 469.61 96.3994C469.61 94.3152 471.939 94.0699 473.901 93.9473C475.863 93.8247 476.353 91.9856 477.456 92.8438C478.56 93.7021 478.315 93.4568 478.192 95.0507Z" fill="#25254B"/>
<path d="M464.017 143.48H440.477L453.963 166.776H476.278L464.017 143.48Z" fill="url(#paint9_linear_223_2386)"/>
<path d="M486.821 168.86H453.84V166.653H486.821V168.86Z" fill="url(#paint10_linear_223_2386)"/>
<path d="M390.026 130.852C393.459 125.825 393.704 125.825 395.789 124.599C397.873 123.373 402.616 125.303 405.965 128.277C405.965 128.277 407.682 130.116 408.908 135.879C410.134 141.641 410.869 166.285 410.869 166.285H378.011C378.011 166.285 386.593 135.879 390.026 130.852Z" fill="url(#paint11_linear_223_2386)"/>
<path d="M407.192 163.22C405.223 163.523 402.944 163.581 401.307 163.22L398.609 167.757H405.843C405.843 167.757 407.314 168.615 411.115 167.757C414.916 166.898 418.839 169.228 419.82 167.757C420.801 166.285 414.916 161.504 411.115 162.362C407.314 163.22 407.192 163.22 407.192 163.22Z" fill="#EBBE8E"/>
<path d="M390.762 135.021C390.762 135.021 393.705 131.22 397.015 132.078C400.326 132.936 400.326 138.208 400.326 138.208C397.749 147.109 396.06 151.494 392.724 158.193L403.023 160.891C401.641 164.195 401.185 166.149 401.061 169.841C401.061 169.841 381.935 166.531 381.444 163.343C380.954 160.155 386.717 145.342 390.762 135.021Z" fill="url(#paint12_linear_223_2386)"/>
<path d="M398.488 114.79L395.913 126.438C398.392 129.889 405.231 130.852 405.231 129.381C405.231 127.909 404.926 121.871 405.231 117.365L398.488 114.79Z" fill="#EBBE8E"/>
<path d="M410.379 111.725C410.379 111.725 409.889 115.526 408.418 117.856C406.946 120.185 404.249 119.082 400.08 117.856C395.912 116.63 393.459 108.292 393.459 108.292C393.459 108.292 393.214 104.001 396.034 101.426C398.854 98.8517 400.816 98.7848 405.107 99.9552C409.398 101.126 410.379 111.725 410.379 111.725Z" fill="#F5CAAA"/>
<path d="M394.319 100.813C395.861 101.524 397.497 102.847 399.224 105.35C401.881 103.804 404.128 103.143 405.599 103.633C407.07 104.124 408.321 105.045 408.787 106.576C409.645 109.396 409.591 110.462 410.013 113.687C410.013 113.687 411.975 108.17 411.362 104.492C410.749 100.813 408.174 98.6064 404.986 96.7673C401.798 94.9282 396.653 96.4491 394.319 100.813Z" fill="#54546E"/>
<path d="M394.686 100.813C397.132 101.69 398.037 102.774 399.345 105.105C399.031 105.104 399.002 109.764 399.345 112.093C399.688 114.422 396.035 107.066 395.667 109.151C395.299 111.235 398.119 115.281 398.119 115.281C398.119 115.281 399.146 118.725 397.384 118.959C397.384 118.959 392.97 112.093 391.621 109.764C390.272 107.434 390.518 105.105 391.621 102.775C392.725 100.445 394.686 100.813 394.686 100.813Z" fill="#54546E"/>
<path d="M354.221 128.155L346.864 126.438L352.995 113.687L354.221 128.155Z" fill="#25254B"/>
<path d="M374.942 151.572C374.329 149.856 374.942 143.48 374.942 143.48H371.877V151.572C371.877 151.572 370.981 153.684 371.141 155.373C371.359 157.662 371.019 161.136 372.98 161.136C374.942 161.136 374.084 159.051 374.942 156.722C375.8 154.392 375.555 153.289 374.942 151.572Z" fill="#EBBE8E"/>
<path d="M373.148 106.282C373.148 106.282 370.206 100.765 367.141 100.275C364.075 99.7842 367.141 106.282 367.141 106.282C368.91 114.144 369.349 118.955 369.348 128.106C370.002 135.537 370.001 140.211 369.348 146.007C371.437 145.532 372.693 145.498 375.11 146.007C375.887 139.95 375.11 137.179 375.11 129.945C375.11 121.24 375.11 112.413 373.148 106.282Z" fill="url(#paint13_linear_223_2386)"/>
<path d="M348.946 134.653C346.108 145.048 345.038 151.748 344.06 162.022C343.841 164.312 345.651 166.285 347.952 166.285H373.835C373.914 154.448 373.581 147.817 371.996 136.001L348.946 134.653Z" fill="url(#paint14_linear_223_2386)"/>
<path d="M351.276 118.346C349.314 109.518 350.519 100.446 357.385 98.6065H365.543C365.543 98.6065 367.21 98.3156 369.04 102.044C373.904 111.951 371.139 131.342 371.139 134.04C371.139 144.236 349.56 139.925 351.276 134.04C352.993 128.155 353.238 127.174 351.276 118.346Z" fill="url(#paint15_linear_223_2386)"/>
<path d="M335.706 141.764C335.969 152.314 338.986 156.937 343.706 162.835C344.103 163.331 344.816 163.439 345.34 163.08C354.441 156.844 355.607 154.192 363.906 149.733C359.454 141.773 358.302 136.483 357.04 126.561L335.706 141.764Z" fill="#E8A09B"/>
<path d="M346.986 149.488C345.829 145.834 345.063 144.217 343.553 141.887L347.967 139.557C348.771 143.067 349.289 145.03 350.541 148.507C351.253 150.385 351.967 151.455 354.219 153.412C355.078 154.157 355.568 155.373 354.219 156.231C352.871 157.09 352.38 159.787 350.541 159.787C348.702 159.787 346.986 158.193 346.986 155.373C346.986 152.553 347.332 151.604 346.986 149.488Z" fill="#EBBE8E"/>
<path d="M346.85 107.422C348.934 103.499 351.804 101.161 353.888 102.51C355.972 103.859 353.888 110.669 353.888 110.669L347.463 128.143C348.076 131.943 348.934 136.48 350.283 141.384C346.85 142.12 345.832 143.163 342.558 145.798C342.558 145.798 338.635 130.472 338.758 126.916C338.88 123.361 344.766 111.345 346.85 107.422Z" fill="url(#paint16_linear_223_2386)"/>
<path d="M358.633 91.4953C358.633 94.8057 358.633 97.6256 357.652 100.813C361.891 103.718 364.273 102.652 366.725 100.813C365.357 96.5225 365.689 96.4444 365.622 91.4953H358.633Z" fill="#EBBE8E"/>
<path d="M354.097 82.0304C354.48 77.2495 358.708 74.4288 362.925 74.3062C367.142 74.1836 368.16 77.6171 369.055 81.54C369.949 85.4628 368.066 89.8779 368.066 89.8779C368.066 89.8779 367.291 93.6519 363.911 94.3512C360.531 95.0505 356.565 89.8779 356.565 89.8779C356.565 89.8779 353.714 86.8113 354.097 82.0304Z" fill="#F5CAAA"/>
<path d="M364.764 78.8426C364.642 76.0559 365.028 74.6596 365.622 72.8349C365.622 72.8349 358.633 69.2793 354.219 72.8349C349.806 76.3905 348.334 81.7852 349.07 88.1607C349.806 94.5362 349.806 92.4519 349.07 97.4788C348.334 102.506 341.836 101.647 340.733 108.636C339.629 115.625 340.733 121.159 340.733 121.159C346.25 107.917 347.594 105.074 352.956 102.51C354.059 101.529 356.549 99.6857 358.265 99.0727C358.633 96.9884 358.633 96.1665 358.633 92.2431V92.243C358.633 92.243 354.832 86.6894 354.955 84.4825C355.078 82.2756 356.058 83.3791 356.058 83.3791C356.058 83.3791 356.549 85.2182 357.285 86.812C358.02 88.4059 357.407 84.3599 358.02 83.0112C358.633 81.6626 359.001 80.1913 360.84 79.4557C362.679 78.72 364.764 78.8426 364.764 78.8426Z" fill="#25254B"/>
<path d="M368.341 83.1621C367.438 80.6522 366.412 80.6762 364.763 78.8426C363.551 77.4939 363.292 74.3062 363.905 73.5705C363.905 73.5705 365.867 71.4862 369.054 73.5705C372.242 75.6548 372.61 78.9652 372.365 84.8503C372.12 90.7354 371.016 91.4711 371.507 95.8849C371.997 100.299 376.901 101.647 377.759 106.552C378.618 111.456 375.218 123.14 375.218 123.14C374.237 111.738 373.819 104.841 368.691 101.344C367.015 100.202 365.989 98.9501 365.989 98.9501C365.253 96.8658 365.523 96.4598 365.523 93.885C365.523 93.885 366.71 92.3698 367.525 91.0877C368.341 89.8057 368.709 85.4916 368.341 83.1621Z" fill="#25254B"/>
<path d="M376.764 47.2001C376.764 46.0658 377.683 45.1464 378.817 45.1464H404.409C405.544 45.1464 406.463 46.0658 406.463 47.2001V65.5253C406.463 66.6595 405.544 67.579 404.409 67.579H399.038C394.79 70.9032 390.721 72.5369 381.345 75.1618C385.62 70.6798 385.869 69.1993 384.189 67.579H378.817C377.683 67.579 376.764 66.6595 376.764 65.5253V47.2001Z" fill="white" fill-opacity="0.8"/>
<path d="M388.201 58.9377V57.7671H389.371V58.9377H388.201ZM391.079 58.9377V57.7671H392.25V58.9377H391.079ZM393.958 58.9377V57.7671H395.129V58.9377H393.958Z" fill="#E59D9B"/>
<path d="M452.085 46.0727C452.085 44.928 453.013 44 454.158 44H479.987C481.132 44 482.06 44.928 482.06 46.0727V64.5679C482.06 65.7126 481.132 66.6406 479.987 66.6406H474.566C470.279 69.9956 466.172 71.6445 456.709 74.2938C461.023 69.7702 461.275 68.276 459.579 66.6406H454.158C453.013 66.6406 452.085 65.7126 452.085 64.5679V46.0727Z" fill="white" fill-opacity="0.81"/>
<path d="M463.629 57.8266V56.6451H464.81V57.8266H463.629ZM466.534 57.8266V56.6451H467.715V57.8266H466.534ZM469.439 57.8266V56.6451H470.621V57.8266H469.439Z" fill="#E59D9B"/>
<path d="M529.97 136.369L535.025 165.74C535.074 166.025 534.855 166.285 534.566 166.285H518.935L517.954 136.369H529.97Z" fill="url(#paint17_linear_223_2386)"/>
<path d="M504.345 143.726C504.504 141.079 504.515 139.546 504.345 137.228H507.533C506.898 139.861 506.856 141.828 507.533 144.461C507.533 144.461 506.675 148.262 507.533 149.488C508.391 150.714 508.146 153.902 506.43 153.534C504.713 153.166 503.242 152.063 502.506 148.753C501.771 145.442 504.345 143.726 504.345 143.726Z" fill="#EBBE8E"/>
<path d="M502.26 106.085C503.118 102.407 505.693 99.5873 509.126 99.4647C512.559 99.3421 509.862 108.783 509.862 108.783C509.126 111.971 508.988 121.886 509.126 127.296C509.264 132.707 509.185 135.741 508.636 141.151C506.336 140.069 504.939 139.77 502.26 139.925C501.631 135.764 501.578 133.138 502.26 127.664C501.223 119.237 501.402 109.764 502.26 106.085Z" fill="url(#paint18_linear_223_2386)"/>
<path d="M507.777 136.369L505.202 166.163L518.934 166.285L519.179 136.369H507.777Z" fill="url(#paint19_linear_223_2386)"/>
<path d="M504.221 111.358C503.24 117.488 504.956 134.775 508.144 136.737C511.332 138.699 526.78 138.944 528.987 136.737C531.194 134.53 529.968 116.384 528.252 109.518C526.535 102.652 524.819 98.9743 521.14 97.503C517.462 96.0317 511.455 95.7865 508.88 98.4838C506.305 101.181 505.202 105.227 504.221 111.358Z" fill="url(#paint20_linear_223_2386)"/>
<path d="M528.743 134.285C527.033 136.774 527.034 136.356 524.819 139.435C525.901 141.137 526.86 141.882 528.743 143.113C530.076 139.841 529.758 139.791 532.176 137.35L528.743 134.285Z" fill="#EBBE8E"/>
<path d="M521.631 105.963C521.631 105.963 520.896 101.672 523.103 100.691C525.31 99.71 527.884 102.285 527.884 102.285C535.231 110.824 541.739 125.212 541.003 127.787C540.268 130.362 535.774 136.415 531.93 141.274C529.894 138.17 528.56 136.861 525.8 135.511C527.303 131.254 528.356 129.113 530.582 125.703C525.014 118.078 523.166 113.752 521.631 105.963Z" fill="url(#paint21_linear_223_2386)"/>
<path d="M511.457 88.798C511.54 91.5067 511.058 98.2959 510.477 98.2387C513.656 101.41 516.082 101.024 520.776 99.097C519.278 95.4992 519.452 93.1123 519.917 88.798H511.457Z" fill="#EBBE8E"/>
<path d="M508.147 80.2156C508.638 84.0164 508.147 89.9015 513.542 91.1275C518.937 92.3536 522.247 85.3651 523.228 83.1581C524.209 80.9512 524.413 72.3617 517.343 71.7557C510.273 71.1498 507.657 76.4148 508.147 80.2156Z" fill="#F5CAAA"/>
<path d="M522.123 79.7252C521.02 79.48 520.652 82.7291 519.916 82.5452C519.181 82.3612 518.69 77.0279 518.69 77.0279C520.661 76.5021 521.724 76.2613 523.472 75.0662C523.472 75.0662 526.169 75.434 526.292 79.7252C526.415 84.0164 523.313 88.7005 522.123 88.7981C520.934 88.8957 520.097 91.3708 520.775 92.1085C520.775 92.1085 519.671 92.4763 519.671 91.4954C519.671 90.5146 519.671 88.6755 519.916 87.6946C520.162 86.7138 521.633 84.2616 522.123 83.526C522.614 82.7904 523.227 79.9704 522.123 79.7252Z" fill="#CC5C54"/>
<path d="M523.717 75.066C522.305 76.3464 521.232 76.8661 518.69 77.3956C518.69 77.3956 516.238 77.5182 514.154 76.0469C512.07 74.5756 510.476 75.9243 509.25 77.886C508.024 79.8477 508.882 86.3458 508.882 86.3458C508.882 86.3458 505.939 83.1581 505.449 81.6868C504.958 80.2155 504.283 78.5652 504.836 76.0469C506.035 76.4103 506.397 76.231 506.552 75.3113C505.729 72.8693 505.876 71.5003 506.552 69.0583C506.552 69.0583 508.269 70.8974 509.617 70.0392C510.966 69.1809 512.437 67.7097 512.437 67.7097C512.437 67.7097 514.277 69.3035 516.238 69.4261C518.2 69.5488 518.445 68.4453 521.142 70.0392C523.84 71.6331 523.717 75.066 523.717 75.066Z" fill="#CC5C54"/>
<path d="M530.413 59.8346C530.413 58.6872 531.343 57.7571 532.491 57.7571H558.38C559.527 57.7571 560.457 58.6872 560.457 59.8346V78.3725C560.457 79.5199 559.527 80.4501 558.38 80.4501H552.946C548.649 83.8128 544.533 85.4656 535.048 88.1209C539.372 83.5869 539.624 82.0893 537.924 80.4501H532.491C531.343 80.4501 530.413 79.5199 530.413 78.3725V59.8346Z" fill="white" fill-opacity="0.8"/>
<path d="M541.984 71.5925V70.4083H543.168V71.5925H541.984ZM544.896 71.5925V70.4083H546.08V71.5925H544.896ZM547.808 71.5925V70.4083H548.993V71.5925H547.808Z" fill="#E59D9B"/>
</g>
<defs>
<linearGradient id="paint0_linear_223_2386" x1="426.164" y1="150.094" x2="452.118" y2="158.296" gradientUnits="userSpaceOnUse">
<stop offset="0.015625" stop-color="#184CD3"/>
<stop offset="0.635417" stop-color="#184CD3"/>
<stop offset="1" stop-color="#486FD5"/>
</linearGradient>
<linearGradient id="paint1_linear_223_2386" x1="445.415" y1="129.922" x2="467.401" y2="114.534" gradientUnits="userSpaceOnUse">
<stop stop-color="#2C60E7"/>
<stop offset="0.546875" stop-color="#4074FB"/>
<stop offset="1" stop-color="#95B2FF"/>
</linearGradient>
<linearGradient id="paint2_linear_223_2386" x1="413.735" y1="124.492" x2="433.112" y2="105.437" gradientUnits="userSpaceOnUse">
<stop stop-color="#2C60E7"/>
<stop offset="0.546875" stop-color="#4074FB"/>
<stop offset="1" stop-color="#95B2FF"/>
</linearGradient>
<linearGradient id="paint3_linear_223_2386" x1="428.127" y1="135.235" x2="454.778" y2="116.219" gradientUnits="userSpaceOnUse">
<stop stop-color="#2C60E7"/>
<stop offset="0.546875" stop-color="#4074FB"/>
<stop offset="1" stop-color="#95B2FF"/>
</linearGradient>
<linearGradient id="paint4_linear_223_2386" x1="413.814" y1="130.045" x2="418.298" y2="120.189" gradientUnits="userSpaceOnUse">
<stop stop-color="#2C60E7"/>
<stop offset="0.546875" stop-color="#4074FB"/>
<stop offset="1" stop-color="#95B2FF"/>
</linearGradient>
<linearGradient id="paint5_linear_223_2386" x1="450.564" y1="132.911" x2="458.157" y2="122.098" gradientUnits="userSpaceOnUse">
<stop stop-color="#2C60E7"/>
<stop offset="0.546875" stop-color="#4074FB"/>
<stop offset="1" stop-color="#95B2FF"/>
</linearGradient>
<linearGradient id="paint6_linear_223_2386" x1="477.995" y1="143.358" x2="464.326" y2="142.754" gradientUnits="userSpaceOnUse">
<stop stop-color="#2C60E7"/>
<stop offset="0.546875" stop-color="#4074FB"/>
<stop offset="1" stop-color="#95B2FF"/>
</linearGradient>
<linearGradient id="paint7_linear_223_2386" x1="493.69" y1="137.227" x2="472.166" y2="134.685" gradientUnits="userSpaceOnUse">
<stop stop-color="#2C60E7"/>
<stop offset="0.546875" stop-color="#4074FB"/>
<stop offset="1" stop-color="#95B2FF"/>
</linearGradient>
<linearGradient id="paint8_linear_223_2386" x1="499.817" y1="137.227" x2="490.737" y2="138.351" gradientUnits="userSpaceOnUse">
<stop stop-color="#2C60E7"/>
<stop offset="0.546875" stop-color="#4074FB"/>
<stop offset="1" stop-color="#95B2FF"/>
</linearGradient>
<linearGradient id="paint9_linear_223_2386" x1="458.371" y1="144.52" x2="458.371" y2="168.847" gradientUnits="userSpaceOnUse">
<stop stop-color="#A8A8C1"/>
<stop offset="1" stop-color="#6D6D7A"/>
</linearGradient>
<linearGradient id="paint10_linear_223_2386" x1="470.325" y1="166.751" x2="470.325" y2="169.056" gradientUnits="userSpaceOnUse">
<stop stop-color="#A8A8C1"/>
<stop offset="1" stop-color="#6D6D7A"/>
</linearGradient>
<linearGradient id="paint11_linear_223_2386" x1="378.011" y1="160.43" x2="404.853" y2="134.037" gradientUnits="userSpaceOnUse">
<stop stop-color="#2C60E7"/>
<stop offset="0.546875" stop-color="#4074FB"/>
<stop offset="1" stop-color="#95B2FF"/>
</linearGradient>
<linearGradient id="paint12_linear_223_2386" x1="379.973" y1="163.22" x2="401.101" y2="162.732" gradientUnits="userSpaceOnUse">
<stop stop-color="#2C60E7"/>
<stop offset="0.546875" stop-color="#4074FB"/>
<stop offset="1" stop-color="#95B2FF"/>
</linearGradient>
<linearGradient id="paint13_linear_223_2386" x1="367.018" y1="133.011" x2="376.104" y2="132.415" gradientUnits="userSpaceOnUse">
<stop stop-color="#2C60E7"/>
<stop offset="0.546875" stop-color="#4074FB"/>
<stop offset="1" stop-color="#95B2FF"/>
</linearGradient>
<linearGradient id="paint14_linear_223_2386" x1="343.927" y1="147.614" x2="369.539" y2="154.628" gradientUnits="userSpaceOnUse">
<stop offset="0.015625" stop-color="#184CD3"/>
<stop offset="0.635417" stop-color="#184CD3"/>
<stop offset="1" stop-color="#486FD5"/>
</linearGradient>
<linearGradient id="paint15_linear_223_2386" x1="348.334" y1="125.702" x2="371.899" y2="125.535" gradientUnits="userSpaceOnUse">
<stop stop-color="#2C60E7"/>
<stop offset="0.546875" stop-color="#4074FB"/>
<stop offset="1" stop-color="#95B2FF"/>
</linearGradient>
<linearGradient id="paint16_linear_223_2386" x1="333.853" y1="137.461" x2="358.24" y2="140.016" gradientUnits="userSpaceOnUse">
<stop stop-color="#2C60E7"/>
<stop offset="0.546875" stop-color="#4074FB"/>
<stop offset="1" stop-color="#95B2FF"/>
</linearGradient>
<linearGradient id="paint17_linear_223_2386" x1="535.119" y1="159.052" x2="517.954" y2="159.542" gradientUnits="userSpaceOnUse">
<stop offset="0.015625" stop-color="#184CD3"/>
<stop offset="0.635417" stop-color="#184CD3"/>
<stop offset="1" stop-color="#486FD5"/>
</linearGradient>
<linearGradient id="paint18_linear_223_2386" x1="514.031" y1="113.687" x2="499.793" y2="113.7" gradientUnits="userSpaceOnUse">
<stop stop-color="#2C60E7"/>
<stop offset="0.546875" stop-color="#4074FB"/>
<stop offset="1" stop-color="#95B2FF"/>
</linearGradient>
<linearGradient id="paint19_linear_223_2386" x1="519.179" y1="160.768" x2="507.266" y2="159.663" gradientUnits="userSpaceOnUse">
<stop offset="0.015625" stop-color="#184CD3"/>
<stop offset="0.635417" stop-color="#184CD3"/>
<stop offset="1" stop-color="#486FD5"/>
</linearGradient>
<linearGradient id="paint20_linear_223_2386" x1="535.363" y1="125.212" x2="503.976" y2="125.269" gradientUnits="userSpaceOnUse">
<stop stop-color="#2C60E7"/>
<stop offset="0.546875" stop-color="#4074FB"/>
<stop offset="1" stop-color="#95B2FF"/>
</linearGradient>
<linearGradient id="paint21_linear_223_2386" x1="541.003" y1="118.837" x2="522.332" y2="116.07" gradientUnits="userSpaceOnUse">
<stop stop-color="#2C60E7"/>
<stop offset="0.546875" stop-color="#4074FB"/>
<stop offset="1" stop-color="#95B2FF"/>
</linearGradient>
<clipPath id="clip0_223_2386">
<rect width="582" height="214" fill="white"/>
</clipPath>
</defs>
</svg>
