<svg width="1506" height="835" viewBox="0 0 1506 835" fill="none" xmlns="http://www.w3.org/2000/svg">
<path d="M328.633 30.5354C406.765 12.2667 607.922 -14.7927 865.848 9.90925C938.201 25.7937 926.834 73.5221 982.043 73.5221H1187.02C1227.02 73.5221 1339.17 60.8241 1339.17 107.634C1339.17 154.444 1293.67 146.183 1260.19 146.183C1226.71 146.183 1226.71 173.968 1260.19 173.968H1396.95C1458.67 173.968 1517.88 320.769 1456.16 320.769H1396.95C1371.47 320.769 1377.59 338.027 1396.7 338.027C1415.81 338.027 1468.55 331.371 1468.55 360.237C1468.55 389.104 1474.21 447.994 1396.7 447.994H1294.8C1252.33 447.994 1268.57 495.901 1312.1 495.901H1383.22C1385.36 496.022 1386.99 496.127 1388.21 496.219C1395.98 496.048 1412.68 495.901 1445.54 495.901C1562.45 495.901 1482.72 640.188 1431.71 640.188C1380.7 640.188 1388.8 638.806 1356.95 640.188C1325.1 641.57 1305.54 673.222 1345.89 673.222H1420.65C1455.66 673.222 1390.67 793.901 1358.33 793.901C1325.99 793.901 767.528 784.316 757.893 793.901C719.043 822.814 665.739 852.242 609.896 822.768C554.052 793.294 513.699 798.748 471.231 797.653C428.763 796.559 263.864 793.901 189.792 793.901C115.72 793.901 33.0011 523.722 94.3327 523.722H258.109C306.947 523.722 306.741 458.048 258.109 458.048H86.5064C46.25 458.048 47.5834 398.313 86.5064 398.313H149.269C206.601 398.313 212.971 368.57 149.269 368.57H42.7521C-31.5779 368.57 -0.602982 239.77 71.5929 239.77H229.268C269.613 239.77 263.243 185.041 229.268 185.041H184.233C90.8029 185.041 250.501 48.8042 328.633 30.5354Z" fill="#EFF1FD"/>
<rect x="168" y="718" width="1232" height="6" fill="#5F5F74"/>
<rect x="301" y="55" width="486" height="41" rx="7" fill="#666785"/>
<path d="M324 96H765V360C765 371.046 756.046 380 745 380H344C332.954 380 324 371.046 324 360V96Z" fill="white"/>
<circle cx="331.5" cy="75.5" r="7.5" fill="#EBEFFF"/>
<circle cx="358.5" cy="75.5" r="7.5" fill="#EBEFFF"/>
<circle cx="385.5" cy="75.5" r="7.5" fill="#EBEFFF"/>
<rect x="356" y="125" width="377" height="226" rx="20" fill="url(#paint0_linear_169_1632)"/>
<path d="M386.132 305.413C387.974 311.304 390.97 316.681 396.227 323.292C400.213 328.304 407.709 328.244 412.209 323.688C435.331 300.277 453.178 288.856 480.12 275.529C485.635 272.801 487.262 265.662 483.383 260.887C480.322 257.119 474.908 256.278 470.817 258.893C443.691 276.231 425.005 286.12 394.172 293.135C388.487 294.429 384.393 299.849 386.132 305.413Z" fill="url(#paint1_linear_169_1632)"/>
<path fill-rule="evenodd" clip-rule="evenodd" d="M549.711 313C596.655 313 634.711 274.944 634.711 228C634.711 181.056 596.655 143 549.711 143C502.767 143 464.711 181.056 464.711 228C464.711 274.944 502.767 313 549.711 313ZM550.211 300C590.252 300 622.711 267.541 622.711 227.5C622.711 187.459 590.252 155 550.211 155C510.17 155 477.711 187.459 477.711 227.5C477.711 267.541 510.17 300 550.211 300Z" fill="#C8C8DD"/>
<path fill-rule="evenodd" clip-rule="evenodd" d="M549.98 309.464C594.715 309.464 630.98 273.199 630.979 228.464C630.979 183.729 594.715 147.464 549.979 147.464C505.244 147.464 468.979 183.729 468.979 228.464C468.98 273.199 505.244 309.464 549.98 309.464ZM550.48 305.464C593.282 305.464 627.98 270.766 627.979 227.964C627.979 185.162 593.282 150.464 550.479 150.464C507.677 150.464 472.979 185.162 472.979 227.964C472.98 270.766 507.677 305.464 550.48 305.464Z" fill="#D3D4E7"/>
<path fill-rule="evenodd" clip-rule="evenodd" d="M512.51 249.047C511.185 250.042 510.918 251.922 511.913 253.247L514.915 257.246C515.91 258.571 517.79 258.838 519.115 257.843L549.798 234.804L580.481 257.843C581.806 258.838 583.687 258.571 584.682 257.246L587.684 253.247C588.679 251.922 588.411 250.042 587.086 249.047L558.958 227.926L587.086 206.805C588.411 205.81 588.679 203.929 587.684 202.604L584.682 198.606C583.687 197.281 581.806 197.014 580.481 198.008L549.798 221.048L519.115 198.008C517.79 197.014 515.91 197.281 514.915 198.606L511.913 202.604C510.918 203.929 511.185 205.81 512.51 206.805L540.639 227.926L512.51 249.047Z" fill="#E69795"/>
<path d="M806.5 698C806.437 698.069 806.378 698.096 806.321 698.083C797.767 702.059 793.22 702.642 786 699.5C787.198 687.127 789 680.5 786 662.5L806.5 666.5C805.295 678.75 805.093 697.804 806.321 698.083C806.381 698.056 806.44 698.028 806.5 698Z" fill="#EBBE8E"/>
<path d="M863.5 665.5C861.935 678.675 862.409 701.679 863.5 705C853.749 707.384 848.877 707.44 843 701.5C843.778 686.731 843.442 678.761 840.5 665.5C851.08 668.693 855.704 667.872 863.5 665.5Z" fill="#EBBE8E"/>
<path d="M778.5 588C781.986 534.477 785.761 495.4 798 448L843 455.5C841.168 507.181 836.612 542.243 824.5 594C818.476 625.971 814.705 644.598 812 678C797.999 680.043 790.138 680.536 776 674C773.936 641.901 775.119 622.76 778.5 588Z" fill="url(#paint2_linear_169_1632)"/>
<path d="M831.5 676C846.93 678.548 855.569 678.811 871 676C875.108 645.117 874.331 626.774 874.5 589C874.657 554 878.701 498.849 871 451C856.724 452.258 847.655 456.93 828 455.5C824.92 469.815 824.119 479.981 824 501C824 525 828 579.5 828.001 591.5C828.681 625.476 832.156 642.023 831.5 676Z" fill="url(#paint3_linear_169_1632)"/>
<path d="M799 698.5C799 698.5 804.646 696.496 807.499 692.5C809.496 690.399 809.836 690.584 812.499 692.5C810.496 697.094 816.999 708.5 815.5 713.5C814 718.5 800.5 717 794.999 715C794.696 716.862 741.617 720.331 739.999 713.5C737.11 707 742.999 698.5 751.5 700.5C760 702.5 768.022 699.046 771 697C773.978 694.954 780 688 784 689C787.999 690 784.5 691.5 786.499 697C788.499 702.5 799 698.5 799 698.5Z" fill="url(#paint4_linear_169_1632)"/>
<path d="M871.5 706.5C873.5 713.5 872.5 716.5 872.5 716.5C864.065 721.054 859.5 714.5 852 717.5C844.5 720.5 813.499 722 801.5 716.5C797.996 715.5 803.263 703.236 811 704C818.738 704.764 823.116 704.258 831 700.5C831 700.5 835.5 689.5 839 689.5C842.5 689.5 842.5 696.5 842.5 696.5C849.861 703.112 854.396 704.41 864.5 695C864.5 695 864.5 689.5 868 689.5C871.5 689.5 870 694 870 694C868.584 698.646 869.5 699.5 871.5 706.5Z" fill="url(#paint5_linear_169_1632)"/>
<path d="M746.728 470.883C750.803 463.274 751.852 458.93 753.633 451.177L767.322 458.308C763.738 463.843 761.937 467.037 763.075 474.631L763.596 485.166C763.322 491.16 759.983 491.779 755.262 492.294C753.208 498.613 753.256 501.476 754.579 507.278C754.582 509.433 753.91 510.428 750.878 511.614C743.788 511.966 738.051 507.526 735.327 501.396C732.604 495.265 733.921 488.318 736.17 482.915C738.418 477.512 746.728 470.883 746.728 470.883Z" fill="#EBBE8E"/>
<path d="M782.116 342.361C784.809 333.074 795.879 314.959 811.498 323.68C827.117 332.4 819.485 357.078 819.485 357.078C799.465 398.463 788.926 422.291 771.953 466.527C762.435 460.737 756.71 457.976 745.479 454.815C745.472 454.815 745.465 454.813 745.459 454.809C745.465 454.811 745.472 454.813 745.479 454.815C746.998 454.668 779.437 351.601 782.116 342.361Z" fill="url(#paint6_linear_169_1632)"/>
<path d="M786.5 366C789.001 346 798.523 322.543 808.5 315.5C818.477 308.457 829.879 310.41 845.5 314C854.638 317.981 863.657 320.884 870.001 328C874.951 377.921 874.5 445.5 870.001 452.5C865.501 459.5 800.501 460 796.001 452.5C791.5 445 790.501 435.5 789.001 417C787.501 398.5 784 386 786.5 366Z" fill="url(#paint7_linear_169_1632)"/>
<path d="M849 385.5C829.547 402.529 819.845 413.42 804 435.5C830.669 461.643 846.032 475.4 875 496.5C889.961 474.731 899.299 463.618 917 445C890.759 423.335 875.914 410.526 849 385.5Z" fill="url(#paint8_linear_169_1632)"/>
<path d="M863 462C868.749 457.569 873.044 453.947 879 450.5L868.5 440C864.871 445.249 861.5 451.5 857 450.5C852.5 449.5 847 450 844.5 451C842 452 839.354 453.568 836 458.5C833.525 462.674 832.001 470.5 834.5 473.5C837 476.5 843 474.194 847 476.5C851 478.806 856.5 480 858.5 476.5C860.5 473 859.108 465 863 462Z" fill="#EBBE8E"/>
<path d="M887.5 343C884.499 338.5 871 320 858 329C845 338 851 355.5 851 355.5C860.545 377.9 868.601 391.204 885 415.5C873.195 422.508 867.412 427.496 858 437.5C867.701 442.557 872.361 446.473 878.5 456.5C878.5 456.5 919.5 426.5 919 417C918.499 407.5 890.5 347.5 887.5 343Z" fill="url(#paint9_linear_169_1632)"/>
<path d="M815 289.5C815.355 301.833 812.5 305.5 809.5 317C806.5 328.5 845.23 317.726 845.5 314C845.5 314 838.875 295.091 843 274L815 289.5Z" fill="#EBBE8E"/>
<path d="M798.402 260.697C799.625 270.13 801.352 286.044 810.926 289.813C820.501 293.582 835.787 282.864 840.332 278.498C844.878 274.132 856.261 257.198 856.048 248.187C855.836 239.177 852.239 230.615 842.495 224.668C832.751 218.721 817.635 219.079 808.991 227.275C800.347 235.47 797.18 251.263 798.402 260.697Z" fill="#F5CAAA"/>
<path d="M835.5 234.5C838.5 236.5 837.211 261.782 839 262C840.789 262.218 841.5 255.5 846 253.5C850.5 251.5 851 255.5 851 258.5C851 261.5 848.5 266.5 846 268C843.5 269.5 843 272 842.5 275.5L841.5 287.5C843.31 283.684 843.516 284.147 846 286C846.023 279.555 849.99 275.034 854.5 269.5L856.5 271C856.586 264.729 861.5 261.5 863.5 255.5C865.5 249.5 860.513 224.387 845.5 222C842.164 226.476 840.022 232.249 835.5 234.5Z" fill="#25254B"/>
<path d="M846 222.064C844.5 225.564 840.169 233.09 835.5 234.5C835.5 234.5 830 230.564 825.5 232.064C821 233.564 819.5 232.564 815 232.064C810.5 231.564 806.281 236.059 802 242.064C796.609 249.784 799.457 251.509 798.5 261.5C798.5 261.5 793 256.564 793 252.564C793 248.564 795.5 243.064 795.5 243.064C794.845 241.637 794.322 241.474 793 243.064C793.281 235.179 797 225.564 800 221.064C804 215.064 810 210.946 818 209.064C826.5 207.064 833 208.064 838.5 210.564C842.5 212.382 847.295 215.726 846 222.064Z" fill="#25254B"/>
<path d="M1113.5 471.5C1112 466 1111.5 454.5 1111.5 454.5H1098C1101.25 463.014 1102.78 467.624 1102 474C1102 474 1098 482.5 1099.5 488.5C1101 494.5 1108 508 1111.5 510C1115 512 1119 511.5 1122 508C1125 504.5 1123.5 494.5 1122 488.5C1120.5 482.5 1115 477 1113.5 471.5Z" fill="#EBBE8E"/>
<path d="M943.567 462.282C947.247 456.564 949.582 453.864 954.272 449.855L944.869 438.818C940.111 446.278 937.201 450.315 930.365 456.541C930.365 456.541 924.374 456.209 917.607 460.841C910.84 465.473 909.322 475.834 909.815 483.945C911.967 493.462 917.249 494.373 920.328 493.041C923.406 491.71 924.883 483.631 929.119 479.007C929.119 479.007 936.108 479.395 939.852 475.095C943.595 470.796 943.567 462.282 943.567 462.282Z" fill="#EBBE8E"/>
<path d="M937.5 441.5C945.765 445.944 949.041 449.777 953 458.5C966.988 447.589 978.5 435.5 985 425C991.5 414.5 1012 344.5 1012 344.5C1012 344.5 1017 330.5 1006.5 326C996 321.5 987.5 335 987.5 335C975.352 361.276 969.522 376.68 962.5 406.5C951.939 417.562 946.327 424.758 937.5 441.5Z" fill="url(#paint10_linear_169_1632)"/>
<path d="M1084.5 456C1075.15 465.826 1056.01 471.722 1042.5 470.5C1017.04 468.198 1025.03 442.923 1023.5 410.5C1020.48 365.349 1019.81 343.965 1035 312.5C1048 315 1057.98 321 1066.5 331C1078.86 345.5 1088.34 388.5 1089 410.5C1089.51 427.5 1090.68 449.5 1084.5 456Z" fill="url(#paint11_linear_169_1632)"/>
<path d="M997.5 594C991.873 640.895 988.051 664.986 980.5 705.5L962 702.5C964.5 659.5 965.805 631.143 964.5 583.5L997.5 594Z" fill="#EBBE8E"/>
<path d="M1059.81 586.532C1081.6 623.711 1093.91 644.713 1113.5 668.5L1102.5 681C1067.48 638.242 1052.09 626.744 1027.5 601L1059.5 586L1059.81 586.532Z" fill="#EBBE8E"/>
<path d="M980 451C980 451 957 577.5 960 589.5C963 601.5 1033 622.5 1078 598C1067.21 588.642 1060.5 584 1060.5 568C1060.5 552 1057.2 495.509 1049.5 452C1022.13 461.392 1007.31 458.709 980 451Z" fill="url(#paint12_linear_169_1632)"/>
<path d="M983.001 366.5C978.222 407.712 972.5 432 978.5 448.5C984.5 465 1046 458.5 1050 451.5C1054 444.5 1060.19 437.5 1064.6 406.5C1069 375.5 1053.1 324.5 1037.1 317.5C1021.1 310.5 1002.5 318.5 1002.5 318.5C991.5 328.5 985.784 342.5 983.001 366.5Z" fill="url(#paint13_linear_169_1632)"/>
<path d="M1007.5 288.5C1005.83 304.177 1004 314 1001.5 321C999 328 1038.5 321 1037 317.5C1035.5 314 1031.41 295.757 1030 278L1007.5 288.5Z" fill="#EBBE8E"/>
<path d="M994 268.5C995 277.5 995.999 287.71 1005 291.5C1014 295.289 1032 281 1032 281C1032 281 1050 263.5 1050 251.5C1050 239.5 1042.5 230.474 1036.5 227C1030.5 223.526 1019 220 1008 227C997 234 993 259.5 994 268.5Z" fill="#F5CAAA"/>
<path d="M1041.5 221.5C1041.5 226.5 1038.9 236.611 1031.5 239C1031.5 239 1020 239.999 1014 237C1008 234.001 1001.04 244.917 999.197 247.707C997.352 250.498 994.198 246.707 994.198 262.707C994.198 278.707 997.387 290.026 1007 292C1006.38 303.076 1005.74 308.489 1002.5 318.5C998.882 321.891 997.133 323.984 994.5 328C987 332.5 985.5 340.5 978 356.5C978 356.5 953.5 330 965.5 294C977.5 258 986 269 986 253.5C986 238 981.825 238.741 986 227C990.321 217.889 998 216 1001.5 213.5C1005 211 1016.5 200.5 1027.5 205.5C1038.5 210.5 1041.5 216.5 1041.5 221.5Z" fill="#25254B"/>
<path d="M1041 258.5C1032.5 259.5 1031.5 270 1031.5 265C1031.5 260 1038.5 247.5 1029 238.5C1033.88 234.461 1040.38 230.342 1041 223.5C1047.56 221.679 1050.46 221.946 1055 223.5C1067.96 229.603 1076.5 235 1077 250C1077.5 265 1058 274 1060 287C1062 300 1079 316 1081 330.5C1083 345 1077.5 353 1077.5 353C1077.5 353 1072.14 337 1063.5 328C1051.5 315.5 1038 313.5 1036 313C1034 312.5 1030.64 285.639 1030.5 282.5C1030.5 282.5 1031.5 277.5 1034.5 275C1037.5 272.5 1049.5 257.5 1041 258.5Z" fill="#25254B"/>
<path d="M1023 372C1039.42 407.208 1044.9 416.147 1060 440.5C1063.5 436.5 1064 429 1064 425C1049.35 407.156 1048.25 403.776 1034 375.5C1034 375.5 1024 351.5 1028.5 338.5C1033 325.5 1050.5 331 1050.5 331C1048 327.5 1045.5 323 1043 321.5C1043 321.5 1024.5 321.5 1019.5 337.5C1014.5 353.5 1023 372 1023 372Z" fill="url(#paint14_linear_169_1632)"/>
<path d="M1115.5 458.5C1106.73 458.704 1102.47 459.909 1096.5 464.5C1093.3 446.483 1090.12 436.294 1082.5 418C1055.53 391.889 1044.31 377.217 1029.5 351C1029.5 351 1024 336.5 1034 330.5C1044 324.5 1052.5 333 1052.5 333C1074.98 354.156 1086.6 369.632 1105.5 404.5C1111.13 425.632 1113.39 437.457 1115.5 458.5Z" fill="url(#paint15_linear_169_1632)"/>
<path d="M1117 663C1122.81 666.153 1125.02 668.739 1127.5 674.5C1123.86 681.732 1120.93 685.164 1112.5 689C1102.36 705.967 1089 715.5 1082.5 715C1076 714.5 1075.5 706.5 1077.5 701.5C1079.5 696.5 1084.5 696 1090 689C1095.5 682 1092.5 679 1092.5 674.5C1092.5 670 1099.5 674.5 1099.5 674.5C1106.7 674.457 1108.12 670.633 1108 660C1108.43 656.77 1109.63 656.296 1112.5 656.5C1113.95 661.101 1115.02 662.018 1117 663Z" fill="url(#paint16_linear_169_1632)"/>
<path d="M986 706.5C987.113 710.445 986.921 713.199 986 718.5C977.5 721.5 971 720 963 718C942.473 720.352 921.517 718.035 919.5 714C917.501 710 920.06 705.12 923 703C925.774 701 943 703 947.5 701C952 699 958 689 961 690C964 691 963 697 963 697C963 703 976 706.5 979.5 701C979.5 701 982.5 695 985 697C987.5 699 986 706.5 986 706.5Z" fill="url(#paint17_linear_169_1632)"/>
<path d="M207.652 250.969L250.994 125.761M250.994 125.761L306.232 250.969M250.994 125.761V103.099" stroke="#80809B" stroke-width="2"/>
<path d="M307.081 250.969C267.698 256.905 245.624 257.126 206.235 250.969C199.731 254.177 228.331 317.822 258.358 317.822C288.385 317.822 311.627 253.537 307.081 250.969Z" fill="url(#paint18_linear_169_1632)"/>
<path d="M218.7 240.771C234.563 240.771 234.563 254.368 234.563 254.368H231.73C233.264 253.181 229.744 239.67 217 243.887C204.256 248.104 206.235 320.655 203.403 331.702C200.57 342.75 190.673 357.147 175.642 360.313C175.642 360.313 194.338 354.081 200.57 334.819C206.802 315.556 202.836 240.771 218.7 240.771Z" fill="#996542"/>
<path d="M239.096 250.969C252.126 233.406 253.26 256.068 253.26 256.068H250.71C250.71 237.938 241.929 250.969 241.929 250.969C231.164 261.45 233.549 303.056 235.13 348.133C235.13 356.914 221.533 369.662 215.867 365.979C215.867 365.979 228.898 365.979 232.864 350.115C236.83 334.252 226.065 268.532 239.096 250.969Z" fill="#996542"/>
<path d="M288.669 241.054C264.307 214.993 263.457 255.501 263.457 255.501H264.873C264.873 255.501 265.723 232.433 275.355 233.689C288.385 235.389 299.533 258.617 303.116 274.764C306.698 290.911 317.313 337.368 324.645 348.699C331.976 360.03 338.808 360.88 338.808 360.88C309.348 349.549 313.03 267.116 288.669 241.054Z" fill="#996542"/>
<path d="M218.133 284.112C249.648 288.664 266.917 288.545 296.884 282.412" stroke="#00002E" stroke-opacity="0.3" stroke-width="2"/>
<path d="M331.649 368.439C334.209 374.449 349.062 379.046 360.904 375.51C341.749 373.035 352.893 357.831 341.053 354.649C329.212 351.467 329.088 362.428 331.649 368.439Z" fill="#92B559"/>
<path d="M317.526 361.723C320.444 358.589 329.462 347.683 322.831 342.459C316.2 337.235 311.227 347.683 310.564 355.193C309.901 362.703 313.322 370.484 317.526 376.743C316.863 374.24 314.609 364.858 317.526 361.723Z" fill="#92B559"/>
<path d="M298.017 327.736C295.185 316.689 310.481 299.975 313.598 309.89C316.714 319.805 311.615 326.32 312.465 337.368C313.314 348.416 298.017 351.815 298.017 351.815C303.737 343.883 300.85 338.784 298.017 327.736Z" fill="#92B559"/>
<path d="M337.959 330.569C339.092 321.788 319.829 314.139 315.864 322.354C311.898 330.569 330.877 333.969 332.294 341.051C333.71 348.132 345.041 346.999 345.041 346.999C345.041 346.999 336.826 339.351 337.959 330.569Z" fill="#92B559"/>
<path d="M321.832 307.475C313.122 306.938 303.647 298.486 306.75 291.353C309.852 284.22 315.116 284.766 318.334 286.807C321.553 288.848 319.151 296.724 324.419 298.993C329.687 301.262 342.677 299.925 342.677 299.925C342.677 299.925 330.542 308.012 321.832 307.475Z" fill="#92B559"/>
<path d="M303.79 284.845C308.323 279.18 307.19 265.299 300.958 263.599C294.726 261.9 290.477 273.514 291.326 284.845C292.176 296.176 295.292 301.558 295.292 301.558C295.292 301.558 299.258 290.511 303.79 284.845Z" fill="#92B559"/>
<path d="M275.356 271.081C270.643 254.122 271.106 231.14 277.905 231.14C284.704 231.14 291.219 241.054 284.137 248.986C277.055 256.918 276.769 268.285 275.356 271.081Z" fill="#92B559"/>
<path d="M202.836 395.156C202.714 373.99 210.485 354.648 216.717 363.429C222.949 372.211 222.666 382.125 216.717 382.125C210.768 382.125 202.836 395.156 202.836 395.156Z" fill="#84A353"/>
<path d="M228.615 362.296C235.13 366.459 236.547 388.924 236.547 388.924C236.547 388.924 246.744 370.511 244.478 359.463C242.212 348.415 239.096 347.849 231.448 350.115C223.799 352.381 222.099 358.133 228.615 362.296Z" fill="#84A353"/>
<path d="M228.897 321.221C241.361 320.938 234.28 327.17 234.28 327.17C234.28 327.17 237.112 341.334 228.897 341.334C220.682 341.334 214.167 353.798 214.167 353.798C214.167 353.798 216.433 321.504 228.897 321.221Z" fill="#84A353"/>
<path d="M246.744 319.805C248.16 312.156 242.778 297.143 234.563 302.525C226.348 307.907 236.262 316.972 236.262 316.972C236.262 328.02 243.694 339.205 251.559 342.75C246.663 334.188 245.327 327.453 246.744 319.805Z" fill="#84A353"/>
<path d="M226.915 273.064C237.113 263.716 226.348 276.464 235.413 274.764C244.478 273.064 238.812 300.542 230.314 301.675C221.816 302.808 216.717 317.539 216.717 317.539C216.717 317.539 216.717 282.412 226.915 273.064Z" fill="#84A353"/>
<path d="M250.427 252.102C243.912 247.853 234.847 259.184 234.847 259.184C234.847 259.184 241.646 267.399 240.513 274.197C239.38 280.996 254.11 285.528 254.11 285.528C254.11 285.528 243.912 276.18 250.427 270.798C256.943 265.416 256.943 256.351 250.427 252.102Z" fill="#84A353"/>
<path d="M166.294 354.365C166.294 354.365 170.259 349.832 175.642 357.481C181.024 365.129 198.02 366.546 181.024 370.511C164.027 374.477 158.928 390.057 158.928 390.057C156.099 372.101 154.861 362.281 166.294 354.365Z" fill="#92B559"/>
<path d="M179.607 323.204C190.088 319.805 201.419 329.719 201.419 329.719C201.419 329.719 201.703 346.149 186.689 340.484C171.675 334.818 170.115 344.11 159.495 346.433C159.495 346.433 169.126 326.603 179.607 323.204Z" fill="#92B559"/>
<path d="M201.136 334.535C197.737 321.505 204.536 307.624 204.536 307.624C204.536 307.624 217.85 303.942 216.15 324.621C214.45 345.3 204.536 360.03 204.536 360.03C204.536 360.03 204.536 347.566 201.136 334.535Z" fill="#92B559"/>
<path d="M184.14 289.494C194.338 284.112 203.12 283.546 204.82 289.494C206.519 295.443 204.82 311.873 198.871 310.74C192.922 309.607 197.171 305.641 190.656 304.225C184.14 302.808 167.71 318.105 167.71 318.105C167.71 318.105 173.943 294.877 184.14 289.494Z" fill="#92B559"/>
<path d="M208.785 293.177C207.369 290.061 204.253 284.679 208.785 275.614C213.317 266.549 225.781 265.982 225.215 278.73C224.648 291.477 229.464 307.907 229.464 307.907C218.523 308.016 210.201 296.293 208.785 293.177Z" fill="#92B559"/>
<path d="M190.089 248.419C194.905 238.788 214.45 229.157 216.717 238.788C218.983 248.42 212.468 254.652 202.553 254.652C192.639 254.652 186.973 277.314 186.973 277.314C186.973 277.314 185.273 258.051 190.089 248.419Z" fill="#92B559"/>
<circle cx="250.711" cy="100.549" r="2.54948" fill="#80809B"/>
<path d="M235.5 526.501L244 561.501H240.5L230.5 526.501H235.5Z" fill="#25254B"/>
<path d="M311.5 526.501L320 561.501H316.5L306.5 526.501H311.5Z" fill="#25254B"/>
<path d="M220.5 563.978C220.5 556.405 226.536 550.203 234.106 549.984C286.736 548.458 321.425 547.669 377.109 549.824C384.594 550.114 390.5 556.283 390.5 563.774V571.501C390.5 579.233 384.232 585.501 376.5 585.501H234.5C226.768 585.501 220.5 579.233 220.5 571.501V563.978Z" fill="url(#paint19_linear_169_1632)"/>
<path d="M234.226 585.501L186.226 717.501H189.226L239.226 585.501H234.226Z" fill="#25254B"/>
<path d="M313.226 585.501L354.226 717.501H351.226L308.226 585.501H313.226Z" fill="#25254B"/>
<path d="M373.226 585.501L414.226 717.501H411.226L368.226 585.501H373.226Z" fill="#25254B"/>
<path d="M185.173 454.203C183.147 445.405 189.979 437.401 199.007 437.307C233.156 436.952 265.34 436.848 297.437 437.303C304.482 437.403 310.452 442.44 312.079 449.294C318.481 476.266 326.487 495.514 332.135 519.892C334.206 528.832 327.241 537.079 318.064 536.996C289.142 536.734 258.725 535.454 222.484 536.572C215.71 536.781 209.534 532.548 207.314 526.145C201.317 508.853 190.904 479.094 185.173 454.203Z" fill="url(#paint20_linear_169_1632)"/>
<path d="M375.5 528.501L384 563.501H380.5L370.5 528.501H375.5Z" fill="#25254B"/>
<path d="M451.5 528.501L460 563.501H456.5L446.5 528.501H451.5Z" fill="#25254B"/>
<path d="M360.5 565.978C360.5 558.405 366.536 552.203 374.106 551.984C426.736 550.458 461.425 549.669 517.109 551.824C524.594 552.114 530.5 558.283 530.5 565.774V573.501C530.5 581.233 524.232 587.501 516.5 587.501H374.5C366.768 587.501 360.5 581.233 360.5 573.501V565.978Z" fill="url(#paint21_linear_169_1632)"/>
<path d="M374.226 587.501L326.226 719.501H329.226L379.226 587.501H374.226Z" fill="#25254B"/>
<path d="M453.226 587.501L494.226 719.501H491.226L448.226 587.501H453.226Z" fill="#25254B"/>
<path d="M513.226 587.501L554.226 719.501H551.226L508.226 587.501H513.226Z" fill="#25254B"/>
<path d="M325.173 456.203C323.147 447.405 329.979 439.401 339.007 439.307C373.156 438.952 405.34 438.848 437.437 439.303C444.482 439.403 450.452 444.44 452.079 451.294C458.481 478.266 466.487 497.514 472.135 521.892C474.206 530.832 467.241 539.079 458.064 538.996C429.142 538.734 398.725 537.454 362.484 538.572C355.71 538.781 349.534 534.548 347.314 528.145C341.317 510.853 330.904 481.094 325.173 456.203Z" fill="url(#paint22_linear_169_1632)"/>
<path d="M515.726 528.501L524.226 563.501H520.726L510.726 528.501H515.726Z" fill="#25254B"/>
<path d="M591.726 528.501L600.226 563.501H596.726L586.726 528.501H591.726Z" fill="#25254B"/>
<path d="M500.726 565.978C500.726 558.405 506.762 552.203 514.331 551.984C566.961 550.458 601.651 549.669 657.334 551.824C664.82 552.114 670.726 558.283 670.726 565.774V573.501C670.726 581.233 664.458 587.501 656.726 587.501H514.726C506.994 587.501 500.726 581.233 500.726 573.501V565.978Z" fill="url(#paint23_linear_169_1632)"/>
<path d="M514.451 587.501L466.451 719.501H469.451L519.451 587.501H514.451Z" fill="#25254B"/>
<path d="M593.451 587.501L634.451 719.501H631.451L588.451 587.501H593.451Z" fill="#25254B"/>
<path d="M653.451 587.501L694.451 719.501H691.451L648.451 587.501H653.451Z" fill="#25254B"/>
<path d="M465.398 456.203C463.373 447.405 470.205 439.401 479.233 439.307C513.382 438.952 545.566 438.848 577.663 439.303C584.707 439.403 590.677 444.44 592.304 451.294C598.706 478.266 606.713 497.514 612.36 521.892C614.432 530.832 607.466 539.079 598.29 538.996C569.367 538.734 538.951 537.454 502.709 538.572C495.935 538.781 489.76 534.548 487.539 528.145C481.542 510.853 471.13 481.094 465.398 456.203Z" fill="url(#paint24_linear_169_1632)"/>
<path d="M1333.73 530.501L1325.23 565.501H1328.73L1338.73 530.501H1333.73Z" fill="#25254B"/>
<path d="M1257.73 530.501L1249.23 565.501H1252.73L1262.73 530.501H1257.73Z" fill="#25254B"/>
<path d="M1348.73 567.978C1348.73 560.405 1342.69 554.203 1335.12 553.984C1282.49 552.458 1247.8 551.669 1192.12 553.824C1184.63 554.114 1178.73 560.283 1178.73 567.774V575.501C1178.73 583.233 1184.99 589.501 1192.73 589.501H1334.73C1342.46 589.501 1348.73 583.233 1348.73 575.501V567.978Z" fill="url(#paint25_linear_169_1632)"/>
<path d="M1335 589.501L1383 721.501H1380L1330 589.501H1335Z" fill="#25254B"/>
<path d="M1256 589.501L1215 721.501H1218L1261 589.501H1256Z" fill="#25254B"/>
<path d="M1196 589.501L1155 721.501H1158L1201 589.501H1196Z" fill="#25254B"/>
<path d="M1384.05 458.203C1386.08 449.405 1379.25 441.401 1370.22 441.307C1336.07 440.952 1303.89 440.848 1271.79 441.303C1264.74 441.403 1258.77 446.44 1257.15 453.294C1250.74 480.266 1242.74 499.514 1237.09 523.892C1235.02 532.832 1241.99 541.079 1251.16 540.996C1280.08 540.734 1310.5 539.454 1346.74 540.572C1353.52 540.781 1359.69 536.548 1361.91 530.145C1367.91 512.853 1378.32 483.094 1384.05 458.203Z" fill="url(#paint26_linear_169_1632)"/>
<defs>
<linearGradient id="paint0_linear_169_1632" x1="544.5" y1="125" x2="544.5" y2="351" gradientUnits="userSpaceOnUse">
<stop stop-color="white" stop-opacity="0"/>
<stop offset="1" stop-color="#ECEFFD" stop-opacity="0.47"/>
</linearGradient>
<linearGradient id="paint1_linear_169_1632" x1="491" y1="254" x2="384" y2="332" gradientUnits="userSpaceOnUse">
<stop stop-color="#666785"/>
<stop offset="1" stop-color="#CCCCE0"/>
</linearGradient>
<linearGradient id="paint2_linear_169_1632" x1="834.5" y1="504.5" x2="789.5" y2="498.5" gradientUnits="userSpaceOnUse">
<stop offset="0.015625" stop-color="#184CD3"/>
<stop offset="0.635417" stop-color="#184CD3"/>
<stop offset="1" stop-color="#486FD5"/>
</linearGradient>
<linearGradient id="paint3_linear_169_1632" x1="854" y1="511.5" x2="814.224" y2="513.055" gradientUnits="userSpaceOnUse">
<stop stop-color="#2C60E7"/>
<stop offset="0.546875" stop-color="#4074FB"/>
<stop offset="1" stop-color="#95B2FF"/>
</linearGradient>
<linearGradient id="paint4_linear_169_1632" x1="777.491" y1="688.902" x2="777.491" y2="717.55" gradientUnits="userSpaceOnUse">
<stop stop-color="#DCE4FA"/>
<stop offset="1" stop-color="#C5CBD9"/>
</linearGradient>
<linearGradient id="paint5_linear_169_1632" x1="836.572" y1="689.5" x2="836.572" y2="720.19" gradientUnits="userSpaceOnUse">
<stop stop-color="#E2EBFF"/>
<stop offset="1" stop-color="#C3CDE8"/>
</linearGradient>
<linearGradient id="paint6_linear_169_1632" x1="811" y1="403.5" x2="768.827" y2="383.713" gradientUnits="userSpaceOnUse">
<stop stop-color="#2C60E7"/>
<stop offset="0.546875" stop-color="#4074FB"/>
<stop offset="1" stop-color="#95B2FF"/>
</linearGradient>
<linearGradient id="paint7_linear_169_1632" x1="869" y1="377.5" x2="793.078" y2="347.749" gradientUnits="userSpaceOnUse">
<stop stop-color="#2C60E7"/>
<stop offset="0.546875" stop-color="#4074FB"/>
<stop offset="1" stop-color="#95B2FF"/>
</linearGradient>
<linearGradient id="paint8_linear_169_1632" x1="804" y1="401" x2="912" y2="486" gradientUnits="userSpaceOnUse">
<stop stop-color="#F9C8C5"/>
<stop offset="1" stop-color="#BE6F69"/>
</linearGradient>
<linearGradient id="paint9_linear_169_1632" x1="919" y1="378.5" x2="842.653" y2="380.887" gradientUnits="userSpaceOnUse">
<stop stop-color="#2C60E7"/>
<stop offset="0.546875" stop-color="#4074FB"/>
<stop offset="1" stop-color="#95B2FF"/>
</linearGradient>
<linearGradient id="paint10_linear_169_1632" x1="980" y1="399" x2="960.167" y2="391.286" gradientUnits="userSpaceOnUse">
<stop stop-color="#2C60E7"/>
<stop offset="0.546875" stop-color="#4074FB"/>
<stop offset="1" stop-color="#95B2FF"/>
</linearGradient>
<linearGradient id="paint11_linear_169_1632" x1="1059" y1="351" x2="1081.5" y2="335.5" gradientUnits="userSpaceOnUse">
<stop stop-color="#BD7D79"/>
<stop offset="1" stop-color="#FFBBB7"/>
</linearGradient>
<linearGradient id="paint12_linear_169_1632" x1="1055.5" y1="485.5" x2="980.913" y2="469.99" gradientUnits="userSpaceOnUse">
<stop offset="0.015625" stop-color="#184CD3"/>
<stop offset="0.635417" stop-color="#184CD3"/>
<stop offset="1" stop-color="#486FD5"/>
</linearGradient>
<linearGradient id="paint13_linear_169_1632" x1="1059" y1="399.5" x2="974.792" y2="380.416" gradientUnits="userSpaceOnUse">
<stop stop-color="#2C60E7"/>
<stop offset="0.546875" stop-color="#4074FB"/>
<stop offset="1" stop-color="#95B2FF"/>
</linearGradient>
<linearGradient id="paint14_linear_169_1632" x1="1019.5" y1="329.5" x2="1090" y2="346.5" gradientUnits="userSpaceOnUse">
<stop stop-color="#F3C6C4"/>
<stop offset="1" stop-color="#AE6965"/>
</linearGradient>
<linearGradient id="paint15_linear_169_1632" x1="1070" y1="350" x2="1033.53" y2="365.27" gradientUnits="userSpaceOnUse">
<stop stop-color="#2C60E7"/>
<stop offset="0.546875" stop-color="#4074FB"/>
<stop offset="1" stop-color="#95B2FF"/>
</linearGradient>
<linearGradient id="paint16_linear_169_1632" x1="1092" y1="680" x2="1111" y2="700" gradientUnits="userSpaceOnUse">
<stop stop-color="#E2EBFF"/>
<stop offset="1" stop-color="#C3CDE8"/>
</linearGradient>
<linearGradient id="paint17_linear_169_1632" x1="952.777" y1="689.93" x2="952.777" y2="720.197" gradientUnits="userSpaceOnUse">
<stop stop-color="#E2EBFF"/>
<stop offset="1" stop-color="#C3CDE8"/>
</linearGradient>
<linearGradient id="paint18_linear_169_1632" x1="256.477" y1="250.969" x2="256.477" y2="317.822" gradientUnits="userSpaceOnUse">
<stop stop-color="#E4C6B2"/>
<stop offset="1" stop-color="#F08541"/>
</linearGradient>
<linearGradient id="paint19_linear_169_1632" x1="428" y1="549" x2="255.499" y2="621.402" gradientUnits="userSpaceOnUse">
<stop stop-color="#A8A8C1"/>
<stop offset="1" stop-color="#6D6D7A"/>
</linearGradient>
<linearGradient id="paint20_linear_169_1632" x1="346" y1="437" x2="174.16" y2="483.809" gradientUnits="userSpaceOnUse">
<stop stop-color="#A8A8C1"/>
<stop offset="1" stop-color="#6D6D7A"/>
</linearGradient>
<linearGradient id="paint21_linear_169_1632" x1="568" y1="551" x2="395.499" y2="623.402" gradientUnits="userSpaceOnUse">
<stop stop-color="#A8A8C1"/>
<stop offset="1" stop-color="#6D6D7A"/>
</linearGradient>
<linearGradient id="paint22_linear_169_1632" x1="486" y1="439" x2="314.16" y2="485.809" gradientUnits="userSpaceOnUse">
<stop stop-color="#A8A8C1"/>
<stop offset="1" stop-color="#6D6D7A"/>
</linearGradient>
<linearGradient id="paint23_linear_169_1632" x1="708.226" y1="551" x2="535.725" y2="623.402" gradientUnits="userSpaceOnUse">
<stop stop-color="#A8A8C1"/>
<stop offset="1" stop-color="#6D6D7A"/>
</linearGradient>
<linearGradient id="paint24_linear_169_1632" x1="626.226" y1="439" x2="454.386" y2="485.809" gradientUnits="userSpaceOnUse">
<stop stop-color="#A8A8C1"/>
<stop offset="1" stop-color="#6D6D7A"/>
</linearGradient>
<linearGradient id="paint25_linear_169_1632" x1="1141.23" y1="553" x2="1313.73" y2="625.402" gradientUnits="userSpaceOnUse">
<stop stop-color="#A8A8C1"/>
<stop offset="1" stop-color="#6D6D7A"/>
</linearGradient>
<linearGradient id="paint26_linear_169_1632" x1="1223.23" y1="441" x2="1395.07" y2="487.809" gradientUnits="userSpaceOnUse">
<stop stop-color="#A8A8C1"/>
<stop offset="1" stop-color="#6D6D7A"/>
</linearGradient>
</defs>
</svg>
