<svg width="32" height="32" viewBox="0 0 32 32" fill="none" xmlns="http://www.w3.org/2000/svg">
<g clip-path="url(#clip0_1042_1960)">
<path d="M16 25.7501C15.894 25.7501 15.7879 25.728 15.6889 25.683C15.3619 25.534 7.66598 21.9651 6.43198 15.6091C5.95498 13.1501 6.43398 10.751 7.71298 9.19305C8.74798 7.93105 10.2359 7.26003 12.0169 7.25103C12.0259 7.25103 12.0349 7.25103 12.0429 7.25103C14.0749 7.25103 15.314 8.40806 15.999 9.39306C16.687 8.40406 17.9359 7.24203 19.9809 7.25103C21.7629 7.26003 23.2519 7.93105 24.2879 9.19305C25.5649 10.75 26.0429 13.149 25.5649 15.61C24.3329 21.966 16.6359 25.5361 16.3089 25.6841C16.2119 25.7281 16.106 25.7501 16 25.7501ZM12.042 8.75005C12.036 8.75005 12.031 8.75005 12.025 8.75005C10.687 8.75605 9.62702 9.22503 8.87302 10.144C7.87402 11.361 7.513 13.297 7.905 15.323C8.86 20.247 14.593 23.447 16 24.165C17.407 23.447 23.14 20.247 24.094 15.323C24.488 13.296 24.127 11.36 23.13 10.144C22.376 9.22603 21.3159 8.75803 19.9749 8.75103C19.9689 8.75103 19.963 8.75103 19.958 8.75103C17.586 8.75103 16.745 11.1281 16.711 11.2291C16.607 11.5321 16.3209 11.738 16.0009 11.738C15.9989 11.738 15.9979 11.738 15.9969 11.738C15.6759 11.737 15.3899 11.532 15.2879 11.227C15.2549 11.127 14.413 8.75005 12.042 8.75005Z" fill="#00002E"/>
</g>
<defs>
<clipPath id="clip0_1042_1960">
<rect width="32" height="32" rx="6" fill="white"/>
</clipPath>
</defs>
</svg>
