<svg width="387" height="270" viewBox="0 0 387 270" fill="none" xmlns="http://www.w3.org/2000/svg">
<path d="M155.671 4.65211C142.965 -5.81514 49.5367 4.65211 49.5367 4.65211C12.7046 8.75104 -1.28827 56.2407 17.3974 56.2407H36.0831C55.8898 56.2407 57.1978 68.2032 36.0831 68.2032H17.3974C-1.28828 68.2032 -7.08084 91.3807 27.1139 91.3807H72.7069C90.4583 91.3807 91.3926 117.736 72.7069 118.11C54.0213 118.483 18.7054 119.044 8.98885 119.044C-0.727689 119.044 -2.4094 139.044 8.05455 139.044C18.5185 139.044 33.3776 145.542 22.2557 147.268C11.1337 148.995 1.8883 143.904 1.88831 154.371C1.88832 164.838 10.4837 163.717 27.1139 163.717C43.7442 163.717 43.3704 181.1 27.1139 181.1H12.1654C-2.78311 181.1 0.767146 212.502 12.1654 212.502H36.0831C45.239 212.502 42.9967 227.455 36.0831 227.455H21.882C6.74657 227.455 5.06486 259.978 21.882 260.352C38.699 260.726 117.366 259.791 142.218 260.352C167.07 260.913 148.197 270.707 196.032 269.959C243.868 269.212 214.531 260.352 230.414 260.352C246.297 260.352 355.234 266.707 373.92 260.352C392.605 253.997 387.373 193.81 373.92 193.81H291.703C280.305 193.81 279.557 181.1 291.703 181.1H306.651C316.555 181.1 313.005 172.128 306.651 172.128H291.703C278.997 172.128 277.128 164.651 291.703 164.651H373.92C389.616 164.651 384.758 114.558 373.92 114.558H291.703C279.37 114.558 283.108 101.848 291.703 101.848H335.054C349.255 101.848 349.255 82.4088 335.054 82.4088H315.621C302.167 82.4088 303.662 71.9415 315.621 71.9415H349.255C363.456 71.9415 349.255 20.7268 335.054 12.1287C320.853 3.53065 204.254 6.14747 196.032 12.1287C187.811 18.11 199.769 33.8109 179.589 33.8109H155.671C135.491 33.8109 168.378 15.1194 155.671 4.65211Z" fill="#EBEFFF" fill-opacity="0.7"/>
<path d="M65.2118 230.397L318.004 230.397" stroke="#5F5F74" stroke-width="2.08346"/>
<path d="M153.933 88.3746C154.327 92.7723 154.687 95.2269 156.364 97.9238C150.728 99.0909 147.789 99.2679 144.037 96.3612C145.481 92.7986 145.779 89.3789 146.294 83.8605C148.204 85.9439 150.981 88.0274 153.933 88.3746Z" fill="#EBBE8E"/>
<path d="M160.704 77.4366C160.704 80.5618 159.142 88.722 154.628 88.722C150.113 88.722 145.947 83.8606 145.599 83.3397C145.252 82.8188 144.905 81.9507 144.905 81.9507C144.905 81.9507 141.606 77.6102 142.301 76.0476C142.995 74.485 145.21 75.2387 145.599 78.1311L147.162 78.6519C146.776 75.2416 146.971 73.6407 148.204 71.1862C148.204 71.1862 148.254 71.044 148.389 70.8256C148.79 70.1796 149.935 68.8676 152.728 68.6013C154.354 68.3668 156.078 68.5847 157.406 69.3817C160.268 71.0632 160.704 74.9591 160.704 77.4366Z" fill="#F5CAAA"/>
<path d="M134.487 216.16L133.619 221.195C135.814 223.49 137.302 223.673 140.043 223.626L141.084 217.202L134.487 216.16Z" fill="#EBBE8E"/>
<path d="M159.836 215.639L160.357 222.584C162.401 223.777 163.641 223.703 165.913 223.105V214.25L159.836 215.639Z" fill="#EBBE8E"/>
<path d="M168.517 180.568C168.517 172.234 161.572 140.635 161.572 140.635H153.412V159.212C153.079 166.54 152.637 170.642 151.328 177.963L156.884 217.375C162.208 217.616 164.8 217.12 168.517 214.945V180.568Z" fill="url(#paint0_linear_165_2829)"/>
<path d="M144.73 218.243L151.328 177.963C152.637 170.642 153.079 166.54 153.412 159.212V141.156C153.412 141.156 148.344 141.678 135.876 138.204C135.876 138.204 132.751 161.817 132.751 171.366V216.334C137.538 218.164 140.145 218.423 144.73 218.243Z" fill="url(#paint1_linear_165_2829)"/>
<path d="M133.272 153.483L132.23 147.927C134.255 147.635 135.229 148.023 136.744 149.489V153.483C138.175 154.798 138.445 155.562 138.307 156.955L138.313 157.026C138.646 160.792 138.814 162.691 136.744 163.726C134.66 164.768 132.814 162.511 131.362 159.212C131.42 156.091 131.742 154.714 133.272 153.483Z" fill="#EBBE8E"/>
<path d="M162.266 107.647C162.266 107.647 159.315 97.7502 153.412 100.528C147.508 103.306 150.981 115.807 154.453 121.363C157.926 126.919 164.871 136.641 170.079 137.162C175.288 137.683 184.837 126.919 184.837 126.919C183.731 124.791 183.171 123.569 182.233 121.363C182.233 121.363 172.336 126.919 170.079 125.877C167.822 124.835 162.266 107.647 162.266 107.647Z" fill="url(#paint2_linear_165_2829)"/>
<path d="M156.363 97.7504C161.958 112.564 163.45 122.989 163.134 141.156C152.085 143.257 145.859 142.833 134.66 137.857C134.803 115.478 135.702 102.612 144.21 96.0142C147.856 98.6185 150.286 98.9657 156.363 97.7504Z" fill="url(#paint3_linear_165_2829)"/>
<path d="M138.171 151.92C135.263 149.019 134.171 149.482 130.493 150.184C129.073 134.336 130.802 112.852 133.412 107.643C136.021 102.433 140.473 99.4816 144.004 100.871C147.534 102.26 149.223 110.594 148.302 115.109C147.381 119.624 142.716 139.947 138.171 151.92Z" fill="url(#paint4_linear_165_2829)"/>
<path d="M154.627 68.5818C149.245 68.2346 148.203 71.1862 148.203 71.1862C148.135 69.1681 147.721 68.4385 146.119 68.061C144.518 67.6835 143.862 68.061 143.862 68.061C143.91 65.9593 144.557 64.2414 146.119 63.1996C147.682 62.1579 153.064 61.4642 156.363 62.1579C160.009 62.9245 161.919 65.9775 162.613 68.061C163.655 71.1862 162.093 75.004 160.704 77.4365C160.704 73.4432 159.407 70.5837 157.405 69.3817C156.656 68.9421 155.742 68.6538 154.627 68.5818Z" fill="#25254B"/>
<path d="M160.704 77.4365C160.704 74.3113 160.009 68.9291 154.627 68.5818C149.245 68.2346 148.203 71.1862 148.203 71.1862C148.135 69.1681 147.721 68.4385 146.119 68.061C144.518 67.6835 143.862 68.061 143.862 68.061C143.91 65.9593 144.557 64.2414 146.119 63.1996C147.682 62.1579 153.064 61.4642 156.363 62.1579C160.009 62.9245 161.919 65.9775 162.613 68.061C163.655 71.1862 162.093 75.004 160.704 77.4365ZM160.704 77.4365C160.704 73.4432 159.407 70.5837 157.405 69.3817" stroke="#25254B" stroke-width="0.347243"/>
<path d="M140.39 71.8807C140.564 70.839 141.258 68.7554 143.342 68.2346C147.161 67.5401 147.857 68.4628 148.377 70.6653C147.086 73.42 146.819 75.1802 147.161 78.6519L145.599 78.131C145.273 75.3855 143.342 74.6586 142.3 75.8739C141.453 77.6102 146.293 84.3814 146.293 84.3814C143.862 84.3814 141.226 77.7239 140.737 75.8739C140.36 74.445 140.247 72.737 140.39 71.8807Z" fill="#25254B" stroke="#25254B" stroke-width="0.347243"/>
<path d="M131.535 221.021C130.325 223.247 129.278 226.751 129.626 227.793C129.973 228.834 137.265 230.223 137.265 230.223C143.513 232.312 149.071 232.828 152.37 231.612C153.099 231.344 152.891 228.661 151.849 227.793C150.807 226.924 147.161 226.404 147.161 226.404C144.464 225.614 140.39 222.758 140.39 222.758C137.612 224.494 135.795 223.3 133.098 220.327C132.45 220.231 132.102 220.354 131.535 221.021Z" fill="url(#paint5_linear_165_2829)"/>
<path d="M158.446 222.758C157.663 224.503 157.487 229.042 157.925 230.05C158.363 231.058 164.87 230.397 165.564 230.397C166.259 230.397 178.065 230.744 180.843 229.182C180.843 229.182 180.843 225.362 179.28 224.668C177.718 223.973 172.683 223.973 172.683 223.973C170.599 223.626 169.533 223.549 166.78 221.89C165.738 223.105 162.613 224.668 159.661 221.89C158.979 221.986 158.709 222.167 158.446 222.758Z" fill="url(#paint6_linear_165_2829)"/>
<rect x="96.3391" y="124.568" width="20.1401" height="3.12519" rx="0.694486" transform="rotate(-33.9214 96.3391 124.568)" fill="#80809B"/>
<rect x="116.583" y="107.473" width="8.68282" height="12.7315" rx="3.12518" transform="rotate(56.0786 116.583 107.473)" fill="#2D2D64"/>
<path d="M97.1582 120.147L98.4092 119.332L102.576 126.173V134.749H100.84V126.173L97.1582 120.147Z" fill="#2D2D64"/>
<path d="M82.2266 130.738H123.201L119.729 142.197H85.699L82.2266 130.738Z" fill="url(#paint7_linear_165_2829)"/>
<path d="M85.6992 142.197H119.729L116.257 222.758H89.1716L85.6992 142.197Z" fill="url(#paint8_linear_165_2829)"/>
<rect x="85.6992" y="222.758" width="34.0298" height="4.16691" fill="#F79855"/>
<path d="M85.6992 226.924H119.729L116.257 235.606H89.1716L85.6992 226.924Z" fill="url(#paint9_linear_165_2829)"/>
<rect x="228.069" y="160.601" width="2.4307" height="69.7958" rx="1.21535" fill="#80809B"/>
<path d="M198.444 161.691C198.506 161.072 199.026 160.601 199.648 160.601C200.363 160.601 200.922 161.219 200.851 161.93L194.147 229.307C194.085 229.926 193.565 230.397 192.944 230.397C192.228 230.397 191.669 229.78 191.74 229.068L198.444 161.691Z" fill="#80809B"/>
<path d="M256.675 161.93C256.604 161.219 257.163 160.601 257.878 160.601C258.5 160.601 259.02 161.072 259.082 161.691L265.786 229.068C265.857 229.78 265.298 230.397 264.583 230.397C263.961 230.397 263.441 229.926 263.379 229.307L256.675 161.93Z" fill="#80809B"/>
<path d="M184.663 156.434H272.863L265.918 165.115H191.608L184.663 156.434Z" fill="url(#paint10_linear_165_2829)"/>
<path fill-rule="evenodd" clip-rule="evenodd" d="M84.6573 37.33C80.8217 37.33 77.7124 40.4393 77.7124 44.2749V78.9991C77.7124 82.8347 80.8217 85.944 84.6573 85.944H96.8359C102.649 91.311 107.97 93.5788 120.076 96.3612C115.177 92.0359 112.723 89.5826 114.987 85.944H125.979C129.815 85.944 132.924 82.8347 132.924 78.9991V44.2749C132.924 40.4393 129.815 37.33 125.979 37.33H84.6573Z" fill="white"/>
<path d="M82.9214 73.1004V49.829C82.9214 45.9935 86.0307 42.886 89.8662 42.886H120.771C124.606 42.886 127.716 45.9954 127.716 49.8309V73.0961C127.716 76.9317 124.606 80.041 120.771 80.041H89.8662C86.0307 80.041 82.9214 76.936 82.9214 73.1004Z" fill="url(#paint11_linear_165_2829)"/>
<path d="M88.4773 75.1796C88.4773 75.1796 93.3387 63.3734 98.2001 63.0261C103.061 62.6789 104.45 69.2765 109.312 68.2348C114.173 67.193 120.076 51.9144 120.076 51.9144" stroke="#E59E9B" stroke-width="1.04173" stroke-linecap="round"/>
<path d="M121.118 56.7757C120.148 54.5321 119.056 53.9281 115.562 54.6922C119.023 52.2046 119.939 50.416 121.118 47.0529C120.705 51.0564 120.569 53.2533 121.118 56.7757Z" fill="#E59E9B"/>
<path d="M87.783 47.7473V75.5267H123.202" stroke="#9E9AB3" stroke-width="0.694485" stroke-linecap="round"/>
<path d="M184.663 53.3032C184.663 51.3854 186.218 49.8307 188.136 49.8307H269.39C271.308 49.8307 272.863 51.3854 272.863 53.3032V156.434H184.663V53.3032Z" fill="white"/>
<path d="M199.594 67.1926C199.594 66.2337 200.371 65.4564 201.33 65.4564C202.289 65.4564 203.067 66.2337 203.067 67.1926V114.765H199.594V67.1926Z" fill="#BFCFF7"/>
<path d="M207.928 81.0824C207.928 80.1235 208.705 79.3462 209.664 79.3462C210.623 79.3462 211.4 80.1235 211.4 81.0824V114.765H207.928V81.0824Z" fill="#BFCFF7"/>
<path d="M216.262 76.5682C216.262 75.6093 217.039 74.832 217.998 74.832C218.957 74.832 219.735 75.6093 219.735 76.5682V114.765H216.262V76.5682Z" fill="#BFCFF7"/>
<path d="M224.595 83.513C224.595 82.5541 225.373 81.7768 226.332 81.7768C227.29 81.7768 228.068 82.5541 228.068 83.513V114.765H224.595V83.513Z" fill="#BFCFF7"/>
<path d="M232.929 91.4996C232.929 90.5408 233.706 89.7634 234.665 89.7634C235.624 89.7634 236.401 90.5408 236.401 91.4996V114.765H232.929V91.4996Z" fill="#BFCFF7"/>
<path d="M241.263 99.8334C241.263 98.8746 242.041 98.0972 242.999 98.0972C243.958 98.0972 244.736 98.8746 244.736 99.8334V114.765H241.263V99.8334Z" fill="#BFCFF7"/>
<path d="M249.597 95.6665C249.597 94.7076 250.374 93.9302 251.333 93.9302C252.292 93.9302 253.069 94.7076 253.069 95.6665V114.765H249.597V95.6665Z" fill="#BFCFF7"/>
<path d="M257.932 103.653C257.932 102.694 258.709 101.917 259.668 101.917C260.627 101.917 261.404 102.694 261.404 103.653V114.765H257.932V103.653Z" fill="#BFCFF7"/>
<path d="M195.775 60.595V114.765H261.751" stroke="#000038" stroke-opacity="0.5" stroke-width="0.347243" stroke-linecap="round"/>
<rect x="195.775" y="121.71" width="65.9761" height="3.47243" fill="#000038" fill-opacity="0.15"/>
<rect x="196.122" y="128.655" width="14.237" height="1.04173" fill="#000038" fill-opacity="0.15"/>
<circle cx="216.088" cy="129.175" r="1.56259" fill="#BFCFF7"/>
<rect x="221.818" y="128.655" width="14.237" height="1.04173" fill="#000038" fill-opacity="0.15"/>
<circle cx="241.784" cy="129.175" r="1.56259" fill="#BFCFF7"/>
<rect x="247.514" y="128.655" width="14.237" height="1.04173" fill="#000038" fill-opacity="0.15"/>
<rect x="195.775" y="144.628" width="65.9761" height="4.51415" fill="#000038" fill-opacity="0.15"/>
<rect x="210.706" y="134.21" width="10.4173" height="6.94485" fill="#BFCFF7"/>
<rect x="236.749" y="134.21" width="10.4173" height="6.94485" fill="#BFCFF7"/>
<rect x="196.122" y="134.21" width="10.4173" height="1.73621" fill="#000038" fill-opacity="0.15"/>
<rect x="196.122" y="139.418" width="10.4173" height="1.73621" fill="#000038" fill-opacity="0.15"/>
<rect x="224.249" y="134.209" width="8.33383" height="1.73621" fill="#000038" fill-opacity="0.15"/>
<rect x="224.249" y="139.418" width="8.33383" height="1.73621" fill="#000038" fill-opacity="0.15"/>
<rect x="250.986" y="134.21" width="10.4173" height="1.73621" fill="#000038" fill-opacity="0.15"/>
<rect x="250.986" y="139.418" width="10.4173" height="1.73621" fill="#000038" fill-opacity="0.15"/>
<rect x="58.2676" y="183.866" width="1.38897" height="59.0313" fill="#00002E"/>
<path d="M54.7952 183.866H56.1842L52.7117 242.898H51.3228L54.7952 183.866Z" fill="#00002E"/>
<rect x="73.8929" y="183.866" width="1.38897" height="59.0313" fill="#00002E"/>
<path d="M77.365 183.866H78.754L82.2264 242.898H80.8374L77.365 183.866Z" fill="#00002E"/>
<rect x="51.3228" y="180.741" width="30.9046" height="3.47243" fill="#E8A578"/>
<path d="M70.2468 141.85C67.1216 149.316 70.7111 156.506 69.3787 159.559H71.1149C70.8092 156.905 67.9898 150.705 70.2468 141.85Z" fill="#DD8142"/>
<path d="M71.0979 132.876C68.3218 137.465 69.4014 145.844 69.4014 145.844C69.4014 145.844 73.4111 145.471 75.9687 142.091C78.5264 138.711 81.2061 127.344 81.2061 127.344C81.2061 127.344 73.874 128.288 71.0979 132.876Z" fill="#92B559"/>
<path d="M66.4273 143.239C64.691 152.094 66.4273 159.733 66.4273 159.733L64.691 160.601V149.316C64.691 142.892 68.6843 131.433 68.6843 131.433C68.6843 131.433 68.1635 134.384 66.4273 143.239Z" fill="#DC8042"/>
<path d="M66.5088 119.682C61.9156 114.233 59.3151 113.858 59.3151 113.858C59.3151 113.858 58.4876 125.713 61.0541 131.311C63.6206 136.908 68.7391 133.485 68.7391 133.485C68.7391 133.485 71.1021 125.131 66.5088 119.682Z" fill="#92B559"/>
<path d="M57.9824 142.172C54.7265 135.977 49.3866 124.843 49.3866 124.843C49.3866 124.843 41.2067 140.016 44.7544 147.785C48.3021 155.555 53.5179 150.527 56.6349 150.811C59.752 151.095 64.643 155.263 64.643 155.263C64.971 152.704 63.1878 142.356 63.1878 142.356C63.1878 142.356 61.2382 148.368 57.9824 142.172Z" fill="#92B559"/>
<path d="M56.1833 158.865H77.3652V174.838C77.3652 178.098 74.7222 180.741 71.462 180.741H62.0865C58.8263 180.741 56.1833 178.098 56.1833 174.838V158.865Z" fill="url(#paint12_linear_165_2829)"/>
<path d="M189.178 123.446L183.622 126.051C182.726 124.952 182.294 124.232 181.886 122.404L187.442 119.279C187.892 117.011 189.178 115.807 190.914 114.939C192.303 114.418 193.937 114.719 195.081 115.807C196.644 115.46 198.029 115.446 199.074 115.807C200.12 116.168 201.273 117.543 200.116 119.279C198.727 121.363 195.972 123.39 189.178 123.446Z" fill="#EBBE8E"/>
<path d="M186.964 129.792L184.557 129.452L220.884 85.8416L186.964 129.792Z" fill="#B4754D"/>
<defs>
<linearGradient id="paint0_linear_165_2829" x1="151.473" y1="172.101" x2="166.216" y2="170.014" gradientUnits="userSpaceOnUse">
<stop offset="0.015625" stop-color="#184CD3"/>
<stop offset="0.635417" stop-color="#184CD3"/>
<stop offset="1" stop-color="#486FD5"/>
</linearGradient>
<linearGradient id="paint1_linear_165_2829" x1="132.924" y1="171.018" x2="151.675" y2="172.407" gradientUnits="userSpaceOnUse">
<stop offset="0.015625" stop-color="#184CD3"/>
<stop offset="0.635417" stop-color="#184CD3"/>
<stop offset="1" stop-color="#486FD5"/>
</linearGradient>
<linearGradient id="paint2_linear_165_2829" x1="150.227" y1="132.01" x2="173.637" y2="104.555" gradientUnits="userSpaceOnUse">
<stop stop-color="#2C60E7"/>
<stop offset="0.546875" stop-color="#4074FB"/>
<stop offset="1" stop-color="#95B2FF"/>
</linearGradient>
<linearGradient id="paint3_linear_165_2829" x1="134.66" y1="135.899" x2="163.295" y2="113.72" gradientUnits="userSpaceOnUse">
<stop stop-color="#2C60E7"/>
<stop offset="0.546875" stop-color="#4074FB"/>
<stop offset="1" stop-color="#95B2FF"/>
</linearGradient>
<linearGradient id="paint4_linear_165_2829" x1="129.574" y1="122.054" x2="149.488" y2="120.155" gradientUnits="userSpaceOnUse">
<stop stop-color="#2C60E7"/>
<stop offset="0.546875" stop-color="#4074FB"/>
<stop offset="1" stop-color="#95B2FF"/>
</linearGradient>
<linearGradient id="paint5_linear_165_2829" x1="142.994" y1="226.23" x2="139.175" y2="242.898" gradientUnits="userSpaceOnUse">
<stop stop-color="#F0F3FD"/>
<stop offset="1" stop-color="#9E9AB3"/>
<stop offset="1" stop-color="#F5EAEA"/>
</linearGradient>
<linearGradient id="paint6_linear_165_2829" x1="169.267" y1="221.89" x2="169.384" y2="251.579" gradientUnits="userSpaceOnUse">
<stop stop-color="#F0F3FD"/>
<stop offset="1" stop-color="#9E9AB3"/>
<stop offset="1" stop-color="#F5EAEA"/>
</linearGradient>
<linearGradient id="paint7_linear_165_2829" x1="102.714" y1="130.738" x2="102.714" y2="142.197" gradientUnits="userSpaceOnUse">
<stop stop-color="#F08541"/>
<stop offset="1" stop-color="#D98042"/>
</linearGradient>
<linearGradient id="paint8_linear_165_2829" x1="102.714" y1="142.197" x2="102.714" y2="222.758" gradientUnits="userSpaceOnUse">
<stop stop-color="#F08541"/>
<stop offset="1" stop-color="#E8A67B"/>
</linearGradient>
<linearGradient id="paint9_linear_165_2829" x1="102.714" y1="226.924" x2="102.714" y2="235.606" gradientUnits="userSpaceOnUse">
<stop stop-color="#EC8441"/>
<stop offset="1" stop-color="#DE8142"/>
</linearGradient>
<linearGradient id="paint10_linear_165_2829" x1="228.763" y1="156.434" x2="228.763" y2="165.115" gradientUnits="userSpaceOnUse">
<stop stop-color="#9895B0"/>
<stop offset="1" stop-color="#A5A0B6"/>
</linearGradient>
<linearGradient id="paint11_linear_165_2829" x1="105.319" y1="42.886" x2="105.319" y2="80.041" gradientUnits="userSpaceOnUse">
<stop stop-color="white" stop-opacity="0.99"/>
<stop offset="1" stop-color="#ECEFFD"/>
</linearGradient>
<linearGradient id="paint12_linear_165_2829" x1="66.7743" y1="158.865" x2="66.7743" y2="180.741" gradientUnits="userSpaceOnUse">
<stop stop-color="#BFCFF7"/>
<stop offset="1" stop-color="#7898EA"/>
</linearGradient>
</defs>
</svg>
