<svg width="556" height="376" viewBox="0 0 556 376" fill="none" xmlns="http://www.w3.org/2000/svg">
<path d="M299.824 29.5981H187.962H78.6414C50.5094 29.5981 36.0632 55.579 78.6414 55.5788C121.22 55.5786 90.8066 83.0878 78.6414 83.0878H23.6468C-9.04717 83.0878 -6.00586 135.049 23.6468 135.049H65.5036C90.5944 135.049 89.0737 159.34 65.5036 160.104C41.9335 160.868 63.2227 190.831 42.6939 190.831H29.7683C-1.40488 190.831 7.71903 266.481 29.7683 266.481H51.8635C67.8305 266.481 74.6735 282.136 51.8635 282.136H23.6468C7.68016 282.136 3.87823 333.725 23.6468 333.725H116.776C137.305 333.725 124.475 358.83 147.284 358.83H243.622C268.841 358.83 375.167 359.213 393.89 358.83C412.613 358.447 400.89 333.725 420.638 333.725H466.77H513.38H533.718C566.412 333.725 559.569 282.136 533.718 282.136H487.109C456.696 282.136 456.696 266.481 487.109 266.481H533.718C559.569 266.481 553.487 230.566 533.718 230.566H487.109C465.82 230.566 471.142 214.519 487.109 214.519H524.397C536.562 214.519 541.124 190.067 524.397 190.067H466.347C451.9 190.067 451.9 179.369 466.347 179.369H498.126C517.894 179.369 522.456 155.867 498.126 155.867H473.126C452.597 155.867 454.118 121.969 473.126 121.969C492.134 121.969 501.092 121.492 501.092 112.224C501.092 102.955 491.374 102.955 473.126 102.955H439.228C414.898 102.955 415.658 86.9085 439.228 86.9085H487.109C513.72 86.9085 521.324 55.5788 487.109 55.5788C452.894 55.5788 388.859 56.5599 355.755 55.5788C322.652 54.5977 342.402 29.5981 299.824 29.5981Z" fill="url(#paint0_linear_501_3269)"/>
<path d="M40.5063 304.382C40.5063 302.393 42.1189 300.78 44.108 300.78H491.982C493.971 300.78 495.583 302.393 495.583 304.382C495.583 306.371 493.971 307.983 491.982 307.983H44.108C42.1188 307.983 40.5063 306.371 40.5063 304.382Z" fill="#B3B3C0"/>
<path d="M423.338 282.557C424.384 289.971 424.28 293.93 423.338 300.777C426.38 301.576 428.055 301.49 430.965 299.506C430.902 292.362 431.443 288.666 433.296 282.557C429.544 283.495 427.375 283.61 423.338 282.557Z" fill="#EBBE8E"/>
<path d="M407.873 302.895H400.881C400.449 294.786 401.025 290.103 398.975 281.074H408.508C408.067 289.887 407.465 294.649 407.873 302.895Z" fill="#EBBE8E"/>
<path d="M395.585 242.306C395.373 228.747 401.941 187.646 401.941 187.646C403.318 191.123 435.415 187.646 435.415 187.646C435.627 188.917 425.285 203.432 419.949 220.485C414.613 237.537 414.864 257.981 414.864 257.981V288.065C405.309 290.419 402.23 289.96 394.102 288.065C394.102 288.065 395.797 255.865 395.585 242.306Z" fill="url(#paint1_linear_501_3269)"/>
<path d="M436.686 228.109C437.321 214.122 436.262 187.223 434.991 187.858C433.72 188.494 424.075 191.988 417.619 191.46C417.619 191.46 417.407 221.753 416.559 232.346C415.712 242.939 417.407 288.065 417.407 288.065C425.457 289.128 428.423 288.704 436.262 286.582C436.262 286.582 436.262 275.562 435.627 265.184C434.991 254.806 436.051 242.095 436.686 228.109Z" fill="url(#paint2_linear_501_3269)"/>
<path d="M421.856 298.234C421.856 298.234 421.22 294.633 423.127 293.997C425.033 293.362 422.915 298.023 426.305 298.234C429.695 298.446 430.118 292.306 431.813 293.153C433.508 294.001 432.872 298.026 434.144 299.933C435.415 301.839 437.109 303.961 439.016 304.805C440.923 305.65 444.949 311.373 441.347 312.644C437.745 313.915 427.576 307.98 427.576 307.98C427.576 307.98 420.656 306.924 419.737 304.167C418.818 301.409 421.856 298.234 421.856 298.234Z" fill="url(#paint3_linear_501_3269)"/>
<path d="M410.203 299.721C409.568 297.814 409.991 296.543 408.72 294.424C407.45 292.305 406.39 299.721 404.695 298.873C403 298.026 401.729 291.034 400.034 292.094C398.339 293.153 399.399 297.39 396.856 299.721C394.314 302.051 393.466 304.17 390.5 305.441C387.534 306.712 385.628 310.314 387.534 312.22C389.441 314.127 401.941 309.681 404.271 307.983C406.602 306.285 411.051 307.556 412.11 305.441C413.17 303.325 410.839 301.627 410.203 299.721Z" fill="url(#paint4_linear_501_3269)"/>
<path d="M404.271 151.418C404.271 151.418 411.051 130.656 407.025 128.961C403 127.266 397.915 133.195 396.432 137.856C394.949 142.517 386.687 168.791 385.839 173.664C384.992 178.536 384.992 184.68 387.322 185.74C389.653 186.799 392.619 184.892 393.89 182.35C395.161 179.808 404.271 151.418 404.271 151.418Z" fill="url(#paint5_linear_501_3269)"/>
<path d="M384.159 157.03C384.082 161.229 385.277 163.425 387.102 167.346L381.724 170.551C380.888 165.834 380.494 164.667 378.973 159.088C378.973 159.088 377.666 158.072 376.607 154.571C375.547 151.071 374.472 145.652 375.247 143.212C376.021 140.772 376.532 138.31 378.4 137.873C380.268 137.436 381.673 139.831 381.673 139.831C381.673 139.831 386.122 148.473 385.237 151.78C384.353 155.086 384.159 157.03 384.159 157.03Z" fill="#EBBE8E"/>
<path d="M386.687 161.584C384.625 163.917 377.789 163.915 377.789 163.915C377.789 163.915 380.119 178.745 383.085 182.558C386.051 186.372 390.288 187.008 392.195 183.83C394.102 180.652 391.136 174.931 391.136 174.931L386.687 161.584Z" fill="url(#paint6_linear_501_3269)"/>
<path d="M429.905 126.415C425.88 124.72 414.863 124.941 411.474 126.415L411.445 126.428C408.067 127.896 405.11 129.182 402.364 133.619C399.609 138.068 398.127 165.186 400.245 172.177C402.363 179.169 401.94 187.855 401.94 187.855C408.084 192.94 429.906 192.092 435.414 187.855C435.414 187.855 435.614 180.559 436.685 175.779C440.287 159.699 440.71 138.915 438.38 133.619C436.049 128.322 433.931 128.11 429.905 126.415Z" fill="url(#paint7_linear_501_3269)"/>
<path d="M433.719 143.788C431.389 141.034 428.423 133.407 432.872 130.229C437.321 127.051 440.711 130.864 443.677 133.407C446.642 135.949 459.143 147.605 464.651 153.749C470.16 159.892 473.761 165.495 467.829 168.791C461.896 172.086 454.694 162.223 451.304 159.892C447.915 157.562 436.05 146.542 433.719 143.788Z" fill="url(#paint8_linear_501_3269)"/>
<path d="M404.695 126.63C401.093 127.902 401.305 130.444 401.305 133.834C401.305 137.223 399.61 148.664 399.61 148.664C399.61 148.664 398.763 176.63 400.881 174.723C403 172.816 402.153 157.138 404.271 147.817C406.39 138.495 412.545 128.642 412.746 126.207C412.947 123.771 408.297 125.359 404.695 126.63Z" fill="url(#paint9_linear_501_3269)"/>
<path d="M435.627 125.783C433.72 125.144 426.941 124.3 429.271 127.054C431.601 129.808 428.211 134.257 431.177 145.274C434.144 156.291 436.878 170.882 436.262 176.206C435.647 181.529 442.194 155.232 439.016 147.393C435.838 139.554 434.779 134.681 437.11 131.715C439.44 128.749 437.533 126.422 435.627 125.783Z" fill="url(#paint10_linear_501_3269)"/>
<path d="M438.593 166.457C442.647 167.007 444.525 167.516 448.126 167.516V161.372C443.834 161.469 441.38 161.311 436.474 159.889C436.474 159.889 431.601 159.042 426.94 158.618C422.279 158.194 418.042 160.525 416.983 162.855C415.923 165.186 422.491 168.152 426.517 168.152C430.542 168.152 438.593 166.457 438.593 166.457Z" fill="#EBBE8E"/>
<path d="M442.829 168.787C443.642 167.35 443.739 161.037 442.829 159.466C441.92 157.894 460.377 158.388 465.287 159.466C470.196 160.543 471.219 161.584 471.219 165.61C471.219 169.635 469.1 170.906 465.287 170.906C461.473 170.906 442.017 170.224 442.829 168.787Z" fill="url(#paint11_linear_501_3269)"/>
<path d="M416.337 117.163C415.637 121.931 415.418 123.419 413.62 127.029C413.247 127.777 413.45 128.695 414.142 129.164C418.889 132.382 422.301 132.633 427.744 129.074C428.399 128.647 428.64 127.81 428.356 127.082C427.178 124.051 426.773 122.426 426.728 117.094H416.347L416.337 117.163Z" fill="#EBBE8E"/>
<path d="M411.051 101.84C411.809 95.2719 415.288 87.0093 425.034 88.916C434.779 90.8228 435.414 101.84 433.72 106.924C432.025 112.009 427.364 120.483 419.737 120.483C412.11 120.483 410.293 108.407 411.051 101.84Z" fill="#F5CAAA"/>
<path d="M426.304 98.453C427.575 96.3344 430.965 92.9446 430.753 90.6141C430.542 88.2837 427.576 87.2244 423.55 87.2244C419.525 87.2243 412.854 90.2273 410.627 95.2751C408.4 100.323 409.356 109.682 411.686 113.283C411.686 113.283 415.154 119.242 415.711 121.334L416.135 119.427C413.805 115.402 412.965 112.86 412.745 110.105C412.526 107.351 412.322 103.75 414.864 103.326C417.406 102.902 415.5 100.148 420.372 98.8767C425.245 97.6055 426.304 98.453 426.304 98.453Z" fill="#54546E"/>
<path d="M425.881 97.8173C427.312 93.6456 427.788 89.3428 430.966 89.5546C434.143 89.7665 435.203 93.5801 436.474 97.3936C437.745 101.207 436.474 107.563 434.567 110.529C432.66 113.495 426.728 119.851 426.728 119.851L426.516 118.156C426.516 118.156 426.728 116.276 428.211 114.978C429.694 113.68 432.449 107.351 430.966 107.351C429.482 107.351 429.059 112.012 427.788 110.529C426.516 109.046 429.482 105.021 428.211 102.478L425.881 97.8173Z" fill="#54546E"/>
<path d="M278.638 77.6905C275.938 82.119 274.004 84.2866 270.164 87.8598L276.519 91.2496C278.731 86.8455 280.615 84.7904 284.57 81.504L289.443 77.6905C289.443 77.6905 298.765 71.3347 298.765 67.5212C298.765 63.7077 299.612 65.4026 298.765 62.8602C297.917 60.3179 295.163 62.2247 291.985 62.6484C288.807 63.0721 285.418 69.2161 282.451 69.2161C279.485 69.2161 278.638 77.6905 278.638 77.6905Z" fill="#EBBE8E"/>
<path d="M138.598 81.5042C140.081 82.3516 147.284 90.8261 147.284 90.8261L152.581 85.7414C152.581 85.7414 143.471 78.75 143.683 77.267C143.894 75.784 141.352 68.7925 139.234 68.7925C137.115 68.7926 135.844 66.6739 133.937 64.1316C132.03 61.5893 129.064 60.5299 127.369 61.3774C125.674 62.2248 125.039 66.4621 125.251 67.9451C125.463 69.4282 129.276 75.3603 130.335 77.267C131.395 79.1737 137.115 80.6568 138.598 81.5042Z" fill="#EBBE8E"/>
<path d="M195.588 126.63C196.633 122.323 201.521 121.546 205.122 120.275C208.724 119.003 214.868 119.003 217.622 119.639C220.376 120.275 228.003 123.24 227.579 124.088C227.156 124.935 232.582 149.073 233.723 149.088C234.117 166.679 233.285 173.074 231.605 183.833C220.945 187.716 213.817 188.232 198.978 185.951C194.967 171.634 192.906 163.576 189.868 149.088C190.914 150.005 194.544 130.938 195.588 126.63Z" fill="url(#paint12_linear_501_3269)"/>
<path d="M233.512 149.511C230.481 139.809 226.944 134.257 226.944 124.088C238.939 112.858 246.834 106.583 257.452 94.8514C263.063 87.3332 267.37 84.356 275.248 78.5381C278.492 83.6014 277.896 83.4668 282.663 86.1651C275.248 94.8514 273.643 97.2093 266.562 104.385C254.822 121.672 247.472 133.313 233.512 149.511Z" fill="url(#paint13_linear_501_3269)"/>
<path d="M190.08 149.299C194.741 143.367 195.093 134.888 196.86 124.088C184.77 116.04 178.279 109.803 166.775 98.241C159.761 90.7667 157.453 86.8005 149.615 80.021C146.485 84.2846 145.266 84.4331 141.352 86.8005L157.453 107.987C169.83 125.129 177.03 134.956 190.08 149.299Z" fill="url(#paint14_linear_501_3269)"/>
<path d="M205.122 110.953C205.375 115.664 205.755 117.764 204.619 121.138C204.321 122.021 204.549 123.021 205.297 123.577C209.585 126.762 212.596 126.824 217.279 123.622C218.11 123.054 218.357 121.958 217.974 121.027C216.575 117.624 216.471 115.232 215.927 110.529L205.122 110.953Z" fill="#EBBE8E"/>
<path d="M198.342 100.36C196.648 96.3345 198.766 83.6228 208.935 83.6228C219.105 83.6228 222.071 94.4277 221.011 97.3938C219.952 100.36 217.622 115.235 210.63 115.402C203.639 115.568 200.037 104.385 198.342 100.36Z" fill="#F5CAAA"/>
<path d="M212.113 92.0972C212.113 92.0972 214.232 87.4363 214.232 84.8939C214.232 82.3516 211.266 82.3516 208.936 82.3516H208.935C206.605 82.3516 203.003 83.199 201.097 84.8938C199.19 86.5887 196.224 89.9786 196.224 95.4869C196.224 100.995 198.766 106.292 198.766 106.292L205.334 115.402L205.334 113.071C205.334 113.071 198.343 103.961 199.826 100.995C201.309 98.0293 201.521 102.478 201.521 102.478C201.521 102.478 201.732 106.08 202.792 105.656C203.851 105.233 202.156 101.843 202.156 99.936C202.156 98.0292 201.944 97.1818 204.063 95.4869C206.181 93.792 212.113 92.0972 212.113 92.0972Z" fill="#54546E"/>
<path d="M212.113 92.0972C212.113 92.0972 214.02 86.1651 214.02 84.4702C214.02 82.7753 219.317 85.3176 220.8 89.1311C222.282 92.9446 223.554 98.0293 222.071 101.207C220.588 104.385 216.35 114.131 216.35 114.131L215.927 111.8L217.41 107.563C217.41 107.563 220.8 101.207 219.528 99.936C218.257 98.6648 218.469 104.385 216.774 104.597C215.079 104.809 218.257 95.487 212.113 92.0972Z" fill="#54546E"/>
<path d="M211.266 277.475C210.724 283.056 210.672 286.437 211.266 293.153C207.913 295.96 206.147 296.319 203.215 294.636C203.296 288.506 202.968 284.781 201.521 277.475C205.477 278.517 207.594 278.421 211.266 277.475Z" fill="#EBBE8E"/>
<path d="M239.02 294.848C238.229 288.005 237.437 284.195 235.418 277.475C239.711 278.008 241.925 277.629 245.587 275.992C245.458 282.3 245.426 286.033 245.587 293.789C243.959 296.005 242.529 296.274 239.02 294.848Z" fill="#EBBE8E"/>
<path d="M194.529 248.45C193.47 238.281 198.978 185.739 198.978 185.739C212.961 187.858 220.376 187.434 231.605 183.621C231.605 183.621 242.198 237.01 244.105 244.637C246.011 252.264 249.189 281.712 249.189 281.712C243.419 283.28 239.631 283.512 232.241 283.196C232.241 283.196 225.461 254.806 224.19 248.45C222.919 242.095 218.046 215.612 218.046 215.612C218.046 215.612 216.351 242.73 215.715 248.45C215.08 254.171 215.715 285.102 215.715 285.102C208.315 286.068 203.722 285.735 194.529 283.196C194.529 283.196 195.589 258.62 194.529 248.45Z" fill="url(#paint15_linear_501_3269)"/>
<path d="M206.817 292.729C202.368 291.67 203.216 287.009 200.885 287.645C198.555 288.28 198.131 292.306 197.283 292.941C196.436 293.577 195.8 295.06 191.563 294.424C187.326 293.789 182.453 298.026 184.995 300.356C187.538 302.687 195.165 303.534 205.334 301.416C205.334 301.416 212.537 303.111 214.02 301.416C215.504 299.721 211.054 298.238 212.537 294.424C214.02 290.611 214.02 290.823 212.537 289.975C211.054 289.128 211.266 293.789 206.817 292.729Z" fill="url(#paint16_linear_501_3269)"/>
<path d="M242.409 293.577C240.291 293.577 238.384 288.916 237.325 289.763C236.266 290.611 236.054 292.517 237.325 294.848C238.596 297.178 234.994 298.026 236.265 300.78C237.537 303.534 247.918 300.78 247.918 300.78C247.918 300.78 263.596 303.322 264.867 299.297C266.138 295.272 260.842 293.577 258.723 293.577C256.604 293.577 254.274 293.577 252.155 292.094C250.037 290.611 249.613 288.28 247.918 287.433C246.223 286.585 244.528 293.577 242.409 293.577Z" fill="url(#paint17_linear_501_3269)"/>
<path d="M105.336 134.469C103.641 135.105 98.9798 136.164 98.9798 136.164L92.4121 160.952C98.6985 180.187 100.979 188.942 104.064 206.078C117.761 205.142 124.437 202.161 134.784 193.367C133.326 184.071 132.388 176.512 132.878 166.884C123.768 150.783 128.428 138.918 128.428 138.918C128.428 138.918 123.344 135.529 120.801 135.105C118.259 134.681 107.031 133.834 105.336 134.469Z" fill="url(#paint18_linear_501_3269)"/>
<path d="M73.133 64.3433C74.0216 68.1766 74.8763 70.2733 77.1583 73.8771C74.9264 75.8173 73.2893 76.2872 69.5314 75.7838C69.2036 71.7285 68.7805 69.5031 67.6246 65.6145C67.6246 65.6145 65.6092 63.4019 64.2348 62.8603C62.8605 62.3186 59.0925 56.2926 59.362 53.3266C59.6316 50.3605 58.5147 47.6063 58.9384 45.9114C59.3621 44.2165 60.633 42.0979 62.116 41.886C63.5991 41.6742 65.294 43.3691 66.1414 44.4284C66.9888 45.4877 67.6248 51.208 69.5314 51.208C71.4379 51.208 73.133 60.9536 73.133 60.9536V64.3433Z" fill="#EBBE8E"/>
<path d="M174.281 168.886L165.84 173.319L167.446 180.659C167.446 180.659 177.472 173.049 179.84 173.002C182.209 172.955 185.582 171.997 185.582 171.997C185.582 171.997 194.063 168.644 196.114 167.902C198.166 167.16 198.078 163.712 196.958 162.673C195.838 161.634 184.861 160.507 181.629 161.917C178.397 163.327 174.281 168.886 174.281 168.886Z" fill="#EBBE8E"/>
<path d="M126.522 154.172C125.294 144.468 125.429 142.357 126.522 137.859C126.522 137.859 130.971 139.766 133.937 144.003C136.903 148.24 154.764 175.273 156.394 174.299C161.479 173.028 164.233 172.604 169.953 170.697C170.795 175.413 171.041 175.805 174.826 181.078C165.803 185.705 161.825 188.645 154.699 189.341C144.89 181.423 140.664 175.266 133.09 167.308C129.46 163.494 128.116 159.984 126.522 154.172Z" fill="url(#paint19_linear_501_3269)"/>
<path d="M87.7511 102.902C92.8222 115.603 95.4555 122.825 99.1916 136.164C98.0173 147.577 96.3957 152.836 92.6239 161.164C85.3227 141.67 82.2155 129.642 77.1581 108.199C72.255 94.6557 70.1842 86.9832 66.9888 73.2415C71.2468 73.3748 73.5177 72.8762 77.1581 70.4873C81.7676 82.6882 84.2093 89.6659 87.7511 102.902Z" fill="url(#paint20_linear_501_3269)"/>
<path d="M105.759 125.783C106.195 129.31 106.285 131.533 106.077 134.043C105.936 135.747 106.593 137.475 108.057 138.359C112.028 140.757 114.743 140.525 119.243 137.451C119.774 137.088 119.927 136.378 119.636 135.804C117.44 131.474 117.344 128.415 116.564 123.24L105.759 125.783Z" fill="#EBBE8E"/>
<path d="M98.556 114.13C97.7085 112.224 98.5561 99.4016 107.666 98.4527C116.776 97.5038 121.013 108.622 120.801 111.588C120.59 114.554 119.742 127.901 111.268 128.961C102.793 130.02 99.4035 116.037 98.556 114.13Z" fill="#F5CAAA"/>
<path d="M111.056 105.444C109.292 100.026 109.48 99.1265 109.361 94.2156C109.361 94.2156 104.277 92.9444 101.522 94.2156C98.7683 95.4868 97.9207 100.36 97.2851 101.843C96.6495 103.326 93.0479 103.114 91.9886 105.444C90.9293 107.775 92.6243 109.893 92.6243 112.224C92.6243 114.554 90.9294 115.614 89.0227 117.52C87.1159 119.427 91.9888 123.029 89.0227 125.147C86.0567 127.266 92.6248 128.537 91.9888 131.291C91.3528 134.045 97.2851 130.232 97.2851 134.893C97.2851 139.554 106.183 135.317 106.183 135.317C106.472 133.004 107.569 131.368 105.76 127.266C103.429 125.147 103.199 124.262 101.522 120.275C101.522 120.275 100.887 117.097 102.37 116.037C103.853 114.978 101.522 114.343 102.37 113.283C103.217 112.224 102.158 110.105 103.429 108.834C104.7 107.563 107.454 109.046 108.09 106.292C108.726 103.538 111.056 105.444 111.056 105.444Z" fill="#E67A73"/>
<path d="M114.234 106.927C112.539 107.775 111.056 105.444 111.056 105.444C109.629 100.741 107.392 98.7308 107.878 94.8511C107.878 94.8511 111.056 92.7326 114.234 93.3682C117.412 94.0038 117.2 96.3343 118.047 97.3936C118.895 98.4529 122.073 97.1817 123.556 98.6648C125.039 100.148 124.615 101.843 125.251 103.749C125.886 105.656 128.005 107.351 128.852 110.317C129.7 113.283 128.64 114.131 128.217 116.249C127.793 118.368 132.03 119.427 132.666 121.546C133.301 123.664 132.03 124.3 131.395 125.571C130.759 126.842 133.301 127.69 131.818 129.596C130.335 131.503 128.428 128.961 126.945 129.596C125.462 130.232 124.827 131.291 123.556 132.774C122.285 134.257 118.259 133.198 118.259 133.198C117.036 129.977 117.102 129.226 116.776 125.995C117.475 123.121 118.471 121.122 119.107 119.215C119.742 117.309 117.624 116.249 116.564 114.766C115.505 113.283 118.471 110.953 116.564 110.317C114.658 109.682 115.929 106.08 114.234 106.927Z" fill="#E67A73"/>
<path d="M120.166 277.263C123.714 287.659 124.603 294.745 126.946 305.653H134.996C134.996 305.653 134.361 304.17 133.725 298.45C133.09 292.729 134.361 277.263 134.361 277.263H120.166Z" fill="#EBBE8E"/>
<path d="M160.347 298.32L160.419 298.45L166.775 295.907C162.299 284.517 160.528 278.66 157.877 268.577L146.437 274.933C151.492 282.379 154.688 288.131 160.347 298.32Z" fill="#EBBE8E"/>
<path d="M108.514 253.747C104.912 244.637 104.064 205.655 104.064 205.655C114.234 205.655 124.191 202.688 134.784 192.943C134.784 192.943 138.174 198.028 140.928 205.655C143.682 213.282 148.555 227.688 149.191 234.256C149.826 240.823 162.75 273.238 162.75 273.238C162.75 273.238 153.428 279.594 146.648 279.806C139.869 280.018 141.988 281.713 135.42 283.831C128.852 285.95 115.081 282.56 115.081 282.56C115.081 282.56 112.115 262.857 108.514 253.747Z" fill="url(#paint21_linear_501_3269)"/>
<path d="M129.488 303.11C125.463 300.992 125.675 297.814 123.556 298.873C121.437 299.932 123.132 306.288 123.132 306.288C123.132 306.288 118.895 309.466 115.929 308.407C112.963 307.348 108.726 311.373 109.573 313.28C110.421 315.187 115.929 316.881 120.166 316.458C124.403 316.034 127.581 312.432 131.183 313.28C134.785 314.127 138.175 312.644 139.869 311.373C141.564 310.102 139.657 306.924 137.539 305.229C135.42 303.534 136.48 300.992 135.208 300.144C133.937 299.297 133.513 305.229 129.488 303.11Z" fill="url(#paint22_linear_501_3269)"/>
<path d="M157.665 298.873C158.724 296.119 156.394 296.543 156.818 294.424C157.241 292.306 159.148 297.814 161.055 296.331C162.961 294.848 161.902 287.009 165.504 288.704C169.106 290.399 167.411 291.034 169.106 294.424C170.801 297.814 172.919 301.627 176.733 301.627C180.546 301.627 184.783 307.348 183.3 309.254C181.817 311.161 178.851 311.585 174.402 310.314C169.953 309.043 169.953 306.288 165.504 307.348C161.055 308.407 159.148 307.771 157.665 305.865C156.182 303.958 156.606 301.627 157.665 298.873Z" fill="url(#paint23_linear_501_3269)"/>
<path d="M316.984 122.181C316.349 126.207 323.552 131.503 323.552 132.562C315.683 127.278 313.595 124.088 303.213 125.783C303.213 125.783 293.892 125.359 288.383 131.08C282.875 136.8 289.019 140.825 285.629 147.605C282.239 154.384 280.968 171.121 279.485 169.214C279.485 169.214 279.908 157.562 273.553 156.291C267.197 155.02 268.892 138.495 271.434 134.046C273.977 129.596 275.036 125.571 280.12 121.546C285.205 117.52 278.426 104.809 281.392 98.2411C284.358 91.6734 289.231 83.4108 300.035 83.8345C310.84 84.2583 314.23 93.792 314.23 93.792C316.066 97.8879 313.171 100.995 318.044 106.716C322.916 112.436 318.042 115.485 316.984 122.181Z" fill="#414167"/>
<path d="M282.874 208.489C282.969 205.141 283.003 198.995 283.126 194.66L289.058 194.68C288.925 199.376 287.682 206.505 288.729 209.12C289.776 211.734 289.698 214.098 288.875 216.05C288.053 218.002 287.647 220.218 287.918 222.766C288.188 225.314 283.738 224.522 282.473 222.611C281.208 220.701 280.176 218.992 280.61 215.815C281.044 212.639 282.874 208.489 282.874 208.489Z" fill="#EBBE8E"/>
<path d="M346.125 141.677C344.127 147.299 343.557 150.027 342.274 154.202L347.895 156.199C348.053 153.237 349.578 149.553 351.746 143.675C351.746 143.675 352.974 140.535 355.894 137.509C358.814 134.482 358.151 126.597 356.995 124.414C355.838 122.231 353.386 124.456 351.426 125.412C349.465 126.369 347.312 131.367 346.251 135.342C345.19 139.316 346.125 141.677 346.125 141.677Z" fill="#EBBE8E"/>
<path d="M322.281 151.63C318.467 145.274 313.595 128.908 318.044 128.113C322.493 127.319 327.365 134.681 329.908 137.859C332.45 141.037 344.95 166.672 344.95 166.672C344.95 166.672 349.187 173.452 343.679 176.629C338.17 179.807 334.357 171.757 334.357 171.757C334.357 171.757 326.095 157.986 322.281 151.63Z" fill="url(#paint24_linear_501_3269)"/>
<path d="M342.196 146.333C342.196 146.333 336.688 162.011 335.205 165.613C333.722 169.214 334.357 174.299 338.383 176.63C342.408 178.96 346.433 174.087 346.433 174.087C349.198 163.233 350.671 157.774 351.942 149.511C347.691 149.215 347.193 149.523 342.196 146.333Z" fill="url(#paint25_linear_501_3269)"/>
<path d="M281.719 144.266C281.887 138.336 284 132.986 288.171 130.656C292.342 128.325 295.009 138.287 294.739 147.816C294.468 157.346 291.89 157.495 291.746 162.578C291.602 167.66 290.144 204.074 290.144 204.074C285.331 202.526 284.708 203.287 279.605 203.774C279.954 191.491 280.363 177.091 280.543 170.737C280.724 164.384 281.55 150.195 281.719 144.266Z" fill="url(#paint26_linear_501_3269)"/>
<path d="M286.9 131.715C289.654 129.384 295.374 125.359 295.374 125.359C300.459 124.3 303.213 124.3 309.357 124.3L320.162 128.325C316.772 131.927 318.044 137.859 323.764 153.537C321.872 165.15 325.327 181.055 327.154 181.502C327.154 181.502 328.227 183.81 323.764 188.917C319.301 194.024 294.046 198.224 293.892 193.366C293.737 188.508 293.074 161.948 291.561 162.011C295.374 139.13 288.273 133.324 286.9 131.715Z" fill="url(#paint27_linear_501_3269)"/>
<path d="M294.104 114.554C295.866 119.43 296.136 121.427 295.624 125.78C295.491 126.91 296.091 128.018 297.155 128.423C301.689 130.151 304.694 130.045 308.665 127.457C309.705 126.779 309.987 125.403 309.404 124.307C307.491 120.707 306.657 118.939 305.756 114.554H294.104Z" fill="#EBBE8E"/>
<path d="M288.172 107.987C286.477 103.749 286.901 91.0208 296.222 89.3429C305.544 87.665 308.51 98.4529 309.358 102.055C310.205 105.656 307.663 119.003 301.307 119.427C294.951 119.851 289.867 112.224 288.172 107.987Z" fill="#F5CAAA"/>
<path d="M298.765 95.6988C301.519 92.7327 300.671 87.2244 300.671 87.2244C293.468 87.8599 291.138 88.9192 286.9 95.2751C282.663 101.631 281.604 108.834 285.417 110.953C289.231 113.071 291.773 119.003 291.773 119.003C291.773 119.003 290.29 110.953 291.773 105.656C293.256 100.36 296.01 98.6648 298.765 95.6988Z" fill="#414167"/>
<path d="M298.765 95.4869C300.073 92.5457 300.388 91.2502 300.036 87.2244C300.036 87.2244 307.451 88.9193 310.417 97.1818C313.383 105.444 308.722 116.037 308.722 116.037C308.722 116.037 309.146 105.354 305.332 102.902C301.519 100.451 298.765 95.4869 298.765 95.4869Z" fill="#414167"/>
<path d="M316.349 282.136C315.501 287.009 316.688 296.161 316.349 297.178C312.278 298.703 310.521 298.506 307.875 297.178C309.369 296.992 302.466 255.96 300.248 248.027C298.029 240.094 300.248 239.764 300.248 239.764H313.807C313.807 239.764 316.349 255.866 316.349 258.62C316.349 261.374 317.197 277.264 316.349 282.136Z" fill="#EBBE8E"/>
<path d="M341.984 295.272H333.934C333.934 295.272 325.459 270.272 323.976 263.281C322.493 256.289 321.434 247.391 321.434 247.391L320.163 238.493H334.569C334.569 238.493 334.357 247.391 335.417 253.959C336.476 260.526 341.984 295.272 341.984 295.272Z" fill="#EBBE8E"/>
<path d="M293.468 192.095C291.43 210.488 290.608 222.453 290.502 243.154C296.893 243.578 300.177 244.21 305.332 246.332C310.988 247.189 313.171 245.272 318.679 244.637C318.679 244.637 325.247 246.967 329.272 246.332C333.298 245.696 344.103 239.552 344.103 239.552C344.103 239.552 337.535 233.196 336.264 225.358C334.993 217.519 326.73 184.045 326.73 184.045C318.044 192.095 308.51 194.426 293.468 192.095Z" fill="url(#paint28_linear_501_3269)"/>
<path d="M320.374 296.331C319.315 293.577 320.374 292.517 317.408 290.823C314.442 289.128 316.985 296.967 312.536 295.695C308.087 294.424 309.57 287.221 306.815 288.28C304.061 289.34 307.027 293.789 303.425 295.06C299.824 296.331 298.764 296.543 296.222 298.026C293.68 299.509 289.019 299.085 289.655 302.899C290.29 306.712 308.722 305.017 310.629 303.958C312.536 302.899 320.374 305.229 322.493 302.899C324.612 300.568 321.434 299.085 320.374 296.331Z" fill="url(#paint29_linear_501_3269)"/>
<path d="M330.12 294.212C332.662 292.094 328.849 288.068 330.967 287.009C333.086 285.95 332.238 291.246 336.264 291.458C340.289 291.67 340.501 283.831 342.831 285.95C345.162 288.068 343.891 291.67 344.526 294.212C345.162 296.755 350.882 298.449 351.73 301.204C352.577 303.958 354.06 306.924 350.882 307.771C347.705 308.619 339.866 306.924 337.959 304.17C336.052 301.415 330.12 301.204 328.637 299.297C327.154 297.39 327.577 296.331 330.12 294.212Z" fill="url(#paint30_linear_501_3269)"/>
<path d="M185.843 171.969C185.843 171.969 259.994 193.774 314.23 192.731C368.467 191.688 425.457 168.367 425.457 168.367" stroke="#B3B3C0" stroke-width="0.847443" stroke-linecap="round"/>
<path d="M188.52 214.536C187.366 196.273 187.561 189.709 188.063 172.767C200.696 179.798 207.461 181.829 218.768 180.884C218.579 187.237 217.554 203.245 218.768 222.391C207.388 223.09 199.973 221.751 188.52 214.536Z" fill="url(#paint31_linear_501_3269)"/>
<path d="M198.718 205.563L195.505 193.259L197.927 193.331L199.966 201.784L202.501 193.483L204.924 193.538L206.963 201.992L209.498 193.674L211.921 193.745L207.985 205.837L205.715 205.77L203.595 197.466L200.988 205.63L198.718 205.563Z" fill="#D14137"/>
<path d="M221.124 222.087C221.528 202.444 221.546 197.679 220.702 180.927C233.906 187.345 240.99 188.738 253.696 187.797C252.578 205.601 252.787 210.024 252.086 227.17C239.384 228.611 232.373 228.495 221.124 222.087Z" fill="url(#paint32_linear_501_3269)"/>
<path d="M232.496 211.366L232.995 199.173L240.954 199.498L240.866 201.649L235.21 201.418L235.103 204.025L239.743 204.215L239.655 206.366L235.015 206.176L234.887 209.309L240.543 209.54L240.455 211.691L232.496 211.366Z" fill="#D14137"/>
<path d="M255.264 226.347C257.073 209.809 257.008 204.553 255.424 188.001C267.315 194.677 277.062 193.88 288.668 192.377C288.605 207.631 286.976 213.098 288.512 229.876C277.264 232.731 267.541 233.043 255.264 226.347Z" fill="url(#paint33_linear_501_3269)"/>
<path d="M269.164 215.863L269.215 203.66L271.52 203.67L271.478 213.72L276.732 213.742L276.723 215.895L269.164 215.863Z" fill="#D14137"/>
<path d="M292.409 228.959C292.409 211.798 292.409 205.866 291.35 192.519C304.697 195.697 312.142 196.995 325.883 192.519C324.677 206.862 324.812 215.318 325.883 230.23C312.847 233.853 305.524 234.006 292.409 228.959Z" fill="url(#paint34_linear_501_3269)"/>
<path d="M309.637 219.943C308.417 219.943 307.364 219.677 306.477 219.146C305.595 218.615 304.914 217.872 304.434 216.917C303.96 215.963 303.722 214.852 303.722 213.587C303.722 212.321 303.96 211.211 304.434 210.256C304.914 209.302 305.595 208.559 306.477 208.028C307.364 207.497 308.417 207.231 309.637 207.231C311.039 207.231 312.214 207.579 313.163 208.273C314.118 208.968 314.79 209.909 315.18 211.095L312.858 211.739C312.632 210.999 312.25 210.426 311.714 210.019C311.177 209.607 310.485 209.401 309.637 209.401C308.863 209.401 308.217 209.573 307.697 209.917C307.183 210.262 306.796 210.748 306.536 211.375C306.276 212.002 306.146 212.739 306.146 213.587C306.146 214.434 306.276 215.172 306.536 215.799C306.796 216.426 307.183 216.912 307.697 217.256C308.217 217.601 308.863 217.773 309.637 217.773C310.485 217.773 311.177 217.567 311.714 217.155C312.25 216.742 312.632 216.169 312.858 215.434L315.18 216.078C314.79 217.265 314.118 218.205 313.163 218.9C312.214 219.595 311.039 219.943 309.637 219.943Z" fill="#D14137"/>
<path d="M326.942 230.442C326.942 218.79 328.455 206.747 326.942 192.307C341.262 194.676 347.929 191.684 359.357 188.07V225.781C345.994 229.949 340.859 233.374 326.942 230.442Z" fill="url(#paint35_linear_501_3269)"/>
<path d="M344.595 217.189C343.374 217.189 342.321 216.923 341.434 216.392C340.552 215.861 339.871 215.118 339.391 214.163C338.917 213.208 338.679 212.098 338.679 210.833C338.679 209.567 338.917 208.457 339.391 207.502C339.871 206.547 340.552 205.805 341.434 205.274C342.321 204.742 343.374 204.477 344.595 204.477C345.815 204.477 346.866 204.742 347.747 205.274C348.634 205.805 349.315 206.547 349.789 207.502C350.27 208.457 350.51 209.567 350.51 210.833C350.51 212.098 350.27 213.208 349.789 214.163C349.315 215.118 348.634 215.861 347.747 216.392C346.866 216.923 345.815 217.189 344.595 217.189ZM344.595 215.019C345.369 215.03 346.013 214.864 346.527 214.519C347.041 214.174 347.425 213.686 347.679 213.053C347.939 212.42 348.069 211.68 348.069 210.833C348.069 209.985 347.939 209.251 347.679 208.629C347.425 208.008 347.041 207.525 346.527 207.18C346.013 206.836 345.369 206.658 344.595 206.646C343.821 206.635 343.176 206.802 342.662 207.146C342.148 207.491 341.761 207.98 341.501 208.612C341.247 209.245 341.12 209.985 341.12 210.833C341.12 211.68 341.247 212.415 341.501 213.036C341.761 213.658 342.148 214.141 342.662 214.485C343.176 214.83 343.821 215.008 344.595 215.019Z" fill="#D14137"/>
<path d="M363.39 225.379C362.648 210.201 363.395 203.064 362.111 187.836C375.754 187.836 381.863 186.399 393.874 179.595V220.696C381.509 226.513 376.789 228.167 363.39 225.379Z" fill="url(#paint36_linear_501_3269)"/>
<path d="M373.255 211.638V199.435H375.323L379.356 207.536L383.39 199.435H385.458V211.638H383.305V204.35L379.763 211.638H378.95L375.407 204.35V211.638H373.255Z" fill="#D14137"/>
<path d="M396.856 220.273C397.673 203.408 399.298 197.731 396.856 180.228C409.029 181.844 413.821 175.863 425.022 168.579C426.509 185.574 426.389 195.748 425.022 214.691C413.985 218.623 407.815 219.727 396.856 220.273Z" fill="url(#paint37_linear_501_3269)"/>
<path d="M409.059 202.74V190.536H417.025V192.689H411.365V195.299H416.009V197.451H411.365V200.587H417.025V202.74H409.059Z" fill="#D14137"/>
<defs>
<linearGradient id="paint0_linear_501_3269" x1="253.639" y1="29.5981" x2="253.574" y2="368.358" gradientUnits="userSpaceOnUse">
<stop stop-color="#EBEFFF"/>
<stop offset="0.541584" stop-color="#E9DFF2"/>
<stop offset="1" stop-color="#F9E7E9"/>
</linearGradient>
<linearGradient id="paint1_linear_501_3269" x1="394.449" y1="229.446" x2="431.649" y2="233.772" gradientUnits="userSpaceOnUse">
<stop offset="0.015625" stop-color="#184CD3"/>
<stop offset="0.635417" stop-color="#184CD3"/>
<stop offset="1" stop-color="#486FD5"/>
</linearGradient>
<linearGradient id="paint2_linear_501_3269" x1="416.494" y1="229.139" x2="435.187" y2="230.234" gradientUnits="userSpaceOnUse">
<stop offset="0.015625" stop-color="#184CD3"/>
<stop offset="0.635417" stop-color="#184CD3"/>
<stop offset="1" stop-color="#486FD5"/>
</linearGradient>
<linearGradient id="paint3_linear_501_3269" x1="431.179" y1="293.073" x2="431.179" y2="312.823" gradientUnits="userSpaceOnUse">
<stop stop-color="#E2EBFF"/>
<stop offset="1" stop-color="#C3CDE8"/>
</linearGradient>
<linearGradient id="paint4_linear_501_3269" x1="399.576" y1="291.985" x2="399.576" y2="312.687" gradientUnits="userSpaceOnUse">
<stop stop-color="#E2EBFF"/>
<stop offset="1" stop-color="#C3CDE8"/>
</linearGradient>
<linearGradient id="paint5_linear_501_3269" x1="385.322" y1="178.051" x2="414.762" y2="163.21" gradientUnits="userSpaceOnUse">
<stop stop-color="#2C60E7"/>
<stop offset="0.546875" stop-color="#4074FB"/>
<stop offset="1" stop-color="#95B2FF"/>
</linearGradient>
<linearGradient id="paint6_linear_501_3269" x1="377.789" y1="182.484" x2="392.819" y2="170.761" gradientUnits="userSpaceOnUse">
<stop stop-color="#2C60E7"/>
<stop offset="0.546875" stop-color="#4074FB"/>
<stop offset="1" stop-color="#95B2FF"/>
</linearGradient>
<linearGradient id="paint7_linear_501_3269" x1="421.432" y1="190.189" x2="426.276" y2="129.645" gradientUnits="userSpaceOnUse">
<stop stop-color="#2C60E7"/>
<stop offset="0.546875" stop-color="#4074FB"/>
<stop offset="1" stop-color="#95B2FF"/>
</linearGradient>
<linearGradient id="paint8_linear_501_3269" x1="468.465" y1="164.342" x2="431.611" y2="150.183" gradientUnits="userSpaceOnUse">
<stop stop-color="#2C60E7"/>
<stop offset="0.546875" stop-color="#4074FB"/>
<stop offset="1" stop-color="#95B2FF"/>
</linearGradient>
<linearGradient id="paint9_linear_501_3269" x1="404.889" y1="125.631" x2="404.907" y2="169.426" gradientUnits="userSpaceOnUse">
<stop stop-color="#E49D98"/>
<stop offset="1" stop-color="#876664"/>
</linearGradient>
<linearGradient id="paint10_linear_501_3269" x1="434.571" y1="125.353" x2="434.571" y2="169.926" gradientUnits="userSpaceOnUse">
<stop stop-color="#E8A09B"/>
<stop offset="1" stop-color="#9B6A67"/>
</linearGradient>
<linearGradient id="paint11_linear_501_3269" x1="457.025" y1="181.714" x2="445.791" y2="180.815" gradientUnits="userSpaceOnUse">
<stop stop-color="#2C60E7"/>
<stop offset="0.546875" stop-color="#4074FB"/>
<stop offset="1" stop-color="#95B2FF"/>
</linearGradient>
<linearGradient id="paint12_linear_501_3269" x1="214.868" y1="187.223" x2="210.55" y2="125.315" gradientUnits="userSpaceOnUse">
<stop stop-color="#2C60E7"/>
<stop offset="0.546875" stop-color="#4074FB"/>
<stop offset="1" stop-color="#95B2FF"/>
</linearGradient>
<linearGradient id="paint13_linear_501_3269" x1="277.79" y1="126.207" x2="244.165" y2="99.8627" gradientUnits="userSpaceOnUse">
<stop stop-color="#2C60E7"/>
<stop offset="0.546875" stop-color="#4074FB"/>
<stop offset="1" stop-color="#95B2FF"/>
</linearGradient>
<linearGradient id="paint14_linear_501_3269" x1="158.936" y1="134.257" x2="176.846" y2="108.571" gradientUnits="userSpaceOnUse">
<stop stop-color="#2C60E7"/>
<stop offset="0.546875" stop-color="#4074FB"/>
<stop offset="1" stop-color="#95B2FF"/>
</linearGradient>
<linearGradient id="paint15_linear_501_3269" x1="198.555" y1="216.036" x2="233.687" y2="209.167" gradientUnits="userSpaceOnUse">
<stop offset="0.015625" stop-color="#184CD3"/>
<stop offset="0.635417" stop-color="#184CD3"/>
<stop offset="1" stop-color="#486FD5"/>
</linearGradient>
<linearGradient id="paint16_linear_501_3269" x1="199.311" y1="287.585" x2="199.311" y2="302.629" gradientUnits="userSpaceOnUse">
<stop stop-color="#E2EBFF"/>
<stop offset="1" stop-color="#C3CDE8"/>
</linearGradient>
<linearGradient id="paint17_linear_501_3269" x1="250.525" y1="287.362" x2="250.525" y2="302.004" gradientUnits="userSpaceOnUse">
<stop stop-color="#E2EBFF"/>
<stop offset="1" stop-color="#C3CDE8"/>
</linearGradient>
<linearGradient id="paint18_linear_501_3269" x1="121.649" y1="200.146" x2="116.847" y2="137.626" gradientUnits="userSpaceOnUse">
<stop stop-color="#2C60E7"/>
<stop offset="0.546875" stop-color="#4074FB"/>
<stop offset="1" stop-color="#95B2FF"/>
</linearGradient>
<linearGradient id="paint19_linear_501_3269" x1="125.674" y1="179.172" x2="113.764" y2="144.702" gradientUnits="userSpaceOnUse">
<stop stop-color="#2C60E7"/>
<stop offset="0.546875" stop-color="#4074FB"/>
<stop offset="1" stop-color="#95B2FF"/>
</linearGradient>
<linearGradient id="paint20_linear_501_3269" x1="55.7601" y1="151.206" x2="106.423" y2="129.194" gradientUnits="userSpaceOnUse">
<stop stop-color="#2C60E7"/>
<stop offset="0.546875" stop-color="#4074FB"/>
<stop offset="1" stop-color="#95B2FF"/>
</linearGradient>
<linearGradient id="paint21_linear_501_3269" x1="102.793" y1="224.51" x2="138.119" y2="216.579" gradientUnits="userSpaceOnUse">
<stop offset="0.015625" stop-color="#184CD3"/>
<stop offset="0.635417" stop-color="#184CD3"/>
<stop offset="1" stop-color="#486FD5"/>
</linearGradient>
<linearGradient id="paint22_linear_501_3269" x1="124.992" y1="298.663" x2="124.992" y2="316.523" gradientUnits="userSpaceOnUse">
<stop stop-color="#E2EBFF"/>
<stop offset="1" stop-color="#C3CDE8"/>
</linearGradient>
<linearGradient id="paint23_linear_501_3269" x1="170.154" y1="288.465" x2="170.154" y2="311.04" gradientUnits="userSpaceOnUse">
<stop stop-color="#E2EBFF"/>
<stop offset="1" stop-color="#C3CDE8"/>
</linearGradient>
<linearGradient id="paint24_linear_501_3269" x1="343.891" y1="175.782" x2="319.7" y2="127.602" gradientUnits="userSpaceOnUse">
<stop stop-color="#2C60E7"/>
<stop offset="0.546875" stop-color="#4074FB"/>
<stop offset="1" stop-color="#95B2FF"/>
</linearGradient>
<linearGradient id="paint25_linear_501_3269" x1="343.044" y1="177.053" x2="349.973" y2="149.716" gradientUnits="userSpaceOnUse">
<stop stop-color="#2C60E7"/>
<stop offset="0.546875" stop-color="#4074FB"/>
<stop offset="1" stop-color="#95B2FF"/>
</linearGradient>
<linearGradient id="paint26_linear_501_3269" x1="285.694" y1="196.529" x2="316.946" y2="179.557" gradientUnits="userSpaceOnUse">
<stop stop-color="#2C60E7"/>
<stop offset="0.546875" stop-color="#4074FB"/>
<stop offset="1" stop-color="#95B2FF"/>
</linearGradient>
<linearGradient id="paint27_linear_501_3269" x1="309.357" y1="191.672" x2="308.204" y2="124.66" gradientUnits="userSpaceOnUse">
<stop stop-color="#2C60E7"/>
<stop offset="0.60789" stop-color="#4074FB"/>
<stop offset="1" stop-color="#95B2FF"/>
</linearGradient>
<linearGradient id="paint28_linear_501_3269" x1="290.952" y1="210.155" x2="328.335" y2="212.423" gradientUnits="userSpaceOnUse">
<stop offset="0.015625" stop-color="#184CD3"/>
<stop offset="0.635417" stop-color="#184CD3"/>
<stop offset="1" stop-color="#486FD5"/>
</linearGradient>
<linearGradient id="paint29_linear_501_3269" x1="306.401" y1="288.174" x2="306.401" y2="305.263" gradientUnits="userSpaceOnUse">
<stop stop-color="#E2EBFF"/>
<stop offset="1" stop-color="#C3CDE8"/>
</linearGradient>
<linearGradient id="paint30_linear_501_3269" x1="340.304" y1="285.586" x2="340.304" y2="307.991" gradientUnits="userSpaceOnUse">
<stop stop-color="#E2EBFF"/>
<stop offset="1" stop-color="#C3CDE8"/>
</linearGradient>
<linearGradient id="paint31_linear_501_3269" x1="204.137" y1="173.244" x2="202.604" y2="224.168" gradientUnits="userSpaceOnUse">
<stop stop-color="#FBFBFB"/>
<stop offset="1" stop-color="#DDDDE1"/>
</linearGradient>
<linearGradient id="paint32_linear_501_3269" x1="237.312" y1="181.606" x2="235.332" y2="229.516" gradientUnits="userSpaceOnUse">
<stop stop-color="#FBFBFB"/>
<stop offset="1" stop-color="#DDDDE1"/>
</linearGradient>
<linearGradient id="paint33_linear_501_3269" x1="272.055" y1="188.07" x2="271.848" y2="233.497" gradientUnits="userSpaceOnUse">
<stop stop-color="#FBFBFB"/>
<stop offset="1" stop-color="#DDDDE1"/>
</linearGradient>
<linearGradient id="paint34_linear_501_3269" x1="308.616" y1="192.519" x2="308.602" y2="234.44" gradientUnits="userSpaceOnUse">
<stop stop-color="#FBFBFB"/>
<stop offset="1" stop-color="#DDDDE1"/>
</linearGradient>
<linearGradient id="paint35_linear_501_3269" x1="343.149" y1="188.07" x2="343.131" y2="233.242" gradientUnits="userSpaceOnUse">
<stop stop-color="#FBFBFB"/>
<stop offset="1" stop-color="#DDDDE1"/>
</linearGradient>
<linearGradient id="paint36_linear_501_3269" x1="377.993" y1="179.595" x2="377.971" y2="228.545" gradientUnits="userSpaceOnUse">
<stop stop-color="#FBFBFB"/>
<stop offset="1" stop-color="#DDDDE1"/>
</linearGradient>
<linearGradient id="paint37_linear_501_3269" x1="411.474" y1="168.579" x2="411.446" y2="222.298" gradientUnits="userSpaceOnUse">
<stop stop-color="#FBFBFB"/>
<stop offset="1" stop-color="#DDDDE1"/>
</linearGradient>
</defs>
</svg>
