<svg width="26" height="26" viewBox="0 0 26 26" fill="none" xmlns="http://www.w3.org/2000/svg">
<path d="M21 2H19.3333V1C19.3333 0.448 18.8853 0 18.3333 0C17.7813 0 17.3333 0.448 17.3333 1V2H8.66667V1C8.66667 0.448 8.21867 0 7.66667 0C7.11467 0 6.66667 0.448 6.66667 1V2H5C1.776 2 0 3.776 0 7V21C0 24.224 1.776 26 5 26H21C24.224 26 26 24.224 26 21V7C26 3.776 24.224 2 21 2ZM5 4H6.66667V5C6.66667 5.552 7.11467 6 7.66667 6C8.21867 6 8.66667 5.552 8.66667 5V4H17.3333V5C17.3333 5.552 17.7813 6 18.3333 6C18.8853 6 19.3333 5.552 19.3333 5V4H21C23.1027 4 24 4.89733 24 7V8H2V7C2 4.89733 2.89733 4 5 4ZM21 24H5C2.89733 24 2 23.1027 2 21V10H24V21C24 23.1027 23.1027 24 21 24ZM9.02669 14.3333C9.02669 15.0693 8.43069 15.6667 7.69336 15.6667C6.95736 15.6667 6.35319 15.0693 6.35319 14.3333C6.35319 13.5973 6.94401 13 7.68001 13H7.69336C8.42936 13 9.02669 13.5973 9.02669 14.3333ZM14.36 14.3333C14.36 15.0693 13.764 15.6667 13.0267 15.6667C12.2907 15.6667 11.6865 15.0693 11.6865 14.3333C11.6865 13.5973 12.2773 13 13.0133 13H13.0267C13.7627 13 14.36 13.5973 14.36 14.3333ZM19.6934 14.3333C19.6934 15.0693 19.0974 15.6667 18.36 15.6667C17.624 15.6667 17.0199 15.0693 17.0199 14.3333C17.0199 13.5973 17.6107 13 18.3467 13H18.36C19.096 13 19.6934 13.5973 19.6934 14.3333ZM9.02669 19.6667C9.02669 20.4027 8.43069 21 7.69336 21C6.95736 21 6.35319 20.4027 6.35319 19.6667C6.35319 18.9307 6.94401 18.3333 7.68001 18.3333H7.69336C8.42936 18.3333 9.02669 18.9307 9.02669 19.6667ZM14.36 19.6667C14.36 20.4027 13.764 21 13.0267 21C12.2907 21 11.6865 20.4027 11.6865 19.6667C11.6865 18.9307 12.2773 18.3333 13.0133 18.3333H13.0267C13.7627 18.3333 14.36 18.9307 14.36 19.6667ZM19.6934 19.6667C19.6934 20.4027 19.0974 21 18.36 21C17.624 21 17.0199 20.4027 17.0199 19.6667C17.0199 18.9307 17.6107 18.3333 18.3467 18.3333H18.36C19.096 18.3333 19.6934 18.9307 19.6934 19.6667Z" fill="#2C60E7"/>
</svg>
