<svg width="473" height="298" viewBox="0 0 473 298" fill="none" xmlns="http://www.w3.org/2000/svg">
<path d="M354.562 0H152.973C134.348 0 165.572 8.76471 142.017 8.76471H121.201C85.0467 8.76471 85.0467 37.25 121.201 37.25H135.444C160.642 37.25 155.712 52.5882 135.444 52.5882H85.0467C60.9437 52.5882 60.9437 73.4044 85.0467 73.4044H112.436C138.731 73.4044 135.444 92.0294 112.436 92.0294H25.8849C-9.17392 92.0294 -8.07834 109.559 25.8849 109.559H85.0467C127.775 109.559 129.418 130.375 85.0467 130.375H55.4658C17.1202 130.375 17.668 155.574 55.4658 155.574H75.1864C105.863 155.574 106.958 179.677 75.1864 179.677H25.8849C-9.17386 179.677 -8.07833 225.691 25.8849 225.691H72.9952C96.0025 225.691 95.4547 245.412 72.9952 245.412H48.8923C24.7893 245.412 24.2415 276.088 48.8923 276.088H121.201C145.304 276.088 163.243 298 186.25 298H307.313C380.717 298 382.499 264.037 363.874 264.037C345.249 264.037 304.712 245.412 363.874 245.412H408.245C430.705 245.412 429.062 216.927 408.245 216.927H362.231C349.631 216.927 349.631 203.779 362.231 203.779H442.209C465.764 203.779 464.12 179.677 442.209 179.677H423.584C404.959 179.677 408.793 166.529 423.584 166.529H459.738C477.267 166.529 477.267 130.375 459.738 130.375H397.289C377.021 130.375 377.021 116.132 397.289 116.132H442.209C469.051 116.132 469.598 79.978 442.209 79.978H364.422C347.44 79.978 346.345 66.8309 364.422 66.8309H397.289C423.584 66.8309 423.584 46.0147 397.289 46.0147H329.363C305.26 46.0147 304.712 37.25 329.363 37.25H354.562C380.856 37.25 377.569 0 354.562 0Z" fill="url(#paint0_linear_412_3346)"/>
<rect x="106.82" y="232.265" width="259.107" height="2.19118" rx="1.09559" fill="#25254B" fill-opacity="0.34"/>
<path d="M186.798 53.1361C186.798 53.1361 222.952 20.8161 255.272 34.511C287.592 48.2059 301.835 88.1949 301.835 96.9596C301.835 105.724 294.165 118.871 284.853 118.871C275.54 118.871 273.897 106.82 278.279 96.9596C282.662 87.0993 323.198 53.136 337.989 87.0993C352.779 121.063 309.504 163.79 309.504 163.79" stroke="#BFCFF7" stroke-width="0.547794" stroke-dasharray="2.74 2.74"/>
<path d="M284.513 69.0221C273.06 74.4402 268.957 79.9476 264.793 93.1251C261.608 83.7123 260.182 78.4348 264.793 69.0221V21.364C264.793 15.0107 269.943 9.86035 276.296 9.86035H331.076C337.429 9.86035 342.58 15.0107 342.58 21.364V57.5184C342.58 63.8718 337.429 69.0221 331.076 69.0221H284.513Z" fill="white"/>
<rect x="271.158" y="15.886" width="62.9963" height="46.0147" rx="4.38235" fill="url(#paint1_linear_412_3346)"/>
<path d="M290.018 49.0199V31.8035H316.625V49.0199H290.018Z" fill="#BFCFF7"/>
<path d="M303.517 38.0641L290.409 49.02H316.625L303.517 38.0641Z" fill="#AABAE3"/>
<path d="M316.625 31.8033L308.371 40.0575C305.957 42.4708 302.099 42.6359 299.488 40.4375L289.235 31.8033H316.625Z" fill="#E3E9FF"/>
<rect x="306.425" y="24.1029" width="19.8603" height="14.4779" rx="6.02574" fill="#FFD5D2"/>
<path d="M311.766 33.8418V32.8723L313.801 31.0912C313.953 30.9532 314.083 30.827 314.19 30.7126C314.297 30.5964 314.379 30.4802 314.435 30.364C314.492 30.246 314.52 30.118 314.52 29.98C314.52 29.8257 314.486 29.694 314.419 29.5851C314.352 29.4744 314.259 29.389 314.141 29.3291C314.023 29.2692 313.888 29.2392 313.735 29.2392C313.581 29.2392 313.446 29.271 313.33 29.3346C313.213 29.3963 313.123 29.4862 313.057 29.6042C312.994 29.7222 312.962 29.8656 312.962 30.0345H311.685C311.685 29.655 311.77 29.3273 311.941 29.0513C312.111 28.7753 312.351 28.5629 312.66 28.414C312.97 28.2633 313.331 28.188 313.741 28.188C314.164 28.188 314.532 28.2588 314.844 28.4004C315.156 28.542 315.398 28.7399 315.568 28.9941C315.741 29.2465 315.827 29.5397 315.827 29.8738C315.827 30.0862 315.784 30.2968 315.699 30.5056C315.614 30.7144 315.46 30.945 315.239 31.1974C315.019 31.4497 314.707 31.752 314.302 32.1043L313.635 32.7198V32.7552H315.895V33.8418H311.766ZM318.792 33.9181C318.385 33.9181 318.024 33.8445 317.708 33.6975C317.392 33.5504 317.143 33.348 316.959 33.0901C316.778 32.8323 316.683 32.5364 316.676 32.2023H317.983C317.994 32.4075 318.078 32.5727 318.234 32.698C318.39 32.8214 318.576 32.8832 318.792 32.8832C318.961 32.8832 319.111 32.8459 319.242 32.7715C319.372 32.6971 319.475 32.5927 319.549 32.4583C319.624 32.3221 319.66 32.166 319.658 31.9899C319.66 31.8101 319.623 31.6531 319.547 31.5187C319.472 31.3844 319.369 31.28 319.236 31.2055C319.105 31.1293 318.955 31.0912 318.784 31.0912C318.622 31.0893 318.469 31.1247 318.324 31.1974C318.18 31.27 318.071 31.3689 317.997 31.4942L316.807 31.2709L317.049 28.2643H320.628V29.3509H318.158L318.03 30.6663H318.062C318.155 30.512 318.304 30.3849 318.509 30.285C318.716 30.1834 318.951 30.1325 319.214 30.1325C319.548 30.1325 319.846 30.2106 320.108 30.3667C320.371 30.5211 320.578 30.7353 320.729 31.0095C320.881 31.2836 320.957 31.5977 320.957 31.9518C320.957 32.3348 320.867 32.6744 320.685 32.9703C320.505 33.2662 320.253 33.4986 319.928 33.6675C319.605 33.8345 319.226 33.9181 318.792 33.9181Z" fill="#D14137"/>
<path d="M181.594 57.2446C178.575 56.9829 178.48 56.8139 178.033 55.0535C178.033 55.0535 145.713 72.0351 153.382 71.4873C161.051 70.9395 181.594 57.2446 181.594 57.2446Z" fill="#BFCFF7"/>
<path d="M170.638 46.0148L146.261 77.5129L198.301 60.2574L181.32 56.9707L156.121 69.0221L178.307 55.0534L170.638 46.0148Z" fill="#E3E9FF"/>
<path d="M179.676 69.57L182.689 65.1876L146.535 77.513L155.025 76.4174L179.676 69.57Z" fill="#AABAE3"/>
<path d="M224.048 166.256C224.048 166.256 227.061 157.217 234.182 158.313C241.303 159.408 236.099 173.377 236.099 173.377L222.678 221.583L210.353 211.175L224.048 166.256Z" fill="url(#paint2_linear_412_3346)"/>
<path d="M228.978 195.289C227.334 181.594 224.048 168.995 228.978 161.873C233.908 154.752 240.208 152.835 251.437 152.835C262.667 152.835 270.336 158.587 272.801 161.873C275.266 165.16 272.821 206.578 270.61 230.622C254.993 236.594 246.238 238.142 230.621 230.622C230.621 230.622 230.621 208.984 228.978 195.289Z" fill="url(#paint3_linear_412_3346)"/>
<path d="M277.458 165.16C277.458 165.16 274.993 159.408 269.515 160.504C264.037 161.599 263.489 173.103 263.489 173.103C263.404 185.82 263.952 192.085 266.228 204.601C258.285 207.888 252.621 210.333 244.316 219.666C248.038 224.374 249.18 226.837 250.89 231.169C259.421 225.091 274.445 217.748 277.458 215.557C280.471 213.366 279.375 171.186 277.458 165.16Z" fill="url(#paint4_linear_412_3346)"/>
<path d="M241.577 145.166C242.298 150.388 242.28 151.898 241.704 156.942C241.625 157.632 241.876 158.326 242.393 158.79C247.075 162.996 249.084 162.768 256.632 158.399C258.053 157.576 258.611 155.82 258.055 154.274C256.108 148.87 256.203 145.547 256.915 139.14L241.577 145.166Z" fill="#EBBE8E"/>
<path d="M231.003 134.265C231.003 134.265 234.656 150.199 245.582 149.389C256.508 148.579 257.499 132.301 257.499 132.301C257.499 132.301 260.694 108.719 242.666 110.055C224.639 111.392 231.003 134.265 231.003 134.265Z" fill="#F5CAAA"/>
<path d="M240.255 102.442C237.774 105.098 238.974 108.407 238.974 108.407L257.07 114.379C257.07 114.379 260.585 115.491 260.863 109.978C261.141 104.464 258.445 103.291 258.445 103.291C258.445 103.291 256.147 98.2308 251.444 97.7674C246.74 97.304 242.736 99.7861 240.255 102.442Z" fill="#DD847E"/>
<path d="M234.666 140.308C230.679 130.991 234.07 123.522 241.303 121.063C239.947 117.593 239.08 113.751 239.824 109.3C239.824 109.3 238.085 109.743 234.837 110.396C231.59 111.049 226.581 114.304 225.49 125.096C224.873 131.212 225.809 137.133 230.67 141.977C234.773 146.067 236.295 151.173 236.295 151.173C236.295 151.173 238.652 149.625 234.666 140.308Z" fill="#DD847E"/>
<path d="M238.933 109.504C237.902 113.059 236.757 115.303 238.984 121.31C238.984 121.31 240.664 121.735 244.275 122.291C247.887 122.847 247.962 123.862 250.629 126.489C253.296 129.116 255.902 133.788 254.818 138.538C253.733 143.287 254.069 143.262 254.252 145.72C254.434 148.179 256.467 149.676 256.467 149.676C256.467 149.676 255.223 144 260.554 138.112C264.019 134.285 262.592 125.447 261.271 121.855C256.768 109.604 251.017 108.891 246.863 108.376L246.814 108.37C242.656 107.855 238.933 109.504 238.933 109.504Z" fill="#DD847E"/>
<path d="M183.511 215.557C187.346 216.105 217.748 228.978 217.748 228.978L257.463 235.552L236.647 254.724H214.735C214.735 254.724 191.18 248.425 183.511 244.59C175.842 240.756 174.198 238.838 172.007 235.552C169.816 232.265 169.999 225.417 172.007 221.035C174.016 216.653 179.677 215.009 183.511 215.557Z" fill="url(#paint5_linear_412_3346)"/>
<path d="M201.04 231.717V223.5L245.412 231.717V239.934L201.04 231.717Z" fill="url(#paint6_linear_412_3346)"/>
<path d="M231.321 230.904C238.163 227.888 241.751 225.792 247.577 221.095L252.345 229.234L238.308 235.844L231.321 230.904Z" fill="#EBBE8E"/>
<path d="M194.467 231.991V226.787L238.838 234.456V239.386L194.467 231.991Z" fill="url(#paint7_linear_412_3346)"/>
<path d="M207.614 258.011L222.952 250.89L227.335 260.75L212.544 266.776C207.037 263.301 205.612 261.379 207.614 258.011Z" fill="#EBBE8E"/>
<path d="M189.263 256.368C193.371 254.45 201.648 254.929 210.901 256.368C204.875 258.833 209.531 264.858 214.735 265.954C219.939 267.05 195.836 272.528 192.55 271.158C189.263 269.789 186.25 268.693 184.333 264.037C182.416 259.381 189.263 256.368 189.263 256.368Z" fill="#242460" stroke="#242460" stroke-width="0.547794"/>
<path d="M276.148 252.413C282.067 248.963 286.191 236.978 286.191 236.978L248.622 254.693C248.622 254.693 270.229 255.862 276.148 252.413Z" fill="url(#paint8_linear_412_3346)"/>
<path d="M247.055 266.228C241.303 266.228 239.112 262.941 239.112 262.941L243.494 254.998C243.494 254.998 252.259 255.272 254.45 258.011C256.641 260.75 252.807 266.228 247.055 266.228Z" fill="#242460"/>
<path d="M259.38 226.239C243.96 235.498 235.278 240.42 219.665 248.151C223.447 255.655 224.68 260.162 225.417 268.693C225.417 268.693 276.362 247.329 279.649 244.316C282.936 241.303 286.222 238.564 287.044 234.456C287.866 230.348 285.127 222.131 281.566 220.213C278.005 218.296 275.267 219.118 272.254 219.666C269.241 220.213 259.38 226.239 259.38 226.239Z" fill="url(#paint9_linear_412_3346)"/>
<path d="M233.209 192.824L177.485 182.963L194.741 227.061L238.838 235.004L233.209 192.824Z" fill="url(#paint10_linear_412_3346)"/>
<path d="M381.812 100.794H329.224C328.619 100.794 328.129 101.285 328.129 101.89V170.303C328.129 170.908 328.619 171.399 329.224 171.399H381.812C382.418 171.399 382.908 170.908 382.908 170.303V101.89C382.908 101.285 382.418 100.794 381.812 100.794Z" fill="white"/>
<rect x="335.432" y="108.707" width="41.3889" height="3.0433" rx="1.09559" fill="#E0E2EC"/>
<rect x="335.432" y="128.793" width="41.3889" height="3.0433" rx="1.09559" fill="#E0E2EC"/>
<rect x="335.432" y="148.879" width="41.3889" height="3.0433" rx="1.09559" fill="#E0E2EC"/>
<rect x="335.432" y="115.402" width="41.3889" height="3.0433" rx="1.09559" fill="#E0E2EC"/>
<rect x="335.432" y="135.488" width="41.3889" height="3.0433" rx="1.09559" fill="#E0E2EC"/>
<rect x="335.432" y="155.574" width="41.3889" height="3.0433" rx="1.09559" fill="#E0E2EC"/>
<rect x="335.432" y="122.097" width="41.3889" height="3.0433" rx="1.09559" fill="#E0E2EC"/>
<rect x="335.432" y="142.183" width="41.3889" height="3.0433" rx="1.09559" fill="#E0E2EC"/>
<rect x="335.432" y="162.269" width="41.3889" height="3.0433" rx="1.09559" fill="#E0E2EC"/>
<path d="M294.901 182.713V154.478H338.537V182.713H294.901Z" fill="#BFCFF7"/>
<path d="M317.04 164.745L295.543 182.713H338.537L317.04 164.745Z" fill="#AABAE3"/>
<path d="M338.537 154.478L322.269 170.746C319.856 173.159 315.997 173.324 313.387 171.126L293.618 154.478H338.537Z" fill="#E3E9FF"/>
<path d="M70.8845 191.384V155.573H134.21V191.384H70.8845Z" fill="#BFCFF7"/>
<path d="M103.013 168.595L71.8158 191.384H134.21L103.013 168.595Z" fill="#AABAE3"/>
<path d="M134.209 155.574L108.382 178.145C106.061 180.174 102.643 180.317 100.16 178.49L69.022 155.574H134.209Z" fill="#E3E9FF"/>
<path d="M108.198 166.733V112.298H192.325V166.733H108.198Z" fill="#BFCFF7"/>
<path d="M150.881 132.093L109.436 166.733H192.326L150.881 132.093Z" fill="#AABAE3"/>
<path d="M192.326 112.298L157.003 147.62C154.59 150.033 150.731 150.198 148.121 148L105.724 112.298H192.326Z" fill="#E3E9FF"/>
<defs>
<linearGradient id="paint0_linear_412_3346" x1="236.443" y1="2.75262e-09" x2="236.384" y2="309.675" gradientUnits="userSpaceOnUse">
<stop stop-color="#EBEFFF"/>
<stop offset="1" stop-color="#E59E9B" stop-opacity="0"/>
</linearGradient>
<linearGradient id="paint1_linear_412_3346" x1="302.656" y1="15.886" x2="302.656" y2="61.9007" gradientUnits="userSpaceOnUse">
<stop stop-color="white" stop-opacity="0.99"/>
<stop offset="1" stop-color="#ECEFFD"/>
</linearGradient>
<linearGradient id="paint2_linear_412_3346" x1="210.353" y1="212.763" x2="244.437" y2="194.089" gradientUnits="userSpaceOnUse">
<stop stop-color="#2C60E7"/>
<stop offset="0.546875" stop-color="#4074FB"/>
<stop offset="1" stop-color="#95B2FF"/>
</linearGradient>
<linearGradient id="paint3_linear_412_3346" x1="255.272" y1="224.596" x2="249.447" y2="155.573" gradientUnits="userSpaceOnUse">
<stop stop-color="#2C60E7"/>
<stop offset="0.546875" stop-color="#4074FB"/>
<stop offset="1" stop-color="#95B2FF"/>
</linearGradient>
<linearGradient id="paint4_linear_412_3346" x1="263.489" y1="191.728" x2="277.381" y2="189.601" gradientUnits="userSpaceOnUse">
<stop stop-color="#2C60E7"/>
<stop offset="0.546875" stop-color="#4074FB"/>
<stop offset="1" stop-color="#95B2FF"/>
</linearGradient>
<linearGradient id="paint5_linear_412_3346" x1="171.163" y1="231.545" x2="227.691" y2="267.518" gradientUnits="userSpaceOnUse">
<stop offset="0.015625" stop-color="#184CD3"/>
<stop offset="0.635417" stop-color="#184CD3"/>
<stop offset="1" stop-color="#486FD5"/>
</linearGradient>
<linearGradient id="paint6_linear_412_3346" x1="223.219" y1="224.234" x2="223.219" y2="241.395" gradientUnits="userSpaceOnUse">
<stop stop-color="#A8A8C1"/>
<stop offset="1" stop-color="#6D6D7A"/>
</linearGradient>
<linearGradient id="paint7_linear_412_3346" x1="202.684" y1="233.36" x2="235.004" y2="236.099" gradientUnits="userSpaceOnUse">
<stop stop-color="#A8A8C1"/>
<stop offset="1" stop-color="#6D6D7A"/>
</linearGradient>
<linearGradient id="paint8_linear_412_3346" x1="249.465" y1="243.241" x2="274.673" y2="258.462" gradientUnits="userSpaceOnUse">
<stop offset="0.015625" stop-color="#184CD3"/>
<stop offset="0.635417" stop-color="#184CD3"/>
<stop offset="1" stop-color="#486FD5"/>
</linearGradient>
<linearGradient id="paint9_linear_412_3346" x1="220.233" y1="239.368" x2="273.708" y2="260.238" gradientUnits="userSpaceOnUse">
<stop offset="0.015625" stop-color="#184CD3"/>
<stop offset="0.635417" stop-color="#184CD3"/>
<stop offset="1" stop-color="#486FD5"/>
</linearGradient>
<linearGradient id="paint10_linear_412_3346" x1="208.152" y1="185.287" x2="208.152" y2="239.632" gradientUnits="userSpaceOnUse">
<stop stop-color="#A8A8C1"/>
<stop offset="1" stop-color="#6D6D7A"/>
</linearGradient>
</defs>
</svg>
