<svg width="32" height="32" viewBox="0 0 32 32" fill="none" xmlns="http://www.w3.org/2000/svg">
<path d="M24.7067 23.2933C25.0974 23.684 25.0974 24.3174 24.7067 24.708C24.512 24.9027 24.256 25.0013 24 25.0013C23.744 25.0013 23.488 24.904 23.2934 24.708L16 17.4147L8.7067 24.708C8.51203 24.9027 8.25603 25.0013 8.00003 25.0013C7.74403 25.0013 7.48803 24.904 7.29337 24.708C6.9027 24.3174 6.9027 23.684 7.29337 23.2933L14.5867 16L7.29337 8.70674C6.9027 8.31607 6.9027 7.68269 7.29337 7.29202C7.68403 6.90136 8.31737 6.90136 8.70804 7.29202L16.0014 14.5854L23.2947 7.29202C23.6854 6.90136 24.3187 6.90136 24.7094 7.29202C25.1 7.68269 25.1 8.31607 24.7094 8.70674L17.416 16L24.7067 23.2933Z" fill="#00002E"/>
</svg>
