<svg width="450" height="350" viewBox="0 0 1464 884" fill="none" xmlns="http://www.w3.org/2000/svg">
<path d="M805.42 0H397.505L284.209 4.76379e-05C225.761 8.68482e-05 177.516 0.000119214 130.868 3.81433e-06C57.244 -0.00017832 -34.2882 97.9911 77.1422 97.9907C188.573 97.9902 162.705 139.986 130.868 139.986H61.2236C-24.3391 139.986 -16.3797 275.973 61.2236 275.973H150.766C216.43 275.973 212.451 389.962 150.766 391.962C89.0812 393.961 144.796 421.959 91.0711 421.959H57.244C-24.3386 421.959 -0.460651 627.939 57.244 627.939H105C146.787 627.939 164.695 691.933 105 691.933H35.3558C-6.43015 691.933 -16.3801 783.924 35.3558 783.924C87.0918 783.924 77.1422 831.919 130.868 831.919H572.61C632.305 831.919 666.132 871.915 729.807 875.915C793.481 879.914 1024.3 891.913 1062.11 875.915C1099.91 859.916 1062.11 843.918 1109.86 845.918C1157.62 847.917 1290.94 875.915 1316.81 845.918C1342.67 815.92 1237.21 795.922 1316.81 795.922H1406.35C1491.91 795.922 1474 687.933 1406.35 687.933H1348.64C1269.05 687.933 1269.05 619.94 1348.64 619.94H1396.4C1464.05 619.94 1477.98 525.949 1426.25 525.949H1378.49C1322.78 525.949 1336.7 483.953 1378.49 483.953H1426.25C1458.08 483.953 1440.18 419.959 1396.4 419.959H1147.67C1109.86 419.959 1109.86 391.962 1147.67 391.962H1217.31C1269.05 391.962 1280.99 323.968 1217.31 323.968H1133.74C1080.02 323.968 1084 257.975 1133.74 257.975H1378.49C1432.22 257.975 1426.25 191.981 1378.49 191.981H1157.62C1093.95 191.981 1085.99 149.985 1147.67 149.985H1269.05C1338.69 149.985 1342.67 67.9934 1253.13 67.9934H815.369C910.881 67.9934 916.851 0 805.42 0Z" fill="url(#paint0_linear_128_1390)"/>
<rect x="576" y="741" width="562" height="8" fill="#5F5F74"/>
<rect x="266" y="81" width="486" height="41" rx="7" fill="#00002E" fill-opacity="0.3"/>
<path d="M289 122H730V386C730 397.046 721.046 406 710 406H309C297.954 406 289 397.046 289 386V122Z" fill="white"/>
<circle cx="296.5" cy="101.5" r="7.5" fill="#EBEFFF"/>
<circle cx="323.5" cy="101.5" r="7.5" fill="#EBEFFF"/>
<circle cx="350.5" cy="101.5" r="7.5" fill="#EBEFFF"/>
<rect x="321" y="151" width="377" height="226" rx="20" fill="url(#paint1_linear_128_1390)"/>
<path d="M351.132 331.413C352.974 337.304 355.97 342.681 361.227 349.292C365.213 354.304 372.709 354.244 377.209 349.688C400.331 326.277 418.178 314.856 445.12 301.529C450.635 298.801 452.262 291.662 448.383 286.887C445.322 283.119 439.908 282.278 435.817 284.893C408.691 302.231 390.005 312.12 359.172 319.135C353.487 320.429 349.393 325.849 351.132 331.413Z" fill="url(#paint2_linear_128_1390)"/>
<path fill-rule="evenodd" clip-rule="evenodd" d="M514.711 339C561.655 339 599.711 300.944 599.711 254C599.711 207.056 561.655 169 514.711 169C467.767 169 429.711 207.056 429.711 254C429.711 300.944 467.767 339 514.711 339ZM515.211 326C555.252 326 587.711 293.541 587.711 253.5C587.711 213.459 555.252 181 515.211 181C475.17 181 442.711 213.459 442.711 253.5C442.711 293.541 475.17 326 515.211 326Z" fill="#C8C8DD"/>
<path fill-rule="evenodd" clip-rule="evenodd" d="M514.98 335.464C559.715 335.464 595.98 299.199 595.979 254.464C595.979 209.729 559.715 173.464 514.979 173.464C470.244 173.464 433.979 209.729 433.979 254.464C433.98 299.199 470.244 335.464 514.98 335.464ZM515.48 331.464C558.282 331.464 592.98 296.766 592.979 253.964C592.979 211.162 558.282 176.464 515.479 176.464C472.677 176.464 437.979 211.162 437.979 253.964C437.98 296.766 472.677 331.464 515.48 331.464Z" fill="#D3D4E7"/>
<path fill-rule="evenodd" clip-rule="evenodd" d="M477.51 275.047C476.185 276.042 475.918 277.923 476.913 279.247L479.915 283.246C480.91 284.571 482.79 284.838 484.115 283.843L514.798 260.804L545.481 283.843C546.806 284.838 548.687 284.571 549.682 283.246L552.684 279.247C553.679 277.922 553.411 276.042 552.086 275.047L523.958 253.926L552.086 232.805C553.411 231.81 553.679 229.929 552.684 228.604L549.682 224.606C548.687 223.281 546.806 223.014 545.481 224.008L514.798 247.048L484.115 224.008C482.79 223.014 480.91 223.281 479.915 224.606L476.913 228.604C475.918 229.929 476.185 231.81 477.51 232.805L505.639 253.926L477.51 275.047Z" fill="#E3A3A2"/>
<path d="M771.5 724C771.437 724.069 771.378 724.096 771.321 724.083C762.767 728.059 758.22 728.642 751 725.5C752.198 713.127 754 706.5 751 688.5L771.5 692.5C770.295 704.75 770.093 723.804 771.321 724.083C771.381 724.056 771.44 724.028 771.5 724Z" fill="#EBBE8E"/>
<path d="M828.5 691.5C826.935 704.675 827.409 727.679 828.5 731C818.749 733.384 813.877 733.44 808 727.5C808.778 712.731 808.442 704.761 805.5 691.5C816.08 694.693 820.704 693.872 828.5 691.5Z" fill="#EBBE8E"/>
<path d="M743.5 614C746.986 560.477 750.761 521.4 763 474L808 481.5C806.168 533.181 801.612 568.243 789.5 620C783.476 651.971 779.705 670.598 777 704C762.999 706.043 755.138 706.536 741 700C738.936 667.901 740.119 648.76 743.5 614Z" fill="url(#paint3_linear_128_1390)"/>
<path d="M796.5 702C811.93 704.548 820.569 704.811 836 702C840.108 671.117 839.331 652.774 839.5 615C839.657 580 843.701 524.849 836 477C821.724 478.258 812.655 482.93 793 481.5C789.92 495.815 789.119 505.981 789 527C789 551 793 605.5 793.001 617.5C793.681 651.476 797.156 668.023 796.5 702Z" fill="url(#paint4_linear_128_1390)"/>
<path d="M764 724.5C764 724.5 769.646 722.496 772.499 718.5C774.496 716.399 774.836 716.584 777.499 718.5C775.496 723.094 781.999 734.5 780.5 739.5C779 744.5 765.5 743 759.999 741C759.696 742.862 706.617 746.331 704.999 739.5C702.11 733 707.999 724.5 716.5 726.5C725 728.5 733.022 725.046 736 723C738.978 720.954 745 714 749 715C752.999 716 749.5 717.5 751.499 723C753.499 728.5 764 724.5 764 724.5Z" fill="url(#paint5_linear_128_1390)"/>
<path d="M836.5 732.5C838.5 739.5 837.5 742.5 837.5 742.5C829.065 747.054 824.5 740.5 817 743.5C809.5 746.5 778.499 748 766.5 742.5C762.996 741.5 768.263 729.236 776 730C783.738 730.764 788.116 730.258 796 726.5C796 726.5 800.5 715.5 804 715.5C807.5 715.5 807.5 722.5 807.5 722.5C814.861 729.112 819.396 730.41 829.5 721C829.5 721 829.5 715.5 833 715.5C836.5 715.5 835 720 835 720C833.584 724.646 834.5 725.5 836.5 732.5Z" fill="url(#paint6_linear_128_1390)"/>
<path d="M711.728 496.883C715.803 489.274 716.852 484.93 718.633 477.177L732.322 484.308C728.738 489.843 726.937 493.037 728.075 500.631L728.596 511.166C728.322 517.16 724.983 517.779 720.262 518.294C718.208 524.613 718.256 527.476 719.579 533.278C719.582 535.433 718.91 536.428 715.878 537.614C708.788 537.966 703.051 533.526 700.327 527.396C697.604 521.265 698.921 514.318 701.17 508.915C703.418 503.512 711.728 496.883 711.728 496.883Z" fill="#EBBE8E"/>
<path d="M747.116 368.361C749.809 359.074 760.879 340.959 776.498 349.68C792.117 358.4 784.485 383.078 784.485 383.078C764.465 424.463 753.926 448.291 736.953 492.527C727.435 486.737 721.71 483.976 710.479 480.815C710.472 480.815 710.465 480.813 710.459 480.809C710.465 480.811 710.472 480.813 710.479 480.815C711.998 480.668 744.437 377.601 747.116 368.361Z" fill="url(#paint7_linear_128_1390)"/>
<path d="M751.5 392C754.001 372 763.523 348.543 773.5 341.5C783.477 334.457 794.879 336.41 810.5 340C819.638 343.981 828.657 346.884 835.001 354C839.951 403.921 839.5 471.5 835.001 478.5C830.501 485.5 765.501 486 761.001 478.5C756.5 471 755.501 461.5 754.001 443C752.501 424.5 749 412 751.5 392Z" fill="url(#paint8_linear_128_1390)"/>
<path d="M814 411.5C794.547 428.529 784.845 439.42 769 461.5C795.669 487.643 811.032 501.4 840 522.5C854.961 500.731 864.299 489.618 882 471C855.759 449.335 840.914 436.526 814 411.5Z" fill="url(#paint9_linear_128_1390)"/>
<path d="M828 488C833.749 483.569 838.044 479.947 844 476.5L833.5 466C829.871 471.249 826.5 477.5 822 476.5C817.5 475.5 812 476 809.5 477C807 478 804.354 479.568 801 484.5C798.525 488.674 797.001 496.5 799.5 499.5C802 502.5 808 500.194 812 502.5C816 504.806 821.5 506 823.5 502.5C825.5 499 824.108 491 828 488Z" fill="#EBBE8E"/>
<path d="M852.5 369C849.499 364.5 836 346 823 355C810 364 816 381.5 816 381.5C825.545 403.9 833.601 417.204 850 441.5C838.195 448.508 832.412 453.496 823 463.5C832.701 468.557 837.361 472.473 843.5 482.5C843.5 482.5 884.5 452.5 884 443C883.499 433.5 855.5 373.5 852.5 369Z" fill="url(#paint10_linear_128_1390)"/>
<path d="M780 315.5C780.355 327.833 777.5 331.5 774.5 343C771.5 354.5 810.23 343.726 810.5 340C810.5 340 803.875 321.091 808 300L780 315.5Z" fill="#EBBE8E"/>
<path d="M763.402 286.697C764.625 296.13 766.351 312.044 775.926 315.813C785.501 319.582 800.787 308.864 805.332 304.498C809.877 300.132 821.261 283.198 821.048 274.187C820.835 265.177 817.239 256.615 807.495 250.668C797.751 244.721 782.634 245.079 773.991 253.275C765.347 261.47 762.18 277.263 763.402 286.697Z" fill="#F5CAAA"/>
<path d="M800.5 260.5C803.5 262.5 802.211 287.782 804 288C805.789 288.218 806.5 281.5 811 279.5C815.5 277.5 816 281.5 816 284.5C816 287.5 813.5 292.5 811 294C808.5 295.5 808 298 807.5 301.5L806.5 313.5C808.31 309.684 808.516 310.147 811 312C811.023 305.555 814.99 301.034 819.5 295.5L821.5 297C821.586 290.729 826.5 287.5 828.5 281.5C830.5 275.5 825.513 250.387 810.5 248C807.164 252.476 805.022 258.249 800.5 260.5Z" fill="#25254B"/>
<path d="M811 248.064C809.5 251.564 805.169 259.09 800.5 260.5C800.5 260.5 795 256.564 790.5 258.064C786 259.564 784.5 258.564 780 258.064C775.5 257.564 771.281 262.059 767 268.064C761.609 275.784 764.457 277.509 763.5 287.5C763.5 287.5 758 282.564 758 278.564C758 274.564 760.5 269.064 760.5 269.064C759.845 267.637 759.322 267.474 758 269.064C758.281 261.179 762 251.564 765 247.064C769 241.064 775 236.946 783 235.064C791.5 233.064 798 234.064 803.5 236.564C807.5 238.382 812.295 241.726 811 248.064Z" fill="#25254B"/>
<path d="M1078.5 497.5C1077 492 1076.5 480.5 1076.5 480.5H1063C1066.25 489.014 1067.78 493.624 1067 500C1067 500 1063 508.5 1064.5 514.5C1066 520.5 1073 534 1076.5 536C1080 538 1084 537.5 1087 534C1090 530.5 1088.5 520.5 1087 514.5C1085.5 508.5 1080 503 1078.5 497.5Z" fill="#EBBE8E"/>
<path d="M908.567 488.282C912.246 482.564 914.582 479.864 919.272 475.855L909.869 464.818C905.111 472.278 902.2 476.315 895.365 482.541C895.365 482.541 889.374 482.209 882.607 486.841C875.84 491.473 874.322 501.834 874.815 509.945C876.967 519.462 882.249 520.373 885.327 519.041C888.406 517.71 889.883 509.631 894.118 505.007C894.118 505.007 901.108 505.395 904.851 501.095C908.595 496.796 908.567 488.282 908.567 488.282Z" fill="#EBBE8E"/>
<path d="M902.5 467.5C910.764 471.944 914.041 475.777 918 484.5C931.988 473.589 943.5 461.5 950 451C956.5 440.5 977 370.5 977 370.5C977 370.5 982 356.5 971.5 352C961 347.5 952.5 361 952.5 361C940.351 387.276 934.521 402.68 927.5 432.5C916.939 443.562 911.327 450.758 902.5 467.5Z" fill="url(#paint11_linear_128_1390)"/>
<path d="M1049.5 482C1040.15 491.826 1021.01 497.722 1007.5 496.5C982.039 494.198 990.027 468.923 988.5 436.5C985.48 391.349 984.813 369.965 1000 338.5C1013 341 1022.98 347 1031.5 357C1043.86 371.5 1053.34 414.5 1054 436.5C1054.51 453.5 1055.68 475.5 1049.5 482Z" fill="url(#paint12_linear_128_1390)"/>
<path d="M962.5 620C956.873 666.895 953.051 690.986 945.5 731.5L927 728.5C929.5 685.5 930.805 657.143 929.5 609.5L962.5 620Z" fill="#EBBE8E"/>
<path d="M1024.81 612.532C1046.6 649.711 1058.91 670.713 1078.5 694.5L1067.5 707C1032.48 664.242 1017.09 652.744 992.5 627L1024.5 612L1024.81 612.532Z" fill="#EBBE8E"/>
<path d="M945 477C945 477 922 603.5 925 615.5C928 627.5 998 648.5 1043 624C1032.21 614.642 1025.5 610 1025.5 594C1025.5 578 1022.2 521.509 1014.5 478C987.125 487.392 972.306 484.709 945 477Z" fill="url(#paint13_linear_128_1390)"/>
<path d="M948 392.5C943.221 433.712 937.5 458 943.5 474.5C949.5 491 1011 484.5 1015 477.5C1019 470.5 1025.19 463.5 1029.6 432.5C1034 401.5 1018.1 350.5 1002.1 343.5C986.098 336.5 967.5 344.5 967.5 344.5C956.5 354.5 950.783 368.5 948 392.5Z" fill="url(#paint14_linear_128_1390)"/>
<path d="M972.499 314.5C970.825 330.177 968.999 340 966.499 347C963.999 354 1003.5 347 1002 343.5C1000.5 340 996.41 321.757 994.999 304L972.499 314.5Z" fill="#EBBE8E"/>
<path d="M958.999 294.5C959.999 303.5 960.999 313.71 969.999 317.5C979 321.289 997 307 997 307C997 307 1015 289.5 1015 277.5C1015 265.5 1007.5 256.474 1001.5 253C995.5 249.526 983.999 246 972.999 253C961.999 260 957.999 285.5 958.999 294.5Z" fill="#F5CAAA"/>
<path d="M1006.5 247.5C1006.5 252.5 1003.9 262.611 996.5 265C996.5 265 985 265.999 979 263C973.001 260.001 966.042 270.917 964.197 273.707C962.352 276.498 959.197 272.707 959.197 288.707C959.197 304.707 962.387 316.026 972 318C971.382 329.076 970.741 334.489 967.5 344.5C963.882 347.891 962.133 349.984 959.5 354C952 358.5 950.5 366.5 943 382.5C943 382.5 918.5 356 930.5 320C942.5 284 951 295 951 279.5C951 264 946.825 264.741 951 253C955.32 243.889 963 242 966.5 239.5C970 237 981.5 226.5 992.5 231.5C1003.5 236.5 1006.5 242.5 1006.5 247.5Z" fill="#25254B"/>
<path d="M1006 284.5C997.5 285.5 996.5 296 996.5 291C996.5 286 1003.5 273.5 994 264.5C998.881 260.461 1005.38 256.342 1006 249.5C1012.56 247.679 1015.46 247.946 1020 249.5C1032.96 255.603 1041.5 261 1042 276C1042.5 291 1023 300 1025 313C1027 326 1044 342 1046 356.5C1048 371 1042.5 379 1042.5 379C1042.5 379 1037.14 363 1028.5 354C1016.5 341.5 1003 339.5 1001 339C999 338.5 995.644 311.639 995.5 308.5C995.5 308.5 996.5 303.5 999.5 301C1002.5 298.5 1014.5 283.5 1006 284.5Z" fill="#25254B"/>
<path d="M988 398C1004.42 433.208 1009.9 442.147 1025 466.5C1028.5 462.5 1029 455 1029 451C1014.35 433.156 1013.25 429.776 999 401.5C999 401.5 989 377.5 993.5 364.5C998 351.5 1015.5 357 1015.5 357C1013 353.5 1010.5 349 1008 347.5C1008 347.5 989.5 347.5 984.5 363.5C979.5 379.5 988 398 988 398Z" fill="url(#paint15_linear_128_1390)"/>
<path d="M1080.5 484.5C1071.73 484.704 1067.47 485.909 1061.5 490.5C1058.3 472.483 1055.12 462.294 1047.5 444C1020.53 417.889 1009.31 403.217 994.5 377C994.5 377 989 362.5 999 356.5C1009 350.5 1017.5 359 1017.5 359C1039.98 380.156 1051.6 395.632 1070.5 430.5C1076.13 451.632 1078.39 463.457 1080.5 484.5Z" fill="url(#paint16_linear_128_1390)"/>
<path d="M1082 689C1087.81 692.153 1090.02 694.739 1092.5 700.5C1088.86 707.732 1085.93 711.164 1077.5 715C1067.36 731.967 1054 741.5 1047.5 741C1041 740.5 1040.5 732.5 1042.5 727.5C1044.5 722.5 1049.5 722 1055 715C1060.5 708 1057.5 705 1057.5 700.5C1057.5 696 1064.5 700.5 1064.5 700.5C1071.7 700.457 1073.12 696.633 1073 686C1073.43 682.77 1074.63 682.296 1077.5 682.5C1078.95 687.101 1080.02 688.018 1082 689Z" fill="url(#paint17_linear_128_1390)"/>
<path d="M951 732.5C952.113 736.445 951.921 739.199 951 744.5C942.5 747.5 936 746 928 744C907.473 746.352 886.517 744.035 884.5 740C882.501 736 885.06 731.12 888 729C890.774 727 908 729 912.5 727C917 725 923 715 926 716C929 717 928 723 928 723C928 729 941 732.5 944.5 727C944.5 727 947.5 721 950 723C952.5 725 951 732.5 951 732.5Z" fill="url(#paint18_linear_128_1390)"/>
<path d="M417.726 644L407.726 776H410.726L422.726 644H417.726Z" fill="#25254B"/>
<path d="M430.726 644L420.726 776H423.726L435.726 644H430.726Z" fill="#25254B"/>
<path d="M535.726 585L540.726 612H538.726L528.726 585H535.726Z" fill="#25254B"/>
<path d="M443.726 585L438.726 612H440.726L450.726 585H443.726Z" fill="#25254B"/>
<path d="M557.726 644L567.726 776H564.726L552.726 644H557.726Z" fill="#25254B"/>
<path d="M544.726 644L554.726 776H551.726L539.726 644H544.726Z" fill="#25254B"/>
<path d="M403.915 610.325C405.132 605.088 410.161 601.852 415.534 601.637C471.8 599.393 506.096 599.488 560.121 601.646C565.39 601.857 570.355 604.966 571.586 610.092C573.589 618.432 572.137 625.581 568.948 635.005C567.101 640.462 561.918 644.082 556.157 644.198C503.519 645.256 474.072 645.281 419.14 644.192C413.459 644.079 408.313 640.56 406.472 635.184C403.238 625.737 401.984 618.635 403.915 610.325Z" fill="url(#paint19_linear_128_1390)"/>
<path d="M410.099 513.302C408.857 501.627 418.395 491.645 430.122 492.21C472.813 494.268 503.53 494.126 545.403 492.156C557.104 491.605 566.6 501.576 565.36 513.224L558.937 573.575C558.232 580.197 552.948 585.416 546.314 585.993C502.189 589.83 473.182 590.146 429.032 586.063C422.445 585.454 417.225 580.25 416.525 573.672L410.099 513.302Z" fill="url(#paint20_linear_128_1390)"/>
<path d="M172.652 276.969L215.994 151.761M215.994 151.761L271.232 276.969M215.994 151.761V129.099" stroke="#80809B" stroke-width="2"/>
<path d="M272.081 276.969C232.698 282.905 210.624 283.126 171.235 276.969C164.731 280.177 193.331 343.822 223.358 343.822C253.385 343.822 276.627 279.537 272.081 276.969Z" fill="url(#paint21_linear_128_1390)"/>
<path d="M183.7 266.771C199.563 266.771 199.563 280.368 199.563 280.368H196.73C198.264 279.181 194.744 265.67 182 269.887C169.256 274.104 171.235 346.655 168.403 357.703C165.57 368.75 155.673 383.148 140.642 386.313C140.642 386.313 159.338 380.081 165.57 360.819C171.802 341.556 167.836 266.771 183.7 266.771Z" fill="#996542"/>
<path d="M204.096 276.969C217.126 259.406 218.259 282.068 218.259 282.068H215.71C215.71 263.938 206.928 276.969 206.928 276.969C196.164 287.45 198.549 329.056 200.13 374.133C200.13 382.914 186.532 395.662 180.867 391.979C180.867 391.979 193.898 391.979 197.863 376.115C201.829 360.252 191.065 294.532 204.096 276.969Z" fill="#996542"/>
<path d="M253.668 267.054C229.307 240.993 228.457 281.501 228.457 281.501H229.873C229.873 281.501 230.723 258.433 240.354 259.689C253.385 261.389 264.533 284.617 268.115 300.764C271.698 316.911 282.313 363.368 289.644 374.699C296.976 386.03 303.808 386.88 303.808 386.88C274.347 375.549 278.03 293.116 253.668 267.054Z" fill="#996542"/>
<path d="M183.133 310.112C214.648 314.664 231.917 314.545 261.884 308.412" stroke="#00002E" stroke-opacity="0.3" stroke-width="2"/>
<path d="M296.649 394.439C299.209 400.449 314.062 405.046 325.904 401.51C306.749 399.035 317.893 383.831 306.053 380.649C294.212 377.467 294.088 388.428 296.649 394.439Z" fill="#92B559"/>
<path d="M282.526 387.723C285.444 384.589 294.462 373.683 287.831 368.459C281.2 363.235 276.227 373.683 275.564 381.193C274.901 388.703 278.322 396.484 282.526 402.743C281.863 400.24 279.609 390.858 282.526 387.723Z" fill="#92B559"/>
<path d="M263.018 353.736C260.185 342.689 275.482 325.975 278.598 335.89C281.714 345.805 276.615 352.32 277.465 363.368C278.315 374.416 263.018 377.815 263.018 377.815C268.737 369.883 265.85 364.784 263.018 353.736Z" fill="#92B559"/>
<path d="M302.959 356.569C304.092 347.788 284.829 340.139 280.864 348.354C276.898 356.569 295.877 359.969 297.294 367.051C298.71 374.132 310.041 372.999 310.041 372.999C310.041 372.999 301.826 365.351 302.959 356.569Z" fill="#92B559"/>
<path d="M286.832 333.475C278.122 332.938 268.647 324.486 271.75 317.353C274.852 310.22 280.116 310.766 283.334 312.807C286.553 314.848 284.151 322.724 289.419 324.993C294.687 327.262 307.677 325.925 307.677 325.925C307.677 325.925 295.542 334.012 286.832 333.475Z" fill="#92B559"/>
<path d="M268.79 310.845C273.323 305.18 272.19 291.299 265.957 289.599C259.725 287.9 255.476 299.514 256.326 310.845C257.176 322.176 260.292 327.558 260.292 327.558C260.292 327.558 264.258 316.511 268.79 310.845Z" fill="#92B559"/>
<path d="M240.356 297.081C235.643 280.122 236.106 257.14 242.905 257.14C249.704 257.14 256.219 267.054 249.137 274.986C242.055 282.918 241.769 294.285 240.356 297.081Z" fill="#92B559"/>
<path d="M167.837 421.156C167.714 399.99 175.485 380.648 181.717 389.429C187.949 398.211 187.666 408.125 181.717 408.125C175.768 408.125 167.837 421.156 167.837 421.156Z" fill="#84A353"/>
<path d="M193.615 388.296C200.13 392.459 201.547 414.924 201.547 414.924C201.547 414.924 211.744 396.511 209.478 385.463C207.212 374.415 204.096 373.849 196.448 376.115C188.799 378.381 187.099 384.133 193.615 388.296Z" fill="#84A353"/>
<path d="M193.898 347.221C206.362 346.938 199.28 353.17 199.28 353.17C199.28 353.17 202.113 367.334 193.898 367.334C185.683 367.334 179.167 379.798 179.167 379.798C179.167 379.798 181.433 347.504 193.898 347.221Z" fill="#84A353"/>
<path d="M211.744 345.805C213.16 338.156 207.778 323.143 199.563 328.525C191.348 333.907 201.262 342.972 201.262 342.972C201.262 354.02 208.694 365.205 216.559 368.75C211.663 360.188 210.327 353.453 211.744 345.805Z" fill="#84A353"/>
<path d="M191.915 299.064C202.113 289.716 191.348 302.464 200.413 300.764C209.478 299.064 203.812 326.542 195.314 327.675C186.816 328.808 181.717 343.539 181.717 343.539C181.717 343.539 181.717 308.412 191.915 299.064Z" fill="#84A353"/>
<path d="M215.427 278.102C208.912 273.853 199.847 285.184 199.847 285.184C199.847 285.184 206.646 293.399 205.512 300.197C204.379 306.996 219.11 311.528 219.11 311.528C219.11 311.528 208.912 302.18 215.427 296.798C221.942 291.416 221.942 282.351 215.427 278.102Z" fill="#84A353"/>
<path d="M131.294 380.365C131.294 380.365 135.259 375.832 140.642 383.481C146.024 391.129 163.02 392.546 146.024 396.511C129.027 400.477 123.928 416.057 123.928 416.057C121.099 398.101 119.861 388.281 131.294 380.365Z" fill="#92B559"/>
<path d="M144.607 349.204C155.088 345.805 166.419 355.719 166.419 355.719C166.419 355.719 166.703 372.149 151.689 366.484C136.675 360.818 135.115 370.11 124.495 372.433C124.495 372.433 134.126 352.603 144.607 349.204Z" fill="#92B559"/>
<path d="M166.137 360.535C162.737 347.505 169.536 333.624 169.536 333.624C169.536 333.624 182.85 329.942 181.15 350.621C179.45 371.3 169.536 386.03 169.536 386.03C169.536 386.03 169.536 373.566 166.137 360.535Z" fill="#92B559"/>
<path d="M149.14 315.494C159.338 310.112 168.12 309.545 169.82 315.494C171.519 321.443 169.82 337.873 163.871 336.74C157.922 335.607 162.171 331.641 155.656 330.225C149.14 328.808 132.71 344.105 132.71 344.105C132.71 344.105 138.943 320.876 149.14 315.494Z" fill="#92B559"/>
<path d="M173.785 319.177C172.368 316.061 169.252 310.679 173.785 301.614C178.317 292.549 190.781 291.982 190.215 304.73C189.648 317.477 194.464 333.907 194.464 333.907C183.523 334.016 175.201 322.293 173.785 319.177Z" fill="#92B559"/>
<path d="M155.089 274.42C159.905 264.788 179.45 255.157 181.717 264.788C183.983 274.42 177.468 280.652 167.553 280.652C157.639 280.652 151.973 303.314 151.973 303.314C151.973 303.314 150.273 284.051 155.089 274.42Z" fill="#92B559"/>
<circle cx="215.71" cy="126.549" r="2.54948" fill="#80809B"/>
<path d="M1337 611.743C1337 604.206 1331.02 598.02 1323.49 597.752C1272.66 595.948 1239.04 595.019 1185.25 597.561C1177.83 597.912 1172 604.058 1172 611.495V626C1172 633.732 1178.27 640 1186 640H1323C1330.73 640 1337 633.732 1337 626V611.743Z" fill="url(#paint22_linear_128_1390)"/>
<path d="M1317.27 640L1327.27 772H1324.27L1312.27 640H1317.27Z" fill="#25254B"/>
<path d="M1270.27 640L1280.27 772H1277.27L1265.27 640H1270.27Z" fill="#25254B"/>
<path d="M1265 581L1260 616H1262L1272 581H1265Z" fill="#25254B"/>
<path d="M1320 581L1315 616H1317L1327 581H1320Z" fill="#25254B"/>
<path d="M1189.27 640L1179.27 772H1182.27L1194.27 640H1189.27Z" fill="#25254B"/>
<path d="M1242.27 640L1232.27 772H1235.27L1247.27 640H1242.27Z" fill="#25254B"/>
<path d="M1364.71 505.795C1366.2 496.567 1358.43 488.687 1349.1 489.201C1326.42 490.45 1308.5 490.218 1282.84 488.643C1276.87 488.276 1271.2 491.445 1268.54 496.807C1255.25 523.619 1248.98 542.082 1245.01 567.195C1243.72 575.352 1249.63 582.847 1257.85 583.608C1279.94 585.654 1298.51 585.545 1328.92 582.771C1333.96 582.311 1338.43 579.296 1340.72 574.786C1353.66 549.302 1360.63 531.196 1364.71 505.795Z" fill="url(#paint23_linear_128_1390)"/>
<defs>
<linearGradient id="paint0_linear_128_1390" x1="732" y1="8.16549e-09" x2="731.835" y2="918.633" gradientUnits="userSpaceOnUse">
<stop stop-color="#EBEFFF"/>
<stop offset="1" stop-color="#E59E9B" stop-opacity="0"/>
</linearGradient>
<linearGradient id="paint1_linear_128_1390" x1="509.5" y1="151" x2="509.5" y2="377" gradientUnits="userSpaceOnUse">
<stop stop-color="white" stop-opacity="0"/>
<stop offset="1" stop-color="#ECEFFD" stop-opacity="0.47"/>
</linearGradient>
<linearGradient id="paint2_linear_128_1390" x1="358" y1="333" x2="433" y2="298" gradientUnits="userSpaceOnUse">
<stop stop-color="#B3B3C0"/>
<stop offset="1" stop-color="#8A7791"/>
</linearGradient>
<linearGradient id="paint3_linear_128_1390" x1="799.5" y1="530.5" x2="754.5" y2="524.5" gradientUnits="userSpaceOnUse">
<stop offset="0.015625" stop-color="#184CD3"/>
<stop offset="0.635417" stop-color="#184CD3"/>
<stop offset="1" stop-color="#486FD5"/>
</linearGradient>
<linearGradient id="paint4_linear_128_1390" x1="819" y1="537.5" x2="779.224" y2="539.055" gradientUnits="userSpaceOnUse">
<stop stop-color="#2C60E7"/>
<stop offset="0.546875" stop-color="#4074FB"/>
<stop offset="1" stop-color="#95B2FF"/>
</linearGradient>
<linearGradient id="paint5_linear_128_1390" x1="742.491" y1="714.902" x2="742.491" y2="743.55" gradientUnits="userSpaceOnUse">
<stop stop-color="#DCE4FA"/>
<stop offset="1" stop-color="#C5CBD9"/>
</linearGradient>
<linearGradient id="paint6_linear_128_1390" x1="801.572" y1="715.5" x2="801.572" y2="746.19" gradientUnits="userSpaceOnUse">
<stop stop-color="#E2EBFF"/>
<stop offset="1" stop-color="#C3CDE8"/>
</linearGradient>
<linearGradient id="paint7_linear_128_1390" x1="776" y1="429.5" x2="733.827" y2="409.713" gradientUnits="userSpaceOnUse">
<stop stop-color="#2C60E7"/>
<stop offset="0.546875" stop-color="#4074FB"/>
<stop offset="1" stop-color="#95B2FF"/>
</linearGradient>
<linearGradient id="paint8_linear_128_1390" x1="834" y1="403.5" x2="758.078" y2="373.749" gradientUnits="userSpaceOnUse">
<stop stop-color="#2C60E7"/>
<stop offset="0.546875" stop-color="#4074FB"/>
<stop offset="1" stop-color="#95B2FF"/>
</linearGradient>
<linearGradient id="paint9_linear_128_1390" x1="769" y1="427" x2="877" y2="512" gradientUnits="userSpaceOnUse">
<stop stop-color="#F9C8C5"/>
<stop offset="1" stop-color="#BE6F69"/>
</linearGradient>
<linearGradient id="paint10_linear_128_1390" x1="884" y1="404.5" x2="807.653" y2="406.887" gradientUnits="userSpaceOnUse">
<stop stop-color="#2C60E7"/>
<stop offset="0.546875" stop-color="#4074FB"/>
<stop offset="1" stop-color="#95B2FF"/>
</linearGradient>
<linearGradient id="paint11_linear_128_1390" x1="945" y1="425" x2="925.167" y2="417.286" gradientUnits="userSpaceOnUse">
<stop stop-color="#2C60E7"/>
<stop offset="0.546875" stop-color="#4074FB"/>
<stop offset="1" stop-color="#95B2FF"/>
</linearGradient>
<linearGradient id="paint12_linear_128_1390" x1="1024" y1="377" x2="1046.5" y2="361.5" gradientUnits="userSpaceOnUse">
<stop stop-color="#BD7D79"/>
<stop offset="1" stop-color="#FFBBB7"/>
</linearGradient>
<linearGradient id="paint13_linear_128_1390" x1="1020.5" y1="511.5" x2="945.913" y2="495.99" gradientUnits="userSpaceOnUse">
<stop offset="0.015625" stop-color="#184CD3"/>
<stop offset="0.635417" stop-color="#184CD3"/>
<stop offset="1" stop-color="#486FD5"/>
</linearGradient>
<linearGradient id="paint14_linear_128_1390" x1="1024" y1="425.5" x2="939.792" y2="406.416" gradientUnits="userSpaceOnUse">
<stop stop-color="#2C60E7"/>
<stop offset="0.546875" stop-color="#4074FB"/>
<stop offset="1" stop-color="#95B2FF"/>
</linearGradient>
<linearGradient id="paint15_linear_128_1390" x1="984.5" y1="355.5" x2="1055" y2="372.5" gradientUnits="userSpaceOnUse">
<stop stop-color="#F3C6C4"/>
<stop offset="1" stop-color="#AE6965"/>
</linearGradient>
<linearGradient id="paint16_linear_128_1390" x1="1035" y1="376" x2="998.532" y2="391.27" gradientUnits="userSpaceOnUse">
<stop stop-color="#2C60E7"/>
<stop offset="0.546875" stop-color="#4074FB"/>
<stop offset="1" stop-color="#95B2FF"/>
</linearGradient>
<linearGradient id="paint17_linear_128_1390" x1="1057" y1="706" x2="1076" y2="726" gradientUnits="userSpaceOnUse">
<stop stop-color="#E2EBFF"/>
<stop offset="1" stop-color="#C3CDE8"/>
</linearGradient>
<linearGradient id="paint18_linear_128_1390" x1="917.777" y1="715.93" x2="917.777" y2="746.197" gradientUnits="userSpaceOnUse">
<stop stop-color="#E2EBFF"/>
<stop offset="1" stop-color="#C3CDE8"/>
</linearGradient>
<linearGradient id="paint19_linear_128_1390" x1="487.726" y1="602" x2="487.725" y2="649.003" gradientUnits="userSpaceOnUse">
<stop stop-color="#A8A8C1"/>
<stop offset="1" stop-color="#6D6D7A"/>
</linearGradient>
<linearGradient id="paint20_linear_128_1390" x1="487.7" y1="495.375" x2="487.7" y2="597.715" gradientUnits="userSpaceOnUse">
<stop stop-color="#A8A8C1"/>
<stop offset="1" stop-color="#6D6D7A"/>
</linearGradient>
<linearGradient id="paint21_linear_128_1390" x1="221.477" y1="276.969" x2="221.477" y2="343.822" gradientUnits="userSpaceOnUse">
<stop stop-color="#E4C6B2"/>
<stop offset="1" stop-color="#F08541"/>
</linearGradient>
<linearGradient id="paint22_linear_128_1390" x1="1172" y1="596" x2="1313.25" y2="651.253" gradientUnits="userSpaceOnUse">
<stop stop-color="#A8A8C1"/>
<stop offset="1" stop-color="#6D6D7A"/>
</linearGradient>
<linearGradient id="paint23_linear_128_1390" x1="1264" y1="513" x2="1367" y2="536.999" gradientUnits="userSpaceOnUse">
<stop stop-color="#A8A8C1"/>
<stop offset="1" stop-color="#6D6D7A"/>
</linearGradient>
</defs>
</svg>
