<svg width="14" height="14" viewBox="0 0 24 24" fill="none" xmlns="http://www.w3.org/2000/svg">
<path d="M22.8833 21.1167C23.3716 21.605 23.3716 22.3967 22.8833 22.885C22.6399 23.1284 22.32 23.2517 21.9999 23.2517C21.6799 23.2517 21.36 23.13 21.1166 22.885L11.9999 13.7683L2.88328 22.885C2.63995 23.1284 2.31995 23.2517 1.99995 23.2517C1.67995 23.2517 1.35995 23.13 1.11662 22.885C0.628283 22.3967 0.628283 21.605 1.11662 21.1167L10.2333 12L1.11662 2.88342C0.628283 2.39509 0.628283 1.60336 1.11662 1.11503C1.60495 0.626696 2.39662 0.626696 2.88496 1.11503L12.0016 10.2317L21.1183 1.11503C21.6066 0.626696 22.3983 0.626696 22.8866 1.11503C23.3749 1.60336 23.3749 2.39509 22.8866 2.88342L13.7699 12L22.8833 21.1167Z" fill="#00002E"/>
</svg>
