<svg width="372" height="265" viewBox="0 0 372 265" fill="none" xmlns="http://www.w3.org/2000/svg">
<path d="M222.329 4.48003C234.569 -5.60018 324.571 4.48003 324.571 4.48003C360.052 8.4274 373.532 54.161 355.532 54.161H337.531C318.451 54.161 317.191 65.6813 337.531 65.6813H355.532C373.532 65.6813 379.112 88.0017 346.171 88.0017H302.25C285.15 88.0017 284.25 113.382 302.25 113.742C320.251 114.102 354.272 114.642 363.632 114.642C372.992 114.642 374.612 133.903 364.532 133.903C354.452 133.903 340.137 140.16 350.851 141.823C361.565 143.486 370.472 138.583 370.472 148.663C370.472 158.743 362.192 157.663 346.171 157.663C330.151 157.663 330.511 174.404 346.171 174.404H360.572C374.972 174.404 371.552 204.644 360.572 204.644H337.531C328.711 204.644 330.871 219.044 337.531 219.044H351.211C365.792 219.044 367.412 250.365 351.211 250.725C335.011 251.085 259.23 250.185 235.289 250.725C211.349 251.265 229.529 265.042 183.448 264.322C137.367 263.602 165.628 250.725 150.327 250.725C135.027 250.725 30.085 256.845 12.0846 250.725C-5.91577 244.605 -0.875671 186.644 12.0846 186.644H91.2862C102.266 186.644 102.986 174.404 91.2862 174.404H76.8859C67.3457 174.404 70.7658 165.763 76.8859 165.763H91.2862C103.526 165.763 105.326 158.563 91.2862 158.563H12.0846C-3.03571 158.563 1.64438 110.322 12.0846 110.322H91.2862C103.166 110.322 99.5663 98.0819 91.2862 98.0819H49.5254C35.8451 98.0819 35.8451 79.3616 49.5254 79.3616H68.2457C81.206 79.3616 79.766 69.2814 68.2457 69.2814H35.8451C22.1648 69.2814 35.8451 19.9603 49.5254 11.6802C63.2056 3.40004 175.528 5.92009 183.448 11.6802C191.368 17.4403 179.848 32.5606 199.288 32.5606H222.329C241.769 32.5606 210.089 14.5602 222.329 4.48003Z" fill="#EBEFFF" fill-opacity="0.7"/>
<rect x="34.4231" y="225.412" width="317.259" height="2.14896" fill="#5F5F74"/>
<path d="M225.999 168.18C225.142 172.725 224.751 175.448 224.122 180.738H222.534L222.54 180.694C223.031 176.475 223.307 174.099 222.534 168.18H225.999Z" fill="#5F5F74"/>
<path d="M224.99 189.687L227.299 224.906H226.145L223.402 189.687H224.99Z" fill="#5F5F74"/>
<path d="M206.224 189.975H204.347L206.946 225.771H208.245L206.224 189.975Z" fill="#5F5F74"/>
<path d="M228.597 169.479C231.339 168.613 237.113 136.425 234.803 132.384C232.494 128.342 220.369 131.662 220.369 131.662L213.297 169.479C213.297 169.479 225.854 170.345 228.597 169.479Z" fill="#404040"/>
<path d="M228.453 180.449C229.896 184.346 231.917 188.243 228.453 190.408C224.989 192.573 190.059 191.563 190.059 191.563V180.449C190.059 180.449 227.01 176.552 228.453 180.449Z" fill="#404040"/>
<path d="M125.498 164.122C124.641 168.667 124.25 171.389 123.621 176.679H122.034L122.039 176.635C122.53 172.417 122.807 170.041 122.034 164.122H125.498Z" fill="#5F5F74"/>
<path d="M124.573 185.5L126.797 224.183H125.685L123.044 185.5H124.573Z" fill="#5F5F74"/>
<path d="M105.799 185.788H103.992L106.494 225.337H107.745L105.799 185.788Z" fill="#5F5F74"/>
<path d="M128.097 165.42C130.839 164.554 136.613 132.367 134.304 128.325C131.994 124.284 119.87 127.603 119.87 127.603L112.797 165.42C112.797 165.42 125.355 166.286 128.097 165.42Z" fill="#404040"/>
<path d="M127.953 176.569C129.396 180.869 131.417 185.169 127.953 187.558C124.489 189.947 85.2283 188.832 85.2283 188.832V176.569C85.2283 176.569 126.509 172.269 127.953 176.569Z" fill="#404040"/>
<path d="M286.042 145.807C286.408 142.96 286.449 141.53 286.042 139.456H289.795C289.429 141.598 289.386 143.127 289.795 146.818L291.816 151.003C291.816 151.003 291.816 155.334 288.785 155.478C285.753 155.622 284.887 150.137 284.887 150.137C284.618 148.098 284.533 146.987 286.042 145.807Z" fill="#EBBE8E"/>
<path d="M284.503 103.083C285.08 98.8968 286.235 93.4119 290.276 93.4119C294.318 93.4119 294.318 103.083 294.318 103.083C294.675 118.672 294.153 127.098 292.73 141.91C289.508 140.514 287.542 140.094 283.492 140.611C282.772 125.108 283.925 107.268 284.503 103.083Z" fill="url(#paint0_linear_165_2913)"/>
<path d="M295.715 184.346C297.607 196.534 298.364 204.923 299.035 217.544C300.767 219.709 302.497 219.473 305.097 218.554C305.097 211.915 307.118 200.512 305.963 185.212C306.533 178.092 306.771 174.391 307.118 168.035H293.55C293.973 174.097 294.392 177.628 295.715 184.346Z" fill="#EBBE8E"/>
<path d="M307.695 182.758C306.222 177.235 305.601 174.287 304.808 169.334L316.644 168.179L318.088 180.593C324.15 190.696 323.428 208.739 327.325 215.234L321.552 217.255C316.924 203.446 314.006 196.357 307.695 182.758Z" fill="#EBBE8E"/>
<path d="M320.108 214.512C320.108 214.512 318.953 210.76 318.087 212.636C317.221 214.512 317.943 214.512 316.355 216.533C314.767 218.554 308.416 218.554 307.406 221.008C306.395 223.462 307.839 224.328 307.839 224.328C315.822 225.78 319.735 224.911 326.17 221.729C328.513 221.735 331.366 221.874 331.655 219.853C331.943 217.832 331.655 217.399 328.768 214.512C325.881 211.626 328.768 210.471 327.18 210.038C325.593 209.605 326.17 212.636 326.17 212.636C324.433 214.497 323.09 214.862 320.108 214.512Z" fill="url(#paint1_linear_165_2913)"/>
<path d="M299.218 216.316C299.218 216.316 298.503 212.455 297.427 214.219C296.351 215.984 297.067 216.067 295.258 217.892C293.448 219.716 287.14 218.986 285.854 221.307C284.568 223.628 285.902 224.655 285.902 224.655C293.665 227.016 297.652 226.602 304.41 224.182C306.737 224.458 309.555 224.923 310.074 222.949C310.594 220.975 310.357 220.512 307.821 217.312C305.286 214.112 308.286 213.297 306.759 212.684C305.231 212.072 305.456 215.149 305.456 215.149C303.516 216.798 302.141 217.006 299.218 216.316Z" fill="url(#paint2_linear_165_2913)"/>
<path d="M289.213 133.471C288.272 149.567 287.744 158.615 289.939 176.84C296.366 175.637 299.967 175.727 306.394 176.84C314.121 178.01 317.559 177.339 323.282 175.541C320.289 157.988 316.75 149.315 311.157 133.394C302.587 135.037 297.788 135.238 289.218 133.394L289.213 133.471Z" fill="url(#paint3_linear_165_2913)"/>
<path d="M287.92 97.309C286.477 101.783 286.621 133.105 289.363 136.569C292.106 140.033 307.406 139.312 312.169 135.559C312.617 135.051 311.736 99.8521 308.234 95.1439C304.733 90.4357 301.776 89.8033 297.302 89.8033C292.827 89.8033 289.364 92.8344 287.92 97.309Z" fill="url(#paint4_linear_165_2913)"/>
<path d="M303.942 120.403C300.757 126.96 298.51 130.625 293.982 137.147C303.906 145.122 309.841 149.022 321.263 154.756C325.443 148.652 327.227 144.945 329.49 137.868C319.797 129.676 314.157 126.061 303.942 120.403Z" fill="#E8A09B"/>
<path d="M309.427 140.034C310.62 137.787 311.894 134.906 312.025 132.528C314.639 131.116 315.246 132.927 316.5 134.549C315.373 136.25 314.037 138.062 313.036 142.199C313.036 142.199 314.479 145.085 313.036 146.962C311.592 148.838 313.902 150.57 312.025 151.292C310.149 152.014 306.54 148.261 305.674 145.951C304.867 143.798 305.386 142.632 306.54 140.9C307.695 139.168 309.427 140.034 309.427 140.034Z" fill="#EBBE8E"/>
<path d="M312.755 97.8657C312.755 97.8657 307.847 91.8034 304.96 93.8242C302.074 95.845 302.651 100.175 302.651 100.175C302.048 102.907 313.621 122.981 313.621 122.981L310.157 132.219C313.165 132.867 314.894 133.674 318.095 136.26C318.095 136.26 325.168 124.569 325.024 121.537C324.879 118.506 312.755 97.8657 312.755 97.8657Z" fill="url(#paint5_linear_165_2913)"/>
<path d="M292.394 81.8647C292.789 85.7618 293.222 89.226 292.789 92.6901C292.789 94.2779 303.407 92.8345 302.604 91.1024C300.966 87.569 301.095 83.9879 300.91 79.2665C297.734 84.4628 295.134 83.7828 292.394 81.8647Z" fill="#EBBE8E"/>
<path d="M288.351 68.5854C288.928 63.8222 292.825 60.6467 297.3 61.3684C301.775 62.0901 303.94 65.843 304.228 69.3071C304.517 72.7713 299.754 84.7515 294.846 84.0298C289.939 83.308 287.774 73.3486 288.351 68.5854Z" fill="#F5CAAA"/>
<path d="M291.816 70.1728C295.28 68.2164 295.252 67.0298 296.002 64.2549L296.542 59.4917C295.243 58.1926 292.682 58.0483 289.94 60.069C287.198 62.0898 283.495 70.304 284.166 80.854C287.186 85.1524 289.443 86.8225 293.078 88.2153C293.078 86.4832 293.078 84.3181 292.682 83.1634C291.331 81.9111 289.651 78.9775 288.929 75.8021C288.208 72.6266 289.028 71.7477 291.816 70.1728Z" fill="#DD6057"/>
<path d="M301.199 58.9145C297.158 57.6154 296.003 59.3475 296.003 59.3475C296.003 59.3475 295.426 62.5229 294.993 65.5541C294.56 68.5852 296.003 68.2965 298.024 69.7399C300.045 71.1833 302.932 72.3381 302.354 76.2352C302.354 76.2352 301.777 78.1117 300.767 79.5551C301.018 83.2486 300.872 85.556 301.451 87.4937C304.238 86.1548 306.013 84.7868 307.695 82.1532C307.695 82.1532 308.417 72.3381 307.695 69.1626C306.973 65.9871 305.241 60.2135 301.199 58.9145Z" fill="#DD6057"/>
<path d="M241.531 101.211C242.254 98.2075 243.933 93.486 246.661 94.0026C249.389 94.5193 249.403 97.5523 248.946 99.56C248.489 101.568 249.972 126.674 250.565 126.902C251.157 127.131 249.954 131.505 247.953 132.021C245.952 132.538 244.779 131.924 244.106 130.315C243.434 128.706 240.807 104.213 241.531 101.211Z" fill="url(#paint6_linear_165_2913)"/>
<path d="M239.795 111.412C241.355 112.326 241.214 116.943 241.214 116.943L244.861 115.755C244.861 115.755 243.943 112.694 243.852 110.958C243.761 109.223 244.911 109.402 245.112 107.531C245.314 105.66 243.731 105.467 243.365 103.29C242.998 101.113 242.623 99.2239 240.594 99.4507C238.565 99.6775 236.404 104.232 237.479 106.865C238.554 109.497 238.234 110.498 239.795 111.412Z" fill="#EBBE8E"/>
<path d="M244.852 112.095C243.252 113.812 241.972 114.125 239.21 113.879C243.929 122.354 246.836 128.116 248.338 124.111L244.852 112.095Z" fill="url(#paint7_linear_165_2913)"/>
<path d="M265.404 92.2568C261.94 91.5351 259.342 92.2568 259.342 92.2568C267.78 102.877 265.835 117.925 270.274 130.94C270.79 133.538 280.156 121.593 278.972 114.774C277.789 107.955 272.91 99.1851 272.91 99.1851C272.91 99.1851 268.868 92.9785 265.404 92.2568Z" fill="#E8A09B"/>
<path d="M250.682 205.996C252.057 211.295 252.381 214.411 252.414 220.142H258.188C258.291 214.313 258.278 211.245 258.188 205.996H250.682Z" fill="#EBBE8E"/>
<path d="M271.611 207.295C272.543 211.857 272.714 214.382 272.91 219.275L278.106 218.842C278.296 214.138 278.295 211.615 278.106 207.295H271.611Z" fill="#EBBE8E"/>
<path d="M268.292 218.698C270.168 217.255 269.879 214.368 270.89 214.224C271.9 214.08 274.209 218.554 276.375 218.121C278.54 217.688 280.416 214.08 281.138 214.946C281.859 215.812 281.426 218.121 281.426 218.121C281.426 218.121 284.313 221.441 283.592 223.606C282.87 225.771 275.942 225.049 275.942 225.049C275.942 225.049 262.229 226.926 260.786 225.482C259.343 224.039 260.064 222.884 261.508 221.441C262.951 219.998 266.415 220.142 268.292 218.698Z" fill="url(#paint8_linear_165_2913)"/>
<path d="M246.701 219.13C248.636 217.765 248.466 214.869 249.481 214.766C250.497 214.664 252.62 219.23 254.801 218.886C256.982 218.543 259.006 215.014 259.691 215.909C260.377 216.804 259.849 219.094 259.849 219.094C259.849 219.094 262.597 222.53 261.786 224.663C260.976 226.797 254.083 225.791 254.083 225.791C254.083 225.791 240.305 227.101 238.923 225.6C237.54 224.098 238.309 222.974 239.81 221.591C241.312 220.208 244.767 220.495 246.701 219.13Z" fill="url(#paint9_linear_165_2913)"/>
<path d="M245.63 211.481C244.541 180.722 244.853 163.841 246.784 134.26H260.064L262.373 163.272C261.178 181.473 261.031 192.117 261.218 211.481C255.489 210.944 252.138 210.849 245.63 211.481Z" fill="url(#paint10_linear_165_2913)"/>
<path d="M282.293 210.327C276.117 210.183 272.747 210.413 266.993 211.481C259.915 181.253 257.227 164.278 253.713 133.971H269.735L282.293 210.327Z" fill="url(#paint11_linear_165_2913)"/>
<path d="M241.628 114.167C242.883 118.166 243.842 119.447 245.724 121.101C245.724 121.101 244.226 111.379 244.825 103.896C245.425 96.4128 251.054 95.2322 251.054 95.2322C250.248 93.287 249.967 93.3478 248.046 91.968C248.046 91.968 243.227 95.1787 241.419 100.221C239.612 105.263 241.628 114.167 241.628 114.167Z" fill="#E8A09B"/>
<path d="M243.033 101.783C242.167 107.845 243.61 132.816 246.497 135.414C249.384 138.012 266.128 139.456 269.592 135.414C273.056 131.373 268.004 105.969 266.993 101.783C265.983 97.5972 264.107 94.2774 260.642 92.1123C257.178 89.9472 257.467 90.3802 253.714 90.3802C249.961 90.3802 248.229 91.5349 246.497 92.834C244.765 94.1331 243.899 95.7208 243.033 101.783Z" fill="url(#paint12_linear_165_2913)"/>
<path d="M257.899 116.362C259.544 120.217 260.626 121.397 262.662 122.857C262.662 122.857 260.208 113.331 260.064 105.825C259.92 98.3193 265.405 96.5872 265.405 96.5872C264.41 94.7313 263.556 93.8728 261.507 92.69C261.507 92.69 257.61 97.3089 256.311 102.505C255.012 107.701 257.899 116.362 257.899 116.362Z" fill="#E8A09B"/>
<path d="M249.094 83.1635C249.49 88.0711 249.094 91.6796 248.624 93.556C248.153 95.4324 258.772 94.901 258.006 92.4013C257.24 89.9015 256.959 86.0503 256.418 81.4315L249.094 83.1635Z" fill="#EBBE8E"/>
<path d="M245.343 72.6265C245.054 75.5133 245.92 84.4623 250.25 85.3284C254.58 86.1944 259.344 80.4208 260.065 75.9463C260.787 71.4718 261.942 65.1208 254.58 63.8217C247.219 62.5227 245.631 69.7397 245.343 72.6265Z" fill="#F5CAAA"/>
<path d="M253.858 68.7295C256.044 68.0993 256.93 67.515 257.755 65.987L259.487 63.3889C259.487 63.3889 259.487 61.2238 257.755 60.3578C256.023 59.4917 249.499 59.4201 246.352 63.1002C242.537 67.8247 241.156 72.0493 242.166 75.3691C243.177 78.6889 244.745 80.0651 246.641 81.72C246.641 80.2766 245.449 78.4002 245.449 75.3691C245.449 72.338 247.277 71.4626 248.913 69.8842V71.7606C250.511 69.9679 251.193 69.1374 253.858 68.7295Z" fill="#54546F"/>
<path d="M255.879 68.0078C256.494 69.3618 256.694 70.8222 256.457 72.9153H257.9C257.9 72.9153 256.745 75.0804 257.323 76.0908C257.9 77.1012 258.911 72.9153 259.921 72.9153C260.931 72.9153 260.354 74.6474 259.921 76.0908C259.488 77.5342 259.001 77.9014 257.9 78.6889C258.032 80.3296 257.488 81.1939 256.457 82.7305L256.89 85.1842C257.649 83.2179 258.189 81.8644 260.931 80.854C263.674 79.8437 264.706 76.2246 265.261 71.1833C265.261 71.1833 265.261 66.8531 263.385 64.8323C261.509 62.8115 258.766 63.5333 258.766 63.5333C257.797 65.3961 256.457 66.5644 255.879 68.0078Z" fill="#54546F"/>
<path d="M268.813 98.5502C268.813 98.5502 267.269 94.1659 263.826 95.0884C260.382 96.0109 259.265 98.2099 259.454 101.717C259.643 105.224 265.149 122.25 265.944 124.227C266.74 126.204 269.497 127.529 272.048 126.797C274.599 126.065 275.079 121.762 275.079 121.762L268.813 98.5502Z" fill="url(#paint13_linear_165_2913)"/>
<path d="M261.842 107.647C262.967 110.706 264.039 112.686 265.44 114.44L262.092 117.116C262.092 117.116 259.72 111.041 257.887 110.546C256.054 110.051 255.544 110.72 254.222 109.556C252.899 108.391 252.439 106.016 252.455 104.566C252.472 103.115 253.67 98.8918 254.913 99.4664C256.156 100.041 259.229 105.032 260.521 103.869C261.813 102.706 261.842 107.647 261.842 107.647Z" fill="#EBBE8E"/>
<path d="M266.111 112.336C264.244 114.684 262.86 115.679 259.398 116.525C261.515 121.647 265.322 125.901 266.517 126.906C267.712 127.91 271.282 128.454 272.542 127.579C273.802 126.703 274.345 124.439 273.931 122.941C273.518 121.442 269.372 116.142 266.111 112.336Z" fill="url(#paint14_linear_165_2913)"/>
<path d="M253.547 17.4893C253.547 14.3007 256.132 11.7158 259.321 11.7158H290.787C293.976 11.7158 296.561 14.3007 296.561 17.4894V41.0578C296.561 44.2464 293.976 46.8313 290.787 46.8313H282.087C272.971 48.1428 269.392 50.6532 265.986 58.4818C266.585 51.1792 265.668 48.3546 260.581 46.8313H259.321C256.132 46.8313 253.547 44.2464 253.547 41.0578V17.4893Z" fill="white"/>
<rect x="258.958" y="16.9026" width="31.3769" height="24.8852" rx="4.33019" fill="url(#paint15_linear_165_2913)"/>
<path d="M266.688 32.9407C266.321 32.9407 266.001 32.8107 265.728 32.5508C265.455 32.2909 265.319 31.9771 265.319 31.6094C265.319 31.2417 265.455 30.931 265.728 30.6774C266.001 30.4175 266.321 30.2876 266.688 30.2876C267.063 30.2876 267.386 30.4175 267.658 30.6774C267.931 30.931 268.067 31.2417 268.067 31.6094C268.067 31.9771 267.931 32.2909 267.658 32.5508C267.386 32.8107 267.063 32.9407 266.688 32.9407ZM272.517 32.9407C272.149 32.9407 271.829 32.8107 271.556 32.5508C271.284 32.2909 271.147 31.9771 271.147 31.6094C271.147 31.2417 271.284 30.931 271.556 30.6774C271.829 30.4175 272.149 30.2876 272.517 30.2876C272.891 30.2876 273.214 30.4175 273.487 30.6774C273.759 30.931 273.895 31.2417 273.895 31.6094C273.895 31.9771 273.759 32.2909 273.487 32.5508C273.214 32.8107 272.891 32.9407 272.517 32.9407ZM276.975 23.8497C276.975 23.2094 277.131 22.6515 277.441 22.176C277.752 21.6942 278.164 21.3233 278.678 21.0634C279.197 20.7971 279.765 20.664 280.38 20.664C281.248 20.664 282 20.8732 282.634 21.2916C283.267 21.71 283.702 22.2584 283.936 22.9367C284.044 23.2411 284.098 23.5707 284.098 23.9257C284.098 24.509 283.978 25.0193 283.737 25.4568C283.502 25.8878 283.217 26.2651 282.881 26.5884C282.545 26.9117 282.228 27.2065 281.93 27.4728C281.67 27.7073 281.435 27.9451 281.226 28.186C281.023 28.4205 280.922 28.747 280.922 29.1654C280.922 29.2542 280.931 29.3429 280.95 29.4317C280.969 29.5141 280.979 29.5997 280.979 29.6885C280.979 29.8596 280.919 30.0054 280.798 30.1259C280.678 30.2463 280.532 30.3066 280.361 30.3066C280.088 30.3066 279.907 30.1861 279.819 29.9452C279.73 29.698 279.686 29.4349 279.686 29.1559C279.686 28.6234 279.793 28.1701 280.009 27.7961C280.231 27.422 280.5 27.0892 280.817 26.7976C281.134 26.506 281.448 26.227 281.759 25.9608C282.076 25.6945 282.329 25.3997 282.519 25.0764C282.627 24.9052 282.71 24.7309 282.767 24.5534C282.83 24.3695 282.862 24.1603 282.862 23.9257C282.862 23.4946 282.744 23.1301 282.51 22.8321C282.282 22.5278 281.981 22.2964 281.607 22.138C281.232 21.9795 280.83 21.9002 280.399 21.9002C279.803 21.9002 279.289 22.0714 278.858 22.4137C278.427 22.7561 278.212 23.2347 278.212 23.8497C278.212 23.8877 278.212 23.9257 278.212 23.9638C278.218 24.0018 278.221 24.0398 278.221 24.0779C278.221 24.2491 278.161 24.3949 278.04 24.5153C277.92 24.6358 277.774 24.696 277.603 24.696C277.375 24.696 277.213 24.6136 277.118 24.4488C277.023 24.2839 276.975 24.0842 276.975 23.8497ZM280.532 31.2765C280.786 31.2765 281.001 31.3653 281.179 31.5428C281.356 31.7203 281.445 31.9359 281.445 32.1894C281.445 32.443 281.356 32.6586 281.179 32.8361C281.001 33.0136 280.786 33.1023 280.532 33.1023C280.278 33.1023 280.063 33.0136 279.885 32.8361C279.708 32.6586 279.619 32.443 279.619 32.1894C279.619 31.9359 279.708 31.7203 279.885 31.5428C280.063 31.3653 280.278 31.2765 280.532 31.2765Z" fill="#D14137" fill-opacity="0.5"/>
<path d="M177.501 189.975C164.255 190.91 156.826 190.969 143.581 189.975C139.246 186.219 139.28 183.857 142.715 179.294C156.295 181.826 163.912 181.913 177.501 180.738C180.294 184.718 180.495 186.767 177.501 189.975Z" fill="#404040"/>
<path d="M148.923 201.955C151.733 207.023 153.102 209.707 154.985 214.08L159.893 212.348C158.4 207.044 157.58 204.209 156.14 199.501L148.923 201.955Z" fill="#EBBE8E"/>
<path d="M122.06 199.54C120.203 205.089 119.138 207.934 117.163 212.3L121.844 214.975C124.786 210.297 126.343 207.779 128.875 203.536L122.06 199.54Z" fill="#EBBE8E"/>
<path d="M154.195 212.546C154.195 212.546 152.095 209.228 151.752 211.266C151.409 213.304 152.106 213.115 151.105 215.481C150.104 217.848 143.976 219.517 143.646 222.15C143.315 224.783 144.936 225.239 144.936 225.239C153.02 224.544 156.567 222.676 161.94 217.916C164.202 217.307 166.992 216.691 166.739 214.665C166.487 212.639 166.095 212.297 162.551 210.27C159.007 208.243 161.489 206.371 159.843 206.37C158.198 206.37 159.551 209.142 159.551 209.142C158.364 211.394 157.164 212.1 154.195 212.546Z" fill="url(#paint16_linear_165_2913)"/>
<path d="M117.388 211.436C117.388 211.436 118.224 207.599 116.549 208.809C114.873 210.019 115.502 210.373 113.127 211.354C110.751 212.335 105.218 209.218 103.134 210.86C101.049 212.501 101.881 213.964 101.881 213.964C108.124 219.149 111.96 220.312 119.127 220.699C121.166 221.854 123.584 223.375 124.827 221.757C126.07 220.138 126.032 219.619 124.934 215.687C123.836 211.755 126.917 212.166 125.747 211.009C124.576 209.852 123.591 212.777 123.591 212.777C121.164 213.545 119.815 213.204 117.388 211.436Z" fill="url(#paint17_linear_165_2913)"/>
<path d="M158.882 202.1C153.817 203.171 151.195 204.248 146.757 206.719C141.611 195.423 139.672 189.207 136.365 178.14L151.665 175.108C153.372 185.017 154.646 190.754 158.882 202.1Z" fill="url(#paint18_linear_165_2913)"/>
<path d="M184.718 184.49C187.46 179.583 184.718 169.623 184.718 169.623C168.89 168.166 148.777 164.138 142.426 165.149C136.075 166.159 118.899 201.667 118.899 201.667C123.953 203.003 126.665 204.159 131.312 206.863C137.753 197.615 140.86 192.257 144.88 182.181C144.88 182.181 181.975 189.398 184.718 184.49Z" fill="url(#paint19_linear_165_2913)"/>
<path d="M133.071 166.332C138.209 162.838 140.166 164.107 140.728 163.842C143.491 163.542 144.703 162.9 146.342 161.042L147.954 166.15C146.125 166.016 145.069 166.092 142.628 168.932C142.628 168.932 140.184 171.539 139.145 173.482C138.107 175.425 138.093 172.823 136.355 172.784C134.618 172.745 132.589 179.81 130.511 178.924C128.432 178.038 127.933 169.826 133.071 166.332Z" fill="#EBBE8E"/>
<path d="M160.46 133.065C160.46 133.065 162.043 127.488 166.473 126.53C170.903 125.573 169.792 134.593 169.792 134.593C169.792 134.593 164.857 161.451 161.384 164.093C157.91 166.734 151.443 168.584 144.545 170.912C144.064 166.208 143.148 164.007 140.816 160.558C145.75 158.943 148.58 157.862 153.839 155.387L160.46 133.065Z" fill="url(#paint20_linear_165_2913)"/>
<path d="M165.194 127.476C162.307 130.651 156.716 164.427 158.737 167.314C160.757 170.2 184.862 170.778 186.305 168.18C187.749 165.582 188.866 130.651 187.422 128.775C185.979 126.899 182.697 123.434 176.779 123.434C170.861 123.434 168.081 124.3 165.194 127.476Z" fill="url(#paint21_linear_165_2913)"/>
<path d="M191.969 134.521C191.969 134.521 189.81 128.916 186.24 128.908C182.669 128.901 183.426 135.344 183.426 135.344C184.585 145.575 184.125 151.586 182.214 162.577L192.407 159.938C193.694 150.86 193.553 145.268 191.969 134.521Z" fill="url(#paint22_linear_165_2913)"/>
<path d="M172.593 114.485C172.24 118.368 171.438 123.001 169.995 126.177C174.614 129.496 178.307 128.957 181.975 126.177C181.006 120.469 180.243 119.104 180.243 114.485H172.593Z" fill="#EBBE8E"/>
<path d="M169.13 103.949C168.986 107.124 169.707 116.468 174.326 117.805C178.945 119.142 184.574 109.145 185.007 105.969C185.44 102.794 185.873 96.5872 178.945 95.8655C172.017 95.1438 169.274 100.773 169.13 103.949Z" fill="#F5CAAA"/>
<path d="M176.165 100.917C178.331 100.917 177.609 103.371 181.65 102.216L185.874 97.8861C185.874 97.8861 183.238 91.1022 176.454 92.2569C169.67 93.4116 168.082 100.196 168.082 100.196C164.185 103.515 169.815 111.743 170.248 113.042C170.681 114.341 169.381 108.134 169.526 106.546C169.67 104.959 170.825 103.227 172.124 102.216C173.423 101.206 176.165 100.917 176.165 100.917Z" fill="#DD6057"/>
<path d="M185.692 98.0304L181.543 102.361C182.409 104.814 180.822 107.124 181.111 107.845C181.399 108.567 182.41 105.825 183.853 106.258C185.296 106.691 182.554 110.011 182.554 110.011C181.719 110.844 181.11 113.042 181.11 113.042C178.512 116.362 181.543 118.815 181.543 118.815C181.543 114.485 187.83 110.011 188.579 104.959C189.327 99.9068 185.692 98.0304 185.692 98.0304Z" fill="#DD6057"/>
<path d="M200.815 131.833C200.815 131.833 204.365 125.908 207.961 126.217C211.556 126.525 208.239 134.788 208.239 134.788C204.887 144.398 203.545 149.963 203.274 160.583C203.274 160.583 201.322 164.762 195.984 166.187C190.647 167.613 190.401 160.348 190.401 160.348C193.606 148.284 195.703 141.841 200.815 131.833Z" fill="url(#paint23_linear_165_2913)"/>
<path d="M181.975 189.976C184.794 201.991 186.254 208.752 187.171 221.153L193.089 220.431C193.089 210.183 194.584 202.051 193.955 189.976H181.975Z" fill="#EBBE8E"/>
<path d="M169.417 188.388C169.297 198.361 169.05 204.564 167.685 218.844H174.036C174.757 208.162 178.366 205.853 180.386 189.976L169.417 188.388Z" fill="#EBBE8E"/>
<path d="M186.75 217.351C186.75 217.351 186.087 213.481 184.987 215.231C183.887 216.98 184.603 217.073 182.768 218.873C180.934 220.673 174.636 219.857 173.319 222.161C172.001 224.464 173.321 225.508 173.321 225.508C181.052 227.975 185.044 227.615 191.834 225.288C194.157 225.595 196.969 226.098 197.515 224.132C198.061 222.165 197.83 221.698 195.338 218.464C192.847 215.23 195.858 214.456 194.339 213.823C192.82 213.189 193.003 216.27 193.003 216.27C191.041 217.892 189.662 218.082 186.75 217.351Z" fill="url(#paint24_linear_165_2913)"/>
<path d="M167.951 216.884C167.951 216.884 167.638 212.97 166.385 214.614C165.133 216.257 165.837 216.414 163.848 218.042C161.86 219.67 155.66 218.291 154.141 220.467C152.622 222.642 153.843 223.801 153.843 223.801C161.321 226.953 165.329 226.953 172.301 225.245C174.587 225.759 177.342 226.514 178.063 224.604C178.783 222.694 178.596 222.209 176.404 218.764C174.213 215.32 177.282 214.819 175.826 214.052C174.37 213.284 174.276 216.368 174.276 216.368C172.176 217.808 170.786 217.873 167.951 216.884Z" fill="url(#paint25_linear_165_2913)"/>
<path d="M221.09 181.748C223.977 177.562 221.09 168.757 221.09 168.757L197.707 167.314C197.707 167.314 174.18 171.067 171.871 173.232C169.561 175.397 165.953 193.151 165.953 193.151C171.412 195.137 175.046 193.151 180.387 194.017C185.727 194.883 191.629 194.752 197.707 193.151C195.465 190.59 194.611 189.039 194.243 185.934C194.243 185.934 218.204 185.934 221.09 181.748Z" fill="url(#paint26_linear_165_2913)"/>
<path d="M204.782 128.198C202.617 131.373 196.41 164.427 197.998 167.17C199.586 169.912 218.783 170.489 221.237 168.18C223.69 165.871 225.856 131.518 224.701 129.497C223.546 127.476 219.324 123.32 214.741 123.29C210.111 123.261 206.947 125.022 204.782 128.198Z" fill="url(#paint27_linear_165_2913)"/>
<path d="M189.768 146.24C188.181 145.663 164.942 149.127 164.798 150.57C164.653 152.014 175.19 169.335 176.922 169.623C178.654 169.912 198.284 166.159 199.006 165.004C199.728 163.85 191.356 146.818 189.768 146.24Z" fill="url(#paint28_linear_165_2913)"/>
<path d="M198.285 167.169V164.86L177.356 169.335L178.366 171.355L198.285 167.169Z" fill="#57575F"/>
<path d="M205.398 160.29C207.847 160.436 209.32 159.638 211.434 158.482L213.709 163.968C213.709 163.968 207.318 164.453 205.096 165.333C202.874 166.212 199.362 169.328 197.38 168.631C195.397 167.933 193.374 166.215 192.019 163.972C192.019 163.972 196.208 161.62 196.321 159.747C196.433 157.874 199.271 158.766 200.533 159.42C201.796 160.074 202.948 160.143 205.398 160.29Z" fill="#EBBE8E"/>
<path d="M228.181 134.758C228.181 134.758 226.203 129.145 222.711 129.514C219.218 129.884 218.061 134.731 218.061 134.731C217.305 142.473 217.351 146.716 218.787 154.006C215.112 155.748 212.852 156.244 208.647 156.725C210.964 160.668 211.815 162.946 212.069 167.196C212.069 167.196 230.255 162.934 230.519 160.925C230.784 158.917 229.936 145.52 228.181 134.758Z" fill="url(#paint29_linear_165_2913)"/>
<path d="M211.999 116.506C211.416 120.582 210.947 122.706 209.689 126.033C213.106 129.329 215.542 128.727 220.082 126.754C219.527 122.118 219.346 118.281 219.216 112.898C217.057 114.844 215.631 116.643 211.999 116.506Z" fill="#EBBE8E"/>
<path d="M207.235 104.237C206.658 107.701 207.668 117.228 211.854 117.949C216.04 118.671 222.968 110.444 223.979 106.402C224.989 102.361 223.69 97.1368 218.061 96.2984C212.432 95.46 207.813 100.773 207.235 104.237Z" fill="#F5CAAA"/>
<path d="M219.65 112.754C219.072 114.053 219.216 117.084 219.216 117.084C220.804 113.331 227.3 107.702 226.434 102.361C225.568 97.0206 221.382 94.4224 217.485 93.9894C213.587 93.5564 209.979 96.5875 208.102 99.1856C206.226 101.784 205.59 106.379 206.948 107.99C207.381 104.959 208.68 102.794 210.556 102.361C212.433 101.928 213.332 100.965 215.175 99.9073C215.175 99.9073 216.148 104.526 218.457 105.537C220.767 106.547 218.495 108.135 219.216 109.289C219.938 110.444 221.671 105.104 222.536 105.537C223.402 105.97 223.547 106.836 222.969 107.99C222.392 109.145 220.804 110.877 220.804 110.877C220.804 110.877 220.227 111.455 219.65 112.754Z" fill="#25254B"/>
<path d="M216.04 90.2364C215.752 91.5354 217.628 93.5562 217.628 93.5562C217.32 94.0532 225.443 100.94 226.577 101.351C227.711 101.761 231.629 99.1854 231.629 96.2986C231.629 93.4118 227.732 86.7722 223.979 87.4939C220.226 88.2156 220.803 90.2364 220.803 90.2364C220.803 90.2364 219.649 88.36 218.205 88.5043C216.762 88.6486 216.329 88.9373 216.04 90.2364Z" fill="#25254B"/>
<path d="M69.3887 202.533C66.7906 212.204 64.0106 211.771 63.0003 218.411C61.9899 225.05 55.9276 220.143 55.9276 220.143C58.9367 208.37 58.6782 208.715 60.584 198.203C60.584 198.203 71.9868 192.863 69.3887 202.533Z" fill="#EBBE8E"/>
<path d="M87.2881 196.76C88.8868 204.24 91.6969 218.151 91.5808 219.71L85.3742 220.576C82.5011 209.565 80.5168 205.71 76.8956 196.76H87.2881Z" fill="#EBBE8E"/>
<path d="M93.9993 218.864C94.5471 221.364 97.1753 221.038 96.1326 224.053C95.0899 227.069 86.9492 224.83 86.9492 224.83C80.5202 227.128 72.9821 227.444 71.2477 225.185C69.5132 222.926 71.8114 221.13 73.5571 220.038C75.3028 218.946 81.4858 221.102 82.429 217.354C83.3721 213.606 79.8242 214.038 81.6881 213.243C83.552 212.448 85.0954 219.215 88.562 217.614C92.0285 216.012 92.1948 212.085 93.6301 212.146C95.0655 212.207 93.4516 216.364 93.9993 218.864Z" fill="url(#paint30_linear_165_2913)"/>
<path d="M65.0258 219.75C65.3992 222.282 68.0437 222.138 66.7948 225.075C65.5458 228.011 57.5797 225.214 57.5797 225.214C51.0071 227.061 43.4652 226.855 41.8912 224.481C40.3173 222.108 42.7343 220.474 44.5513 219.506C46.3684 218.538 53.1171 218.883 53.5877 217.443C54.0582 216.002 54.1971 214.27 55.9291 214.27C57.6612 214.27 56.1189 219.484 59.688 218.126C63.2571 216.768 63.5981 213.244 65.0258 213.404C66.4535 213.564 64.6524 217.218 65.0258 219.75Z" fill="url(#paint31_linear_165_2913)"/>
<path d="M57.5543 201.09C63.328 202.283 66.1129 203.247 70.4006 205.42C74.2992 199.332 76.0236 195.051 78.7723 186.8L114.136 182.47L111.682 170.634C111.682 170.634 71.5553 172.655 66.5034 175.541C61.4515 178.428 57.5543 201.09 57.5543 201.09Z" fill="url(#paint32_linear_165_2913)"/>
<path d="M120.486 181.748C124.094 177.706 120.486 169.046 120.486 169.046L102.155 171.211C102.155 171.211 80.3596 171.211 74.4416 177.562C68.5237 183.913 77.1841 205.42 77.1841 205.42C81.9638 203.891 83.2401 202.898 90.752 201.955C88.8758 195.839 88.8219 192.56 89.3086 186.8C89.3086 186.8 116.878 185.789 120.486 181.748Z" fill="url(#paint33_linear_165_2913)"/>
<path d="M93.3508 132.384C93.3508 132.384 94.5055 126.899 98.4027 127.332C102.3 127.765 101.29 134.693 101.29 134.693L98.4027 160.386C95.7494 163.765 93.9034 165.613 89.4536 168.757C87.3381 166.901 85.9512 166.268 82.6697 166.737C84.718 162.384 86.0839 160.171 89.4536 157.21C89.2075 145.984 90.5884 141.006 93.3508 132.384Z" fill="url(#paint34_linear_165_2913)"/>
<path d="M96.2362 127.91C99.3839 124.307 101.972 123.724 101.972 123.724H111.499C111.499 123.724 116.808 124.913 119.004 129.497C121.201 134.082 122.949 167.38 121.351 168.469C107.117 172.404 105.256 171.591 96.2362 170.201C95.9451 169.387 93.0885 131.512 96.2362 127.91Z" fill="url(#paint35_linear_165_2913)"/>
<path d="M82.921 145.952C72.7738 148.94 66.8393 150.607 55.7852 153.891C60.8487 162.186 63.751 166.842 70.0748 175.253L93.1692 168.469C88.8821 159.919 86.7813 154.84 82.921 145.952Z" fill="url(#paint36_linear_165_2913)"/>
<path d="M73.5383 174.243L75.1261 176.841L94.0346 172.078L91.2921 168.902L73.5383 174.243Z" fill="#57575F"/>
<path d="M107.329 168.613L114.69 165.004L111.226 161.829C108.199 163.805 106.439 164.786 103.143 166.159C103.143 166.159 98.0912 165.149 95.493 166.159C92.8949 167.169 88.1317 170.778 89.5751 171.788C91.0185 172.799 98.9571 171.5 101.988 170.778C105.019 170.056 107.329 168.613 107.329 168.613Z" fill="#EBBE8E"/>
<path d="M113.269 134.693C113.269 134.693 112.114 127.765 116.156 126.321C120.197 124.878 122.795 132.528 122.795 132.528C122.795 132.528 129.002 155.333 128.136 157.932C127.27 160.53 110.526 169.912 110.526 169.912C109.668 165.777 108.526 163.919 105.763 161.107C110.283 158.293 113.269 156.921 117.31 155.189L113.269 134.693Z" fill="url(#paint37_linear_165_2913)"/>
<path d="M102.876 113.62C102.797 118.735 102.841 119.554 101.395 125.023C101.395 127.044 109.371 127.332 112.258 124.301C110.986 119.88 111.375 117.598 111.248 112.032L102.876 113.62Z" fill="#EBBE8E"/>
<path d="M99.4124 100.63C98.2576 103.805 97.969 114.919 104.32 115.93C110.671 116.94 115.579 107.558 115.867 103.805C116.156 100.052 115.867 95.7222 110.671 93.9901C105.475 92.258 100.567 97.4543 99.4124 100.63Z" fill="#F5CAAA"/>
<path d="M109.477 97.8872L112.257 92.5466C112.257 92.5466 110.814 87.7834 106.051 87.4947C101.288 87.2061 95.947 90.5258 93.2045 95.5778C90.4621 100.63 93.9262 107.414 93.2045 113.62C92.4828 119.827 85.8432 117.662 84.3998 123.868C82.9564 130.075 90.8576 141.622 90.8576 141.622C93.204 129.928 96.3425 127.333 101.721 123.868C102.38 120.934 102.675 119.167 102.982 115.641C101.539 114.631 99.085 110.878 99.085 107.991C99.085 107.991 98.8338 102.65 101.721 100.774C104.607 98.8976 109.477 97.8872 109.477 97.8872Z" fill="#54546E"/>
<path d="M117.886 92.5464C115.721 91.6803 112.113 92.5464 112.113 92.5464L109.621 98.0313C109.621 98.0313 111.824 100.341 112.113 102.506C112.401 104.671 111.391 106.692 111.824 107.558C112.257 108.424 114.711 103.372 114.855 105.248C114.999 107.125 113.123 108.279 112.113 110.733C111.102 113.187 110.958 113.331 110.958 113.331C110.83 119.477 111.217 120.975 112.113 123.724C112.354 124.466 113.952 124.734 116.117 126.178C119.185 126.178 120.34 127.477 121.784 131.518C123.227 135.56 125.43 142.581 125.643 143.065C126.083 144.064 127.413 133.539 127.268 127.621C127.124 121.703 120.196 120.837 119.33 116.362C118.464 111.888 122.072 102.794 121.784 99.4747C121.495 96.1549 120.051 93.4124 117.886 92.5464Z" fill="#54546E"/>
<path d="M134.586 60.2215C134.586 60.2215 142.47 27.7336 145.097 27.7336C147.725 27.7336 155.369 60.2215 155.369 60.2215" stroke="#000038" stroke-opacity="0.4" stroke-width="0.403306"/>
<path d="M155.815 58.5494C147.247 59.7299 142.335 59.956 133.121 58.5494C133.121 58.5494 134.389 68.1089 138.376 71.2101C142.364 74.3114 145.864 74.4244 150.364 71.2101C154.864 67.9959 155.815 58.5494 155.815 58.5494Z" fill="url(#paint38_linear_165_2913)"/>
<path d="M151.73 51.1441C147.908 53.7718 143.338 56.1606 145.727 59.0272C148.116 61.8938 153.88 55.444 157.941 54.0107C162.002 52.5774 171.318 48.5164 171.318 48.5164C171.318 48.5164 155.552 48.5164 151.73 51.1441Z" fill="#92B559"/>
<path d="M141.004 45.4891C136.226 40.7115 122.849 41.667 122.849 41.667C131.761 44.5346 134.96 47.4203 137.182 55.0443C140.948 61.5788 145.782 59.9828 145.782 58.3887C145.782 56.7945 145.782 50.2667 141.004 45.4891Z" fill="#92B559"/>
<path d="M123.119 49.9496C114.997 53.5328 109.598 61.1293 109.025 61.8937C117.89 56.1895 124.282 50.4274 129.777 55.9216C135.271 61.4159 140.765 59.8632 142.915 59.8632C142.915 59.8632 131.241 46.3664 123.119 49.9496Z" fill="#92B559"/>
<path d="M157.25 56.9633C151.039 54.0967 144.111 59.7439 144.111 59.7439C153.667 59.0272 163.254 64.5432 170.149 72.4906C170.149 72.4906 163.461 59.8299 157.25 56.9633Z" fill="#92B559"/>
<path d="M132.914 57.3549C141.275 56.8772 137.931 59.5049 137.931 59.5049C137.931 59.5049 136.267 57.3549 131.003 61.4159C125.739 65.4769 124.553 81.4819 124.553 81.4819C124.553 81.4819 124.553 57.8327 132.914 57.3549Z" fill="#92B559"/>
<path d="M124.793 82.6765C123.919 77.5203 121.781 77.0868 117.865 76.4656C122.286 78.5144 123.805 80.3888 124.793 85.0653C126.295 79.8817 127.571 77.9753 130.765 76.4656C127.762 76.8246 126.233 77.5015 124.793 82.6765Z" fill="#92B559"/>
<path d="M141.991 56.1602C145.574 55.4436 146.769 59.7434 146.769 59.7434C146.769 59.7434 143.424 54.9658 141.991 59.7434C140.558 64.5211 138.408 82.9149 138.408 82.9149C138.408 82.9149 138.408 56.8769 141.991 56.1602Z" fill="#92B559"/>
<path d="M138.977 85.1279C136.391 80.5145 134.589 79.4389 131.023 79.0077C134.649 78.685 136.485 79.1225 138.947 82.5004C140.411 77.2307 141.821 77.0558 144.378 76.9436C141.133 78.586 140.123 80.6125 138.977 85.1279Z" fill="#92B559"/>
<path d="M319.966 25.8609C319.966 22.6722 322.551 20.0873 325.739 20.0873H358.649C361.838 20.0873 364.423 22.6722 364.423 25.8609V58.4817C364.423 61.6703 361.838 64.2553 358.649 64.2553H310.439L317.292 59.8946C318.957 58.8348 319.966 56.9976 319.966 55.0236V25.8609Z" fill="white"/>
<rect x="325.992" y="26.1497" width="31.7547" height="32.3321" rx="4.33019" fill="url(#paint39_linear_165_2913)"/>
<path d="M339.558 46.3572C339.558 48.9553 338.837 49.3883 339.558 50.11C340.28 50.8317 345.043 50.9761 345.765 50.11C346.487 49.244 345.765 48.6666 345.765 46.3572C345.765 44.0477 349.085 40.2949 349.373 39.2845C349.662 38.2742 350.239 30.6241 342.589 30.6241C334.939 30.6241 335.372 37.6968 335.95 39.2845C336.527 40.8723 339.558 43.7591 339.558 46.3572Z" fill="#D14137" fill-opacity="0.19"/>
<path d="M342.733 52.9967C339.991 52.9967 339.991 49.8212 339.991 49.8212C342.077 50.3439 343.245 50.2716 345.332 49.8212C345.332 49.8212 345.476 52.9967 342.733 52.9967Z" fill="url(#paint40_linear_165_2913)"/>
<path d="M339.557 46.357C339.557 46.357 338.835 49.3881 339.557 50.1098C340.278 50.8315 345.042 50.9759 345.763 50.1098C346.485 49.2438 345.763 48.6664 345.763 46.357C343.338 46.545 341.982 46.5544 339.557 46.357Z" fill="url(#paint41_linear_165_2913)"/>
<path d="M339.845 39.8618C339.845 40.4391 341.722 46.3571 341.722 46.3571C342.559 46.496 343 46.5079 343.742 46.3571C343.742 46.3571 345.474 40.2948 345.474 39.8618C345.474 39.4287 345.33 38.9957 344.753 38.9957C344.175 38.9957 344.175 39.8618 343.742 39.8618C343.309 39.8618 343.309 38.9957 342.732 38.9957C342.155 38.9957 342.588 39.8618 341.722 39.8618C340.856 39.8618 341.144 38.9957 340.567 38.9957C339.99 38.9957 339.845 39.2844 339.845 39.8618Z" fill="#D14137" fill-opacity="0.15"/>
<defs>
<linearGradient id="paint0_linear_165_2913" x1="294.521" y1="109.578" x2="281.774" y2="109.362" gradientUnits="userSpaceOnUse">
<stop stop-color="#2C60E7"/>
<stop offset="0.546875" stop-color="#4074FB"/>
<stop offset="1" stop-color="#95B2FF"/>
</linearGradient>
<linearGradient id="paint1_linear_165_2913" x1="319.395" y1="209.996" x2="319.395" y2="225.01" gradientUnits="userSpaceOnUse">
<stop stop-color="#E2EBFF"/>
<stop offset="1" stop-color="#C3CDE8"/>
</linearGradient>
<linearGradient id="paint2_linear_165_2913" x1="299.03" y1="211.747" x2="297.303" y2="226.661" gradientUnits="userSpaceOnUse">
<stop stop-color="#E2EBFF"/>
<stop offset="1" stop-color="#C3CDE8"/>
</linearGradient>
<linearGradient id="paint3_linear_165_2913" x1="319.925" y1="166.159" x2="288.459" y2="165.87" gradientUnits="userSpaceOnUse">
<stop offset="0.015625" stop-color="#184CD3"/>
<stop offset="0.635417" stop-color="#184CD3"/>
<stop offset="1" stop-color="#486FD5"/>
</linearGradient>
<linearGradient id="paint4_linear_165_2913" x1="307.801" y1="104.382" x2="286.965" y2="104.667" gradientUnits="userSpaceOnUse">
<stop stop-color="#2C60E7"/>
<stop offset="0.546875" stop-color="#4074FB"/>
<stop offset="1" stop-color="#95B2FF"/>
</linearGradient>
<linearGradient id="paint5_linear_165_2913" x1="302.604" y1="130.295" x2="327.73" y2="113.747" gradientUnits="userSpaceOnUse">
<stop stop-color="#2C60E7"/>
<stop offset="0.546875" stop-color="#4074FB"/>
<stop offset="1" stop-color="#95B2FF"/>
</linearGradient>
<linearGradient id="paint6_linear_165_2913" x1="240.673" y1="126.696" x2="255.377" y2="122.318" gradientUnits="userSpaceOnUse">
<stop stop-color="#2C60E7"/>
<stop offset="0.546875" stop-color="#4074FB"/>
<stop offset="1" stop-color="#95B2FF"/>
</linearGradient>
<linearGradient id="paint7_linear_165_2913" x1="240.083" y1="124.133" x2="247.817" y2="117.063" gradientUnits="userSpaceOnUse">
<stop stop-color="#2C60E7"/>
<stop offset="0.546875" stop-color="#4074FB"/>
<stop offset="1" stop-color="#95B2FF"/>
</linearGradient>
<linearGradient id="paint8_linear_165_2913" x1="271.853" y1="214.22" x2="273.45" y2="225.915" gradientUnits="userSpaceOnUse">
<stop stop-color="#E2EBFF"/>
<stop offset="1" stop-color="#C3CDE8"/>
</linearGradient>
<linearGradient id="paint9_linear_165_2913" x1="250.444" y1="214.803" x2="251.509" y2="227.07" gradientUnits="userSpaceOnUse">
<stop stop-color="#E2EBFF"/>
<stop offset="1" stop-color="#C3CDE8"/>
</linearGradient>
<linearGradient id="paint10_linear_165_2913" x1="262.48" y1="168.468" x2="247.451" y2="167.618" gradientUnits="userSpaceOnUse">
<stop offset="0.015625" stop-color="#184CD3"/>
<stop offset="0.635417" stop-color="#184CD3"/>
<stop offset="1" stop-color="#486FD5"/>
</linearGradient>
<linearGradient id="paint11_linear_165_2913" x1="269.409" y1="145.374" x2="252.09" y2="148.654" gradientUnits="userSpaceOnUse">
<stop stop-color="#2C60E7"/>
<stop offset="0.546875" stop-color="#4074FB"/>
<stop offset="1" stop-color="#95B2FF"/>
</linearGradient>
<linearGradient id="paint12_linear_165_2913" x1="265.945" y1="93.9887" x2="246.337" y2="93.5704" gradientUnits="userSpaceOnUse">
<stop stop-color="#2C60E7"/>
<stop offset="0.546875" stop-color="#4074FB"/>
<stop offset="1" stop-color="#95B2FF"/>
</linearGradient>
<linearGradient id="paint13_linear_165_2913" x1="256.707" y1="114.774" x2="278.401" y2="106.607" gradientUnits="userSpaceOnUse">
<stop stop-color="#2C60E7"/>
<stop offset="0.546875" stop-color="#4074FB"/>
<stop offset="1" stop-color="#95B2FF"/>
</linearGradient>
<linearGradient id="paint14_linear_165_2913" x1="269.12" y1="117.661" x2="263.948" y2="124.593" gradientUnits="userSpaceOnUse">
<stop stop-color="#2C60E7"/>
<stop offset="0.546875" stop-color="#4074FB"/>
<stop offset="1" stop-color="#95B2FF"/>
</linearGradient>
<linearGradient id="paint15_linear_165_2913" x1="274.646" y1="16.9026" x2="274.646" y2="41.7878" gradientUnits="userSpaceOnUse">
<stop stop-color="white" stop-opacity="0.99"/>
<stop offset="1" stop-color="#ECEFFD"/>
</linearGradient>
<linearGradient id="paint16_linear_165_2913" x1="152.32" y1="208.375" x2="156.265" y2="222.861" gradientUnits="userSpaceOnUse">
<stop stop-color="#E2EBFF"/>
<stop offset="1" stop-color="#C3CDE8"/>
</linearGradient>
<linearGradient id="paint17_linear_165_2913" x1="118.984" y1="207.15" x2="111.615" y2="220.231" gradientUnits="userSpaceOnUse">
<stop stop-color="#E2EBFF"/>
<stop offset="1" stop-color="#C3CDE8"/>
</linearGradient>
<linearGradient id="paint18_linear_165_2913" x1="144.121" y1="188.099" x2="155.402" y2="186.34" gradientUnits="userSpaceOnUse">
<stop offset="0.015625" stop-color="#184CD3"/>
<stop offset="0.635417" stop-color="#184CD3"/>
<stop offset="1" stop-color="#486FD5"/>
</linearGradient>
<linearGradient id="paint19_linear_165_2913" x1="144.987" y1="190.697" x2="131.178" y2="182.876" gradientUnits="userSpaceOnUse">
<stop stop-color="#2C60E7"/>
<stop offset="0.546875" stop-color="#4074FB"/>
<stop offset="1" stop-color="#95B2FF"/>
</linearGradient>
<linearGradient id="paint20_linear_165_2913" x1="164.327" y1="156.633" x2="151.366" y2="147.912" gradientUnits="userSpaceOnUse">
<stop stop-color="#2C60E7"/>
<stop offset="0.546875" stop-color="#4074FB"/>
<stop offset="1" stop-color="#95B2FF"/>
</linearGradient>
<linearGradient id="paint21_linear_165_2913" x1="184.824" y1="138.157" x2="162.158" y2="133.722" gradientUnits="userSpaceOnUse">
<stop stop-color="#2C60E7"/>
<stop offset="0.546875" stop-color="#4074FB"/>
<stop offset="1" stop-color="#95B2FF"/>
</linearGradient>
<linearGradient id="paint22_linear_165_2913" x1="200.991" y1="132.961" x2="183.693" y2="136.777" gradientUnits="userSpaceOnUse">
<stop stop-color="#2C60E7"/>
<stop offset="0.546875" stop-color="#4074FB"/>
<stop offset="1" stop-color="#95B2FF"/>
</linearGradient>
<linearGradient id="paint23_linear_165_2913" x1="212.538" y1="137.58" x2="196.422" y2="132.844" gradientUnits="userSpaceOnUse">
<stop stop-color="#2C60E7"/>
<stop offset="0.546875" stop-color="#4074FB"/>
<stop offset="1" stop-color="#95B2FF"/>
</linearGradient>
<linearGradient id="paint24_linear_165_2913" x1="186.623" y1="212.78" x2="184.694" y2="227.67" gradientUnits="userSpaceOnUse">
<stop stop-color="#E2EBFF"/>
<stop offset="1" stop-color="#C3CDE8"/>
</linearGradient>
<linearGradient id="paint25_linear_165_2913" x1="168.235" y1="212.32" x2="164.976" y2="226.976" gradientUnits="userSpaceOnUse">
<stop stop-color="#E2EBFF"/>
<stop offset="1" stop-color="#C3CDE8"/>
</linearGradient>
<linearGradient id="paint26_linear_165_2913" x1="222.352" y1="178.284" x2="186.999" y2="154.228" gradientUnits="userSpaceOnUse">
<stop offset="0.015625" stop-color="#184CD3"/>
<stop offset="0.635417" stop-color="#184CD3"/>
<stop offset="1" stop-color="#486FD5"/>
</linearGradient>
<linearGradient id="paint27_linear_165_2913" x1="220.045" y1="136.425" x2="204.279" y2="134.191" gradientUnits="userSpaceOnUse">
<stop stop-color="#2C60E7"/>
<stop offset="0.546875" stop-color="#4074FB"/>
<stop offset="1" stop-color="#95B2FF"/>
</linearGradient>
<linearGradient id="paint28_linear_165_2913" x1="168.657" y1="150.859" x2="176.74" y2="164.716" gradientUnits="userSpaceOnUse">
<stop stop-color="#A8A8C1"/>
<stop offset="1" stop-color="#6D6D7A"/>
</linearGradient>
<linearGradient id="paint29_linear_165_2913" x1="231.016" y1="148.55" x2="208.035" y2="146.94" gradientUnits="userSpaceOnUse">
<stop stop-color="#2C60E7"/>
<stop offset="0.546875" stop-color="#4074FB"/>
<stop offset="1" stop-color="#95B2FF"/>
</linearGradient>
<linearGradient id="paint30_linear_165_2913" x1="83.9884" y1="211.738" x2="83.3412" y2="227.024" gradientUnits="userSpaceOnUse">
<stop stop-color="#E2EBFF"/>
<stop offset="1" stop-color="#C3CDE8"/>
</linearGradient>
<linearGradient id="paint31_linear_165_2913" x1="55.4886" y1="212.336" x2="53.8285" y2="227.153" gradientUnits="userSpaceOnUse">
<stop stop-color="#E2EBFF"/>
<stop offset="1" stop-color="#C3CDE8"/>
</linearGradient>
<linearGradient id="paint32_linear_165_2913" x1="114.098" y1="180.305" x2="63.8678" y2="179.15" gradientUnits="userSpaceOnUse">
<stop offset="0.015625" stop-color="#184CD3"/>
<stop offset="0.635417" stop-color="#184CD3"/>
<stop offset="1" stop-color="#486FD5"/>
</linearGradient>
<linearGradient id="paint33_linear_165_2913" x1="120.737" y1="174.531" x2="83.9139" y2="208.682" gradientUnits="userSpaceOnUse">
<stop stop-color="#2C60E7"/>
<stop offset="0.546875" stop-color="#4074FB"/>
<stop offset="1" stop-color="#95B2FF"/>
</linearGradient>
<linearGradient id="paint34_linear_165_2913" x1="109.768" y1="138.157" x2="88.8697" y2="134.818" gradientUnits="userSpaceOnUse">
<stop stop-color="#2C60E7"/>
<stop offset="0.546875" stop-color="#4074FB"/>
<stop offset="1" stop-color="#95B2FF"/>
</linearGradient>
<linearGradient id="paint35_linear_165_2913" x1="121.891" y1="142.199" x2="95.0189" y2="138.899" gradientUnits="userSpaceOnUse">
<stop stop-color="#2C60E7"/>
<stop offset="0.546875" stop-color="#4074FB"/>
<stop offset="1" stop-color="#95B2FF"/>
</linearGradient>
<linearGradient id="paint36_linear_165_2913" x1="61.9923" y1="151.703" x2="70.0701" y2="167.239" gradientUnits="userSpaceOnUse">
<stop stop-color="#A8A8C1"/>
<stop offset="1" stop-color="#6D6D7A"/>
</linearGradient>
<linearGradient id="paint37_linear_165_2913" x1="128.243" y1="145.085" x2="106.729" y2="139.661" gradientUnits="userSpaceOnUse">
<stop stop-color="#2C60E7"/>
<stop offset="0.546875" stop-color="#4074FB"/>
<stop offset="1" stop-color="#95B2FF"/>
</linearGradient>
<linearGradient id="paint38_linear_165_2913" x1="144.468" y1="58.5494" x2="144.468" y2="73.5786" gradientUnits="userSpaceOnUse">
<stop stop-color="#DB6F29"/>
<stop offset="1" stop-color="#FFB787"/>
</linearGradient>
<linearGradient id="paint39_linear_165_2913" x1="341.869" y1="26.1497" x2="341.869" y2="58.4818" gradientUnits="userSpaceOnUse">
<stop stop-color="white" stop-opacity="0.99"/>
<stop offset="1" stop-color="#ECEFFD"/>
</linearGradient>
<linearGradient id="paint40_linear_165_2913" x1="342.733" y1="52.9967" x2="342.733" y2="49.8212" gradientUnits="userSpaceOnUse">
<stop stop-color="#A8A8C1"/>
<stop offset="1" stop-color="#6D6D7A"/>
</linearGradient>
<linearGradient id="paint41_linear_165_2913" x1="339.845" y1="50.6872" x2="345.619" y2="50.6872" gradientUnits="userSpaceOnUse">
<stop stop-color="#A8A8C1"/>
<stop offset="0.536458" stop-color="#6D6D7A"/>
<stop offset="1" stop-color="#A2A2BA"/>
</linearGradient>
</defs>
</svg>
