<svg width="20" height="18" viewBox="0 0 20 18" fill="none" xmlns="http://www.w3.org/2000/svg">
<path d="M19.1819 7.06587L13.2539 0.795852C12.7599 0.274852 12.008 0.10993 11.345 0.37593C10.679 0.64093 10.249 1.27492 10.25 1.99092V4.75801C3.793 4.95101 0.25 7.67992 0.25 12.4909C0.25 14.1429 0.669885 15.7889 1.43188 17.1259C1.65788 17.5229 2.0599 17.7509 2.4939 17.7509C2.6019 17.7509 2.71397 17.737 2.82397 17.707C3.36597 17.56 3.72597 17.083 3.71997 16.519C3.70397 15.304 3.82905 14.415 4.49805 13.737C5.40205 12.821 7.33598 12.322 10.251 12.25V14.996C10.25 15.712 10.6799 16.347 11.3459 16.612C12.0089 16.877 12.7609 16.7119 13.2549 16.1909L19.1831 9.92085C19.9381 9.12085 19.9379 7.86687 19.1819 7.06587ZM18.092 8.89107L12.1641 15.1599C12.0701 15.2589 11.9669 15.245 11.8999 15.218C11.8319 15.191 11.75 15.13 11.75 14.996V11.4909C11.75 11.0769 11.414 10.7409 11 10.7409C7.143 10.7409 4.73693 11.3581 3.42993 12.6831C2.65193 13.4711 2.35999 14.4059 2.26099 15.3649C1.92799 14.4749 1.75 13.4859 1.75 12.4899C1.75 7.32894 6.78 6.24605 11 6.24605C11.414 6.24605 11.75 5.91005 11.75 5.49605V1.98994C11.75 1.85694 11.8309 1.796 11.8999 1.769C11.9269 1.758 11.9611 1.74898 11.9971 1.74898C12.0501 1.74898 12.1081 1.76786 12.1641 1.82686L18.092 8.09688C18.303 8.31888 18.303 8.66807 18.092 8.89107Z" fill="#00002E"/>
</svg>
