<svg width="504" height="272" viewBox="0 0 504 272" fill="none" xmlns="http://www.w3.org/2000/svg">
<rect width="535" height="374" transform="translate(0 -36)" fill="white"/>
<path d="M287.763 -4.83374H181.642H77.932C51.2438 -4.83381 37.539 19.7808 77.932 19.7806C118.325 19.7805 89.4729 45.8429 77.932 45.8429H25.7599C-5.25614 45.8429 -2.37092 95.0717 25.7599 95.0717H65.4685C89.2715 95.0717 87.8289 118.085 65.4685 118.809C43.1081 119.533 63.3046 147.92 43.8294 147.92H31.5672C1.99392 147.92 10.6496 219.591 31.5672 219.591H52.5284C67.676 219.591 74.1677 234.424 52.5284 234.424H25.7599C10.6127 234.424 7.00589 283.299 25.7599 283.299H114.11C133.585 283.299 121.413 307.084 143.052 307.084H234.445C258.37 307.084 359.239 307.447 377.001 307.084C394.764 306.721 383.641 283.299 402.376 283.299H446.141H490.358H509.653C540.669 283.299 534.177 234.424 509.653 234.424H465.436C436.584 234.424 436.584 219.591 465.436 219.591H509.653C534.177 219.591 528.407 185.566 509.653 185.566H465.436C445.239 185.566 450.288 170.363 465.436 170.363H500.81C512.35 170.363 516.678 147.196 500.81 147.196H445.739C432.034 147.196 432.034 137.061 445.739 137.061H475.887C494.641 137.061 498.969 114.795 475.887 114.795H452.171C432.695 114.795 434.138 82.6798 452.171 82.6798C470.203 82.6798 478.701 82.2278 478.701 73.4467C478.701 64.6657 469.482 64.6657 452.171 64.6657H420.013C396.931 64.6657 397.652 49.4627 420.013 49.4627H465.436C490.681 49.4627 497.895 19.7806 465.436 19.7806C432.977 19.7806 372.228 20.7101 340.824 19.7806C309.419 18.8511 328.156 -4.83374 287.763 -4.83374Z" fill="url(#paint0_linear_365_13379)"/>
<path d="M50.6709 255.499C50.6709 253.615 52.1986 252.087 54.0831 252.087H478.98C480.864 252.087 482.392 253.615 482.392 255.499C482.392 257.384 480.864 258.911 478.98 258.911H54.0831C52.1986 258.911 50.6709 257.384 50.6709 255.499Z" fill="#B3B3C0"/>
<path d="M413.857 234.822C414.848 241.846 414.75 245.597 413.857 252.084C416.742 252.841 418.332 252.759 421.092 250.879C421.032 244.112 421.545 240.61 423.303 234.822C419.744 235.711 417.687 235.819 413.857 234.822Z" fill="#EBBE8E"/>
<path d="M399.184 254.09H392.551C392.141 246.408 392.687 241.971 390.742 233.416H399.787C399.368 241.766 398.797 246.277 399.184 254.09Z" fill="#EBBE8E"/>
<path d="M387.526 196.688C387.325 183.842 393.556 144.902 393.556 144.902C394.862 148.196 425.312 144.902 425.312 144.902C425.513 146.106 415.702 159.858 410.64 176.014C405.578 192.169 405.816 211.538 405.816 211.538V240.04C396.751 242.27 393.83 241.835 386.119 240.04C386.119 240.04 387.727 209.534 387.526 196.688Z" fill="url(#paint1_linear_365_13379)"/>
<path d="M426.517 183.236C427.12 169.986 426.116 144.501 424.91 145.103C423.704 145.705 414.554 149.016 408.429 148.515C408.429 148.515 408.228 177.215 407.424 187.251C406.62 197.287 408.228 240.04 408.228 240.04C415.865 241.047 418.679 240.645 426.115 238.635C426.115 238.635 426.115 228.194 425.512 218.362C424.91 208.53 425.915 196.487 426.517 183.236Z" fill="url(#paint2_linear_365_13379)"/>
<path d="M412.448 249.674C412.448 249.674 411.845 246.262 413.654 245.66C415.463 245.057 413.454 249.473 416.669 249.674C419.885 249.875 420.287 244.057 421.895 244.86C423.503 245.663 422.899 249.476 424.106 251.283C425.312 253.089 426.919 255.099 428.728 255.899C430.538 256.699 434.356 262.122 430.939 263.326C427.522 264.53 417.875 258.907 417.875 258.907C417.875 258.907 411.311 257.906 410.439 255.294C409.567 252.682 412.448 249.674 412.448 249.674Z" fill="url(#paint3_linear_365_13379)"/>
<path d="M401.395 251.083C400.792 249.276 401.194 248.072 399.988 246.065C398.782 244.058 397.777 251.083 396.169 250.28C394.561 249.477 393.355 242.853 391.747 243.857C390.14 244.861 391.145 248.875 388.733 251.083C386.321 253.291 385.517 255.298 382.703 256.502C379.889 257.707 378.08 261.119 379.889 262.925C381.698 264.732 393.556 260.52 395.767 258.911C397.978 257.302 402.199 258.506 403.204 256.502C404.209 254.498 401.998 252.889 401.395 251.083Z" fill="url(#paint4_linear_365_13379)"/>
<path d="M395.767 110.579C395.767 110.579 402.198 90.9083 398.379 89.3026C394.561 87.6968 389.737 93.3139 388.33 97.7297C386.923 102.146 379.085 127.038 378.281 131.654C377.477 136.271 377.477 142.092 379.688 143.095C381.898 144.099 384.712 142.292 385.918 139.884C387.124 137.475 395.767 110.579 395.767 110.579Z" fill="url(#paint5_linear_365_13379)"/>
<path d="M376.687 115.895C376.614 119.874 377.747 121.954 379.478 125.669L374.377 128.705C373.584 124.236 373.21 123.13 371.767 117.845C371.767 117.845 370.527 116.882 369.522 113.566C368.517 110.249 367.497 105.115 368.232 102.804C368.967 100.492 369.451 98.1596 371.223 97.7455C372.996 97.3314 374.328 99.6008 374.328 99.6008C374.328 99.6008 378.549 107.789 377.71 110.921C376.871 114.054 376.687 115.895 376.687 115.895Z" fill="#EBBE8E"/>
<path d="M379.085 120.21C377.128 122.42 370.643 122.418 370.643 122.418C370.643 122.418 372.854 136.468 375.668 140.081C378.482 143.694 382.501 144.297 384.31 141.286C386.119 138.275 383.305 132.856 383.305 132.856L379.085 120.21Z" fill="url(#paint6_linear_365_13379)"/>
<path d="M420.085 86.8908C416.266 85.2851 405.815 85.4945 402.599 86.8908L402.572 86.9027C399.367 88.294 396.562 89.5121 393.957 93.7152C391.344 97.9303 389.938 123.622 391.947 130.246C393.956 136.87 393.555 145.099 393.555 145.099C399.384 149.917 420.086 149.114 425.311 145.099C425.311 145.099 425.501 138.187 426.517 133.658C429.934 118.425 430.335 98.7332 428.125 93.7152C425.914 88.6972 423.904 88.4965 420.085 86.8908Z" fill="url(#paint7_linear_365_13379)"/>
<path d="M423.704 103.35C421.493 100.74 418.679 93.5144 422.9 90.5036C427.121 87.4928 430.336 91.1058 433.15 93.5144C435.964 95.923 447.823 106.966 453.048 112.786C458.274 118.607 461.691 123.915 456.063 127.038C450.434 130.16 443.602 120.815 440.386 118.607C437.17 116.399 425.915 105.959 423.704 103.35Z" fill="url(#paint8_linear_365_13379)"/>
<path d="M396.169 87.0947C392.752 88.299 392.953 90.7076 392.953 93.9191C392.953 97.1307 391.345 107.97 391.345 107.97C391.345 107.97 390.541 134.464 392.551 132.658C394.561 130.851 393.757 115.998 395.767 107.167C397.776 98.3351 403.616 89.0004 403.806 86.6932C403.997 84.3859 399.586 85.8904 396.169 87.0947Z" fill="url(#paint9_linear_365_13379)"/>
<path d="M425.513 86.2916C423.704 85.6864 417.273 84.8865 419.483 87.4958C421.694 90.1051 418.478 94.3203 421.292 104.758C424.106 115.195 426.7 129.019 426.116 134.063C425.532 139.106 431.744 114.192 428.729 106.765C425.714 99.3383 424.709 94.7218 426.92 91.9117C429.131 89.1017 427.322 86.8967 425.513 86.2916Z" fill="url(#paint10_linear_365_13379)"/>
<path d="M428.326 124.827C432.172 125.348 433.954 125.83 437.371 125.83V120.009C433.298 120.101 430.97 119.951 426.316 118.604C426.316 118.604 421.693 117.802 417.272 117.4C412.85 116.999 408.83 119.207 407.825 121.414C406.821 123.622 413.051 126.432 416.87 126.432C420.689 126.432 428.326 124.827 428.326 124.827Z" fill="#EBBE8E"/>
<path d="M432.346 127.035C433.116 125.673 433.208 119.692 432.346 118.203C431.483 116.714 448.993 117.182 453.65 118.203C458.308 119.224 459.278 120.21 459.278 124.024C459.278 127.838 457.268 129.042 453.65 129.042C450.033 129.042 431.575 128.396 432.346 127.035Z" fill="url(#paint11_linear_365_13379)"/>
<path d="M407.213 78.1249C406.549 82.6405 406.342 84.0514 404.637 87.4694C404.283 88.1792 404.476 89.0513 405.132 89.4959C409.635 92.5431 412.871 92.7806 418.034 89.4108C418.655 89.0049 418.884 88.2109 418.615 87.519C417.498 84.65 417.114 83.1097 417.071 78.0588H407.223L407.213 78.1249Z" fill="#EBBE8E"/>
<path d="M402.198 63.6076C402.917 57.3853 406.218 49.5573 415.464 51.3638C424.709 53.1702 425.312 63.6076 423.704 68.4249C422.096 73.2421 417.674 81.2709 410.439 81.2709C403.203 81.2709 401.479 69.8299 402.198 63.6076Z" fill="#F5CAAA"/>
<path d="M416.669 60.3993C417.875 58.3921 421.091 55.1806 420.89 52.9727C420.689 50.7648 417.875 49.7613 414.056 49.7612C410.238 49.7612 403.909 52.6062 401.796 57.3886C399.683 62.1709 400.591 71.0375 402.801 74.4497C402.801 74.4497 406.091 80.0953 406.62 82.077L407.022 80.2705C404.811 76.4569 404.014 74.0483 403.806 71.4389C403.598 68.8296 403.404 65.4174 405.816 65.0159C408.228 64.6145 406.419 62.0052 411.042 60.8008C415.664 59.5964 416.669 60.3993 416.669 60.3993Z" fill="#54546E"/>
<path d="M416.268 59.7972C417.625 55.8449 418.076 51.7684 421.091 51.969C424.106 52.1697 425.111 55.7828 426.317 59.3957C427.523 63.0087 426.317 69.0303 424.508 71.8403C422.699 74.6504 417.072 80.6719 417.072 80.6719L416.871 79.0662C416.871 79.0662 417.072 77.2848 418.478 76.0554C419.885 74.826 422.498 68.8295 421.091 68.8295C419.684 68.8295 419.282 73.2454 418.076 71.8403C416.871 70.4353 419.684 66.6216 418.478 64.213L416.268 59.7972Z" fill="#54546E"/>
<path d="M276.58 40.7291C274.019 44.9248 272.184 46.9783 268.541 50.3636L274.57 53.5752C276.669 49.4027 278.456 47.4556 282.208 44.3421L286.831 40.7291C286.831 40.7291 295.674 34.7076 295.674 31.0946C295.674 27.4817 296.478 29.0874 295.674 26.6788C294.87 24.2702 292.257 26.0766 289.242 26.4781C286.228 26.8795 283.012 32.7004 280.198 32.7004C277.384 32.7004 276.58 40.7291 276.58 40.7291Z" fill="#EBBE8E"/>
<path d="M143.728 44.3425C145.135 45.1454 151.968 53.1742 151.968 53.1742L156.993 48.3569C156.993 48.3569 148.351 41.7332 148.552 40.3281C148.752 38.9231 146.341 32.2993 144.331 32.2993C142.321 32.2994 141.115 30.2921 139.306 27.8835C137.497 25.4749 134.683 24.4712 133.075 25.2741C131.468 26.077 130.865 30.0914 131.066 31.4965C131.267 32.9016 134.884 38.5217 135.889 40.3281C136.894 42.1346 142.321 43.5397 143.728 44.3425Z" fill="#EBBE8E"/>
<path d="M197.793 87.0954C198.784 83.0144 203.421 82.2782 206.838 81.0739C210.255 79.8696 216.083 79.8695 218.696 80.4717C221.309 81.0739 228.544 83.8839 228.142 84.6868C227.74 85.4897 232.888 108.358 233.971 108.372C234.345 125.038 233.555 131.097 231.961 141.29C221.848 144.968 215.086 145.458 201.009 143.297C197.204 129.732 195.249 122.098 192.367 108.372C193.358 109.241 196.803 91.1764 197.793 87.0954Z" fill="url(#paint12_linear_365_13379)"/>
<path d="M233.77 108.773C230.896 99.581 227.54 94.3216 227.54 84.6871C238.919 74.0476 246.409 68.1021 256.482 56.9879C261.805 49.8651 265.891 47.0444 273.365 41.5325C276.442 46.3295 275.877 46.202 280.4 48.7584C273.365 56.9879 271.842 59.2218 265.124 66.0202C253.987 82.3983 247.015 93.4272 233.77 108.773Z" fill="url(#paint13_linear_365_13379)"/>
<path d="M192.568 108.572C196.99 102.952 197.324 94.9191 199 84.6869C187.531 77.0623 181.372 71.1531 170.459 60.1991C163.805 53.1178 161.616 49.3603 154.179 42.9373C151.211 46.9767 150.053 47.1174 146.341 49.3603L161.616 69.4322C173.357 85.6733 180.188 94.9832 192.568 108.572Z" fill="url(#paint14_linear_365_13379)"/>
<path d="M206.838 72.242C207.078 76.7038 207.438 78.6941 206.362 81.8887C206.079 82.727 206.296 83.6766 207.006 84.2037C211.072 87.2193 213.928 87.2776 218.369 84.2461C219.158 83.7073 219.393 82.6666 219.029 81.7828C217.703 78.5605 217.605 76.2946 217.089 71.8406L206.838 72.242Z" fill="#EBBE8E"/>
<path d="M200.406 62.2067C198.798 58.393 200.808 46.3499 210.455 46.3499C220.103 46.3498 222.917 56.5865 221.912 59.3966C220.907 62.2067 218.696 76.3 212.063 76.4577C205.431 76.6155 202.014 66.0203 200.406 62.2067Z" fill="#F5CAAA"/>
<path d="M213.471 54.3788C213.471 54.3788 215.48 49.9631 215.48 47.5544C215.48 45.1458 212.667 45.1458 210.456 45.1458H210.456C208.245 45.1458 204.828 45.9486 203.019 47.5543C201.21 49.16 198.397 52.3716 198.397 57.5903C198.397 62.809 200.809 67.827 200.809 67.827L207.039 76.4579L207.039 74.25C207.039 74.25 200.406 65.6191 201.813 62.809C203.22 59.999 203.421 64.2141 203.421 64.2141C203.421 64.2141 203.622 67.6263 204.627 67.2249C205.632 66.8234 204.024 63.6119 204.024 61.8054C204.024 59.9989 203.823 59.1961 205.833 57.5903C207.843 55.9846 213.471 54.3788 213.471 54.3788Z" fill="#54546E"/>
<path d="M213.47 54.3779C213.47 54.3779 215.279 48.7578 215.279 47.152C215.279 45.5462 220.304 47.9549 221.711 51.5678C223.117 55.1808 224.324 59.998 222.917 63.0088C221.51 66.0196 217.49 75.2527 217.49 75.2527L217.088 73.0448L218.495 69.0304C218.495 69.0304 221.711 63.0088 220.505 61.8045C219.299 60.6002 219.5 66.0196 217.892 66.2203C216.284 66.421 219.299 57.5894 213.47 54.3779Z" fill="#54546E"/>
<path d="M212.666 230.007C212.152 235.294 212.102 238.498 212.666 244.86C209.485 247.519 207.81 247.86 205.029 246.265C205.105 240.457 204.794 236.929 203.421 230.007C207.174 230.993 209.182 230.902 212.666 230.007Z" fill="#EBBE8E"/>
<path d="M238.996 246.466C238.246 239.983 237.495 236.373 235.579 230.007C239.652 230.512 241.752 230.152 245.227 228.602C245.104 234.578 245.074 238.115 245.227 245.462C243.682 247.562 242.325 247.817 238.996 246.466Z" fill="#EBBE8E"/>
<path d="M196.789 202.509C195.784 192.875 201.009 143.096 201.009 143.096C214.274 145.103 221.309 144.702 231.961 141.089C231.961 141.089 242.011 191.67 243.819 198.896C245.628 206.122 248.643 234.022 248.643 234.022C243.169 235.507 239.575 235.727 232.564 235.427C232.564 235.427 226.133 208.531 224.927 202.509C223.721 196.487 219.098 171.398 219.098 171.398C219.098 171.398 217.49 197.09 216.887 202.509C216.284 207.928 216.887 237.233 216.887 237.233C209.867 238.148 205.51 237.833 196.789 235.427C196.789 235.427 197.793 212.144 196.789 202.509Z" fill="url(#paint15_linear_365_13379)"/>
<path d="M208.446 244.459C204.225 243.455 205.029 239.039 202.818 239.641C200.607 240.244 200.205 244.057 199.401 244.659C198.598 245.261 197.994 246.667 193.974 246.064C189.955 245.462 185.332 249.477 187.744 251.684C190.156 253.892 197.391 254.695 207.039 252.688C207.039 252.688 213.873 254.294 215.279 252.688C216.686 251.082 212.466 249.677 213.873 246.064C215.279 242.451 215.279 242.652 213.873 241.849C212.466 241.046 212.667 245.462 208.446 244.459Z" fill="url(#paint16_linear_365_13379)"/>
<path d="M242.211 245.261C240.201 245.261 238.392 240.846 237.387 241.648C236.382 242.451 236.181 244.258 237.387 246.466C238.593 248.674 235.176 249.476 236.382 252.086C237.588 254.695 247.436 252.086 247.436 252.086C247.436 252.086 262.309 254.494 263.515 250.681C264.721 246.867 259.697 245.261 257.687 245.261C255.677 245.261 253.466 245.261 251.456 243.856C249.446 242.451 249.044 240.243 247.436 239.441C245.828 238.638 244.22 245.261 242.211 245.261Z" fill="url(#paint17_linear_365_13379)"/>
<path d="M112.173 94.5212C110.565 95.1234 106.144 96.127 106.144 96.127L99.9131 119.611C105.877 137.834 108.04 146.129 110.967 162.364C123.961 161.477 130.294 158.653 140.111 150.321C138.727 141.514 137.837 134.353 138.302 125.231C129.659 109.977 134.081 98.7363 134.081 98.7363C134.081 98.7363 129.257 95.5248 126.845 95.1234C124.434 94.722 113.781 93.919 112.173 94.5212Z" fill="url(#paint18_linear_365_13379)"/>
<path d="M81.6234 28.0837C82.4664 31.7155 83.2772 33.7019 85.4421 37.1161C83.3248 38.9543 81.7717 39.3995 78.2066 38.9226C77.8956 35.0805 77.4943 32.9721 76.3977 29.288C76.3977 29.288 74.4857 27.1918 73.1819 26.6787C71.8781 26.1655 68.3035 20.4564 68.5592 17.6463C68.8149 14.8362 67.7553 12.2269 68.1573 10.6211C68.5593 9.01538 69.7649 7.00817 71.1719 6.80745C72.5788 6.60673 74.1867 8.21254 74.9906 9.21614C75.7946 10.2197 76.3979 15.6392 78.2066 15.6392C80.0153 15.6392 81.6234 24.8722 81.6234 24.8722V28.0837Z" fill="#EBBE8E"/>
<path d="M177.58 127.129L169.572 131.328L171.095 138.283C171.095 138.283 180.607 131.073 182.854 131.028C185.101 130.983 188.301 130.076 188.301 130.076C188.301 130.076 196.347 126.899 198.293 126.196C200.239 125.493 200.155 122.227 199.093 121.242C198.031 120.258 187.617 119.19 184.551 120.526C181.485 121.862 177.58 127.129 177.58 127.129Z" fill="#EBBE8E"/>
<path d="M132.272 113.188C131.107 103.994 131.236 101.994 132.272 97.7329C132.272 97.7329 136.493 99.5394 139.307 103.554C142.121 107.568 159.065 133.18 160.611 132.257C165.435 131.052 168.048 130.651 173.474 128.844C174.273 133.312 174.507 133.683 178.097 138.68C169.537 143.063 165.764 145.848 159.004 146.508C149.697 139.006 145.688 133.173 138.503 125.633C135.06 122.02 133.784 118.694 132.272 113.188Z" fill="url(#paint19_linear_365_13379)"/>
<path d="M95.4912 64.6146C100.302 76.6478 102.8 83.4894 106.345 96.1275C105.231 106.94 103.692 111.922 100.114 119.812C93.1874 101.344 90.2396 89.9483 85.4418 69.6326C80.7904 56.8019 78.8259 49.533 75.7944 36.5139C79.834 36.6402 81.9883 36.1678 85.4418 33.9045C89.8148 45.4638 92.1311 52.0745 95.4912 64.6146Z" fill="url(#paint20_linear_365_13379)"/>
<path d="M112.575 86.2919C112.988 89.631 113.074 91.7362 112.877 94.1116C112.744 95.7297 113.367 97.3703 114.758 98.2085C118.523 100.478 121.099 100.258 125.366 97.3473C125.87 97.0033 126.015 96.3285 125.739 95.7843C123.656 91.6828 123.565 88.7853 122.826 83.8833L112.575 86.2919Z" fill="#EBBE8E"/>
<path d="M105.741 75.2521C104.937 73.4457 105.741 61.2979 114.384 60.3989C123.027 59.4999 127.046 70.0334 126.845 72.8435C126.644 75.6535 125.84 88.2989 117.801 89.3025C109.761 90.3061 106.545 77.0586 105.741 75.2521Z" fill="#F5CAAA"/>
<path d="M117.6 67.0225C115.926 61.8889 116.105 61.037 115.992 56.3844C115.992 56.3844 111.168 55.1801 108.556 56.3844C105.943 57.5887 105.139 62.2053 104.536 63.6103C103.933 65.0153 100.516 64.8146 99.511 67.0225C98.5061 69.2304 100.114 71.2376 100.114 73.4455C100.114 75.6533 98.5062 76.657 96.6973 78.4635C94.8884 80.27 99.5112 83.6823 96.6974 85.6894C93.8836 87.6966 100.115 88.9009 99.5112 91.5103C98.9079 94.1196 104.536 90.5066 104.536 94.9225C104.536 99.3383 112.977 95.3239 112.977 95.3239C113.251 93.1325 114.292 91.5832 112.575 87.6966C110.364 85.6894 110.146 84.8505 108.556 81.0729C108.556 81.0729 107.952 78.0621 109.359 77.0585C110.766 76.0549 108.556 75.4529 109.359 74.4492C110.163 73.4455 109.158 71.4383 110.364 70.2341C111.57 69.0298 114.183 70.4348 114.786 67.8254C115.389 65.2161 117.6 67.0225 117.6 67.0225Z" fill="#E67A73"/>
<path d="M120.615 68.4277C119.007 69.2306 117.6 67.0227 117.6 67.0227C116.247 62.5665 114.124 60.6623 114.585 56.9866C114.585 56.9866 117.6 54.9795 120.615 55.5817C123.63 56.1838 123.429 58.3918 124.233 59.3954C125.037 60.399 128.051 59.1947 129.458 60.5997C130.865 62.0047 130.463 63.6105 131.066 65.417C131.669 67.2234 133.679 68.8292 134.483 71.6393C135.287 74.4493 134.282 75.2522 133.88 77.2594C133.478 79.2666 137.498 80.2701 138.101 82.2773C138.704 84.2845 137.498 84.8867 136.895 86.091C136.292 87.2953 138.704 88.0981 137.297 89.9046C135.89 91.7111 134.081 89.3025 132.674 89.9046C131.267 90.5068 130.664 91.5104 129.458 92.9154C128.252 94.3204 124.434 93.3168 124.434 93.3168C123.273 90.2651 123.336 89.5534 123.027 86.4925C123.689 83.7694 124.635 81.8759 125.238 80.0695C125.841 78.263 123.831 77.2594 122.826 75.8544C121.821 74.4493 124.635 72.2414 122.826 71.6393C121.017 71.0371 122.223 67.6249 120.615 68.4277Z" fill="#E67A73"/>
<path d="M126.242 229.806C129.608 239.655 130.452 246.368 132.674 256.702H140.312C140.312 256.702 139.709 255.297 139.106 249.878C138.503 244.458 139.709 229.806 139.709 229.806H126.242Z" fill="#EBBE8E"/>
<path d="M164.362 249.756L164.43 249.878L170.46 247.47C166.214 236.679 164.533 231.13 162.018 221.577L151.165 227.598C155.961 234.653 158.993 240.103 164.362 249.756Z" fill="#EBBE8E"/>
<path d="M115.188 207.527C111.771 198.896 110.967 161.964 110.967 161.964C120.615 161.964 130.061 159.153 140.11 149.92C140.11 149.92 143.326 154.738 145.939 161.964C148.552 169.189 153.175 182.838 153.778 189.061C154.381 195.283 166.641 225.993 166.641 225.993C166.641 225.993 157.797 232.015 151.366 232.215C144.934 232.416 146.944 234.022 140.713 236.029C134.483 238.036 121.419 234.825 121.419 234.825C121.419 234.825 118.605 216.158 115.188 207.527Z" fill="url(#paint21_linear_365_13379)"/>
<path d="M135.086 254.294C131.267 252.287 131.468 249.276 129.458 250.279C127.448 251.283 129.056 257.305 129.056 257.305C129.056 257.305 125.037 260.315 122.223 259.312C119.409 258.308 115.389 262.122 116.193 263.928C116.998 265.735 122.223 267.341 126.242 266.939C130.262 266.538 133.277 263.125 136.694 263.928C140.111 264.731 143.326 263.326 144.934 262.122C146.542 260.918 144.733 257.907 142.723 256.301C140.714 254.695 141.719 252.287 140.513 251.484C139.307 250.681 138.905 256.301 135.086 254.294Z" fill="url(#paint22_linear_365_13379)"/>
<path d="M161.816 250.28C162.821 247.67 160.61 248.072 161.012 246.065C161.414 244.057 163.223 249.276 165.031 247.871C166.84 246.466 165.835 239.039 169.252 240.645C172.669 242.251 171.061 242.853 172.669 246.065C174.277 249.276 176.287 252.889 179.905 252.889C183.522 252.889 187.542 258.309 186.135 260.115C184.728 261.921 181.914 262.323 177.694 261.119C173.473 259.914 173.473 257.305 169.252 258.309C165.032 259.312 163.223 258.71 161.816 256.903C160.409 255.097 160.811 252.889 161.816 250.28Z" fill="url(#paint23_linear_365_13379)"/>
<path d="M312.96 82.8805C312.357 86.6941 319.19 91.7121 319.19 92.7157C311.725 87.7091 309.744 84.6869 299.895 86.2927C299.895 86.2927 291.052 85.8912 285.826 91.3107C280.601 96.7301 286.429 100.544 283.213 106.967C279.998 113.39 278.792 129.247 277.385 127.44C277.385 127.44 277.786 116.401 271.757 115.196C265.727 113.992 267.335 98.3359 269.747 94.1207C272.159 89.9056 273.164 86.092 277.988 82.2783C282.811 78.4646 276.38 66.4215 279.194 60.1992C282.007 53.9769 286.63 46.1488 296.881 46.5502C307.131 46.9517 310.347 55.984 310.347 55.984C312.089 59.8646 309.342 62.8085 313.964 68.228C318.587 73.6474 313.963 76.5361 312.96 82.8805Z" fill="#414167"/>
<path d="M280.6 164.649C280.69 161.477 280.722 155.655 280.839 151.548L286.467 151.566C286.34 156.015 285.161 162.77 286.154 165.247C287.148 167.724 287.073 169.963 286.293 171.813C285.513 173.662 285.128 175.762 285.384 178.175C285.641 180.589 281.419 179.839 280.219 178.029C279.019 176.219 278.04 174.6 278.452 171.59C278.863 168.581 280.6 164.649 280.6 164.649Z" fill="#EBBE8E"/>
<path d="M340.605 101.351C338.71 106.677 338.169 109.261 336.951 113.216L342.284 115.109C342.434 112.303 343.881 108.813 345.938 103.243C345.938 103.243 347.103 100.269 349.873 97.4015C352.642 94.5341 352.014 87.0639 350.917 84.9954C349.82 82.9269 347.494 85.0354 345.634 85.9412C343.774 86.8471 341.731 91.5832 340.725 95.3486C339.718 99.114 340.605 101.351 340.605 101.351Z" fill="#EBBE8E"/>
<path d="M317.985 110.78C314.367 104.759 309.744 89.2532 313.965 88.5005C318.186 87.7478 322.808 94.7228 325.22 97.7336C327.632 100.744 339.49 125.031 339.49 125.031C339.49 125.031 343.51 131.454 338.284 134.465C333.059 137.476 329.441 129.849 329.441 129.849C329.441 129.849 321.603 116.802 317.985 110.78Z" fill="url(#paint24_linear_365_13379)"/>
<path d="M336.877 105.762C336.877 105.762 331.651 120.615 330.244 124.027C328.838 127.439 329.441 132.257 333.259 134.465C337.078 136.672 340.897 132.056 340.897 132.056C343.519 121.773 344.917 116.601 346.122 108.773C342.09 108.492 341.617 108.784 336.877 105.762Z" fill="url(#paint25_linear_365_13379)"/>
<path d="M279.504 103.803C279.664 98.1855 281.668 93.1174 285.625 90.9095C289.582 88.7016 292.112 98.1387 291.856 107.167C291.599 116.196 289.154 116.337 289.017 121.152C288.88 125.968 287.497 160.466 287.497 160.466C282.931 159 282.34 159.721 277.499 160.183C277.829 148.546 278.217 134.902 278.389 128.883C278.56 122.864 279.344 109.421 279.504 103.803Z" fill="url(#paint26_linear_365_13379)"/>
<path d="M284.42 91.9126C287.032 89.7047 292.459 85.891 292.459 85.891C297.282 84.8875 299.895 84.8874 305.724 84.8875L315.975 88.7011C315.571 93.3549 316.594 98.8942 319.391 112.587C317.597 123.589 320.874 138.658 322.607 139.082C322.607 139.082 323.625 141.268 319.391 146.107C315.158 150.945 291.199 154.924 291.052 150.322C290.906 145.719 290.276 120.556 288.841 120.615C288.994 97.6991 282.799 92.3931 284.42 91.9126Z" fill="url(#paint27_linear_365_13379)"/>
<path d="M291.253 75.655C292.924 80.2729 293.181 82.1652 292.696 86.2869C292.569 87.3599 293.14 88.4114 294.149 88.7955C298.449 90.4308 301.299 90.3305 305.064 87.8809C306.052 87.2382 306.32 85.9317 305.766 84.8912C303.953 81.483 303.162 79.808 302.307 75.655H291.253Z" fill="#EBBE8E"/>
<path d="M285.626 69.4327C284.018 65.4184 284.42 53.3591 293.263 51.7694C302.107 50.1798 304.92 60.4003 305.725 63.8125C306.529 67.2248 304.116 79.8701 298.087 80.2715C292.057 80.673 287.234 73.4471 285.626 69.4327Z" fill="#F5CAAA"/>
<path d="M295.675 57.7907C298.288 54.9807 297.484 49.762 297.484 49.762C290.65 50.3641 288.439 51.3677 284.42 57.3893C280.4 63.4109 279.395 70.2353 283.013 72.2425C286.63 74.2497 289.042 79.8699 289.042 79.8699C289.042 79.8699 287.635 72.2425 289.042 67.2245C290.449 62.2066 293.062 60.6008 295.675 57.7907Z" fill="#414167"/>
<path d="M295.675 57.5903C296.916 54.8037 297.215 53.5763 296.881 49.7622C296.881 49.7622 303.916 51.368 306.729 59.196C309.543 67.0241 305.121 77.06 305.121 77.06C305.121 77.06 305.523 66.938 301.906 64.6154C298.288 62.2928 295.675 57.5903 295.675 57.5903Z" fill="#414167"/>
<path d="M312.357 234.423C311.553 239.04 312.678 247.711 312.357 248.674C308.495 250.118 306.828 249.932 304.317 248.674C305.735 248.498 299.186 209.623 297.082 202.107C294.977 194.591 297.082 194.279 297.082 194.279H309.945C309.945 194.279 312.357 209.534 312.357 212.143C312.357 214.753 313.161 229.807 312.357 234.423Z" fill="#EBBE8E"/>
<path d="M336.676 246.868H329.039C329.039 246.868 320.999 223.183 319.592 216.559C318.185 209.935 317.18 201.505 317.18 201.505L315.974 193.075H329.642C329.642 193.075 329.441 201.505 330.445 207.727C331.45 213.95 336.676 246.868 336.676 246.868Z" fill="#EBBE8E"/>
<path d="M290.65 149.118C288.717 166.543 287.936 177.879 287.836 197.491C293.899 197.893 297.014 198.491 301.905 200.502C307.271 201.313 309.342 199.498 314.567 198.896C314.567 198.896 320.798 201.104 324.617 200.502C328.435 199.9 338.686 194.079 338.686 194.079C338.686 194.079 332.455 188.057 331.249 180.63C330.043 173.204 322.205 141.49 322.205 141.49C313.964 149.118 304.92 151.325 290.65 149.118Z" fill="url(#paint28_linear_365_13379)"/>
<path d="M316.175 247.871C315.17 245.262 316.175 244.259 313.361 242.653C310.547 241.047 312.96 248.474 308.739 247.269C304.518 246.065 305.925 239.241 303.312 240.244C300.699 241.248 303.513 245.463 300.096 246.667C296.679 247.871 295.674 248.072 293.263 249.477C290.851 250.882 286.429 250.481 287.032 254.094C287.635 257.707 305.121 256.101 306.93 255.097C308.739 254.094 316.175 256.302 318.185 254.094C320.195 251.886 317.18 250.481 316.175 247.871Z" fill="url(#paint29_linear_365_13379)"/>
<path d="M325.42 245.864C327.832 243.857 324.214 240.043 326.224 239.04C328.234 238.036 327.43 243.054 331.249 243.255C335.068 243.455 335.269 236.029 337.479 238.036C339.69 240.043 338.484 243.455 339.088 245.864C339.691 248.273 345.117 249.878 345.921 252.488C346.725 255.097 348.132 257.907 345.117 258.71C342.103 259.513 334.666 257.907 332.857 255.298C331.048 252.688 325.42 252.488 324.013 250.681C322.606 248.875 323.008 247.871 325.42 245.864Z" fill="url(#paint30_linear_365_13379)"/>
<path d="M188.548 130.049C188.548 130.049 258.894 150.707 310.347 149.719C361.8 148.731 415.865 126.636 415.865 126.636" stroke="#B3B3C0" stroke-width="0.80395" stroke-linecap="round"/>
<path d="M191.088 170.377C189.993 153.075 190.178 146.855 190.655 130.805C202.639 137.466 209.057 139.39 219.783 138.495C219.605 144.514 218.632 159.68 219.783 177.82C208.988 178.481 201.953 177.213 191.088 170.377Z" fill="url(#paint31_linear_365_13379)"/>
<path d="M200.737 162.769L197.69 151.097L199.988 151.165L201.922 159.185L204.327 151.31L206.626 151.362L208.559 159.382L210.965 151.49L213.263 151.558L209.529 163.03L207.375 162.966L205.365 155.089L202.891 162.833L200.737 162.769Z" fill="#D14137"/>
<path d="M222.018 177.532C222.401 158.921 222.419 154.407 221.618 138.536C234.144 144.617 240.865 145.936 252.919 145.045C251.858 161.912 252.056 166.103 251.391 182.347C239.341 183.712 232.69 183.602 222.018 177.532Z" fill="url(#paint32_linear_365_13379)"/>
<path d="M232.77 168.267L233.244 156.7L240.795 157.008L240.711 159.048L235.345 158.829L235.244 161.303L239.646 161.483L239.562 163.523L235.16 163.344L235.039 166.316L240.405 166.535L240.321 168.575L232.77 168.267Z" fill="#D14137"/>
<path d="M254.408 181.567C256.123 165.899 256.062 160.919 254.56 145.238C265.84 151.562 275.087 150.808 286.098 149.383C286.037 163.835 284.491 169.015 285.949 184.91C275.279 187.616 266.054 187.911 254.408 181.567Z" fill="url(#paint33_linear_365_13379)"/>
<path d="M267.59 172.529L267.639 160.952L269.825 160.961L269.786 170.496L274.77 170.517L274.761 172.559L267.59 172.529Z" fill="#D14137"/>
<path d="M289.645 184.042C289.645 167.784 289.645 162.163 288.64 149.518C301.303 152.529 308.366 153.758 321.401 149.518C320.258 163.107 320.385 171.118 321.401 185.246C309.035 188.679 302.087 188.823 289.645 184.042Z" fill="url(#paint34_linear_365_13379)"/>
<path d="M305.99 176.394C304.833 176.394 303.833 176.142 302.992 175.638C302.156 175.134 301.51 174.43 301.054 173.524C300.604 172.618 300.379 171.565 300.379 170.364C300.379 169.164 300.604 168.111 301.054 167.205C301.51 166.299 302.156 165.594 302.992 165.09C303.833 164.587 304.833 164.335 305.99 164.335C307.32 164.335 308.434 164.664 309.335 165.324C310.241 165.983 310.878 166.875 311.248 168.001L309.045 168.612C308.831 167.91 308.469 167.366 307.96 166.98C307.451 166.589 306.794 166.393 305.99 166.393C305.256 166.393 304.642 166.556 304.149 166.883C303.662 167.21 303.295 167.671 303.048 168.266C302.801 168.861 302.678 169.56 302.678 170.364C302.678 171.168 302.801 171.868 303.048 172.463C303.295 173.058 303.662 173.519 304.149 173.845C304.642 174.172 305.256 174.336 305.99 174.336C306.794 174.336 307.451 174.14 307.96 173.749C308.469 173.358 308.831 172.814 309.045 172.117L311.248 172.728C310.878 173.854 310.241 174.746 309.335 175.405C308.434 176.064 307.32 176.394 305.99 176.394Z" fill="#D14137"/>
<path d="M322.406 185.447C322.406 174.408 323.841 162.998 322.406 149.318C335.992 151.562 342.316 148.727 353.157 145.303V181.031C340.481 184.98 335.609 188.225 322.406 185.447Z" fill="url(#paint35_linear_365_13379)"/>
<path d="M339.152 173.785C337.994 173.785 336.995 173.533 336.153 173.029C335.317 172.525 334.671 171.821 334.216 170.915C333.766 170.009 333.54 168.956 333.54 167.755C333.54 166.555 333.766 165.502 334.216 164.596C334.671 163.69 335.317 162.985 336.153 162.481C336.995 161.978 337.994 161.726 339.152 161.726C340.31 161.726 341.307 161.978 342.143 162.481C342.984 162.985 343.63 163.69 344.08 164.596C344.536 165.502 344.764 166.555 344.764 167.755C344.764 168.956 344.536 170.009 344.08 170.915C343.63 171.821 342.984 172.525 342.143 173.029C341.307 173.533 340.31 173.785 339.152 173.785ZM339.152 171.727C339.886 171.737 340.497 171.579 340.985 171.252C341.473 170.926 341.837 170.462 342.078 169.862C342.325 169.261 342.448 168.559 342.448 167.755C342.448 166.951 342.325 166.255 342.078 165.665C341.837 165.075 341.473 164.617 340.985 164.29C340.497 163.963 339.886 163.794 339.152 163.784C338.418 163.773 337.807 163.931 337.319 164.258C336.831 164.585 336.464 165.049 336.218 165.649C335.976 166.249 335.856 166.951 335.856 167.755C335.856 168.559 335.976 169.256 336.218 169.846C336.464 170.435 336.831 170.893 337.319 171.22C337.807 171.547 338.418 171.716 339.152 171.727Z" fill="#D14137"/>
<path d="M356.983 180.65C356.279 166.27 356.988 159.509 355.77 145.082C368.713 145.082 374.508 143.721 385.903 137.275V176.214C374.172 181.725 369.695 183.291 356.983 180.65Z" fill="url(#paint36_linear_365_13379)"/>
<path d="M366.342 168.526V156.949H368.304L372.131 164.635L375.958 156.949H377.919V168.526H375.877V161.612L372.517 168.526H371.745L368.384 161.612V168.526H366.342Z" fill="#D14137"/>
<path d="M388.732 175.812C389.507 159.835 391.049 154.456 388.732 137.874C400.281 139.404 404.827 133.738 415.453 126.837C416.864 142.939 416.75 152.577 415.453 170.524C404.982 174.249 399.129 175.295 388.732 175.812Z" fill="url(#paint37_linear_365_13379)"/>
<path d="M400.311 160.095V148.518H407.868V150.56H402.498V153.036H406.903V155.078H402.498V158.053H407.868V160.095H400.311Z" fill="#D14137"/>
<defs>
<linearGradient id="paint0_linear_365_13379" x1="243.948" y1="-4.83374" x2="243.887" y2="316.111" gradientUnits="userSpaceOnUse">
<stop stop-color="#EBEFFF"/>
<stop offset="0.541584" stop-color="#E9DFF2"/>
<stop offset="1" stop-color="#F9E7E9"/>
</linearGradient>
<linearGradient id="paint1_linear_365_13379" x1="386.448" y1="184.504" x2="421.738" y2="188.613" gradientUnits="userSpaceOnUse">
<stop offset="0.015625" stop-color="#184CD3"/>
<stop offset="0.635417" stop-color="#184CD3"/>
<stop offset="1" stop-color="#486FD5"/>
</linearGradient>
<linearGradient id="paint2_linear_365_13379" x1="407.362" y1="184.213" x2="425.095" y2="185.253" gradientUnits="userSpaceOnUse">
<stop offset="0.015625" stop-color="#184CD3"/>
<stop offset="0.635417" stop-color="#184CD3"/>
<stop offset="1" stop-color="#486FD5"/>
</linearGradient>
<linearGradient id="paint3_linear_365_13379" x1="421.293" y1="244.784" x2="421.293" y2="263.495" gradientUnits="userSpaceOnUse">
<stop stop-color="#E2EBFF"/>
<stop offset="1" stop-color="#C3CDE8"/>
</linearGradient>
<linearGradient id="paint4_linear_365_13379" x1="391.313" y1="243.754" x2="391.313" y2="263.367" gradientUnits="userSpaceOnUse">
<stop stop-color="#E2EBFF"/>
<stop offset="1" stop-color="#C3CDE8"/>
</linearGradient>
<linearGradient id="paint5_linear_365_13379" x1="377.79" y1="135.811" x2="405.704" y2="121.72" gradientUnits="userSpaceOnUse">
<stop stop-color="#2C60E7"/>
<stop offset="0.546875" stop-color="#4074FB"/>
<stop offset="1" stop-color="#95B2FF"/>
</linearGradient>
<linearGradient id="paint6_linear_365_13379" x1="370.643" y1="140.011" x2="384.888" y2="128.886" gradientUnits="userSpaceOnUse">
<stop stop-color="#2C60E7"/>
<stop offset="0.546875" stop-color="#4074FB"/>
<stop offset="1" stop-color="#95B2FF"/>
</linearGradient>
<linearGradient id="paint7_linear_365_13379" x1="412.046" y1="147.31" x2="416.63" y2="89.9496" gradientUnits="userSpaceOnUse">
<stop stop-color="#2C60E7"/>
<stop offset="0.546875" stop-color="#4074FB"/>
<stop offset="1" stop-color="#95B2FF"/>
</linearGradient>
<linearGradient id="paint8_linear_365_13379" x1="456.666" y1="122.822" x2="421.716" y2="109.377" gradientUnits="userSpaceOnUse">
<stop stop-color="#2C60E7"/>
<stop offset="0.546875" stop-color="#4074FB"/>
<stop offset="1" stop-color="#95B2FF"/>
</linearGradient>
<linearGradient id="paint9_linear_365_13379" x1="396.353" y1="86.1482" x2="396.37" y2="127.64" gradientUnits="userSpaceOnUse">
<stop stop-color="#E49D98"/>
<stop offset="1" stop-color="#876664"/>
</linearGradient>
<linearGradient id="paint10_linear_365_13379" x1="424.512" y1="85.8845" x2="424.512" y2="128.113" gradientUnits="userSpaceOnUse">
<stop stop-color="#E8A09B"/>
<stop offset="1" stop-color="#9B6A67"/>
</linearGradient>
<linearGradient id="paint11_linear_365_13379" x1="445.813" y1="139.282" x2="435.155" y2="138.427" gradientUnits="userSpaceOnUse">
<stop stop-color="#2C60E7"/>
<stop offset="0.546875" stop-color="#4074FB"/>
<stop offset="1" stop-color="#95B2FF"/>
</linearGradient>
<linearGradient id="paint12_linear_365_13379" x1="216.083" y1="144.501" x2="211.998" y2="85.849" gradientUnits="userSpaceOnUse">
<stop stop-color="#2C60E7"/>
<stop offset="0.546875" stop-color="#4074FB"/>
<stop offset="1" stop-color="#95B2FF"/>
</linearGradient>
<linearGradient id="paint13_linear_365_13379" x1="275.777" y1="86.6942" x2="243.909" y2="61.6943" gradientUnits="userSpaceOnUse">
<stop stop-color="#2C60E7"/>
<stop offset="0.546875" stop-color="#4074FB"/>
<stop offset="1" stop-color="#95B2FF"/>
</linearGradient>
<linearGradient id="paint14_linear_365_13379" x1="163.023" y1="94.3213" x2="179.982" y2="69.9643" gradientUnits="userSpaceOnUse">
<stop stop-color="#2C60E7"/>
<stop offset="0.546875" stop-color="#4074FB"/>
<stop offset="1" stop-color="#95B2FF"/>
</linearGradient>
<linearGradient id="paint15_linear_365_13379" x1="200.607" y1="171.799" x2="233.933" y2="165.275" gradientUnits="userSpaceOnUse">
<stop offset="0.015625" stop-color="#184CD3"/>
<stop offset="0.635417" stop-color="#184CD3"/>
<stop offset="1" stop-color="#486FD5"/>
</linearGradient>
<linearGradient id="paint16_linear_365_13379" x1="201.325" y1="239.585" x2="201.325" y2="253.838" gradientUnits="userSpaceOnUse">
<stop stop-color="#E2EBFF"/>
<stop offset="1" stop-color="#C3CDE8"/>
</linearGradient>
<linearGradient id="paint17_linear_365_13379" x1="249.91" y1="239.373" x2="249.91" y2="253.246" gradientUnits="userSpaceOnUse">
<stop stop-color="#E2EBFF"/>
<stop offset="1" stop-color="#C3CDE8"/>
</linearGradient>
<linearGradient id="paint18_linear_365_13379" x1="127.649" y1="156.744" x2="123.106" y2="97.5109" gradientUnits="userSpaceOnUse">
<stop stop-color="#2C60E7"/>
<stop offset="0.546875" stop-color="#4074FB"/>
<stop offset="1" stop-color="#95B2FF"/>
</linearGradient>
<linearGradient id="paint19_linear_365_13379" x1="131.468" y1="136.873" x2="120.196" y2="104.207" gradientUnits="userSpaceOnUse">
<stop stop-color="#2C60E7"/>
<stop offset="0.546875" stop-color="#4074FB"/>
<stop offset="1" stop-color="#95B2FF"/>
</linearGradient>
<linearGradient id="paint20_linear_365_13379" x1="65.1421" y1="110.379" x2="113.185" y2="89.4766" gradientUnits="userSpaceOnUse">
<stop stop-color="#2C60E7"/>
<stop offset="0.546875" stop-color="#4074FB"/>
<stop offset="1" stop-color="#95B2FF"/>
</linearGradient>
<linearGradient id="paint21_linear_365_13379" x1="109.761" y1="179.828" x2="143.27" y2="172.295" gradientUnits="userSpaceOnUse">
<stop offset="0.015625" stop-color="#184CD3"/>
<stop offset="0.635417" stop-color="#184CD3"/>
<stop offset="1" stop-color="#486FD5"/>
</linearGradient>
<linearGradient id="paint22_linear_365_13379" x1="130.821" y1="250.08" x2="130.821" y2="267.001" gradientUnits="userSpaceOnUse">
<stop stop-color="#E2EBFF"/>
<stop offset="1" stop-color="#C3CDE8"/>
</linearGradient>
<linearGradient id="paint23_linear_365_13379" x1="173.664" y1="240.419" x2="173.664" y2="261.807" gradientUnits="userSpaceOnUse">
<stop stop-color="#E2EBFF"/>
<stop offset="1" stop-color="#C3CDE8"/>
</linearGradient>
<linearGradient id="paint24_linear_365_13379" x1="338.485" y1="133.662" x2="315.585" y2="87.9914" gradientUnits="userSpaceOnUse">
<stop stop-color="#2C60E7"/>
<stop offset="0.546875" stop-color="#4074FB"/>
<stop offset="1" stop-color="#95B2FF"/>
</linearGradient>
<linearGradient id="paint25_linear_365_13379" x1="337.681" y1="134.866" x2="344.238" y2="108.963" gradientUnits="userSpaceOnUse">
<stop stop-color="#2C60E7"/>
<stop offset="0.546875" stop-color="#4074FB"/>
<stop offset="1" stop-color="#95B2FF"/>
</linearGradient>
<linearGradient id="paint26_linear_365_13379" x1="283.275" y1="153.318" x2="312.905" y2="137.206" gradientUnits="userSpaceOnUse">
<stop stop-color="#2C60E7"/>
<stop offset="0.546875" stop-color="#4074FB"/>
<stop offset="1" stop-color="#95B2FF"/>
</linearGradient>
<linearGradient id="paint27_linear_365_13379" x1="305.724" y1="148.716" x2="304.633" y2="85.2282" gradientUnits="userSpaceOnUse">
<stop stop-color="#2C60E7"/>
<stop offset="0.60789" stop-color="#4074FB"/>
<stop offset="1" stop-color="#95B2FF"/>
</linearGradient>
<linearGradient id="paint28_linear_365_13379" x1="288.263" y1="166.227" x2="323.727" y2="168.382" gradientUnits="userSpaceOnUse">
<stop offset="0.015625" stop-color="#184CD3"/>
<stop offset="0.635417" stop-color="#184CD3"/>
<stop offset="1" stop-color="#486FD5"/>
</linearGradient>
<linearGradient id="paint29_linear_365_13379" x1="302.919" y1="240.144" x2="302.919" y2="256.334" gradientUnits="userSpaceOnUse">
<stop stop-color="#E2EBFF"/>
<stop offset="1" stop-color="#C3CDE8"/>
</linearGradient>
<linearGradient id="paint30_linear_365_13379" x1="335.082" y1="237.691" x2="335.082" y2="258.918" gradientUnits="userSpaceOnUse">
<stop stop-color="#E2EBFF"/>
<stop offset="1" stop-color="#C3CDE8"/>
</linearGradient>
<linearGradient id="paint31_linear_365_13379" x1="205.903" y1="131.256" x2="204.453" y2="179.503" gradientUnits="userSpaceOnUse">
<stop stop-color="#FBFBFB"/>
<stop offset="1" stop-color="#DDDDE1"/>
</linearGradient>
<linearGradient id="paint32_linear_365_13379" x1="237.375" y1="139.179" x2="235.502" y2="184.57" gradientUnits="userSpaceOnUse">
<stop stop-color="#FBFBFB"/>
<stop offset="1" stop-color="#DDDDE1"/>
</linearGradient>
<linearGradient id="paint33_linear_365_13379" x1="270.337" y1="145.303" x2="270.141" y2="188.341" gradientUnits="userSpaceOnUse">
<stop stop-color="#FBFBFB"/>
<stop offset="1" stop-color="#DDDDE1"/>
</linearGradient>
<linearGradient id="paint34_linear_365_13379" x1="305.021" y1="149.518" x2="305.007" y2="189.234" gradientUnits="userSpaceOnUse">
<stop stop-color="#FBFBFB"/>
<stop offset="1" stop-color="#DDDDE1"/>
</linearGradient>
<linearGradient id="paint35_linear_365_13379" x1="337.782" y1="145.303" x2="337.764" y2="188.099" gradientUnits="userSpaceOnUse">
<stop stop-color="#FBFBFB"/>
<stop offset="1" stop-color="#DDDDE1"/>
</linearGradient>
<linearGradient id="paint36_linear_365_13379" x1="370.837" y1="137.275" x2="370.816" y2="183.65" gradientUnits="userSpaceOnUse">
<stop stop-color="#FBFBFB"/>
<stop offset="1" stop-color="#DDDDE1"/>
</linearGradient>
<linearGradient id="paint37_linear_365_13379" x1="402.601" y1="126.837" x2="402.574" y2="177.731" gradientUnits="userSpaceOnUse">
<stop stop-color="#FBFBFB"/>
<stop offset="1" stop-color="#DDDDE1"/>
</linearGradient>
</defs>
</svg>
